<?xml version="1.0" encoding="utf-8" standalone="no"?>
<!DOCTYPE svg PUBLIC "-//W3C//DTD SVG 1.1//EN"
  "http://www.w3.org/Graphics/SVG/1.1/DTD/svg11.dtd">
<svg xmlns:xlink="http://www.w3.org/1999/xlink" width="506.359375pt" height="283.360313pt" viewBox="0 0 506.359375 283.360313" xmlns="http://www.w3.org/2000/svg" version="1.1">
 <metadata>
  <rdf:RDF xmlns:dc="http://purl.org/dc/elements/1.1/" xmlns:cc="http://creativecommons.org/ns#" xmlns:rdf="http://www.w3.org/1999/02/22-rdf-syntax-ns#">
   <cc:Work>
    <dc:type rdf:resource="http://purl.org/dc/dcmitype/StillImage"/>
    <dc:date>2024-10-01T00:41:32.403302</dc:date>
    <dc:format>image/svg+xml</dc:format>
    <dc:creator>
     <cc:Agent>
      <dc:title>Matplotlib v3.8.4, https://matplotlib.org/</dc:title>
     </cc:Agent>
    </dc:creator>
   </cc:Work>
  </rdf:RDF>
 </metadata>
 <defs>
  <style type="text/css">*{stroke-linejoin: round; stroke-linecap: butt}</style>
 </defs>
 <g id="figure_1">
  <g id="patch_1">
   <path d="M 0 283.360313 
L 506.359375 283.360313 
L 506.359375 0 
L 0 0 
L 0 283.360313 
z
" style="fill: none"/>
  </g>
  <g id="axes_1">
   <g id="patch_2">
    <path d="M 42.779688 246.24 
L 489.179688 246.24 
L 489.179688 24.48 
L 42.779688 24.48 
L 42.779688 246.24 
z
" style="fill: none"/>
   </g>
   <g id="PathCollection_1">
    <defs>
     <path id="m5176486c32" d="M 0 3 
C 0.795609 3 1.55874 2.683901 2.12132 2.12132 
C 2.683901 1.55874 3 0.795609 3 0 
C 3 -0.795609 2.683901 -1.55874 2.12132 -2.12132 
C 1.55874 -2.683901 0.795609 -3 0 -3 
C -0.795609 -3 -1.55874 -2.683901 -2.12132 -2.12132 
C -2.683901 -1.55874 -3 -0.795609 -3 0 
C -3 0.795609 -2.683901 1.55874 -2.12132 2.12132 
C -1.55874 2.683901 -0.795609 3 0 3 
z
" style="stroke: #0000ff"/>
    </defs>
    <g clip-path="url(#p3bcd063637)">
     <use xlink:href="#m5176486c32" x="225.397869" y="176.52226" style="fill: #0000ff; stroke: #0000ff"/>
     <use xlink:href="#m5176486c32" x="241.630597" y="208.131387" style="fill: #0000ff; stroke: #0000ff"/>
     <use xlink:href="#m5176486c32" x="268.414597" y="162.001535" style="fill: #0000ff; stroke: #0000ff"/>
     <use xlink:href="#m5176486c32" x="357.694597" y="158.76011" style="fill: #0000ff; stroke: #0000ff"/>
     <use xlink:href="#m5176486c32" x="383.66696" y="119.26862" style="fill: #0000ff; stroke: #0000ff"/>
     <use xlink:href="#m5176486c32" x="459.149142" y="68.784726" style="fill: #0000ff; stroke: #0000ff"/>
     <use xlink:href="#m5176486c32" x="61.447324" y="180.609435" style="fill: #0000ff; stroke: #0000ff"/>
     <use xlink:href="#m5176486c32" x="108.522233" y="204.653819" style="fill: #0000ff; stroke: #0000ff"/>
     <use xlink:href="#m5176486c32" x="144.234233" y="191.939614" style="fill: #0000ff; stroke: #0000ff"/>
    </g>
   </g>
   <g id="matplotlib.axis_1">
    <g id="xtick_1">
     <g id="line2d_1">
      <defs>
       <path id="mb551cb5e77" d="M 0 0 
L 0 3.5 
" style="stroke: #000000; stroke-width: 0.8"/>
      </defs>
      <g>
       <use xlink:href="#mb551cb5e77" x="83.361506" y="246.24" style="stroke: #000000; stroke-width: 0.8"/>
      </g>
     </g>
     <g id="text_1">
      <!-- 300 -->
      <g transform="translate(73.491974 260.44) scale(0.1 -0.1)">
       <defs>
        <path id="DMSans24pt-Regular-33" d="M 1869 -77 
Q 1440 -77 1091 80 
Q 742 237 537 550 
Q 333 864 320 1331 
L 864 1331 
Q 870 1075 988 860 
Q 1107 646 1331 518 
Q 1555 390 1869 390 
Q 2342 390 2582 652 
Q 2822 915 2822 1286 
Q 2822 1600 2672 1798 
Q 2522 1997 2269 2093 
Q 2016 2189 1715 2189 
L 1382 2189 
L 1382 2643 
L 1715 2643 
Q 2150 2643 2396 2844 
Q 2643 3046 2643 3398 
Q 2643 3699 2448 3894 
Q 2253 4090 1869 4090 
Q 1498 4090 1277 3872 
Q 1056 3654 1024 3315 
L 480 3315 
Q 499 3680 675 3961 
Q 851 4243 1158 4400 
Q 1466 4557 1869 4557 
Q 2304 4557 2595 4403 
Q 2886 4250 3036 3994 
Q 3187 3738 3187 3430 
Q 3187 3098 3004 2816 
Q 2822 2534 2445 2438 
Q 2842 2355 3104 2060 
Q 3366 1766 3366 1286 
Q 3366 922 3196 611 
Q 3027 301 2694 112 
Q 2362 -77 1869 -77 
z
" transform="scale(0.015625)"/>
        <path id="DMSans24pt-Regular-30" d="M 2221 -77 
Q 1626 -77 1194 214 
Q 762 506 531 1027 
Q 301 1549 301 2240 
Q 301 2931 531 3452 
Q 762 3974 1194 4265 
Q 1626 4557 2221 4557 
Q 2822 4557 3248 4265 
Q 3674 3974 3904 3452 
Q 4134 2931 4134 2240 
Q 4134 1549 3904 1027 
Q 3674 506 3248 214 
Q 2822 -77 2221 -77 
z
M 2221 397 
Q 2618 397 2925 617 
Q 3232 838 3408 1251 
Q 3584 1664 3584 2240 
Q 3584 2816 3408 3229 
Q 3232 3642 2925 3859 
Q 2618 4077 2221 4077 
Q 1824 4077 1513 3859 
Q 1203 3642 1027 3229 
Q 851 2816 851 2240 
Q 851 1664 1027 1251 
Q 1203 838 1513 617 
Q 1824 397 2221 397 
z
" transform="scale(0.015625)"/>
       </defs>
       <use xlink:href="#DMSans24pt-Regular-33"/>
       <use xlink:href="#DMSans24pt-Regular-30" x="58.799988"/>
       <use xlink:href="#DMSans24pt-Regular-30" x="128.099976"/>
      </g>
     </g>
    </g>
    <g id="xtick_2">
     <g id="line2d_2">
      <g>
       <use xlink:href="#mb551cb5e77" x="164.525142" y="246.24" style="stroke: #000000; stroke-width: 0.8"/>
      </g>
     </g>
     <g id="text_2">
      <!-- 400 -->
      <g transform="translate(154.570455 260.44) scale(0.1 -0.1)">
       <defs>
        <path id="DMSans24pt-Regular-34" d="M 2502 0 
L 2502 960 
L 230 960 
L 230 1376 
L 2406 4480 
L 3034 4480 
L 3034 1434 
L 3699 1434 
L 3699 960 
L 3034 960 
L 3034 0 
L 2502 0 
z
M 826 1434 
L 2528 1434 
L 2528 3885 
L 826 1434 
z
" transform="scale(0.015625)"/>
       </defs>
       <use xlink:href="#DMSans24pt-Regular-34"/>
       <use xlink:href="#DMSans24pt-Regular-30" x="60.499985"/>
       <use xlink:href="#DMSans24pt-Regular-30" x="129.799973"/>
      </g>
     </g>
    </g>
    <g id="xtick_3">
     <g id="line2d_3">
      <g>
       <use xlink:href="#mb551cb5e77" x="245.688778" y="246.24" style="stroke: #000000; stroke-width: 0.8"/>
      </g>
     </g>
     <g id="text_3">
      <!-- 500 -->
      <g transform="translate(235.698935 260.44) scale(0.1 -0.1)">
       <defs>
        <path id="DMSans24pt-Regular-35" d="M 1997 -77 
Q 1536 -77 1197 92 
Q 858 262 659 553 
Q 461 845 410 1210 
L 934 1210 
Q 1011 838 1292 611 
Q 1574 384 2003 384 
Q 2323 384 2553 534 
Q 2784 685 2909 941 
Q 3034 1197 3034 1510 
Q 3034 2010 2755 2317 
Q 2477 2624 2022 2624 
Q 1651 2624 1388 2457 
Q 1126 2291 1005 2022 
L 493 2022 
L 877 4480 
L 3226 4480 
L 3226 4013 
L 1293 4013 
L 1030 2650 
Q 1190 2835 1459 2956 
Q 1728 3078 2080 3078 
Q 2522 3078 2851 2873 
Q 3181 2669 3366 2317 
Q 3552 1965 3552 1517 
Q 3552 1088 3369 723 
Q 3187 358 2838 140 
Q 2490 -77 1997 -77 
z
" transform="scale(0.015625)"/>
       </defs>
       <use xlink:href="#DMSans24pt-Regular-35"/>
       <use xlink:href="#DMSans24pt-Regular-30" x="61.199997"/>
       <use xlink:href="#DMSans24pt-Regular-30" x="130.499985"/>
      </g>
     </g>
    </g>
    <g id="xtick_4">
     <g id="line2d_4">
      <g>
       <use xlink:href="#mb551cb5e77" x="326.852415" y="246.24" style="stroke: #000000; stroke-width: 0.8"/>
      </g>
     </g>
     <g id="text_4">
      <!-- 600 -->
      <g transform="translate(316.772727 260.44) scale(0.1 -0.1)">
       <defs>
        <path id="DMSans24pt-Regular-36" d="M 2086 -77 
Q 1600 -77 1267 105 
Q 934 288 732 595 
Q 531 902 438 1283 
Q 346 1664 346 2061 
Q 346 2803 550 3363 
Q 755 3923 1145 4240 
Q 1536 4557 2080 4557 
Q 2502 4557 2806 4390 
Q 3110 4224 3286 3945 
Q 3462 3667 3501 3328 
L 3002 3328 
Q 2938 3693 2694 3891 
Q 2451 4090 2074 4090 
Q 1568 4090 1229 3622 
Q 890 3155 858 2170 
L 858 2125 
Q 1011 2426 1350 2646 
Q 1690 2867 2157 2867 
Q 2541 2867 2877 2688 
Q 3213 2509 3424 2185 
Q 3635 1862 3635 1427 
Q 3635 1050 3449 704 
Q 3264 358 2915 140 
Q 2566 -77 2086 -77 
z
M 2048 397 
Q 2349 397 2585 528 
Q 2822 659 2956 886 
Q 3091 1114 3091 1402 
Q 3091 1856 2796 2128 
Q 2502 2400 2048 2400 
Q 1754 2400 1514 2262 
Q 1274 2125 1136 1897 
Q 998 1670 998 1395 
Q 998 1107 1136 883 
Q 1274 659 1514 528 
Q 1754 397 2048 397 
z
" transform="scale(0.015625)"/>
       </defs>
       <use xlink:href="#DMSans24pt-Regular-36"/>
       <use xlink:href="#DMSans24pt-Regular-30" x="62.999985"/>
       <use xlink:href="#DMSans24pt-Regular-30" x="132.299973"/>
      </g>
     </g>
    </g>
    <g id="xtick_5">
     <g id="line2d_5">
      <g>
       <use xlink:href="#mb551cb5e77" x="408.016051" y="246.24" style="stroke: #000000; stroke-width: 0.8"/>
      </g>
     </g>
     <g id="text_5">
      <!-- 700 -->
      <g transform="translate(398.42152 260.44) scale(0.1 -0.1)">
       <defs>
        <path id="DMSans24pt-Regular-37" d="M 845 0 
L 2624 4019 
L 166 4019 
L 166 4480 
L 3174 4480 
L 3174 4077 
L 1414 0 
L 845 0 
z
" transform="scale(0.015625)"/>
       </defs>
       <use xlink:href="#DMSans24pt-Regular-37"/>
       <use xlink:href="#DMSans24pt-Regular-30" x="53.299988"/>
       <use xlink:href="#DMSans24pt-Regular-30" x="122.599976"/>
      </g>
     </g>
    </g>
    <g id="xtick_6">
     <g id="line2d_6">
      <g>
       <use xlink:href="#mb551cb5e77" x="489.179688" y="246.24" style="stroke: #000000; stroke-width: 0.8"/>
      </g>
     </g>
     <g id="text_6">
      <!-- 800 -->
      <g transform="translate(479.2 260.44) scale(0.1 -0.1)">
       <defs>
        <path id="DMSans24pt-Regular-38" d="M 1952 -77 
Q 1510 -77 1161 86 
Q 813 250 608 541 
Q 403 832 403 1216 
Q 403 1626 643 1952 
Q 883 2278 1280 2387 
Q 915 2515 716 2784 
Q 518 3053 518 3366 
Q 518 3699 691 3968 
Q 864 4237 1184 4397 
Q 1504 4557 1952 4557 
Q 2400 4557 2720 4397 
Q 3040 4237 3213 3968 
Q 3386 3699 3386 3366 
Q 3386 3053 3187 2784 
Q 2989 2515 2624 2387 
Q 3021 2278 3261 1952 
Q 3501 1626 3501 1216 
Q 3501 832 3296 541 
Q 3091 250 2742 86 
Q 2394 -77 1952 -77 
z
M 1952 2579 
Q 2362 2579 2602 2790 
Q 2842 3002 2842 3334 
Q 2842 3712 2605 3904 
Q 2368 4096 1952 4096 
Q 1542 4096 1305 3904 
Q 1069 3712 1069 3334 
Q 1069 3002 1305 2790 
Q 1542 2579 1952 2579 
z
M 1952 397 
Q 2464 397 2713 630 
Q 2963 864 2963 1248 
Q 2963 1683 2688 1907 
Q 2413 2131 1952 2131 
Q 1491 2131 1216 1907 
Q 941 1683 941 1248 
Q 941 864 1193 630 
Q 1446 397 1952 397 
z
" transform="scale(0.015625)"/>
       </defs>
       <use xlink:href="#DMSans24pt-Regular-38"/>
       <use xlink:href="#DMSans24pt-Regular-30" x="60.999985"/>
       <use xlink:href="#DMSans24pt-Regular-30" x="130.299973"/>
      </g>
     </g>
    </g>
    <g id="text_7">
     <!-- Number of training points -->
     <g transform="translate(206.877344 273.84) scale(0.1 -0.1)">
      <defs>
       <path id="DMSans24pt-Regular-4e" d="M 474 0 
L 474 4480 
L 1011 4480 
L 3398 890 
L 3398 4480 
L 3936 4480 
L 3936 0 
L 3398 0 
L 1011 3590 
L 1011 0 
L 474 0 
z
" transform="scale(0.015625)"/>
       <path id="DMSans24pt-Regular-75" d="M 1600 -77 
Q 1037 -77 704 265 
Q 371 608 371 1318 
L 371 3174 
L 909 3174 
L 909 1376 
Q 909 384 1722 384 
Q 2138 384 2410 681 
Q 2682 979 2682 1530 
L 2682 3174 
L 3219 3174 
L 3219 0 
L 2733 0 
L 2701 570 
Q 2547 269 2256 96 
Q 1965 -77 1600 -77 
z
" transform="scale(0.015625)"/>
       <path id="DMSans24pt-Regular-6d" d="M 442 0 
L 442 3174 
L 928 3174 
L 966 2714 
Q 1120 2970 1376 3110 
Q 1632 3251 1952 3251 
Q 2323 3251 2598 3097 
Q 2874 2944 3021 2630 
Q 3187 2925 3481 3088 
Q 3776 3251 4109 3251 
Q 4678 3251 5017 2908 
Q 5357 2566 5357 1856 
L 5357 0 
L 4826 0 
L 4826 1798 
Q 4826 2291 4627 2540 
Q 4429 2790 4058 2790 
Q 3674 2790 3421 2492 
Q 3168 2195 3168 1645 
L 3168 0 
L 2630 0 
L 2630 1798 
Q 2630 2291 2432 2540 
Q 2234 2790 1862 2790 
Q 1485 2790 1232 2492 
Q 979 2195 979 1645 
L 979 0 
L 442 0 
z
" transform="scale(0.015625)"/>
       <path id="DMSans24pt-Regular-62" d="M 2138 -77 
Q 1747 -77 1446 83 
Q 1146 243 979 531 
L 928 0 
L 442 0 
L 442 4608 
L 979 4608 
L 979 2650 
Q 1133 2880 1417 3065 
Q 1702 3251 2144 3251 
Q 2618 3251 2970 3033 
Q 3322 2816 3517 2438 
Q 3712 2061 3712 1581 
Q 3712 1101 3517 726 
Q 3322 352 2966 137 
Q 2611 -77 2138 -77 
z
M 2080 390 
Q 2400 390 2646 540 
Q 2893 691 3030 960 
Q 3168 1229 3168 1587 
Q 3168 1946 3030 2214 
Q 2893 2483 2646 2633 
Q 2400 2784 2080 2784 
Q 1760 2784 1513 2633 
Q 1267 2483 1129 2214 
Q 992 1946 992 1587 
Q 992 1229 1129 960 
Q 1267 691 1513 540 
Q 1760 390 2080 390 
z
" transform="scale(0.015625)"/>
       <path id="DMSans24pt-Regular-65" d="M 1869 -77 
Q 1414 -77 1062 131 
Q 710 339 508 713 
Q 307 1088 307 1587 
Q 307 2093 505 2464 
Q 704 2835 1059 3043 
Q 1414 3251 1882 3251 
Q 2349 3251 2681 3043 
Q 3014 2835 3193 2499 
Q 3373 2163 3373 1766 
Q 3373 1702 3373 1628 
Q 3373 1555 3366 1466 
L 832 1466 
Q 851 1101 1001 861 
Q 1152 621 1382 499 
Q 1613 378 1869 378 
Q 2202 378 2426 531 
Q 2650 685 2752 947 
L 3283 947 
Q 3162 506 2797 214 
Q 2432 -77 1869 -77 
z
M 1869 2797 
Q 1485 2797 1187 2566 
Q 890 2336 838 1882 
L 2842 1882 
Q 2822 2310 2550 2553 
Q 2278 2797 1869 2797 
z
" transform="scale(0.015625)"/>
       <path id="DMSans24pt-Regular-72" d="M 442 0 
L 442 3174 
L 928 3174 
L 973 2560 
Q 1120 2880 1421 3065 
Q 1722 3251 2163 3251 
L 2163 2688 
L 2016 2688 
Q 1734 2688 1497 2592 
Q 1261 2496 1120 2259 
Q 979 2022 979 1600 
L 979 0 
L 442 0 
z
" transform="scale(0.015625)"/>
       <path id="DMSans24pt-Regular-20" transform="scale(0.015625)"/>
       <path id="DMSans24pt-Regular-6f" d="M 1888 -77 
Q 1440 -77 1081 128 
Q 723 333 515 707 
Q 307 1082 307 1587 
Q 307 2093 518 2467 
Q 730 2842 1091 3046 
Q 1453 3251 1901 3251 
Q 2349 3251 2707 3046 
Q 3066 2842 3274 2467 
Q 3482 2093 3482 1587 
Q 3482 1082 3270 707 
Q 3059 333 2697 128 
Q 2336 -77 1888 -77 
z
M 1888 384 
Q 2163 384 2400 518 
Q 2637 653 2784 921 
Q 2931 1190 2931 1587 
Q 2931 1990 2787 2256 
Q 2643 2522 2406 2656 
Q 2170 2790 1901 2790 
Q 1632 2790 1392 2656 
Q 1152 2522 1005 2256 
Q 858 1990 858 1587 
Q 858 1190 1005 921 
Q 1152 653 1385 518 
Q 1619 384 1888 384 
z
" transform="scale(0.015625)"/>
       <path id="DMSans24pt-Regular-66" d="M 614 0 
L 614 2720 
L 134 2720 
L 134 3174 
L 614 3174 
L 614 3725 
Q 614 4186 844 4397 
Q 1075 4608 1517 4608 
L 1837 4608 
L 1837 4147 
L 1600 4147 
Q 1363 4147 1257 4051 
Q 1152 3955 1152 3712 
L 1152 3174 
L 1933 3174 
L 1933 2720 
L 1152 2720 
L 1152 0 
L 614 0 
z
" transform="scale(0.015625)"/>
       <path id="DMSans24pt-Regular-74" d="M 1696 0 
Q 1261 0 1011 214 
Q 762 429 762 973 
L 762 2720 
L 211 2720 
L 211 3174 
L 762 3174 
L 832 3936 
L 1299 3936 
L 1299 3174 
L 2234 3174 
L 2234 2720 
L 1299 2720 
L 1299 973 
Q 1299 672 1420 566 
Q 1542 461 1850 461 
L 2182 461 
L 2182 0 
L 1696 0 
z
" transform="scale(0.015625)"/>
       <path id="DMSans24pt-Regular-61" d="M 1498 -77 
Q 1101 -77 838 57 
Q 576 192 448 416 
Q 320 640 320 902 
Q 320 1389 691 1651 
Q 1062 1914 1702 1914 
L 2560 1914 
Q 2560 2355 2349 2576 
Q 2138 2797 1760 2797 
Q 1446 2797 1216 2640 
Q 986 2483 934 2182 
L 384 2182 
Q 422 2528 620 2765 
Q 819 3002 1123 3126 
Q 1427 3251 1760 3251 
Q 2426 3251 2762 2896 
Q 3098 2541 3098 1952 
L 3098 0 
L 2618 0 
L 2586 570 
Q 2451 301 2192 112 
Q 1933 -77 1498 -77 
z
M 1581 378 
Q 1894 378 2112 538 
Q 2330 698 2445 954 
Q 2560 1210 2560 1491 
L 2560 1498 
L 1747 1498 
Q 1274 1498 1078 1334 
Q 883 1171 883 928 
Q 883 678 1065 528 
Q 1248 378 1581 378 
z
" transform="scale(0.015625)"/>
       <path id="DMSans24pt-Regular-69" d="M 768 3878 
Q 608 3878 502 3984 
Q 397 4090 397 4250 
Q 397 4410 502 4509 
Q 608 4608 768 4608 
Q 922 4608 1030 4509 
Q 1139 4410 1139 4250 
Q 1139 4090 1030 3984 
Q 922 3878 768 3878 
z
M 499 0 
L 499 3174 
L 1037 3174 
L 1037 0 
L 499 0 
z
" transform="scale(0.015625)"/>
       <path id="DMSans24pt-Regular-6e" d="M 442 0 
L 442 3174 
L 928 3174 
L 960 2605 
Q 1114 2906 1402 3078 
Q 1690 3251 2054 3251 
Q 2618 3251 2954 2908 
Q 3290 2566 3290 1856 
L 3290 0 
L 2752 0 
L 2752 1798 
Q 2752 2291 2541 2540 
Q 2330 2790 1933 2790 
Q 1523 2790 1251 2492 
Q 979 2195 979 1645 
L 979 0 
L 442 0 
z
" transform="scale(0.015625)"/>
       <path id="DMSans24pt-Regular-67" d="M 1696 998 
Q 1427 998 1210 1069 
L 883 768 
Q 954 717 1059 681 
Q 1165 646 1363 617 
Q 1562 589 1920 557 
Q 2566 512 2838 262 
Q 3110 13 3110 -390 
Q 3110 -666 2960 -915 
Q 2810 -1165 2499 -1325 
Q 2189 -1485 1702 -1485 
Q 1056 -1485 646 -1229 
Q 237 -973 237 -461 
Q 237 -282 333 -74 
Q 429 134 691 320 
Q 550 378 451 448 
Q 352 518 269 595 
L 269 742 
L 813 1286 
Q 435 1600 435 2125 
Q 435 2438 582 2691 
Q 730 2944 1011 3097 
Q 1293 3251 1696 3251 
Q 1965 3251 2195 3174 
L 3366 3174 
L 3366 2771 
L 2778 2746 
Q 2957 2477 2957 2125 
Q 2957 1811 2809 1555 
Q 2662 1299 2380 1148 
Q 2099 998 1696 998 
z
M 1696 1440 
Q 2035 1440 2236 1616 
Q 2438 1792 2438 2125 
Q 2438 2451 2236 2627 
Q 2035 2803 1696 2803 
Q 1357 2803 1152 2627 
Q 947 2451 947 2125 
Q 947 1792 1152 1616 
Q 1357 1440 1696 1440 
z
M 762 -410 
Q 762 -730 1027 -886 
Q 1293 -1043 1702 -1043 
Q 2099 -1043 2339 -870 
Q 2579 -698 2579 -410 
Q 2579 -205 2416 -54 
Q 2253 96 1798 122 
Q 1446 141 1190 186 
Q 928 45 845 -115 
Q 762 -275 762 -410 
z
" transform="scale(0.015625)"/>
       <path id="DMSans24pt-Regular-70" d="M 442 -1408 
L 442 3174 
L 928 3174 
L 979 2650 
Q 1133 2880 1417 3065 
Q 1702 3251 2144 3251 
Q 2618 3251 2970 3033 
Q 3322 2816 3517 2438 
Q 3712 2061 3712 1581 
Q 3712 1101 3517 726 
Q 3322 352 2966 137 
Q 2611 -77 2138 -77 
Q 1747 -77 1446 83 
Q 1146 243 979 531 
L 979 -1408 
L 442 -1408 
z
M 2080 390 
Q 2400 390 2646 540 
Q 2893 691 3030 960 
Q 3168 1229 3168 1587 
Q 3168 1946 3030 2214 
Q 2893 2483 2646 2633 
Q 2400 2784 2080 2784 
Q 1760 2784 1513 2633 
Q 1267 2483 1129 2214 
Q 992 1946 992 1587 
Q 992 1229 1129 960 
Q 1267 691 1513 540 
Q 1760 390 2080 390 
z
" transform="scale(0.015625)"/>
       <path id="DMSans24pt-Regular-73" d="M 1658 -77 
Q 1088 -77 710 211 
Q 333 499 269 992 
L 819 992 
Q 870 742 1084 560 
Q 1299 378 1664 378 
Q 2003 378 2163 522 
Q 2323 666 2323 864 
Q 2323 1146 2115 1245 
Q 1907 1344 1530 1421 
Q 1274 1472 1014 1568 
Q 755 1664 585 1840 
Q 416 2016 416 2304 
Q 416 2720 726 2985 
Q 1037 3251 1568 3251 
Q 2074 3251 2397 3001 
Q 2720 2752 2771 2278 
L 2240 2278 
Q 2214 2522 2038 2659 
Q 1862 2797 1562 2797 
Q 1267 2797 1113 2675 
Q 960 2554 960 2355 
Q 960 2170 1161 2054 
Q 1363 1939 1709 1869 
Q 2010 1805 2272 1712 
Q 2534 1619 2704 1436 
Q 2874 1254 2874 909 
Q 2880 480 2550 201 
Q 2221 -77 1658 -77 
z
" transform="scale(0.015625)"/>
      </defs>
      <use xlink:href="#DMSans24pt-Regular-4e"/>
      <use xlink:href="#DMSans24pt-Regular-75" x="68.899994"/>
      <use xlink:href="#DMSans24pt-Regular-6d" x="126.099991"/>
      <use xlink:href="#DMSans24pt-Regular-62" x="215.599976"/>
      <use xlink:href="#DMSans24pt-Regular-65" x="278.399963"/>
      <use xlink:href="#DMSans24pt-Regular-72" x="335.299957"/>
      <use xlink:href="#DMSans24pt-Regular-20" x="371.599945"/>
      <use xlink:href="#DMSans24pt-Regular-6f" x="398.09993"/>
      <use xlink:href="#DMSans24pt-Regular-66" x="457.299927"/>
      <use xlink:href="#DMSans24pt-Regular-20" x="490.599915"/>
      <use xlink:href="#DMSans24pt-Regular-74" x="517.099899"/>
      <use xlink:href="#DMSans24pt-Regular-72" x="555.799896"/>
      <use xlink:href="#DMSans24pt-Regular-61" x="592.099884"/>
      <use xlink:href="#DMSans24pt-Regular-69" x="646.299881"/>
      <use xlink:href="#DMSans24pt-Regular-6e" x="670.199875"/>
      <use xlink:href="#DMSans24pt-Regular-69" x="727.399872"/>
      <use xlink:href="#DMSans24pt-Regular-6e" x="751.299866"/>
      <use xlink:href="#DMSans24pt-Regular-67" x="808.499863"/>
      <use xlink:href="#DMSans24pt-Regular-20" x="863.69986"/>
      <use xlink:href="#DMSans24pt-Regular-70" x="890.199844"/>
      <use xlink:href="#DMSans24pt-Regular-6f" x="952.999832"/>
      <use xlink:href="#DMSans24pt-Regular-69" x="1012.199829"/>
      <use xlink:href="#DMSans24pt-Regular-6e" x="1036.099823"/>
      <use xlink:href="#DMSans24pt-Regular-74" x="1093.29982"/>
      <use xlink:href="#DMSans24pt-Regular-73" x="1131.999817"/>
     </g>
    </g>
   </g>
   <g id="matplotlib.axis_2">
    <g id="ytick_1">
     <g id="line2d_7">
      <defs>
       <path id="m8084ab8cb8" d="M 0 0 
L -3.5 0 
" style="stroke: #000000; stroke-width: 0.8"/>
      </defs>
      <g>
       <use xlink:href="#m8084ab8cb8" x="42.779688" y="228.201566" style="stroke: #000000; stroke-width: 0.8"/>
      </g>
     </g>
     <g id="text_8">
      <!-- 0.4 -->
      <g transform="translate(20.85 231.801566) scale(0.1 -0.1)">
       <defs>
        <path id="DMSans24pt-Regular-2e" d="M 627 -32 
Q 467 -32 361 73 
Q 256 179 256 333 
Q 256 486 361 592 
Q 467 698 627 698 
Q 787 698 889 592 
Q 992 486 992 333 
Q 992 179 889 73 
Q 787 -32 627 -32 
z
" transform="scale(0.015625)"/>
       </defs>
       <use xlink:href="#DMSans24pt-Regular-30"/>
       <use xlink:href="#DMSans24pt-Regular-2e" x="69.299988"/>
       <use xlink:href="#DMSans24pt-Regular-34" x="88.799973"/>
      </g>
     </g>
    </g>
    <g id="ytick_2">
     <g id="line2d_8">
      <g>
       <use xlink:href="#m8084ab8cb8" x="42.779688" y="193.486193" style="stroke: #000000; stroke-width: 0.8"/>
      </g>
     </g>
     <g id="text_9">
      <!-- 0.5 -->
      <g transform="translate(20.779688 197.086193) scale(0.1 -0.1)">
       <use xlink:href="#DMSans24pt-Regular-30"/>
       <use xlink:href="#DMSans24pt-Regular-2e" x="69.299988"/>
       <use xlink:href="#DMSans24pt-Regular-35" x="88.799973"/>
      </g>
     </g>
    </g>
    <g id="ytick_3">
     <g id="line2d_9">
      <g>
       <use xlink:href="#m8084ab8cb8" x="42.779688" y="158.77082" style="stroke: #000000; stroke-width: 0.8"/>
      </g>
     </g>
     <g id="text_10">
      <!-- 0.6 -->
      <g transform="translate(20.6 162.37082) scale(0.1 -0.1)">
       <use xlink:href="#DMSans24pt-Regular-30"/>
       <use xlink:href="#DMSans24pt-Regular-2e" x="69.299988"/>
       <use xlink:href="#DMSans24pt-Regular-36" x="88.799973"/>
      </g>
     </g>
    </g>
    <g id="ytick_4">
     <g id="line2d_10">
      <g>
       <use xlink:href="#m8084ab8cb8" x="42.779688" y="124.055448" style="stroke: #000000; stroke-width: 0.8"/>
      </g>
     </g>
     <g id="text_11">
      <!-- 0.7 -->
      <g transform="translate(21.570313 127.655448) scale(0.1 -0.1)">
       <use xlink:href="#DMSans24pt-Regular-30"/>
       <use xlink:href="#DMSans24pt-Regular-2e" x="69.299988"/>
       <use xlink:href="#DMSans24pt-Regular-37" x="88.799973"/>
      </g>
     </g>
    </g>
    <g id="ytick_5">
     <g id="line2d_11">
      <g>
       <use xlink:href="#m8084ab8cb8" x="42.779688" y="89.340075" style="stroke: #000000; stroke-width: 0.8"/>
      </g>
     </g>
     <g id="text_12">
      <!-- 0.8 -->
      <g transform="translate(20.8 92.940075) scale(0.1 -0.1)">
       <use xlink:href="#DMSans24pt-Regular-30"/>
       <use xlink:href="#DMSans24pt-Regular-2e" x="69.299988"/>
       <use xlink:href="#DMSans24pt-Regular-38" x="88.799973"/>
      </g>
     </g>
    </g>
    <g id="ytick_6">
     <g id="line2d_12">
      <g>
       <use xlink:href="#m8084ab8cb8" x="42.779688" y="54.624702" style="stroke: #000000; stroke-width: 0.8"/>
      </g>
     </g>
     <g id="text_13">
      <!-- 0.9 -->
      <g transform="translate(20.6 58.224702) scale(0.1 -0.1)">
       <defs>
        <path id="DMSans24pt-Regular-39" d="M 1952 -77 
Q 1530 -77 1229 89 
Q 928 256 752 537 
Q 576 819 538 1152 
L 1037 1152 
Q 1101 787 1344 588 
Q 1587 390 1958 390 
Q 2464 390 2803 854 
Q 3142 1318 3174 2304 
L 3174 2355 
Q 3021 2061 2685 1837 
Q 2349 1613 1875 1613 
Q 1498 1613 1158 1792 
Q 819 1971 608 2294 
Q 397 2618 397 3053 
Q 397 3430 582 3776 
Q 768 4122 1117 4339 
Q 1466 4557 1946 4557 
Q 2432 4557 2765 4374 
Q 3098 4192 3299 3885 
Q 3501 3578 3593 3197 
Q 3686 2816 3686 2419 
Q 3686 1683 3481 1120 
Q 3277 557 2889 240 
Q 2502 -77 1952 -77 
z
M 1984 2080 
Q 2285 2080 2521 2217 
Q 2758 2355 2899 2585 
Q 3040 2816 3040 3085 
Q 3040 3373 2899 3600 
Q 2758 3827 2521 3955 
Q 2285 4083 1984 4083 
Q 1683 4083 1446 3952 
Q 1210 3821 1075 3597 
Q 941 3373 941 3078 
Q 941 2630 1238 2355 
Q 1536 2080 1984 2080 
z
" transform="scale(0.015625)"/>
       </defs>
       <use xlink:href="#DMSans24pt-Regular-30"/>
       <use xlink:href="#DMSans24pt-Regular-2e" x="69.299988"/>
       <use xlink:href="#DMSans24pt-Regular-39" x="88.799973"/>
      </g>
     </g>
    </g>
    <g id="text_14">
     <!-- Pearson correlation -->
     <g transform="translate(14.4 180.327188) rotate(-90) scale(0.1 -0.1)">
      <defs>
       <path id="DMSans24pt-Regular-50" d="M 474 0 
L 474 4480 
L 1946 4480 
Q 2470 4480 2809 4307 
Q 3149 4134 3312 3840 
Q 3475 3546 3475 3174 
Q 3475 2810 3315 2515 
Q 3155 2221 2816 2045 
Q 2477 1869 1946 1869 
L 1011 1869 
L 1011 0 
L 474 0 
z
M 1011 2323 
L 1933 2323 
Q 2464 2323 2694 2553 
Q 2925 2784 2925 3174 
Q 2925 3584 2694 3808 
Q 2464 4032 1933 4032 
L 1011 4032 
L 1011 2323 
z
" transform="scale(0.015625)"/>
       <path id="DMSans24pt-Regular-63" d="M 1901 -77 
Q 1446 -77 1084 131 
Q 723 339 515 713 
Q 307 1088 307 1587 
Q 307 2086 515 2460 
Q 723 2835 1084 3043 
Q 1446 3251 1901 3251 
Q 2470 3251 2854 2956 
Q 3238 2662 3341 2170 
L 2790 2170 
Q 2726 2464 2476 2627 
Q 2227 2790 1894 2790 
Q 1626 2790 1389 2656 
Q 1152 2522 1005 2253 
Q 858 1984 858 1587 
Q 858 1190 1005 921 
Q 1152 653 1389 515 
Q 1626 378 1894 378 
Q 2227 378 2476 544 
Q 2726 710 2790 1005 
L 3341 1005 
Q 3238 525 2854 224 
Q 2470 -77 1901 -77 
z
" transform="scale(0.015625)"/>
       <path id="DMSans24pt-Regular-6c" d="M 442 0 
L 442 4608 
L 979 4608 
L 979 0 
L 442 0 
z
" transform="scale(0.015625)"/>
      </defs>
      <use xlink:href="#DMSans24pt-Regular-50"/>
      <use xlink:href="#DMSans24pt-Regular-65" x="57.899994"/>
      <use xlink:href="#DMSans24pt-Regular-61" x="114.799988"/>
      <use xlink:href="#DMSans24pt-Regular-72" x="168.999985"/>
      <use xlink:href="#DMSans24pt-Regular-73" x="205.299973"/>
      <use xlink:href="#DMSans24pt-Regular-6f" x="255.299957"/>
      <use xlink:href="#DMSans24pt-Regular-6e" x="314.499954"/>
      <use xlink:href="#DMSans24pt-Regular-20" x="371.699951"/>
      <use xlink:href="#DMSans24pt-Regular-63" x="398.199936"/>
      <use xlink:href="#DMSans24pt-Regular-6f" x="455.199921"/>
      <use xlink:href="#DMSans24pt-Regular-72" x="514.399918"/>
      <use xlink:href="#DMSans24pt-Regular-72" x="550.699905"/>
      <use xlink:href="#DMSans24pt-Regular-65" x="586.999893"/>
      <use xlink:href="#DMSans24pt-Regular-6c" x="643.899887"/>
      <use xlink:href="#DMSans24pt-Regular-61" x="666.099884"/>
      <use xlink:href="#DMSans24pt-Regular-74" x="720.299881"/>
      <use xlink:href="#DMSans24pt-Regular-69" x="758.999878"/>
      <use xlink:href="#DMSans24pt-Regular-6f" x="782.899872"/>
      <use xlink:href="#DMSans24pt-Regular-6e" x="842.099869"/>
     </g>
    </g>
   </g>
   <g id="LineCollection_1">
    <path d="M 225.397869 199.950959 
L 225.397869 155.649854 
" clip-path="url(#p3bcd063637)" style="fill: none; stroke: #ff0000; stroke-width: 1.5"/>
    <path d="M 241.630597 236.16 
L 241.630597 180.324937 
" clip-path="url(#p3bcd063637)" style="fill: none; stroke: #ff0000; stroke-width: 1.5"/>
    <path d="M 268.414597 185.222419 
L 268.414597 140.212349 
" clip-path="url(#p3bcd063637)" style="fill: none; stroke: #ff0000; stroke-width: 1.5"/>
    <path d="M 357.694597 196.495111 
L 357.694597 127.011997 
" clip-path="url(#p3bcd063637)" style="fill: none; stroke: #ff0000; stroke-width: 1.5"/>
    <path d="M 383.66696 154.3686 
L 383.66696 90.668877 
" clip-path="url(#p3bcd063637)" style="fill: none; stroke: #ff0000; stroke-width: 1.5"/>
    <path d="M 459.149142 129.140162 
L 459.149142 34.56 
" clip-path="url(#p3bcd063637)" style="fill: none; stroke: #ff0000; stroke-width: 1.5"/>
    <path clip-path="url(#p3bcd063637)" style="fill: none; stroke: #ff0000; stroke-width: 1.5"/>
    <path d="M 61.447324 199.5009 
L 61.447324 162.713685 
" clip-path="url(#p3bcd063637)" style="fill: none; stroke: #ff0000; stroke-width: 1.5"/>
    <path d="M 108.522233 225.716862 
L 108.522233 184.097237 
" clip-path="url(#p3bcd063637)" style="fill: none; stroke: #ff0000; stroke-width: 1.5"/>
    <path d="M 144.234233 212.08924 
L 144.234233 171.091822 
" clip-path="url(#p3bcd063637)" style="fill: none; stroke: #ff0000; stroke-width: 1.5"/>
   </g>
   <g id="line2d_13">
    <defs>
     <path id="m0d0457b15e" d="M 5 0 
L -5 -0 
" style="stroke: #ff0000"/>
    </defs>
    <g clip-path="url(#p3bcd063637)">
     <use xlink:href="#m0d0457b15e" x="225.397869" y="199.950959" style="fill: #ff0000; stroke: #ff0000"/>
     <use xlink:href="#m0d0457b15e" x="241.630597" y="236.16" style="fill: #ff0000; stroke: #ff0000"/>
     <use xlink:href="#m0d0457b15e" x="268.414597" y="185.222419" style="fill: #ff0000; stroke: #ff0000"/>
     <use xlink:href="#m0d0457b15e" x="357.694597" y="196.495111" style="fill: #ff0000; stroke: #ff0000"/>
     <use xlink:href="#m0d0457b15e" x="383.66696" y="154.3686" style="fill: #ff0000; stroke: #ff0000"/>
     <use xlink:href="#m0d0457b15e" x="459.149142" y="129.140162" style="fill: #ff0000; stroke: #ff0000"/>
     <use xlink:href="#m0d0457b15e" x="61.447324" y="199.5009" style="fill: #ff0000; stroke: #ff0000"/>
     <use xlink:href="#m0d0457b15e" x="108.522233" y="225.716862" style="fill: #ff0000; stroke: #ff0000"/>
     <use xlink:href="#m0d0457b15e" x="144.234233" y="212.08924" style="fill: #ff0000; stroke: #ff0000"/>
    </g>
   </g>
   <g id="line2d_14">
    <g clip-path="url(#p3bcd063637)">
     <use xlink:href="#m0d0457b15e" x="225.397869" y="155.649854" style="fill: #ff0000; stroke: #ff0000"/>
     <use xlink:href="#m0d0457b15e" x="241.630597" y="180.324937" style="fill: #ff0000; stroke: #ff0000"/>
     <use xlink:href="#m0d0457b15e" x="268.414597" y="140.212349" style="fill: #ff0000; stroke: #ff0000"/>
     <use xlink:href="#m0d0457b15e" x="357.694597" y="127.011997" style="fill: #ff0000; stroke: #ff0000"/>
     <use xlink:href="#m0d0457b15e" x="383.66696" y="90.668877" style="fill: #ff0000; stroke: #ff0000"/>
     <use xlink:href="#m0d0457b15e" x="459.149142" y="34.56" style="fill: #ff0000; stroke: #ff0000"/>
     <use xlink:href="#m0d0457b15e" x="61.447324" y="162.713685" style="fill: #ff0000; stroke: #ff0000"/>
     <use xlink:href="#m0d0457b15e" x="108.522233" y="184.097237" style="fill: #ff0000; stroke: #ff0000"/>
     <use xlink:href="#m0d0457b15e" x="144.234233" y="171.091822" style="fill: #ff0000; stroke: #ff0000"/>
    </g>
   </g>
   <g id="line2d_15">
    <defs>
     <path id="mde33a97106" d="M 0 3 
C 0.795609 3 1.55874 2.683901 2.12132 2.12132 
C 2.683901 1.55874 3 0.795609 3 0 
C 3 -0.795609 2.683901 -1.55874 2.12132 -2.12132 
C 1.55874 -2.683901 0.795609 -3 0 -3 
C -0.795609 -3 -1.55874 -2.683901 -2.12132 -2.12132 
C -2.683901 -1.55874 -3 -0.795609 -3 0 
C -3 0.795609 -2.683901 1.55874 -2.12132 2.12132 
C -1.55874 2.683901 -0.795609 3 0 3 
z
" style="stroke: #0173b2"/>
    </defs>
    <g clip-path="url(#p3bcd063637)">
     <use xlink:href="#mde33a97106" x="225.397869" y="176.52226" style="fill: #0173b2; stroke: #0173b2"/>
     <use xlink:href="#mde33a97106" x="241.630597" y="208.131387" style="fill: #0173b2; stroke: #0173b2"/>
     <use xlink:href="#mde33a97106" x="268.414597" y="162.001535" style="fill: #0173b2; stroke: #0173b2"/>
     <use xlink:href="#mde33a97106" x="357.694597" y="158.76011" style="fill: #0173b2; stroke: #0173b2"/>
     <use xlink:href="#mde33a97106" x="383.66696" y="119.26862" style="fill: #0173b2; stroke: #0173b2"/>
     <use xlink:href="#mde33a97106" x="459.149142" y="68.784726" style="fill: #0173b2; stroke: #0173b2"/>
     <use xlink:href="#mde33a97106" x="61.447324" y="180.609435" style="fill: #0173b2; stroke: #0173b2"/>
     <use xlink:href="#mde33a97106" x="108.522233" y="204.653819" style="fill: #0173b2; stroke: #0173b2"/>
     <use xlink:href="#mde33a97106" x="144.234233" y="191.939614" style="fill: #0173b2; stroke: #0173b2"/>
    </g>
   </g>
   <g id="patch_3">
    <path d="M 42.779688 246.24 
L 42.779688 24.48 
" style="fill: none; stroke: #000000; stroke-width: 0.8; stroke-linejoin: miter; stroke-linecap: square"/>
   </g>
   <g id="patch_4">
    <path d="M 489.179688 246.24 
L 489.179688 24.48 
" style="fill: none; stroke: #000000; stroke-width: 0.8; stroke-linejoin: miter; stroke-linecap: square"/>
   </g>
   <g id="patch_5">
    <path d="M 42.779688 246.24 
L 489.179688 246.24 
" style="fill: none; stroke: #000000; stroke-width: 0.8; stroke-linejoin: miter; stroke-linecap: square"/>
   </g>
   <g id="patch_6">
    <path d="M 42.779688 24.48 
L 489.179688 24.48 
" style="fill: none; stroke: #000000; stroke-width: 0.8; stroke-linejoin: miter; stroke-linecap: square"/>
   </g>
   <g id="text_15">
    <!-- 10 -->
    <g transform="translate(229.456051 176.52226) scale(0.1 -0.1)">
     <defs>
      <path id="DMSans24pt-Regular-31" d="M 915 0 
L 915 3878 
L 192 3718 
L 192 4090 
L 1094 4480 
L 1459 4480 
L 1459 0 
L 915 0 
z
" transform="scale(0.015625)"/>
     </defs>
     <use xlink:href="#DMSans24pt-Regular-31"/>
     <use xlink:href="#DMSans24pt-Regular-30" x="30.199997"/>
    </g>
   </g>
   <g id="text_16">
    <!-- 13 -->
    <g transform="translate(245.688778 208.131387) scale(0.1 -0.1)">
     <use xlink:href="#DMSans24pt-Regular-31"/>
     <use xlink:href="#DMSans24pt-Regular-33" x="30.199997"/>
    </g>
   </g>
   <g id="text_17">
    <!-- 18 -->
    <g transform="translate(272.472778 162.001535) scale(0.1 -0.1)">
     <use xlink:href="#DMSans24pt-Regular-31"/>
     <use xlink:href="#DMSans24pt-Regular-38" x="30.199997"/>
    </g>
   </g>
   <g id="text_18">
    <!-- 20 -->
    <g transform="translate(361.752778 158.76011) scale(0.1 -0.1)">
     <defs>
      <path id="DMSans24pt-Regular-32" d="M 403 0 
L 403 378 
Q 858 736 1264 1101 
Q 1670 1466 1987 1827 
Q 2304 2189 2486 2534 
Q 2669 2880 2669 3200 
Q 2669 3437 2589 3638 
Q 2509 3840 2329 3968 
Q 2150 4096 1843 4096 
Q 1549 4096 1350 3965 
Q 1152 3834 1053 3619 
Q 954 3405 954 3149 
L 435 3149 
Q 442 3590 624 3907 
Q 806 4224 1126 4390 
Q 1446 4557 1850 4557 
Q 2445 4557 2825 4221 
Q 3206 3885 3206 3219 
Q 3206 2829 3011 2438 
Q 2816 2048 2505 1686 
Q 2195 1325 1846 1011 
Q 1498 698 1197 448 
L 3360 448 
L 3360 0 
L 403 0 
z
" transform="scale(0.015625)"/>
     </defs>
     <use xlink:href="#DMSans24pt-Regular-32"/>
     <use xlink:href="#DMSans24pt-Regular-30" x="57.199997"/>
    </g>
   </g>
   <g id="text_19">
    <!-- 27 -->
    <g transform="translate(387.725142 119.26862) scale(0.1 -0.1)">
     <use xlink:href="#DMSans24pt-Regular-32"/>
     <use xlink:href="#DMSans24pt-Regular-37" x="57.199997"/>
    </g>
   </g>
   <g id="text_20">
    <!-- 30 -->
    <g transform="translate(463.207324 68.784726) scale(0.1 -0.1)">
     <use xlink:href="#DMSans24pt-Regular-33"/>
     <use xlink:href="#DMSans24pt-Regular-30" x="58.799988"/>
    </g>
   </g>
   <g id="text_21">
    <!-- 7 -->
    <g transform="translate(65.505506 180.609435) scale(0.1 -0.1)">
     <use xlink:href="#DMSans24pt-Regular-37"/>
    </g>
   </g>
   <g id="text_22">
    <!-- 8 -->
    <g transform="translate(112.580415 204.653819) scale(0.1 -0.1)">
     <use xlink:href="#DMSans24pt-Regular-38"/>
    </g>
   </g>
   <g id="text_23">
    <!-- 9 -->
    <g transform="translate(148.292415 191.939614) scale(0.1 -0.1)">
     <use xlink:href="#DMSans24pt-Regular-39"/>
    </g>
   </g>
   <g id="text_24">
    <!-- Ablation study at thresholds of $\sqrt{n_1 \cdot n_2}$ -->
    <g transform="translate(155.939688 18.48) scale(0.12 -0.12)">
     <defs>
      <path id="DMSans24pt-Regular-41" d="M 192 0 
L 1843 4480 
L 2413 4480 
L 4058 0 
L 3488 0 
L 3078 1152 
L 1171 1152 
L 755 0 
L 192 0 
z
M 2125 3808 
L 1325 1587 
L 2918 1587 
L 2125 3808 
z
" transform="scale(0.015625)"/>
      <path id="DMSans24pt-Regular-64" d="M 1882 -77 
Q 1408 -77 1053 140 
Q 698 358 502 736 
Q 307 1114 307 1594 
Q 307 2074 502 2448 
Q 698 2822 1056 3036 
Q 1414 3251 1888 3251 
Q 2278 3251 2582 3091 
Q 2886 2931 3046 2643 
L 3046 4608 
L 3584 4608 
L 3584 0 
L 3098 0 
L 3046 525 
Q 2893 294 2605 108 
Q 2317 -77 1882 -77 
z
M 1939 390 
Q 2259 390 2505 540 
Q 2752 691 2889 960 
Q 3027 1229 3027 1587 
Q 3027 1946 2889 2214 
Q 2752 2483 2505 2633 
Q 2259 2784 1939 2784 
Q 1626 2784 1379 2633 
Q 1133 2483 995 2214 
Q 858 1946 858 1587 
Q 858 1229 995 960 
Q 1133 691 1379 540 
Q 1626 390 1939 390 
z
" transform="scale(0.015625)"/>
      <path id="DMSans24pt-Regular-79" d="M 787 -1408 
L 1581 358 
L 1395 358 
L 128 3174 
L 710 3174 
L 1766 755 
L 2874 3174 
L 3430 3174 
L 1350 -1408 
L 787 -1408 
z
" transform="scale(0.015625)"/>
      <path id="DMSans24pt-Regular-68" d="M 442 0 
L 442 4608 
L 979 4608 
L 979 2630 
Q 1139 2925 1430 3088 
Q 1722 3251 2074 3251 
Q 2624 3251 2957 2908 
Q 3290 2566 3290 1856 
L 3290 0 
L 2758 0 
L 2758 1798 
Q 2758 2790 1958 2790 
Q 1542 2790 1260 2492 
Q 979 2195 979 1645 
L 979 0 
L 442 0 
z
" transform="scale(0.015625)"/>
      <path id="STIXSizeOneSym-Regular-221a" d="M 6970 9933 
L 3373 -1888 
L 3104 -1888 
L 1626 2918 
Q 1555 3149 1465 3251 
Q 1376 3354 1229 3354 
Q 1011 3354 794 3181 
L 717 3309 
L 1766 4115 
L 1926 4115 
L 3379 -602 
L 3405 -602 
L 6605 9933 
L 6970 9933 
z
" transform="scale(0.015625)"/>
      <path id="DejaVuSans-Oblique-6e" d="M 3566 2113 
L 3156 0 
L 2578 0 
L 2988 2091 
Q 3016 2238 3031 2350 
Q 3047 2463 3047 2528 
Q 3047 2791 2881 2937 
Q 2716 3084 2419 3084 
Q 1956 3084 1622 2776 
Q 1288 2469 1184 1941 
L 800 0 
L 225 0 
L 903 3500 
L 1478 3500 
L 1363 2950 
Q 1603 3253 1940 3418 
Q 2278 3584 2650 3584 
Q 3113 3584 3367 3334 
Q 3622 3084 3622 2631 
Q 3622 2519 3608 2391 
Q 3594 2263 3566 2113 
z
" transform="scale(0.015625)"/>
      <path id="DejaVuSans-31" d="M 794 531 
L 1825 531 
L 1825 4091 
L 703 3866 
L 703 4441 
L 1819 4666 
L 2450 4666 
L 2450 531 
L 3481 531 
L 3481 0 
L 794 0 
L 794 531 
z
" transform="scale(0.015625)"/>
      <path id="DejaVuSans-22c5" d="M 684 2619 
L 1344 2619 
L 1344 1825 
L 684 1825 
L 684 2619 
z
" transform="scale(0.015625)"/>
      <path id="DejaVuSans-32" d="M 1228 531 
L 3431 531 
L 3431 0 
L 469 0 
L 469 531 
Q 828 903 1448 1529 
Q 2069 2156 2228 2338 
Q 2531 2678 2651 2914 
Q 2772 3150 2772 3378 
Q 2772 3750 2511 3984 
Q 2250 4219 1831 4219 
Q 1534 4219 1204 4116 
Q 875 4013 500 3803 
L 500 4441 
Q 881 4594 1212 4672 
Q 1544 4750 1819 4750 
Q 2544 4750 2975 4387 
Q 3406 4025 3406 3419 
Q 3406 3131 3298 2873 
Q 3191 2616 2906 2266 
Q 2828 2175 2409 1742 
Q 1991 1309 1228 531 
z
" transform="scale(0.015625)"/>
     </defs>
     <use xlink:href="#DMSans24pt-Regular-41" transform="translate(0 0.78125)"/>
     <use xlink:href="#DMSans24pt-Regular-62" transform="translate(66.399994 0.78125)"/>
     <use xlink:href="#DMSans24pt-Regular-6c" transform="translate(129.199982 0.78125)"/>
     <use xlink:href="#DMSans24pt-Regular-61" transform="translate(151.399979 0.78125)"/>
     <use xlink:href="#DMSans24pt-Regular-74" transform="translate(205.599976 0.78125)"/>
     <use xlink:href="#DMSans24pt-Regular-69" transform="translate(244.299973 0.78125)"/>
     <use xlink:href="#DMSans24pt-Regular-6f" transform="translate(268.199966 0.78125)"/>
     <use xlink:href="#DMSans24pt-Regular-6e" transform="translate(327.399963 0.78125)"/>
     <use xlink:href="#DMSans24pt-Regular-20" transform="translate(384.59996 0.78125)"/>
     <use xlink:href="#DMSans24pt-Regular-73" transform="translate(411.099945 0.78125)"/>
     <use xlink:href="#DMSans24pt-Regular-74" transform="translate(461.09993 0.78125)"/>
     <use xlink:href="#DMSans24pt-Regular-75" transform="translate(499.799927 0.78125)"/>
     <use xlink:href="#DMSans24pt-Regular-64" transform="translate(556.999924 0.78125)"/>
     <use xlink:href="#DMSans24pt-Regular-79" transform="translate(619.899918 0.78125)"/>
     <use xlink:href="#DMSans24pt-Regular-20" transform="translate(675.499908 0.78125)"/>
     <use xlink:href="#DMSans24pt-Regular-61" transform="translate(701.999893 0.78125)"/>
     <use xlink:href="#DMSans24pt-Regular-74" transform="translate(756.19989 0.78125)"/>
     <use xlink:href="#DMSans24pt-Regular-20" transform="translate(794.899887 0.78125)"/>
     <use xlink:href="#DMSans24pt-Regular-74" transform="translate(821.399872 0.78125)"/>
     <use xlink:href="#DMSans24pt-Regular-68" transform="translate(860.099869 0.78125)"/>
     <use xlink:href="#DMSans24pt-Regular-72" transform="translate(917.299866 0.78125)"/>
     <use xlink:href="#DMSans24pt-Regular-65" transform="translate(953.599854 0.78125)"/>
     <use xlink:href="#DMSans24pt-Regular-73" transform="translate(1010.499847 0.78125)"/>
     <use xlink:href="#DMSans24pt-Regular-68" transform="translate(1060.499832 0.78125)"/>
     <use xlink:href="#DMSans24pt-Regular-6f" transform="translate(1117.699829 0.78125)"/>
     <use xlink:href="#DMSans24pt-Regular-6c" transform="translate(1176.899826 0.78125)"/>
     <use xlink:href="#DMSans24pt-Regular-64" transform="translate(1199.099823 0.78125)"/>
     <use xlink:href="#DMSans24pt-Regular-73" transform="translate(1261.999817 0.78125)"/>
     <use xlink:href="#DMSans24pt-Regular-20" transform="translate(1311.999802 0.78125)"/>
     <use xlink:href="#DMSans24pt-Regular-6f" transform="translate(1338.499786 0.78125)"/>
     <use xlink:href="#DMSans24pt-Regular-66" transform="translate(1397.699783 0.78125)"/>
     <use xlink:href="#DMSans24pt-Regular-20" transform="translate(1430.999771 0.78125)"/>
     <use xlink:href="#STIXSizeOneSym-Regular-221a" transform="translate(1457.499756 0.921875) scale(0.561205)"/>
     <use xlink:href="#DejaVuSans-Oblique-6e" transform="translate(1529.307358 0.75)"/>
     <use xlink:href="#DejaVuSans-31" transform="translate(1592.686264 -15.65625) scale(0.7)"/>
     <use xlink:href="#DejaVuSans-22c5" transform="translate(1659.439194 0.75)"/>
     <use xlink:href="#DejaVuSans-Oblique-6e" transform="translate(1710.708725 0.75)"/>
     <use xlink:href="#DejaVuSans-32" transform="translate(1774.087631 -15.65625) scale(0.7)"/>
     <path d="M 1516.807358 81.5 
L 1516.807358 87.75 
L 1833.858139 87.75 
L 1833.858139 81.5 
L 1516.807358 81.5 
z
"/>
    </g>
   </g>
  </g>
 </g>
 <defs>
  <clipPath id="p3bcd063637">
   <rect x="42.779688" y="24.48" width="446.4" height="221.76"/>
  </clipPath>
 </defs>
</svg>
