<?xml version="1.0" encoding="utf-8" standalone="no"?>
<!DOCTYPE svg PUBLIC "-//W3C//DTD SVG 1.1//EN"
  "http://www.w3.org/Graphics/SVG/1.1/DTD/svg11.dtd">
<svg xmlns:xlink="http://www.w3.org/1999/xlink" width="504.059375pt" height="212.72pt" viewBox="0 0 504.059375 212.72" xmlns="http://www.w3.org/2000/svg" version="1.1">
 <metadata>
  <rdf:RDF xmlns:dc="http://purl.org/dc/elements/1.1/" xmlns:cc="http://creativecommons.org/ns#" xmlns:rdf="http://www.w3.org/1999/02/22-rdf-syntax-ns#">
   <cc:Work>
    <dc:type rdf:resource="http://purl.org/dc/dcmitype/StillImage"/>
    <dc:date>2024-10-01T22:55:07.958353</dc:date>
    <dc:format>image/svg+xml</dc:format>
    <dc:creator>
     <cc:Agent>
      <dc:title>Matplotlib v3.9.2, https://matplotlib.org/</dc:title>
     </cc:Agent>
    </dc:creator>
   </cc:Work>
  </rdf:RDF>
 </metadata>
 <defs>
  <style type="text/css">*{stroke-linejoin: round; stroke-linecap: butt}</style>
 </defs>
 <g id="figure_1">
  <g id="patch_1">
   <path d="M 0 212.72 
L 504.059375 212.72 
L 504.059375 0 
L 0 0 
L 0 212.72 
z
" style="fill: none"/>
  </g>
  <g id="axes_1">
   <g id="patch_2">
    <path d="M 50.459375 173.52 
L 253.368466 173.52 
L 253.368466 7.2 
L 50.459375 7.2 
L 50.459375 173.52 
z
" style="fill: none"/>
   </g>
   <g id="matplotlib.axis_1">
    <g id="xtick_1">
     <g id="line2d_1">
      <defs>
       <path id="m7b72552fb1" d="M 0 0 
L 0 3.5 
" style="stroke: #000000; stroke-width: 0.8"/>
      </defs>
      <g>
       <use xlink:href="#m7b72552fb1" x="59.682515" y="173.52" style="stroke: #000000; stroke-width: 0.8"/>
      </g>
     </g>
     <g id="text_1">
      <!-- 0 -->
      <g transform="translate(56.217672 187.72) scale(0.1 -0.1)">
       <defs>
        <path id="DMSans24pt-Regular-30" d="M 2221 -77 
Q 1626 -77 1194 214 
Q 762 506 531 1027 
Q 301 1549 301 2240 
Q 301 2931 531 3452 
Q 762 3974 1194 4265 
Q 1626 4557 2221 4557 
Q 2822 4557 3248 4265 
Q 3674 3974 3904 3452 
Q 4134 2931 4134 2240 
Q 4134 1549 3904 1027 
Q 3674 506 3248 214 
Q 2822 -77 2221 -77 
z
M 2221 397 
Q 2618 397 2925 617 
Q 3232 838 3408 1251 
Q 3584 1664 3584 2240 
Q 3584 2816 3408 3229 
Q 3232 3642 2925 3859 
Q 2618 4077 2221 4077 
Q 1824 4077 1513 3859 
Q 1203 3642 1027 3229 
Q 851 2816 851 2240 
Q 851 1664 1027 1251 
Q 1203 838 1513 617 
Q 1824 397 2221 397 
z
" transform="scale(0.015625)"/>
       </defs>
       <use xlink:href="#DMSans24pt-Regular-30"/>
      </g>
     </g>
    </g>
    <g id="xtick_2">
     <g id="line2d_2">
      <g>
       <use xlink:href="#m7b72552fb1" x="102.580843" y="173.52" style="stroke: #000000; stroke-width: 0.8"/>
      </g>
     </g>
     <g id="text_2">
      <!-- 10 -->
      <g transform="translate(97.605843 187.72) scale(0.1 -0.1)">
       <defs>
        <path id="DMSans24pt-Regular-31" d="M 915 0 
L 915 3878 
L 192 3718 
L 192 4090 
L 1094 4480 
L 1459 4480 
L 1459 0 
L 915 0 
z
" transform="scale(0.015625)"/>
       </defs>
       <use xlink:href="#DMSans24pt-Regular-31"/>
       <use xlink:href="#DMSans24pt-Regular-30" x="30.199997"/>
      </g>
     </g>
    </g>
    <g id="xtick_3">
     <g id="line2d_3">
      <g>
       <use xlink:href="#m7b72552fb1" x="145.479171" y="173.52" style="stroke: #000000; stroke-width: 0.8"/>
      </g>
     </g>
     <g id="text_3">
      <!-- 20 -->
      <g transform="translate(139.154171 187.72) scale(0.1 -0.1)">
       <defs>
        <path id="DMSans24pt-Regular-32" d="M 403 0 
L 403 378 
Q 858 736 1264 1101 
Q 1670 1466 1987 1827 
Q 2304 2189 2486 2534 
Q 2669 2880 2669 3200 
Q 2669 3437 2589 3638 
Q 2509 3840 2329 3968 
Q 2150 4096 1843 4096 
Q 1549 4096 1350 3965 
Q 1152 3834 1053 3619 
Q 954 3405 954 3149 
L 435 3149 
Q 442 3590 624 3907 
Q 806 4224 1126 4390 
Q 1446 4557 1850 4557 
Q 2445 4557 2825 4221 
Q 3206 3885 3206 3219 
Q 3206 2829 3011 2438 
Q 2816 2048 2505 1686 
Q 2195 1325 1846 1011 
Q 1498 698 1197 448 
L 3360 448 
L 3360 0 
L 403 0 
z
" transform="scale(0.015625)"/>
       </defs>
       <use xlink:href="#DMSans24pt-Regular-32"/>
       <use xlink:href="#DMSans24pt-Regular-30" x="57.199997"/>
      </g>
     </g>
    </g>
    <g id="xtick_4">
     <g id="line2d_4">
      <g>
       <use xlink:href="#m7b72552fb1" x="188.377499" y="173.52" style="stroke: #000000; stroke-width: 0.8"/>
      </g>
     </g>
     <g id="text_4">
      <!-- 30 -->
      <g transform="translate(181.972812 187.72) scale(0.1 -0.1)">
       <defs>
        <path id="DMSans24pt-Regular-33" d="M 1869 -77 
Q 1440 -77 1091 80 
Q 742 237 537 550 
Q 333 864 320 1331 
L 864 1331 
Q 870 1075 988 860 
Q 1107 646 1331 518 
Q 1555 390 1869 390 
Q 2342 390 2582 652 
Q 2822 915 2822 1286 
Q 2822 1600 2672 1798 
Q 2522 1997 2269 2093 
Q 2016 2189 1715 2189 
L 1382 2189 
L 1382 2643 
L 1715 2643 
Q 2150 2643 2396 2844 
Q 2643 3046 2643 3398 
Q 2643 3699 2448 3894 
Q 2253 4090 1869 4090 
Q 1498 4090 1277 3872 
Q 1056 3654 1024 3315 
L 480 3315 
Q 499 3680 675 3961 
Q 851 4243 1158 4400 
Q 1466 4557 1869 4557 
Q 2304 4557 2595 4403 
Q 2886 4250 3036 3994 
Q 3187 3738 3187 3430 
Q 3187 3098 3004 2816 
Q 2822 2534 2445 2438 
Q 2842 2355 3104 2060 
Q 3366 1766 3366 1286 
Q 3366 922 3196 611 
Q 3027 301 2694 112 
Q 2362 -77 1869 -77 
z
" transform="scale(0.015625)"/>
       </defs>
       <use xlink:href="#DMSans24pt-Regular-33"/>
       <use xlink:href="#DMSans24pt-Regular-30" x="58.799988"/>
      </g>
     </g>
    </g>
    <g id="xtick_5">
     <g id="line2d_5">
      <g>
       <use xlink:href="#m7b72552fb1" x="231.275827" y="173.52" style="stroke: #000000; stroke-width: 0.8"/>
      </g>
     </g>
     <g id="text_5">
      <!-- 40 -->
      <g transform="translate(224.785983 187.72) scale(0.1 -0.1)">
       <defs>
        <path id="DMSans24pt-Regular-34" d="M 2502 0 
L 2502 960 
L 230 960 
L 230 1376 
L 2406 4480 
L 3034 4480 
L 3034 1434 
L 3699 1434 
L 3699 960 
L 3034 960 
L 3034 0 
L 2502 0 
z
M 826 1434 
L 2528 1434 
L 2528 3885 
L 826 1434 
z
" transform="scale(0.015625)"/>
       </defs>
       <use xlink:href="#DMSans24pt-Regular-34"/>
       <use xlink:href="#DMSans24pt-Regular-30" x="60.499985"/>
      </g>
     </g>
    </g>
    <g id="text_6">
     <!-- Geometric Mean of Components ($\sqrt{n_1 \cdot n_2}$) -->
     <g transform="translate(51.91392 203.32) scale(0.1 -0.1)">
      <defs>
       <path id="DMSans24pt-Regular-47" d="M 2400 -77 
Q 1773 -77 1299 214 
Q 826 506 563 1024 
Q 301 1542 301 2234 
Q 301 2918 566 3443 
Q 832 3968 1321 4262 
Q 1811 4557 2477 4557 
Q 3232 4557 3737 4195 
Q 4243 3834 4384 3187 
L 3763 3187 
Q 3674 3590 3341 3827 
Q 3008 4064 2477 4064 
Q 1984 4064 1616 3843 
Q 1248 3622 1049 3212 
Q 851 2803 851 2234 
Q 851 1664 1049 1251 
Q 1248 838 1603 620 
Q 1958 403 2419 403 
Q 3136 403 3501 825 
Q 3866 1248 3917 1971 
L 2624 1971 
L 2624 2394 
L 4467 2394 
L 4467 0 
L 3974 0 
L 3930 736 
Q 3693 346 3337 134 
Q 2982 -77 2400 -77 
z
" transform="scale(0.015625)"/>
       <path id="DMSans24pt-Regular-65" d="M 1869 -77 
Q 1414 -77 1062 131 
Q 710 339 508 713 
Q 307 1088 307 1587 
Q 307 2093 505 2464 
Q 704 2835 1059 3043 
Q 1414 3251 1882 3251 
Q 2349 3251 2681 3043 
Q 3014 2835 3193 2499 
Q 3373 2163 3373 1766 
Q 3373 1702 3373 1628 
Q 3373 1555 3366 1466 
L 832 1466 
Q 851 1101 1001 861 
Q 1152 621 1382 499 
Q 1613 378 1869 378 
Q 2202 378 2426 531 
Q 2650 685 2752 947 
L 3283 947 
Q 3162 506 2797 214 
Q 2432 -77 1869 -77 
z
M 1869 2797 
Q 1485 2797 1187 2566 
Q 890 2336 838 1882 
L 2842 1882 
Q 2822 2310 2550 2553 
Q 2278 2797 1869 2797 
z
" transform="scale(0.015625)"/>
       <path id="DMSans24pt-Regular-6f" d="M 1888 -77 
Q 1440 -77 1081 128 
Q 723 333 515 707 
Q 307 1082 307 1587 
Q 307 2093 518 2467 
Q 730 2842 1091 3046 
Q 1453 3251 1901 3251 
Q 2349 3251 2707 3046 
Q 3066 2842 3274 2467 
Q 3482 2093 3482 1587 
Q 3482 1082 3270 707 
Q 3059 333 2697 128 
Q 2336 -77 1888 -77 
z
M 1888 384 
Q 2163 384 2400 518 
Q 2637 653 2784 921 
Q 2931 1190 2931 1587 
Q 2931 1990 2787 2256 
Q 2643 2522 2406 2656 
Q 2170 2790 1901 2790 
Q 1632 2790 1392 2656 
Q 1152 2522 1005 2256 
Q 858 1990 858 1587 
Q 858 1190 1005 921 
Q 1152 653 1385 518 
Q 1619 384 1888 384 
z
" transform="scale(0.015625)"/>
       <path id="DMSans24pt-Regular-6d" d="M 442 0 
L 442 3174 
L 928 3174 
L 966 2714 
Q 1120 2970 1376 3110 
Q 1632 3251 1952 3251 
Q 2323 3251 2598 3097 
Q 2874 2944 3021 2630 
Q 3187 2925 3481 3088 
Q 3776 3251 4109 3251 
Q 4678 3251 5017 2908 
Q 5357 2566 5357 1856 
L 5357 0 
L 4826 0 
L 4826 1798 
Q 4826 2291 4627 2540 
Q 4429 2790 4058 2790 
Q 3674 2790 3421 2492 
Q 3168 2195 3168 1645 
L 3168 0 
L 2630 0 
L 2630 1798 
Q 2630 2291 2432 2540 
Q 2234 2790 1862 2790 
Q 1485 2790 1232 2492 
Q 979 2195 979 1645 
L 979 0 
L 442 0 
z
" transform="scale(0.015625)"/>
       <path id="DMSans24pt-Regular-74" d="M 1696 0 
Q 1261 0 1011 214 
Q 762 429 762 973 
L 762 2720 
L 211 2720 
L 211 3174 
L 762 3174 
L 832 3936 
L 1299 3936 
L 1299 3174 
L 2234 3174 
L 2234 2720 
L 1299 2720 
L 1299 973 
Q 1299 672 1420 566 
Q 1542 461 1850 461 
L 2182 461 
L 2182 0 
L 1696 0 
z
" transform="scale(0.015625)"/>
       <path id="DMSans24pt-Regular-72" d="M 442 0 
L 442 3174 
L 928 3174 
L 973 2560 
Q 1120 2880 1421 3065 
Q 1722 3251 2163 3251 
L 2163 2688 
L 2016 2688 
Q 1734 2688 1497 2592 
Q 1261 2496 1120 2259 
Q 979 2022 979 1600 
L 979 0 
L 442 0 
z
" transform="scale(0.015625)"/>
       <path id="DMSans24pt-Regular-69" d="M 768 3878 
Q 608 3878 502 3984 
Q 397 4090 397 4250 
Q 397 4410 502 4509 
Q 608 4608 768 4608 
Q 922 4608 1030 4509 
Q 1139 4410 1139 4250 
Q 1139 4090 1030 3984 
Q 922 3878 768 3878 
z
M 499 0 
L 499 3174 
L 1037 3174 
L 1037 0 
L 499 0 
z
" transform="scale(0.015625)"/>
       <path id="DMSans24pt-Regular-63" d="M 1901 -77 
Q 1446 -77 1084 131 
Q 723 339 515 713 
Q 307 1088 307 1587 
Q 307 2086 515 2460 
Q 723 2835 1084 3043 
Q 1446 3251 1901 3251 
Q 2470 3251 2854 2956 
Q 3238 2662 3341 2170 
L 2790 2170 
Q 2726 2464 2476 2627 
Q 2227 2790 1894 2790 
Q 1626 2790 1389 2656 
Q 1152 2522 1005 2253 
Q 858 1984 858 1587 
Q 858 1190 1005 921 
Q 1152 653 1389 515 
Q 1626 378 1894 378 
Q 2227 378 2476 544 
Q 2726 710 2790 1005 
L 3341 1005 
Q 3238 525 2854 224 
Q 2470 -77 1901 -77 
z
" transform="scale(0.015625)"/>
       <path id="DMSans24pt-Regular-20" transform="scale(0.015625)"/>
       <path id="DMSans24pt-Regular-4d" d="M 474 0 
L 474 4480 
L 1101 4480 
L 2707 1357 
L 4314 4480 
L 4947 4480 
L 4947 0 
L 4410 0 
L 4410 3520 
L 2912 640 
L 2509 640 
L 1011 3514 
L 1011 0 
L 474 0 
z
" transform="scale(0.015625)"/>
       <path id="DMSans24pt-Regular-61" d="M 1498 -77 
Q 1101 -77 838 57 
Q 576 192 448 416 
Q 320 640 320 902 
Q 320 1389 691 1651 
Q 1062 1914 1702 1914 
L 2560 1914 
Q 2560 2355 2349 2576 
Q 2138 2797 1760 2797 
Q 1446 2797 1216 2640 
Q 986 2483 934 2182 
L 384 2182 
Q 422 2528 620 2765 
Q 819 3002 1123 3126 
Q 1427 3251 1760 3251 
Q 2426 3251 2762 2896 
Q 3098 2541 3098 1952 
L 3098 0 
L 2618 0 
L 2586 570 
Q 2451 301 2192 112 
Q 1933 -77 1498 -77 
z
M 1581 378 
Q 1894 378 2112 538 
Q 2330 698 2445 954 
Q 2560 1210 2560 1491 
L 2560 1498 
L 1747 1498 
Q 1274 1498 1078 1334 
Q 883 1171 883 928 
Q 883 678 1065 528 
Q 1248 378 1581 378 
z
" transform="scale(0.015625)"/>
       <path id="DMSans24pt-Regular-6e" d="M 442 0 
L 442 3174 
L 928 3174 
L 960 2605 
Q 1114 2906 1402 3078 
Q 1690 3251 2054 3251 
Q 2618 3251 2954 2908 
Q 3290 2566 3290 1856 
L 3290 0 
L 2752 0 
L 2752 1798 
Q 2752 2291 2541 2540 
Q 2330 2790 1933 2790 
Q 1523 2790 1251 2492 
Q 979 2195 979 1645 
L 979 0 
L 442 0 
z
" transform="scale(0.015625)"/>
       <path id="DMSans24pt-Regular-66" d="M 614 0 
L 614 2720 
L 134 2720 
L 134 3174 
L 614 3174 
L 614 3725 
Q 614 4186 844 4397 
Q 1075 4608 1517 4608 
L 1837 4608 
L 1837 4147 
L 1600 4147 
Q 1363 4147 1257 4051 
Q 1152 3955 1152 3712 
L 1152 3174 
L 1933 3174 
L 1933 2720 
L 1152 2720 
L 1152 0 
L 614 0 
z
" transform="scale(0.015625)"/>
       <path id="DMSans24pt-Regular-43" d="M 2438 -77 
Q 1779 -77 1299 214 
Q 819 506 560 1027 
Q 301 1549 301 2240 
Q 301 2931 560 3452 
Q 819 3974 1299 4265 
Q 1779 4557 2438 4557 
Q 3213 4557 3693 4192 
Q 4173 3827 4307 3162 
L 3712 3162 
Q 3610 3578 3296 3830 
Q 2982 4083 2438 4083 
Q 1958 4083 1600 3862 
Q 1242 3642 1046 3229 
Q 851 2816 851 2240 
Q 851 1664 1046 1251 
Q 1242 838 1600 617 
Q 1958 397 2438 397 
Q 2982 397 3296 643 
Q 3610 890 3712 1299 
L 4307 1299 
Q 4173 653 3693 288 
Q 3213 -77 2438 -77 
z
" transform="scale(0.015625)"/>
       <path id="DMSans24pt-Regular-70" d="M 442 -1408 
L 442 3174 
L 928 3174 
L 979 2650 
Q 1133 2880 1417 3065 
Q 1702 3251 2144 3251 
Q 2618 3251 2970 3033 
Q 3322 2816 3517 2438 
Q 3712 2061 3712 1581 
Q 3712 1101 3517 726 
Q 3322 352 2966 137 
Q 2611 -77 2138 -77 
Q 1747 -77 1446 83 
Q 1146 243 979 531 
L 979 -1408 
L 442 -1408 
z
M 2080 390 
Q 2400 390 2646 540 
Q 2893 691 3030 960 
Q 3168 1229 3168 1587 
Q 3168 1946 3030 2214 
Q 2893 2483 2646 2633 
Q 2400 2784 2080 2784 
Q 1760 2784 1513 2633 
Q 1267 2483 1129 2214 
Q 992 1946 992 1587 
Q 992 1229 1129 960 
Q 1267 691 1513 540 
Q 1760 390 2080 390 
z
" transform="scale(0.015625)"/>
       <path id="DMSans24pt-Regular-73" d="M 1658 -77 
Q 1088 -77 710 211 
Q 333 499 269 992 
L 819 992 
Q 870 742 1084 560 
Q 1299 378 1664 378 
Q 2003 378 2163 522 
Q 2323 666 2323 864 
Q 2323 1146 2115 1245 
Q 1907 1344 1530 1421 
Q 1274 1472 1014 1568 
Q 755 1664 585 1840 
Q 416 2016 416 2304 
Q 416 2720 726 2985 
Q 1037 3251 1568 3251 
Q 2074 3251 2397 3001 
Q 2720 2752 2771 2278 
L 2240 2278 
Q 2214 2522 2038 2659 
Q 1862 2797 1562 2797 
Q 1267 2797 1113 2675 
Q 960 2554 960 2355 
Q 960 2170 1161 2054 
Q 1363 1939 1709 1869 
Q 2010 1805 2272 1712 
Q 2534 1619 2704 1436 
Q 2874 1254 2874 909 
Q 2880 480 2550 201 
Q 2221 -77 1658 -77 
z
" transform="scale(0.015625)"/>
       <path id="DMSans24pt-Regular-28" d="M 1587 -928 
Q 1242 -595 947 -137 
Q 653 320 477 889 
Q 301 1459 301 2131 
Q 301 2803 477 3372 
Q 653 3942 947 4403 
Q 1242 4864 1587 5190 
L 2138 5190 
L 2138 5139 
Q 1555 4563 1196 3792 
Q 838 3021 838 2131 
Q 838 1242 1196 470 
Q 1555 -301 2138 -877 
L 2138 -928 
L 1587 -928 
z
" transform="scale(0.015625)"/>
       <path id="STIXSizeOneSym-Regular-221a" d="M 6970 9933 
L 3373 -1888 
L 3104 -1888 
L 1626 2918 
Q 1555 3149 1465 3251 
Q 1376 3354 1229 3354 
Q 1011 3354 794 3181 
L 717 3309 
L 1766 4115 
L 1926 4115 
L 3379 -602 
L 3405 -602 
L 6605 9933 
L 6970 9933 
z
" transform="scale(0.015625)"/>
       <path id="DejaVuSans-Oblique-6e" d="M 3566 2113 
L 3156 0 
L 2578 0 
L 2988 2091 
Q 3016 2238 3031 2350 
Q 3047 2463 3047 2528 
Q 3047 2791 2881 2937 
Q 2716 3084 2419 3084 
Q 1956 3084 1622 2776 
Q 1288 2469 1184 1941 
L 800 0 
L 225 0 
L 903 3500 
L 1478 3500 
L 1363 2950 
Q 1603 3253 1940 3418 
Q 2278 3584 2650 3584 
Q 3113 3584 3367 3334 
Q 3622 3084 3622 2631 
Q 3622 2519 3608 2391 
Q 3594 2263 3566 2113 
z
" transform="scale(0.015625)"/>
       <path id="DejaVuSans-31" d="M 794 531 
L 1825 531 
L 1825 4091 
L 703 3866 
L 703 4441 
L 1819 4666 
L 2450 4666 
L 2450 531 
L 3481 531 
L 3481 0 
L 794 0 
L 794 531 
z
" transform="scale(0.015625)"/>
       <path id="DejaVuSans-22c5" d="M 684 2619 
L 1344 2619 
L 1344 1825 
L 684 1825 
L 684 2619 
z
" transform="scale(0.015625)"/>
       <path id="DejaVuSans-32" d="M 1228 531 
L 3431 531 
L 3431 0 
L 469 0 
L 469 531 
Q 828 903 1448 1529 
Q 2069 2156 2228 2338 
Q 2531 2678 2651 2914 
Q 2772 3150 2772 3378 
Q 2772 3750 2511 3984 
Q 2250 4219 1831 4219 
Q 1534 4219 1204 4116 
Q 875 4013 500 3803 
L 500 4441 
Q 881 4594 1212 4672 
Q 1544 4750 1819 4750 
Q 2544 4750 2975 4387 
Q 3406 4025 3406 3419 
Q 3406 3131 3298 2873 
Q 3191 2616 2906 2266 
Q 2828 2175 2409 1742 
Q 1991 1309 1228 531 
z
" transform="scale(0.015625)"/>
       <path id="DMSans24pt-Regular-29" d="M 794 -928 
L 243 -928 
L 243 -877 
Q 826 -301 1184 470 
Q 1542 1242 1542 2131 
Q 1542 3021 1187 3792 
Q 832 4563 243 5139 
L 243 5190 
L 794 5190 
Q 1146 4864 1437 4403 
Q 1728 3942 1904 3372 
Q 2080 2803 2080 2131 
Q 2080 1459 1904 889 
Q 1728 320 1437 -137 
Q 1146 -595 794 -928 
z
" transform="scale(0.015625)"/>
      </defs>
      <use xlink:href="#DMSans24pt-Regular-47" transform="translate(0 0.984375)"/>
      <use xlink:href="#DMSans24pt-Regular-65" transform="translate(75.699982 0.984375)"/>
      <use xlink:href="#DMSans24pt-Regular-6f" transform="translate(132.599976 0.984375)"/>
      <use xlink:href="#DMSans24pt-Regular-6d" transform="translate(191.799973 0.984375)"/>
      <use xlink:href="#DMSans24pt-Regular-65" transform="translate(281.299957 0.984375)"/>
      <use xlink:href="#DMSans24pt-Regular-74" transform="translate(338.199951 0.984375)"/>
      <use xlink:href="#DMSans24pt-Regular-72" transform="translate(376.899948 0.984375)"/>
      <use xlink:href="#DMSans24pt-Regular-69" transform="translate(413.199936 0.984375)"/>
      <use xlink:href="#DMSans24pt-Regular-63" transform="translate(437.09993 0.984375)"/>
      <use xlink:href="#DMSans24pt-Regular-20" transform="translate(494.099915 0.984375)"/>
      <use xlink:href="#DMSans24pt-Regular-4d" transform="translate(520.599899 0.984375)"/>
      <use xlink:href="#DMSans24pt-Regular-65" transform="translate(605.299881 0.984375)"/>
      <use xlink:href="#DMSans24pt-Regular-61" transform="translate(662.199875 0.984375)"/>
      <use xlink:href="#DMSans24pt-Regular-6e" transform="translate(716.399872 0.984375)"/>
      <use xlink:href="#DMSans24pt-Regular-20" transform="translate(773.599869 0.984375)"/>
      <use xlink:href="#DMSans24pt-Regular-6f" transform="translate(800.099854 0.984375)"/>
      <use xlink:href="#DMSans24pt-Regular-66" transform="translate(859.29985 0.984375)"/>
      <use xlink:href="#DMSans24pt-Regular-20" transform="translate(892.599838 0.984375)"/>
      <use xlink:href="#DMSans24pt-Regular-43" transform="translate(919.099823 0.984375)"/>
      <use xlink:href="#DMSans24pt-Regular-6f" transform="translate(991.099808 0.984375)"/>
      <use xlink:href="#DMSans24pt-Regular-6d" transform="translate(1050.299805 0.984375)"/>
      <use xlink:href="#DMSans24pt-Regular-70" transform="translate(1139.799789 0.984375)"/>
      <use xlink:href="#DMSans24pt-Regular-6f" transform="translate(1202.599777 0.984375)"/>
      <use xlink:href="#DMSans24pt-Regular-6e" transform="translate(1261.799774 0.984375)"/>
      <use xlink:href="#DMSans24pt-Regular-65" transform="translate(1318.999771 0.984375)"/>
      <use xlink:href="#DMSans24pt-Regular-6e" transform="translate(1375.899765 0.984375)"/>
      <use xlink:href="#DMSans24pt-Regular-74" transform="translate(1433.099762 0.984375)"/>
      <use xlink:href="#DMSans24pt-Regular-73" transform="translate(1471.799759 0.984375)"/>
      <use xlink:href="#DMSans24pt-Regular-20" transform="translate(1521.799744 0.984375)"/>
      <use xlink:href="#DMSans24pt-Regular-28" transform="translate(1548.299728 0.984375)"/>
      <use xlink:href="#STIXSizeOneSym-Regular-221a" transform="translate(1585.499725 1.09375) scale(0.561205)"/>
      <use xlink:href="#DejaVuSans-Oblique-6e" transform="translate(1657.323822 0.75)"/>
      <use xlink:href="#DejaVuSans-31" transform="translate(1720.702728 -15.65625) scale(0.7)"/>
      <use xlink:href="#DejaVuSans-22c5" transform="translate(1787.455658 0.75)"/>
      <use xlink:href="#DejaVuSans-Oblique-6e" transform="translate(1838.725189 0.75)"/>
      <use xlink:href="#DejaVuSans-32" transform="translate(1902.104095 -15.65625) scale(0.7)"/>
      <use xlink:href="#DMSans24pt-Regular-29" transform="translate(1961.874603 0.984375)"/>
      <path d="M 1644.823822 81.5 
L 1644.823822 87.75 
L 1961.874603 87.75 
L 1961.874603 81.5 
L 1644.823822 81.5 
z
"/>
     </g>
    </g>
   </g>
   <g id="matplotlib.axis_2">
    <g id="ytick_1">
     <g id="line2d_6">
      <defs>
       <path id="m32d5a4c29f" d="M 0 0 
L -3.5 0 
" style="stroke: #000000; stroke-width: 0.8"/>
      </defs>
      <g>
       <use xlink:href="#m32d5a4c29f" x="50.459375" y="165.96" style="stroke: #000000; stroke-width: 0.8"/>
      </g>
     </g>
     <g id="text_7">
      <!-- 0.00 -->
      <g transform="translate(20.720313 169.56) scale(0.1 -0.1)">
       <defs>
        <path id="DMSans24pt-Regular-2e" d="M 627 -32 
Q 467 -32 361 73 
Q 256 179 256 333 
Q 256 486 361 592 
Q 467 698 627 698 
Q 787 698 889 592 
Q 992 486 992 333 
Q 992 179 889 73 
Q 787 -32 627 -32 
z
" transform="scale(0.015625)"/>
       </defs>
       <use xlink:href="#DMSans24pt-Regular-30"/>
       <use xlink:href="#DMSans24pt-Regular-2e" x="69.299988"/>
       <use xlink:href="#DMSans24pt-Regular-30" x="88.799973"/>
       <use xlink:href="#DMSans24pt-Regular-30" x="158.09996"/>
      </g>
     </g>
    </g>
    <g id="ytick_2">
     <g id="line2d_7">
      <g>
       <use xlink:href="#m32d5a4c29f" x="50.459375" y="142.195836" style="stroke: #000000; stroke-width: 0.8"/>
      </g>
     </g>
     <g id="text_8">
      <!-- 0.25 -->
      <g transform="translate(22.739063 145.795836) scale(0.1 -0.1)">
       <defs>
        <path id="DMSans24pt-Regular-35" d="M 1997 -77 
Q 1536 -77 1197 92 
Q 858 262 659 553 
Q 461 845 410 1210 
L 934 1210 
Q 1011 838 1292 611 
Q 1574 384 2003 384 
Q 2323 384 2553 534 
Q 2784 685 2909 941 
Q 3034 1197 3034 1510 
Q 3034 2010 2755 2317 
Q 2477 2624 2022 2624 
Q 1651 2624 1388 2457 
Q 1126 2291 1005 2022 
L 493 2022 
L 877 4480 
L 3226 4480 
L 3226 4013 
L 1293 4013 
L 1030 2650 
Q 1190 2835 1459 2956 
Q 1728 3078 2080 3078 
Q 2522 3078 2851 2873 
Q 3181 2669 3366 2317 
Q 3552 1965 3552 1517 
Q 3552 1088 3369 723 
Q 3187 358 2838 140 
Q 2490 -77 1997 -77 
z
" transform="scale(0.015625)"/>
       </defs>
       <use xlink:href="#DMSans24pt-Regular-30"/>
       <use xlink:href="#DMSans24pt-Regular-2e" x="69.299988"/>
       <use xlink:href="#DMSans24pt-Regular-32" x="88.799973"/>
       <use xlink:href="#DMSans24pt-Regular-35" x="145.999969"/>
      </g>
     </g>
    </g>
    <g id="ytick_3">
     <g id="line2d_8">
      <g>
       <use xlink:href="#m32d5a4c29f" x="50.459375" y="118.431671" style="stroke: #000000; stroke-width: 0.8"/>
      </g>
     </g>
     <g id="text_9">
      <!-- 0.50 -->
      <g transform="translate(21.529688 122.031671) scale(0.1 -0.1)">
       <use xlink:href="#DMSans24pt-Regular-30"/>
       <use xlink:href="#DMSans24pt-Regular-2e" x="69.299988"/>
       <use xlink:href="#DMSans24pt-Regular-35" x="88.799973"/>
       <use xlink:href="#DMSans24pt-Regular-30" x="149.999969"/>
      </g>
     </g>
    </g>
    <g id="ytick_4">
     <g id="line2d_9">
      <g>
       <use xlink:href="#m32d5a4c29f" x="50.459375" y="94.667507" style="stroke: #000000; stroke-width: 0.8"/>
      </g>
     </g>
     <g id="text_10">
      <!-- 0.75 -->
      <g transform="translate(23.129688 98.267507) scale(0.1 -0.1)">
       <defs>
        <path id="DMSans24pt-Regular-37" d="M 845 0 
L 2624 4019 
L 166 4019 
L 166 4480 
L 3174 4480 
L 3174 4077 
L 1414 0 
L 845 0 
z
" transform="scale(0.015625)"/>
       </defs>
       <use xlink:href="#DMSans24pt-Regular-30"/>
       <use xlink:href="#DMSans24pt-Regular-2e" x="69.299988"/>
       <use xlink:href="#DMSans24pt-Regular-37" x="88.799973"/>
       <use xlink:href="#DMSans24pt-Regular-35" x="142.09996"/>
      </g>
     </g>
    </g>
    <g id="ytick_5">
     <g id="line2d_10">
      <g>
       <use xlink:href="#m32d5a4c29f" x="50.459375" y="70.903342" style="stroke: #000000; stroke-width: 0.8"/>
      </g>
     </g>
     <g id="text_11">
      <!-- 1.00 -->
      <g transform="translate(24.629688 74.503342) scale(0.1 -0.1)">
       <use xlink:href="#DMSans24pt-Regular-31"/>
       <use xlink:href="#DMSans24pt-Regular-2e" x="30.199997"/>
       <use xlink:href="#DMSans24pt-Regular-30" x="49.699982"/>
       <use xlink:href="#DMSans24pt-Regular-30" x="118.999969"/>
      </g>
     </g>
    </g>
    <g id="ytick_6">
     <g id="line2d_11">
      <g>
       <use xlink:href="#m32d5a4c29f" x="50.459375" y="47.139178" style="stroke: #000000; stroke-width: 0.8"/>
      </g>
     </g>
     <g id="text_12">
      <!-- 1.25 -->
      <g transform="translate(26.648438 50.739178) scale(0.1 -0.1)">
       <use xlink:href="#DMSans24pt-Regular-31"/>
       <use xlink:href="#DMSans24pt-Regular-2e" x="30.199997"/>
       <use xlink:href="#DMSans24pt-Regular-32" x="49.699982"/>
       <use xlink:href="#DMSans24pt-Regular-35" x="106.899979"/>
      </g>
     </g>
    </g>
    <g id="ytick_7">
     <g id="line2d_12">
      <g>
       <use xlink:href="#m32d5a4c29f" x="50.459375" y="23.375013" style="stroke: #000000; stroke-width: 0.8"/>
      </g>
     </g>
     <g id="text_13">
      <!-- 1.50 -->
      <g transform="translate(25.439063 26.975013) scale(0.1 -0.1)">
       <use xlink:href="#DMSans24pt-Regular-31"/>
       <use xlink:href="#DMSans24pt-Regular-2e" x="30.199997"/>
       <use xlink:href="#DMSans24pt-Regular-35" x="49.699982"/>
       <use xlink:href="#DMSans24pt-Regular-30" x="110.899979"/>
      </g>
     </g>
    </g>
    <g id="text_14">
     <!-- POMMix Embedding Cosine Distance -->
     <g transform="translate(14.4 176.029531) rotate(-90) scale(0.1 -0.1)">
      <defs>
       <path id="DMSans24pt-Regular-50" d="M 474 0 
L 474 4480 
L 1946 4480 
Q 2470 4480 2809 4307 
Q 3149 4134 3312 3840 
Q 3475 3546 3475 3174 
Q 3475 2810 3315 2515 
Q 3155 2221 2816 2045 
Q 2477 1869 1946 1869 
L 1011 1869 
L 1011 0 
L 474 0 
z
M 1011 2323 
L 1933 2323 
Q 2464 2323 2694 2553 
Q 2925 2784 2925 3174 
Q 2925 3584 2694 3808 
Q 2464 4032 1933 4032 
L 1011 4032 
L 1011 2323 
z
" transform="scale(0.015625)"/>
       <path id="DMSans24pt-Regular-4f" d="M 2509 -77 
Q 1850 -77 1354 214 
Q 858 506 579 1027 
Q 301 1549 301 2240 
Q 301 2925 579 3446 
Q 858 3968 1354 4262 
Q 1850 4557 2509 4557 
Q 3174 4557 3670 4262 
Q 4166 3968 4441 3446 
Q 4717 2925 4717 2240 
Q 4717 1549 4441 1027 
Q 4166 506 3670 214 
Q 3174 -77 2509 -77 
z
M 2509 397 
Q 3002 397 3376 617 
Q 3750 838 3958 1251 
Q 4166 1664 4166 2240 
Q 4166 2816 3958 3229 
Q 3750 3642 3376 3859 
Q 3002 4077 2509 4077 
Q 2016 4077 1641 3859 
Q 1267 3642 1059 3229 
Q 851 2816 851 2240 
Q 851 1664 1059 1251 
Q 1267 838 1641 617 
Q 2016 397 2509 397 
z
" transform="scale(0.015625)"/>
       <path id="DMSans24pt-Regular-78" d="M 122 0 
L 1222 1587 
L 122 3174 
L 704 3174 
L 1594 1862 
L 2490 3174 
L 3066 3174 
L 1965 1587 
L 3066 0 
L 2490 0 
L 1594 1312 
L 704 0 
L 122 0 
z
" transform="scale(0.015625)"/>
       <path id="DMSans24pt-Regular-45" d="M 474 0 
L 474 4480 
L 3245 4480 
L 3245 4038 
L 1011 4038 
L 1011 2477 
L 3053 2477 
L 3053 2042 
L 1011 2042 
L 1011 442 
L 3245 442 
L 3245 0 
L 474 0 
z
" transform="scale(0.015625)"/>
       <path id="DMSans24pt-Regular-62" d="M 2138 -77 
Q 1747 -77 1446 83 
Q 1146 243 979 531 
L 928 0 
L 442 0 
L 442 4608 
L 979 4608 
L 979 2650 
Q 1133 2880 1417 3065 
Q 1702 3251 2144 3251 
Q 2618 3251 2970 3033 
Q 3322 2816 3517 2438 
Q 3712 2061 3712 1581 
Q 3712 1101 3517 726 
Q 3322 352 2966 137 
Q 2611 -77 2138 -77 
z
M 2080 390 
Q 2400 390 2646 540 
Q 2893 691 3030 960 
Q 3168 1229 3168 1587 
Q 3168 1946 3030 2214 
Q 2893 2483 2646 2633 
Q 2400 2784 2080 2784 
Q 1760 2784 1513 2633 
Q 1267 2483 1129 2214 
Q 992 1946 992 1587 
Q 992 1229 1129 960 
Q 1267 691 1513 540 
Q 1760 390 2080 390 
z
" transform="scale(0.015625)"/>
       <path id="DMSans24pt-Regular-64" d="M 1882 -77 
Q 1408 -77 1053 140 
Q 698 358 502 736 
Q 307 1114 307 1594 
Q 307 2074 502 2448 
Q 698 2822 1056 3036 
Q 1414 3251 1888 3251 
Q 2278 3251 2582 3091 
Q 2886 2931 3046 2643 
L 3046 4608 
L 3584 4608 
L 3584 0 
L 3098 0 
L 3046 525 
Q 2893 294 2605 108 
Q 2317 -77 1882 -77 
z
M 1939 390 
Q 2259 390 2505 540 
Q 2752 691 2889 960 
Q 3027 1229 3027 1587 
Q 3027 1946 2889 2214 
Q 2752 2483 2505 2633 
Q 2259 2784 1939 2784 
Q 1626 2784 1379 2633 
Q 1133 2483 995 2214 
Q 858 1946 858 1587 
Q 858 1229 995 960 
Q 1133 691 1379 540 
Q 1626 390 1939 390 
z
" transform="scale(0.015625)"/>
       <path id="DMSans24pt-Regular-67" d="M 1696 998 
Q 1427 998 1210 1069 
L 883 768 
Q 954 717 1059 681 
Q 1165 646 1363 617 
Q 1562 589 1920 557 
Q 2566 512 2838 262 
Q 3110 13 3110 -390 
Q 3110 -666 2960 -915 
Q 2810 -1165 2499 -1325 
Q 2189 -1485 1702 -1485 
Q 1056 -1485 646 -1229 
Q 237 -973 237 -461 
Q 237 -282 333 -74 
Q 429 134 691 320 
Q 550 378 451 448 
Q 352 518 269 595 
L 269 742 
L 813 1286 
Q 435 1600 435 2125 
Q 435 2438 582 2691 
Q 730 2944 1011 3097 
Q 1293 3251 1696 3251 
Q 1965 3251 2195 3174 
L 3366 3174 
L 3366 2771 
L 2778 2746 
Q 2957 2477 2957 2125 
Q 2957 1811 2809 1555 
Q 2662 1299 2380 1148 
Q 2099 998 1696 998 
z
M 1696 1440 
Q 2035 1440 2236 1616 
Q 2438 1792 2438 2125 
Q 2438 2451 2236 2627 
Q 2035 2803 1696 2803 
Q 1357 2803 1152 2627 
Q 947 2451 947 2125 
Q 947 1792 1152 1616 
Q 1357 1440 1696 1440 
z
M 762 -410 
Q 762 -730 1027 -886 
Q 1293 -1043 1702 -1043 
Q 2099 -1043 2339 -870 
Q 2579 -698 2579 -410 
Q 2579 -205 2416 -54 
Q 2253 96 1798 122 
Q 1446 141 1190 186 
Q 928 45 845 -115 
Q 762 -275 762 -410 
z
" transform="scale(0.015625)"/>
       <path id="DMSans24pt-Regular-44" d="M 474 0 
L 474 4480 
L 1850 4480 
Q 3034 4480 3594 3878 
Q 4154 3277 4154 2227 
Q 4154 1536 3907 1037 
Q 3661 538 3149 269 
Q 2637 0 1850 0 
L 474 0 
z
M 1011 448 
L 1837 448 
Q 2490 448 2877 662 
Q 3264 877 3430 1277 
Q 3597 1677 3597 2227 
Q 3597 2790 3430 3193 
Q 3264 3597 2877 3814 
Q 2490 4032 1837 4032 
L 1011 4032 
L 1011 448 
z
" transform="scale(0.015625)"/>
      </defs>
      <use xlink:href="#DMSans24pt-Regular-50"/>
      <use xlink:href="#DMSans24pt-Regular-4f" x="57.899994"/>
      <use xlink:href="#DMSans24pt-Regular-4d" x="136.299988"/>
      <use xlink:href="#DMSans24pt-Regular-4d" x="220.999969"/>
      <use xlink:href="#DMSans24pt-Regular-69" x="305.699951"/>
      <use xlink:href="#DMSans24pt-Regular-78" x="329.599945"/>
      <use xlink:href="#DMSans24pt-Regular-20" x="379.399933"/>
      <use xlink:href="#DMSans24pt-Regular-45" x="405.899918"/>
      <use xlink:href="#DMSans24pt-Regular-6d" x="462.299911"/>
      <use xlink:href="#DMSans24pt-Regular-62" x="551.799896"/>
      <use xlink:href="#DMSans24pt-Regular-65" x="614.599884"/>
      <use xlink:href="#DMSans24pt-Regular-64" x="671.499878"/>
      <use xlink:href="#DMSans24pt-Regular-64" x="734.399872"/>
      <use xlink:href="#DMSans24pt-Regular-69" x="797.299866"/>
      <use xlink:href="#DMSans24pt-Regular-6e" x="821.19986"/>
      <use xlink:href="#DMSans24pt-Regular-67" x="878.399857"/>
      <use xlink:href="#DMSans24pt-Regular-20" x="933.599854"/>
      <use xlink:href="#DMSans24pt-Regular-43" x="960.099838"/>
      <use xlink:href="#DMSans24pt-Regular-6f" x="1032.099823"/>
      <use xlink:href="#DMSans24pt-Regular-73" x="1091.29982"/>
      <use xlink:href="#DMSans24pt-Regular-69" x="1141.299805"/>
      <use xlink:href="#DMSans24pt-Regular-6e" x="1165.199799"/>
      <use xlink:href="#DMSans24pt-Regular-65" x="1222.399796"/>
      <use xlink:href="#DMSans24pt-Regular-20" x="1279.299789"/>
      <use xlink:href="#DMSans24pt-Regular-44" x="1305.799774"/>
      <use xlink:href="#DMSans24pt-Regular-69" x="1375.399765"/>
      <use xlink:href="#DMSans24pt-Regular-73" x="1399.299759"/>
      <use xlink:href="#DMSans24pt-Regular-74" x="1449.299744"/>
      <use xlink:href="#DMSans24pt-Regular-61" x="1487.999741"/>
      <use xlink:href="#DMSans24pt-Regular-6e" x="1542.199738"/>
      <use xlink:href="#DMSans24pt-Regular-63" x="1599.399734"/>
      <use xlink:href="#DMSans24pt-Regular-65" x="1656.399719"/>
     </g>
    </g>
   </g>
   <g id="line2d_13">
    <defs>
     <path id="mba8485fb50" d="M 0 3 
C 0.795609 3 1.55874 2.683901 2.12132 2.12132 
C 2.683901 1.55874 3 0.795609 3 0 
C 3 -0.795609 2.683901 -1.55874 2.12132 -2.12132 
C 1.55874 -2.683901 0.795609 -3 0 -3 
C -0.795609 -3 -1.55874 -2.683901 -2.12132 -2.12132 
C -2.683901 -1.55874 -3 -0.795609 -3 0 
C -3 0.795609 -2.683901 1.55874 -2.12132 2.12132 
C -1.55874 2.683901 -0.795609 3 0 3 
z
" style="stroke: #ffffff; stroke-width: 0.75"/>
    </defs>
    <g clip-path="url(#pbbd4daf39d)">
     <use xlink:href="#mba8485fb50" x="63.972348" y="94.845982" style="fill: #0173b2; stroke: #ffffff; stroke-width: 0.75"/>
     <use xlink:href="#mba8485fb50" x="68.262181" y="66.289437" style="fill: #0173b2; stroke: #ffffff; stroke-width: 0.75"/>
     <use xlink:href="#mba8485fb50" x="72.552014" y="62.054955" style="fill: #0173b2; stroke: #ffffff; stroke-width: 0.75"/>
     <use xlink:href="#mba8485fb50" x="74.69693" y="64.827967" style="fill: #0173b2; stroke: #ffffff; stroke-width: 0.75"/>
     <use xlink:href="#mba8485fb50" x="76.841847" y="129.670289" style="fill: #0173b2; stroke: #ffffff; stroke-width: 0.75"/>
     <use xlink:href="#mba8485fb50" x="78.986763" y="79.979455" style="fill: #0173b2; stroke: #ffffff; stroke-width: 0.75"/>
     <use xlink:href="#mba8485fb50" x="81.131679" y="99.215829" style="fill: #0173b2; stroke: #ffffff; stroke-width: 0.75"/>
     <use xlink:href="#mba8485fb50" x="83.276596" y="86.084391" style="fill: #0173b2; stroke: #ffffff; stroke-width: 0.75"/>
     <use xlink:href="#mba8485fb50" x="85.421512" y="93.449231" style="fill: #0173b2; stroke: #ffffff; stroke-width: 0.75"/>
     <use xlink:href="#mba8485fb50" x="87.566429" y="87.198653" style="fill: #0173b2; stroke: #ffffff; stroke-width: 0.75"/>
     <use xlink:href="#mba8485fb50" x="89.711345" y="101.814224" style="fill: #0173b2; stroke: #ffffff; stroke-width: 0.75"/>
     <use xlink:href="#mba8485fb50" x="91.856261" y="91.120435" style="fill: #0173b2; stroke: #ffffff; stroke-width: 0.75"/>
     <use xlink:href="#mba8485fb50" x="94.001178" y="107.983882" style="fill: #0173b2; stroke: #ffffff; stroke-width: 0.75"/>
     <use xlink:href="#mba8485fb50" x="96.146094" y="111.620304" style="fill: #0173b2; stroke: #ffffff; stroke-width: 0.75"/>
     <use xlink:href="#mba8485fb50" x="98.291011" y="100.796445" style="fill: #0173b2; stroke: #ffffff; stroke-width: 0.75"/>
     <use xlink:href="#mba8485fb50" x="100.435927" y="123.323903" style="fill: #0173b2; stroke: #ffffff; stroke-width: 0.75"/>
     <use xlink:href="#mba8485fb50" x="102.580843" y="108.024151" style="fill: #0173b2; stroke: #ffffff; stroke-width: 0.75"/>
     <use xlink:href="#mba8485fb50" x="104.72576" y="88.703281" style="fill: #0173b2; stroke: #ffffff; stroke-width: 0.75"/>
     <use xlink:href="#mba8485fb50" x="106.870676" y="78.630394" style="fill: #0173b2; stroke: #ffffff; stroke-width: 0.75"/>
     <use xlink:href="#mba8485fb50" x="111.160509" y="93.900983" style="fill: #0173b2; stroke: #ffffff; stroke-width: 0.75"/>
     <use xlink:href="#mba8485fb50" x="113.305425" y="73.737232" style="fill: #0173b2; stroke: #ffffff; stroke-width: 0.75"/>
     <use xlink:href="#mba8485fb50" x="115.450342" y="99.263035" style="fill: #0173b2; stroke: #ffffff; stroke-width: 0.75"/>
     <use xlink:href="#mba8485fb50" x="117.595258" y="77.245965" style="fill: #0173b2; stroke: #ffffff; stroke-width: 0.75"/>
     <use xlink:href="#mba8485fb50" x="119.740175" y="91.497544" style="fill: #0173b2; stroke: #ffffff; stroke-width: 0.75"/>
     <use xlink:href="#mba8485fb50" x="124.030007" y="127.449918" style="fill: #0173b2; stroke: #ffffff; stroke-width: 0.75"/>
     <use xlink:href="#mba8485fb50" x="126.174924" y="97.773295" style="fill: #0173b2; stroke: #ffffff; stroke-width: 0.75"/>
     <use xlink:href="#mba8485fb50" x="130.464757" y="120.35443" style="fill: #0173b2; stroke: #ffffff; stroke-width: 0.75"/>
     <use xlink:href="#mba8485fb50" x="132.609673" y="62.775992" style="fill: #0173b2; stroke: #ffffff; stroke-width: 0.75"/>
     <use xlink:href="#mba8485fb50" x="134.754589" y="95.511008" style="fill: #0173b2; stroke: #ffffff; stroke-width: 0.75"/>
     <use xlink:href="#mba8485fb50" x="136.899506" y="78.229755" style="fill: #0173b2; stroke: #ffffff; stroke-width: 0.75"/>
     <use xlink:href="#mba8485fb50" x="141.189338" y="109.542641" style="fill: #0173b2; stroke: #ffffff; stroke-width: 0.75"/>
     <use xlink:href="#mba8485fb50" x="143.334255" y="97.681419" style="fill: #0173b2; stroke: #ffffff; stroke-width: 0.75"/>
     <use xlink:href="#mba8485fb50" x="145.479171" y="109.225356" style="fill: #0173b2; stroke: #ffffff; stroke-width: 0.75"/>
     <use xlink:href="#mba8485fb50" x="147.624088" y="80.372114" style="fill: #0173b2; stroke: #ffffff; stroke-width: 0.75"/>
     <use xlink:href="#mba8485fb50" x="149.769004" y="89.395022" style="fill: #0173b2; stroke: #ffffff; stroke-width: 0.75"/>
     <use xlink:href="#mba8485fb50" x="154.058837" y="117.987367" style="fill: #0173b2; stroke: #ffffff; stroke-width: 0.75"/>
     <use xlink:href="#mba8485fb50" x="158.34867" y="99.935362" style="fill: #0173b2; stroke: #ffffff; stroke-width: 0.75"/>
     <use xlink:href="#mba8485fb50" x="160.493586" y="74.597225" style="fill: #0173b2; stroke: #ffffff; stroke-width: 0.75"/>
     <use xlink:href="#mba8485fb50" x="164.783419" y="116.940431" style="fill: #0173b2; stroke: #ffffff; stroke-width: 0.75"/>
     <use xlink:href="#mba8485fb50" x="169.073252" y="114.509045" style="fill: #0173b2; stroke: #ffffff; stroke-width: 0.75"/>
     <use xlink:href="#mba8485fb50" x="171.218168" y="149.192668" style="fill: #0173b2; stroke: #ffffff; stroke-width: 0.75"/>
     <use xlink:href="#mba8485fb50" x="173.363084" y="142.589967" style="fill: #0173b2; stroke: #ffffff; stroke-width: 0.75"/>
     <use xlink:href="#mba8485fb50" x="175.508001" y="125.464326" style="fill: #0173b2; stroke: #ffffff; stroke-width: 0.75"/>
     <use xlink:href="#mba8485fb50" x="177.652917" y="129.716553" style="fill: #0173b2; stroke: #ffffff; stroke-width: 0.75"/>
     <use xlink:href="#mba8485fb50" x="181.94275" y="104.14819" style="fill: #0173b2; stroke: #ffffff; stroke-width: 0.75"/>
     <use xlink:href="#mba8485fb50" x="184.087666" y="138.61901" style="fill: #0173b2; stroke: #ffffff; stroke-width: 0.75"/>
     <use xlink:href="#mba8485fb50" x="186.232583" y="115.161822" style="fill: #0173b2; stroke: #ffffff; stroke-width: 0.75"/>
     <use xlink:href="#mba8485fb50" x="188.377499" y="111.888909" style="fill: #0173b2; stroke: #ffffff; stroke-width: 0.75"/>
     <use xlink:href="#mba8485fb50" x="207.681747" y="110.103001" style="fill: #0173b2; stroke: #ffffff; stroke-width: 0.75"/>
     <use xlink:href="#mba8485fb50" x="214.116496" y="125.530893" style="fill: #0173b2; stroke: #ffffff; stroke-width: 0.75"/>
     <use xlink:href="#mba8485fb50" x="231.275827" y="148.869698" style="fill: #0173b2; stroke: #ffffff; stroke-width: 0.75"/>
     <use xlink:href="#mba8485fb50" x="244.145325" y="146.636736" style="fill: #0173b2; stroke: #ffffff; stroke-width: 0.75"/>
    </g>
   </g>
   <g id="LineCollection_1">
    <path d="M 63.972348 103.584055 
L 63.972348 86.197496 
" clip-path="url(#pbbd4daf39d)" style="fill: none; stroke: #0173b2; stroke-width: 1.5; stroke-linecap: square"/>
    <path d="M 68.262181 79.489018 
L 68.262181 46.397966 
" clip-path="url(#pbbd4daf39d)" style="fill: none; stroke: #0173b2; stroke-width: 1.5; stroke-linecap: square"/>
    <path d="M 72.552014 69.569413 
L 72.552014 54.546894 
" clip-path="url(#pbbd4daf39d)" style="fill: none; stroke: #0173b2; stroke-width: 1.5; stroke-linecap: square"/>
    <path clip-path="url(#pbbd4daf39d)" style="fill: none; stroke: #0173b2; stroke-width: 1.5; stroke-linecap: square"/>
    <path d="M 76.841847 149.765461 
L 76.841847 108.648293 
" clip-path="url(#pbbd4daf39d)" style="fill: none; stroke: #0173b2; stroke-width: 1.5; stroke-linecap: square"/>
    <path d="M 78.986763 95.090052 
L 78.986763 66.273858 
" clip-path="url(#pbbd4daf39d)" style="fill: none; stroke: #0173b2; stroke-width: 1.5; stroke-linecap: square"/>
    <path d="M 81.131679 116.550393 
L 81.131679 83.491077 
" clip-path="url(#pbbd4daf39d)" style="fill: none; stroke: #0173b2; stroke-width: 1.5; stroke-linecap: square"/>
    <path d="M 83.276596 95.364829 
L 83.276596 78.382744 
" clip-path="url(#pbbd4daf39d)" style="fill: none; stroke: #0173b2; stroke-width: 1.5; stroke-linecap: square"/>
    <path d="M 85.421512 104.797716 
L 85.421512 81.67074 
" clip-path="url(#pbbd4daf39d)" style="fill: none; stroke: #0173b2; stroke-width: 1.5; stroke-linecap: square"/>
    <path d="M 87.566429 95.036223 
L 87.566429 79.792123 
" clip-path="url(#pbbd4daf39d)" style="fill: none; stroke: #0173b2; stroke-width: 1.5; stroke-linecap: square"/>
    <path d="M 89.711345 111.824362 
L 89.711345 92.242295 
" clip-path="url(#pbbd4daf39d)" style="fill: none; stroke: #0173b2; stroke-width: 1.5; stroke-linecap: square"/>
    <path d="M 91.856261 99.904476 
L 91.856261 82.995883 
" clip-path="url(#pbbd4daf39d)" style="fill: none; stroke: #0173b2; stroke-width: 1.5; stroke-linecap: square"/>
    <path d="M 94.001178 120.694013 
L 94.001178 95.641274 
" clip-path="url(#pbbd4daf39d)" style="fill: none; stroke: #0173b2; stroke-width: 1.5; stroke-linecap: square"/>
    <path d="M 96.146094 121.307842 
L 96.146094 100.957107 
" clip-path="url(#pbbd4daf39d)" style="fill: none; stroke: #0173b2; stroke-width: 1.5; stroke-linecap: square"/>
    <path d="M 98.291011 115.432291 
L 98.291011 87.854971 
" clip-path="url(#pbbd4daf39d)" style="fill: none; stroke: #0173b2; stroke-width: 1.5; stroke-linecap: square"/>
    <path d="M 100.435927 138.25729 
L 100.435927 106.937541 
" clip-path="url(#pbbd4daf39d)" style="fill: none; stroke: #0173b2; stroke-width: 1.5; stroke-linecap: square"/>
    <path d="M 102.580843 116.607104 
L 102.580843 99.865714 
" clip-path="url(#pbbd4daf39d)" style="fill: none; stroke: #0173b2; stroke-width: 1.5; stroke-linecap: square"/>
    <path clip-path="url(#pbbd4daf39d)" style="fill: none; stroke: #0173b2; stroke-width: 1.5; stroke-linecap: square"/>
    <path d="M 106.870676 94.822673 
L 106.870676 64.430374 
" clip-path="url(#pbbd4daf39d)" style="fill: none; stroke: #0173b2; stroke-width: 1.5; stroke-linecap: square"/>
    <path d="M 111.160509 137.771569 
L 111.160509 62.219718 
" clip-path="url(#pbbd4daf39d)" style="fill: none; stroke: #0173b2; stroke-width: 1.5; stroke-linecap: square"/>
    <path d="M 113.305425 109.641043 
L 113.305425 50.97409 
" clip-path="url(#pbbd4daf39d)" style="fill: none; stroke: #0173b2; stroke-width: 1.5; stroke-linecap: square"/>
    <path d="M 115.450342 107.82081 
L 115.450342 90.70526 
" clip-path="url(#pbbd4daf39d)" style="fill: none; stroke: #0173b2; stroke-width: 1.5; stroke-linecap: square"/>
    <path clip-path="url(#pbbd4daf39d)" style="fill: none; stroke: #0173b2; stroke-width: 1.5; stroke-linecap: square"/>
    <path d="M 119.740175 106.948389 
L 119.740175 76.442249 
" clip-path="url(#pbbd4daf39d)" style="fill: none; stroke: #0173b2; stroke-width: 1.5; stroke-linecap: square"/>
    <path d="M 124.030007 165.96 
L 124.030007 50.429754 
" clip-path="url(#pbbd4daf39d)" style="fill: none; stroke: #0173b2; stroke-width: 1.5; stroke-linecap: square"/>
    <path d="M 126.174924 123.48699 
L 126.174924 72.556675 
" clip-path="url(#pbbd4daf39d)" style="fill: none; stroke: #0173b2; stroke-width: 1.5; stroke-linecap: square"/>
    <path clip-path="url(#pbbd4daf39d)" style="fill: none; stroke: #0173b2; stroke-width: 1.5; stroke-linecap: square"/>
    <path d="M 132.609673 110.791984 
L 132.609673 14.76 
" clip-path="url(#pbbd4daf39d)" style="fill: none; stroke: #0173b2; stroke-width: 1.5; stroke-linecap: square"/>
    <path d="M 134.754589 109.473887 
L 134.754589 83.403358 
" clip-path="url(#pbbd4daf39d)" style="fill: none; stroke: #0173b2; stroke-width: 1.5; stroke-linecap: square"/>
    <path clip-path="url(#pbbd4daf39d)" style="fill: none; stroke: #0173b2; stroke-width: 1.5; stroke-linecap: square"/>
    <path d="M 141.189338 153.242946 
L 141.189338 65.842336 
" clip-path="url(#pbbd4daf39d)" style="fill: none; stroke: #0173b2; stroke-width: 1.5; stroke-linecap: square"/>
    <path d="M 143.334255 135.562086 
L 143.334255 48.711377 
" clip-path="url(#pbbd4daf39d)" style="fill: none; stroke: #0173b2; stroke-width: 1.5; stroke-linecap: square"/>
    <path d="M 145.479171 116.867436 
L 145.479171 101.789981 
" clip-path="url(#pbbd4daf39d)" style="fill: none; stroke: #0173b2; stroke-width: 1.5; stroke-linecap: square"/>
    <path d="M 147.624088 88.155085 
L 147.624088 72.589144 
" clip-path="url(#pbbd4daf39d)" style="fill: none; stroke: #0173b2; stroke-width: 1.5; stroke-linecap: square"/>
    <path d="M 149.769004 121.828289 
L 149.769004 57.253081 
" clip-path="url(#pbbd4daf39d)" style="fill: none; stroke: #0173b2; stroke-width: 1.5; stroke-linecap: square"/>
    <path d="M 154.058837 130.185146 
L 154.058837 101.363578 
" clip-path="url(#pbbd4daf39d)" style="fill: none; stroke: #0173b2; stroke-width: 1.5; stroke-linecap: square"/>
    <path d="M 158.34867 124.667589 
L 158.34867 82.509523 
" clip-path="url(#pbbd4daf39d)" style="fill: none; stroke: #0173b2; stroke-width: 1.5; stroke-linecap: square"/>
    <path clip-path="url(#pbbd4daf39d)" style="fill: none; stroke: #0173b2; stroke-width: 1.5; stroke-linecap: square"/>
    <path d="M 164.783419 131.724573 
L 164.783419 101.691737 
" clip-path="url(#pbbd4daf39d)" style="fill: none; stroke: #0173b2; stroke-width: 1.5; stroke-linecap: square"/>
    <path d="M 169.073252 135.812752 
L 169.073252 90.325347 
" clip-path="url(#pbbd4daf39d)" style="fill: none; stroke: #0173b2; stroke-width: 1.5; stroke-linecap: square"/>
    <path clip-path="url(#pbbd4daf39d)" style="fill: none; stroke: #0173b2; stroke-width: 1.5; stroke-linecap: square"/>
    <path clip-path="url(#pbbd4daf39d)" style="fill: none; stroke: #0173b2; stroke-width: 1.5; stroke-linecap: square"/>
    <path d="M 175.508001 150.520532 
L 175.508001 100.408121 
" clip-path="url(#pbbd4daf39d)" style="fill: none; stroke: #0173b2; stroke-width: 1.5; stroke-linecap: square"/>
    <path clip-path="url(#pbbd4daf39d)" style="fill: none; stroke: #0173b2; stroke-width: 1.5; stroke-linecap: square"/>
    <path d="M 181.94275 120.639497 
L 181.94275 85.151008 
" clip-path="url(#pbbd4daf39d)" style="fill: none; stroke: #0173b2; stroke-width: 1.5; stroke-linecap: square"/>
    <path d="M 184.087666 139.906244 
L 184.087666 137.331777 
" clip-path="url(#pbbd4daf39d)" style="fill: none; stroke: #0173b2; stroke-width: 1.5; stroke-linecap: square"/>
    <path d="M 186.232583 142.072497 
L 186.232583 76.064393 
" clip-path="url(#pbbd4daf39d)" style="fill: none; stroke: #0173b2; stroke-width: 1.5; stroke-linecap: square"/>
    <path d="M 188.377499 120.510961 
L 188.377499 103.436826 
" clip-path="url(#pbbd4daf39d)" style="fill: none; stroke: #0173b2; stroke-width: 1.5; stroke-linecap: square"/>
    <path d="M 207.681747 124.017508 
L 207.681747 94.283502 
" clip-path="url(#pbbd4daf39d)" style="fill: none; stroke: #0173b2; stroke-width: 1.5; stroke-linecap: square"/>
    <path d="M 214.116496 149.46129 
L 214.116496 101.600496 
" clip-path="url(#pbbd4daf39d)" style="fill: none; stroke: #0173b2; stroke-width: 1.5; stroke-linecap: square"/>
    <path d="M 231.275827 165.959998 
L 231.275827 126.603151 
" clip-path="url(#pbbd4daf39d)" style="fill: none; stroke: #0173b2; stroke-width: 1.5; stroke-linecap: square"/>
    <path d="M 244.145325 165.96 
L 244.145325 107.990225 
" clip-path="url(#pbbd4daf39d)" style="fill: none; stroke: #0173b2; stroke-width: 1.5; stroke-linecap: square"/>
   </g>
   <g id="line2d_14">
    <path d="M 59.682515 91.277264 
L 63.447063 91.998009 
L 67.21161 92.718755 
L 70.976157 93.4395 
L 74.740704 94.160246 
L 78.505251 94.880992 
L 82.269798 95.601737 
L 86.034345 96.322483 
L 89.798893 97.043228 
L 93.56344 97.763974 
L 97.327987 98.48472 
L 101.092534 99.205465 
L 104.857081 99.926211 
L 108.621628 100.646956 
L 112.386175 101.367702 
L 116.150723 102.088447 
L 119.91527 102.809193 
L 123.679817 103.529939 
L 127.444364 104.250684 
L 131.208911 104.97143 
L 134.973458 105.692175 
L 138.738005 106.412921 
L 142.502553 107.133667 
L 146.2671 107.854412 
L 150.031647 108.575158 
L 153.796194 109.295903 
L 157.560741 110.016649 
L 161.325288 110.737395 
L 165.089835 111.45814 
L 168.854383 112.178886 
L 172.61893 112.899631 
L 176.383477 113.620377 
L 180.148024 114.341123 
L 183.912571 115.061868 
L 187.677118 115.782614 
L 191.441665 116.503359 
L 195.206213 117.224105 
L 198.97076 117.944851 
L 202.735307 118.665596 
L 206.499854 119.386342 
L 210.264401 120.107087 
L 214.028948 120.827833 
L 217.793495 121.548578 
L 221.558043 122.269324 
L 225.32259 122.99007 
L 229.087137 123.710815 
L 232.851684 124.431561 
L 236.616231 125.152306 
L 240.380778 125.873052 
L 244.145325 126.593798 
" clip-path="url(#pbbd4daf39d)" style="fill: none; stroke: #de8f05; stroke-width: 1.5; stroke-linecap: square"/>
   </g>
   <g id="line2d_15"/>
   <g id="patch_3">
    <path d="M 50.459375 173.52 
L 50.459375 7.2 
" style="fill: none; stroke: #000000; stroke-width: 0.8; stroke-linejoin: miter; stroke-linecap: square"/>
   </g>
   <g id="patch_4">
    <path d="M 253.368466 173.52 
L 253.368466 7.2 
" style="fill: none; stroke: #000000; stroke-width: 0.8; stroke-linejoin: miter; stroke-linecap: square"/>
   </g>
   <g id="patch_5">
    <path d="M 50.459375 173.52 
L 253.368466 173.52 
" style="fill: none; stroke: #000000; stroke-width: 0.8; stroke-linejoin: miter; stroke-linecap: square"/>
   </g>
   <g id="patch_6">
    <path d="M 50.459375 7.2 
L 253.368466 7.2 
" style="fill: none; stroke: #000000; stroke-width: 0.8; stroke-linejoin: miter; stroke-linecap: square"/>
   </g>
   <g id="text_15">
    <g id="patch_7">
     <path d="M 178.350284 36.148 
L 224.350284 36.148 
L 224.350284 18.748 
L 178.350284 18.748 
z
" style="fill: #ffffff; opacity: 0.5; stroke: #000000; stroke-linejoin: miter"/>
    </g>
    <!-- $\rho$: -0.20 -->
    <g transform="translate(182.350284 29.948) scale(0.1 -0.1)">
     <defs>
      <path id="DejaVuSans-Oblique-3c1" d="M 1203 2875 
Q 1453 3194 1981 3475 
Q 2188 3584 2756 3584 
Q 3394 3584 3694 3078 
Q 3994 2572 3834 1747 
Q 3672 922 3175 415 
Q 2678 -91 2041 -91 
Q 1656 -91 1409 63 
Q 1163 213 1044 525 
L 681 -1331 
L 103 -1331 
L 697 1716 
Q 838 2438 1203 2875 
z
M 3238 1747 
Q 3359 2381 3169 2744 
Q 2978 3103 2522 3103 
Q 2066 3103 1734 2744 
Q 1403 2381 1281 1747 
Q 1156 1113 1347 750 
Q 1538 391 1994 391 
Q 2450 391 2781 750 
Q 3113 1113 3238 1747 
z
" transform="scale(0.015625)"/>
      <path id="DMSans24pt-Regular-3a" d="M 627 -32 
Q 467 -32 361 73 
Q 256 179 256 333 
Q 256 486 361 592 
Q 467 698 627 698 
Q 787 698 889 592 
Q 992 486 992 333 
Q 992 179 889 73 
Q 787 -32 627 -32 
z
M 627 2528 
Q 467 2528 361 2633 
Q 256 2739 256 2893 
Q 256 3046 361 3152 
Q 467 3258 627 3258 
Q 787 3258 889 3152 
Q 992 3046 992 2893 
Q 992 2739 889 2633 
Q 787 2528 627 2528 
z
" transform="scale(0.015625)"/>
      <path id="DMSans24pt-Regular-2d" d="M 469 1632 
L 469 2086 
L 3003 2086 
L 3003 1632 
L 469 1632 
z
" transform="scale(0.015625)"/>
     </defs>
     <use xlink:href="#DejaVuSans-Oblique-3c1" transform="translate(0 0.796875)"/>
     <use xlink:href="#DMSans24pt-Regular-3a" transform="translate(63.476562 0.796875)"/>
     <use xlink:href="#DMSans24pt-Regular-20" transform="translate(83.376556 0.796875)"/>
     <use xlink:href="#DMSans24pt-Regular-2d" transform="translate(109.876541 0.796875)"/>
     <use xlink:href="#DMSans24pt-Regular-30" transform="translate(164.076538 0.796875)"/>
     <use xlink:href="#DMSans24pt-Regular-2e" transform="translate(233.376526 0.796875)"/>
     <use xlink:href="#DMSans24pt-Regular-32" transform="translate(252.876511 0.796875)"/>
     <use xlink:href="#DMSans24pt-Regular-30" transform="translate(310.076508 0.796875)"/>
    </g>
   </g>
  </g>
  <g id="axes_2">
   <g id="patch_8">
    <path d="M 293.950284 173.52 
L 496.859375 173.52 
L 496.859375 7.2 
L 293.950284 7.2 
L 293.950284 173.52 
z
" style="fill: none"/>
   </g>
   <g id="patch_9">
    <path d="M 303.173425 173.52 
L 307.565396 173.52 
L 307.565396 94.32 
L 303.173425 94.32 
z
" clip-path="url(#p139ed66653)" style="fill: #0173b2; fill-opacity: 0.75; stroke: #000000; stroke-width: 0.439197; stroke-linejoin: miter"/>
   </g>
   <g id="patch_10">
    <path d="M 307.565396 173.52 
L 311.957368 173.52 
L 311.957368 173.52 
L 307.565396 173.52 
z
" clip-path="url(#p139ed66653)" style="fill: #0173b2; fill-opacity: 0.75; stroke: #000000; stroke-width: 0.439197; stroke-linejoin: miter"/>
   </g>
   <g id="patch_11">
    <path d="M 311.957368 173.52 
L 316.34934 173.52 
L 316.34934 147.12 
L 311.957368 147.12 
z
" clip-path="url(#p139ed66653)" style="fill: #0173b2; fill-opacity: 0.75; stroke: #000000; stroke-width: 0.439197; stroke-linejoin: miter"/>
   </g>
   <g id="patch_12">
    <path d="M 316.34934 173.52 
L 320.741311 173.52 
L 320.741311 147.12 
L 316.34934 147.12 
z
" clip-path="url(#p139ed66653)" style="fill: #0173b2; fill-opacity: 0.75; stroke: #000000; stroke-width: 0.439197; stroke-linejoin: miter"/>
   </g>
   <g id="patch_13">
    <path d="M 320.741311 173.52 
L 325.133283 173.52 
L 325.133283 41.52 
L 320.741311 41.52 
z
" clip-path="url(#p139ed66653)" style="fill: #0173b2; fill-opacity: 0.75; stroke: #000000; stroke-width: 0.439197; stroke-linejoin: miter"/>
   </g>
   <g id="patch_14">
    <path d="M 325.133283 173.52 
L 329.525255 173.52 
L 329.525255 120.72 
L 325.133283 120.72 
z
" clip-path="url(#p139ed66653)" style="fill: #0173b2; fill-opacity: 0.75; stroke: #000000; stroke-width: 0.439197; stroke-linejoin: miter"/>
   </g>
   <g id="patch_15">
    <path d="M 329.525255 173.52 
L 333.917226 173.52 
L 333.917226 147.12 
L 329.525255 147.12 
z
" clip-path="url(#p139ed66653)" style="fill: #0173b2; fill-opacity: 0.75; stroke: #000000; stroke-width: 0.439197; stroke-linejoin: miter"/>
   </g>
   <g id="patch_16">
    <path d="M 333.917226 173.52 
L 338.309198 173.52 
L 338.309198 147.12 
L 333.917226 147.12 
z
" clip-path="url(#p139ed66653)" style="fill: #0173b2; fill-opacity: 0.75; stroke: #000000; stroke-width: 0.439197; stroke-linejoin: miter"/>
   </g>
   <g id="patch_17">
    <path d="M 338.309198 173.52 
L 342.70117 173.52 
L 342.70117 15.12 
L 338.309198 15.12 
z
" clip-path="url(#p139ed66653)" style="fill: #0173b2; fill-opacity: 0.75; stroke: #000000; stroke-width: 0.439197; stroke-linejoin: miter"/>
   </g>
   <g id="patch_18">
    <path d="M 342.70117 173.52 
L 347.093141 173.52 
L 347.093141 94.32 
L 342.70117 94.32 
z
" clip-path="url(#p139ed66653)" style="fill: #0173b2; fill-opacity: 0.75; stroke: #000000; stroke-width: 0.439197; stroke-linejoin: miter"/>
   </g>
   <g id="patch_19">
    <path d="M 347.093141 173.52 
L 351.485113 173.52 
L 351.485113 67.92 
L 347.093141 67.92 
z
" clip-path="url(#p139ed66653)" style="fill: #0173b2; fill-opacity: 0.75; stroke: #000000; stroke-width: 0.439197; stroke-linejoin: miter"/>
   </g>
   <g id="patch_20">
    <path d="M 351.485113 173.52 
L 355.877085 173.52 
L 355.877085 41.52 
L 351.485113 41.52 
z
" clip-path="url(#p139ed66653)" style="fill: #0173b2; fill-opacity: 0.75; stroke: #000000; stroke-width: 0.439197; stroke-linejoin: miter"/>
   </g>
   <g id="patch_21">
    <path d="M 355.877085 173.52 
L 360.269056 173.52 
L 360.269056 15.12 
L 355.877085 15.12 
z
" clip-path="url(#p139ed66653)" style="fill: #0173b2; fill-opacity: 0.75; stroke: #000000; stroke-width: 0.439197; stroke-linejoin: miter"/>
   </g>
   <g id="patch_22">
    <path d="M 360.269056 173.52 
L 364.661028 173.52 
L 364.661028 67.92 
L 360.269056 67.92 
z
" clip-path="url(#p139ed66653)" style="fill: #0173b2; fill-opacity: 0.75; stroke: #000000; stroke-width: 0.439197; stroke-linejoin: miter"/>
   </g>
   <g id="patch_23">
    <path d="M 364.661028 173.52 
L 369.053 173.52 
L 369.053 120.72 
L 364.661028 120.72 
z
" clip-path="url(#p139ed66653)" style="fill: #0173b2; fill-opacity: 0.75; stroke: #000000; stroke-width: 0.439197; stroke-linejoin: miter"/>
   </g>
   <g id="patch_24">
    <path d="M 369.053 173.52 
L 373.444971 173.52 
L 373.444971 173.52 
L 369.053 173.52 
z
" clip-path="url(#p139ed66653)" style="fill: #0173b2; fill-opacity: 0.75; stroke: #000000; stroke-width: 0.439197; stroke-linejoin: miter"/>
   </g>
   <g id="patch_25">
    <path d="M 373.444971 173.52 
L 377.836943 173.52 
L 377.836943 173.52 
L 373.444971 173.52 
z
" clip-path="url(#p139ed66653)" style="fill: #0173b2; fill-opacity: 0.75; stroke: #000000; stroke-width: 0.439197; stroke-linejoin: miter"/>
   </g>
   <g id="patch_26">
    <path d="M 377.836943 173.52 
L 382.228915 173.52 
L 382.228915 94.32 
L 377.836943 94.32 
z
" clip-path="url(#p139ed66653)" style="fill: #0173b2; fill-opacity: 0.75; stroke: #000000; stroke-width: 0.439197; stroke-linejoin: miter"/>
   </g>
   <g id="patch_27">
    <path d="M 382.228915 173.52 
L 386.620886 173.52 
L 386.620886 94.32 
L 382.228915 94.32 
z
" clip-path="url(#p139ed66653)" style="fill: #0173b2; fill-opacity: 0.75; stroke: #000000; stroke-width: 0.439197; stroke-linejoin: miter"/>
   </g>
   <g id="patch_28">
    <path d="M 386.620886 173.52 
L 391.012858 173.52 
L 391.012858 173.52 
L 386.620886 173.52 
z
" clip-path="url(#p139ed66653)" style="fill: #0173b2; fill-opacity: 0.75; stroke: #000000; stroke-width: 0.439197; stroke-linejoin: miter"/>
   </g>
   <g id="patch_29">
    <path d="M 391.012858 173.52 
L 395.40483 173.52 
L 395.40483 147.12 
L 391.012858 147.12 
z
" clip-path="url(#p139ed66653)" style="fill: #0173b2; fill-opacity: 0.75; stroke: #000000; stroke-width: 0.439197; stroke-linejoin: miter"/>
   </g>
   <g id="patch_30">
    <path d="M 395.40483 173.52 
L 399.796801 173.52 
L 399.796801 173.52 
L 395.40483 173.52 
z
" clip-path="url(#p139ed66653)" style="fill: #0173b2; fill-opacity: 0.75; stroke: #000000; stroke-width: 0.439197; stroke-linejoin: miter"/>
   </g>
   <g id="patch_31">
    <path d="M 399.796801 173.52 
L 404.188773 173.52 
L 404.188773 173.52 
L 399.796801 173.52 
z
" clip-path="url(#p139ed66653)" style="fill: #0173b2; fill-opacity: 0.75; stroke: #000000; stroke-width: 0.439197; stroke-linejoin: miter"/>
   </g>
   <g id="patch_32">
    <path d="M 404.188773 173.52 
L 408.580745 173.52 
L 408.580745 147.12 
L 404.188773 147.12 
z
" clip-path="url(#p139ed66653)" style="fill: #0173b2; fill-opacity: 0.75; stroke: #000000; stroke-width: 0.439197; stroke-linejoin: miter"/>
   </g>
   <g id="patch_33">
    <path d="M 408.580745 173.52 
L 412.972716 173.52 
L 412.972716 147.12 
L 408.580745 147.12 
z
" clip-path="url(#p139ed66653)" style="fill: #0173b2; fill-opacity: 0.75; stroke: #000000; stroke-width: 0.439197; stroke-linejoin: miter"/>
   </g>
   <g id="patch_34">
    <path d="M 412.972716 173.52 
L 417.364688 173.52 
L 417.364688 120.72 
L 412.972716 120.72 
z
" clip-path="url(#p139ed66653)" style="fill: #0173b2; fill-opacity: 0.75; stroke: #000000; stroke-width: 0.439197; stroke-linejoin: miter"/>
   </g>
   <g id="patch_35">
    <path d="M 417.364688 173.52 
L 421.75666 173.52 
L 421.75666 173.52 
L 417.364688 173.52 
z
" clip-path="url(#p139ed66653)" style="fill: #0173b2; fill-opacity: 0.75; stroke: #000000; stroke-width: 0.439197; stroke-linejoin: miter"/>
   </g>
   <g id="patch_36">
    <path d="M 421.75666 173.52 
L 426.148631 173.52 
L 426.148631 173.52 
L 421.75666 173.52 
z
" clip-path="url(#p139ed66653)" style="fill: #0173b2; fill-opacity: 0.75; stroke: #000000; stroke-width: 0.439197; stroke-linejoin: miter"/>
   </g>
   <g id="patch_37">
    <path d="M 426.148631 173.52 
L 430.540603 173.52 
L 430.540603 147.12 
L 426.148631 147.12 
z
" clip-path="url(#p139ed66653)" style="fill: #0173b2; fill-opacity: 0.75; stroke: #000000; stroke-width: 0.439197; stroke-linejoin: miter"/>
   </g>
   <g id="patch_38">
    <path d="M 430.540603 173.52 
L 434.932575 173.52 
L 434.932575 120.72 
L 430.540603 120.72 
z
" clip-path="url(#p139ed66653)" style="fill: #0173b2; fill-opacity: 0.75; stroke: #000000; stroke-width: 0.439197; stroke-linejoin: miter"/>
   </g>
   <g id="patch_39">
    <path d="M 434.932575 173.52 
L 439.324546 173.52 
L 439.324546 147.12 
L 434.932575 147.12 
z
" clip-path="url(#p139ed66653)" style="fill: #0173b2; fill-opacity: 0.75; stroke: #000000; stroke-width: 0.439197; stroke-linejoin: miter"/>
   </g>
   <g id="patch_40">
    <path d="M 439.324546 173.52 
L 443.716518 173.52 
L 443.716518 147.12 
L 439.324546 147.12 
z
" clip-path="url(#p139ed66653)" style="fill: #0173b2; fill-opacity: 0.75; stroke: #000000; stroke-width: 0.439197; stroke-linejoin: miter"/>
   </g>
   <g id="patch_41">
    <path d="M 443.716518 173.52 
L 448.10849 173.52 
L 448.10849 173.52 
L 443.716518 173.52 
z
" clip-path="url(#p139ed66653)" style="fill: #0173b2; fill-opacity: 0.75; stroke: #000000; stroke-width: 0.439197; stroke-linejoin: miter"/>
   </g>
   <g id="patch_42">
    <path d="M 448.10849 173.52 
L 452.500461 173.52 
L 452.500461 173.52 
L 448.10849 173.52 
z
" clip-path="url(#p139ed66653)" style="fill: #0173b2; fill-opacity: 0.75; stroke: #000000; stroke-width: 0.439197; stroke-linejoin: miter"/>
   </g>
   <g id="patch_43">
    <path d="M 452.500461 173.52 
L 456.892433 173.52 
L 456.892433 173.52 
L 452.500461 173.52 
z
" clip-path="url(#p139ed66653)" style="fill: #0173b2; fill-opacity: 0.75; stroke: #000000; stroke-width: 0.439197; stroke-linejoin: miter"/>
   </g>
   <g id="patch_44">
    <path d="M 456.892433 173.52 
L 461.284405 173.52 
L 461.284405 173.52 
L 456.892433 173.52 
z
" clip-path="url(#p139ed66653)" style="fill: #0173b2; fill-opacity: 0.75; stroke: #000000; stroke-width: 0.439197; stroke-linejoin: miter"/>
   </g>
   <g id="patch_45">
    <path d="M 461.284405 173.52 
L 465.676376 173.52 
L 465.676376 173.52 
L 461.284405 173.52 
z
" clip-path="url(#p139ed66653)" style="fill: #0173b2; fill-opacity: 0.75; stroke: #000000; stroke-width: 0.439197; stroke-linejoin: miter"/>
   </g>
   <g id="patch_46">
    <path d="M 465.676376 173.52 
L 470.068348 173.52 
L 470.068348 173.52 
L 465.676376 173.52 
z
" clip-path="url(#p139ed66653)" style="fill: #0173b2; fill-opacity: 0.75; stroke: #000000; stroke-width: 0.439197; stroke-linejoin: miter"/>
   </g>
   <g id="patch_47">
    <path d="M 470.068348 173.52 
L 474.46032 173.52 
L 474.46032 173.52 
L 470.068348 173.52 
z
" clip-path="url(#p139ed66653)" style="fill: #0173b2; fill-opacity: 0.75; stroke: #000000; stroke-width: 0.439197; stroke-linejoin: miter"/>
   </g>
   <g id="patch_48">
    <path d="M 474.46032 173.52 
L 478.852291 173.52 
L 478.852291 173.52 
L 474.46032 173.52 
z
" clip-path="url(#p139ed66653)" style="fill: #0173b2; fill-opacity: 0.75; stroke: #000000; stroke-width: 0.439197; stroke-linejoin: miter"/>
   </g>
   <g id="patch_49">
    <path d="M 478.852291 173.52 
L 483.244263 173.52 
L 483.244263 173.52 
L 478.852291 173.52 
z
" clip-path="url(#p139ed66653)" style="fill: #0173b2; fill-opacity: 0.75; stroke: #000000; stroke-width: 0.439197; stroke-linejoin: miter"/>
   </g>
   <g id="patch_50">
    <path d="M 483.244263 173.52 
L 487.636235 173.52 
L 487.636235 147.12 
L 483.244263 147.12 
z
" clip-path="url(#p139ed66653)" style="fill: #0173b2; fill-opacity: 0.75; stroke: #000000; stroke-width: 0.439197; stroke-linejoin: miter"/>
   </g>
   <g id="patch_51">
    <path d="M 323.713552 173.52 
L 399.681246 173.52 
L 399.681246 7.2 
L 323.713552 7.2 
z
" clip-path="url(#p139ed66653)" style="fill: #d62728; opacity: 0.3; stroke: #d62728; stroke-linejoin: miter"/>
   </g>
   <g id="patch_52">
    <path d="M 323.713552 67.92 
L 325.924754 66.864 
L 325.924754 67.9068 
L 361.697399 67.9068 
L 361.697399 67.9332 
L 325.924754 67.9332 
L 325.924754 68.976 
z
" clip-path="url(#p139ed66653)" style="stroke: #000000; stroke-linejoin: miter"/>
   </g>
   <g id="patch_53">
    <path d="M 399.681246 67.92 
L 397.470044 68.976 
L 397.470044 67.9332 
L 361.697399 67.9332 
L 361.697399 67.9068 
L 397.470044 67.9068 
L 397.470044 66.864 
z
" clip-path="url(#p139ed66653)" style="stroke: #000000; stroke-linejoin: miter"/>
   </g>
   <g id="patch_54">
    <path d="M 423.661234 173.52 
L 437.886684 173.52 
L 437.886684 7.2 
L 423.661234 7.2 
z
" clip-path="url(#p139ed66653)" style="fill: #ff7f0e; opacity: 0.3; stroke: #ff7f0e; stroke-linejoin: miter"/>
   </g>
   <g id="patch_55">
    <path d="M 423.661234 67.92 
L 425.872436 66.864 
L 425.872436 67.9068 
L 430.773953 67.9068 
L 430.773953 67.9332 
L 425.872436 67.9332 
L 425.872436 68.976 
z
" clip-path="url(#p139ed66653)" style="stroke: #000000; stroke-linejoin: miter"/>
   </g>
   <g id="patch_56">
    <path d="M 437.886684 67.92 
L 435.675482 68.976 
L 435.675482 67.9332 
L 430.773965 67.9332 
L 430.773965 67.9068 
L 435.675482 67.9068 
L 435.675482 66.864 
z
" clip-path="url(#p139ed66653)" style="stroke: #000000; stroke-linejoin: miter"/>
   </g>
   <g id="matplotlib.axis_3">
    <g id="xtick_6">
     <g id="line2d_16">
      <g>
       <use xlink:href="#m7b72552fb1" x="303.173425" y="173.52" style="stroke: #000000; stroke-width: 0.8"/>
      </g>
     </g>
     <g id="text_16">
      <!-- 0.0 -->
      <g transform="translate(295.268737 187.72) scale(0.1 -0.1)">
       <use xlink:href="#DMSans24pt-Regular-30"/>
       <use xlink:href="#DMSans24pt-Regular-2e" x="69.299988"/>
       <use xlink:href="#DMSans24pt-Regular-30" x="88.799973"/>
      </g>
     </g>
    </g>
    <g id="xtick_7">
     <g id="line2d_17">
      <g>
       <use xlink:href="#m7b72552fb1" x="347.397467" y="173.52" style="stroke: #000000; stroke-width: 0.8"/>
      </g>
     </g>
     <g id="text_17">
      <!-- 0.1 -->
      <g transform="translate(341.447467 187.72) scale(0.1 -0.1)">
       <use xlink:href="#DMSans24pt-Regular-30"/>
       <use xlink:href="#DMSans24pt-Regular-2e" x="69.299988"/>
       <use xlink:href="#DMSans24pt-Regular-31" x="88.799973"/>
      </g>
     </g>
    </g>
    <g id="xtick_8">
     <g id="line2d_18">
      <g>
       <use xlink:href="#m7b72552fb1" x="391.621509" y="173.52" style="stroke: #000000; stroke-width: 0.8"/>
      </g>
     </g>
     <g id="text_18">
      <!-- 0.2 -->
      <g transform="translate(384.321509 187.72) scale(0.1 -0.1)">
       <use xlink:href="#DMSans24pt-Regular-30"/>
       <use xlink:href="#DMSans24pt-Regular-2e" x="69.299988"/>
       <use xlink:href="#DMSans24pt-Regular-32" x="88.799973"/>
      </g>
     </g>
    </g>
    <g id="xtick_9">
     <g id="line2d_19">
      <g>
       <use xlink:href="#m7b72552fb1" x="435.845551" y="173.52" style="stroke: #000000; stroke-width: 0.8"/>
      </g>
     </g>
     <g id="text_19">
      <!-- 0.3 -->
      <g transform="translate(428.465863 187.72) scale(0.1 -0.1)">
       <use xlink:href="#DMSans24pt-Regular-30"/>
       <use xlink:href="#DMSans24pt-Regular-2e" x="69.299988"/>
       <use xlink:href="#DMSans24pt-Regular-33" x="88.799973"/>
      </g>
     </g>
    </g>
    <g id="xtick_10">
     <g id="line2d_20">
      <g>
       <use xlink:href="#m7b72552fb1" x="480.069593" y="173.52" style="stroke: #000000; stroke-width: 0.8"/>
      </g>
     </g>
     <g id="text_20">
      <!-- 0.4 -->
      <g transform="translate(472.604749 187.72) scale(0.1 -0.1)">
       <use xlink:href="#DMSans24pt-Regular-30"/>
       <use xlink:href="#DMSans24pt-Regular-2e" x="69.299988"/>
       <use xlink:href="#DMSans24pt-Regular-34" x="88.799973"/>
      </g>
     </g>
    </g>
    <g id="text_21">
     <!-- Perceptual Similarity -->
     <g transform="translate(347.772798 201.12) scale(0.1 -0.1)">
      <defs>
       <path id="DMSans24pt-Regular-75" d="M 1600 -77 
Q 1037 -77 704 265 
Q 371 608 371 1318 
L 371 3174 
L 909 3174 
L 909 1376 
Q 909 384 1722 384 
Q 2138 384 2410 681 
Q 2682 979 2682 1530 
L 2682 3174 
L 3219 3174 
L 3219 0 
L 2733 0 
L 2701 570 
Q 2547 269 2256 96 
Q 1965 -77 1600 -77 
z
" transform="scale(0.015625)"/>
       <path id="DMSans24pt-Regular-6c" d="M 442 0 
L 442 4608 
L 979 4608 
L 979 0 
L 442 0 
z
" transform="scale(0.015625)"/>
       <path id="DMSans24pt-Regular-53" d="M 1901 -77 
Q 1408 -77 1043 102 
Q 678 282 480 602 
Q 282 922 282 1344 
L 845 1344 
Q 845 1082 966 861 
Q 1088 640 1321 509 
Q 1555 378 1901 378 
Q 2355 378 2604 595 
Q 2854 813 2854 1139 
Q 2854 1408 2739 1571 
Q 2624 1734 2429 1836 
Q 2234 1939 1981 2016 
Q 1728 2093 1453 2189 
Q 934 2368 684 2633 
Q 435 2899 435 3328 
Q 435 3693 604 3968 
Q 774 4243 1091 4400 
Q 1408 4557 1843 4557 
Q 2272 4557 2589 4397 
Q 2906 4237 3085 3958 
Q 3264 3680 3264 3315 
L 2701 3315 
Q 2701 3501 2605 3680 
Q 2509 3859 2313 3977 
Q 2118 4096 1824 4096 
Q 1459 4102 1225 3910 
Q 992 3718 992 3379 
Q 992 3091 1158 2937 
Q 1325 2784 1616 2685 
Q 1907 2586 2291 2458 
Q 2618 2349 2870 2192 
Q 3123 2035 3267 1792 
Q 3411 1549 3411 1171 
Q 3411 851 3241 566 
Q 3072 282 2739 102 
Q 2406 -77 1901 -77 
z
" transform="scale(0.015625)"/>
       <path id="DMSans24pt-Regular-79" d="M 787 -1408 
L 1581 358 
L 1395 358 
L 128 3174 
L 710 3174 
L 1766 755 
L 2874 3174 
L 3430 3174 
L 1350 -1408 
L 787 -1408 
z
" transform="scale(0.015625)"/>
      </defs>
      <use xlink:href="#DMSans24pt-Regular-50"/>
      <use xlink:href="#DMSans24pt-Regular-65" x="57.899994"/>
      <use xlink:href="#DMSans24pt-Regular-72" x="114.799988"/>
      <use xlink:href="#DMSans24pt-Regular-63" x="151.099976"/>
      <use xlink:href="#DMSans24pt-Regular-65" x="208.09996"/>
      <use xlink:href="#DMSans24pt-Regular-70" x="264.999954"/>
      <use xlink:href="#DMSans24pt-Regular-74" x="327.799942"/>
      <use xlink:href="#DMSans24pt-Regular-75" x="366.499939"/>
      <use xlink:href="#DMSans24pt-Regular-61" x="423.699936"/>
      <use xlink:href="#DMSans24pt-Regular-6c" x="477.899933"/>
      <use xlink:href="#DMSans24pt-Regular-20" x="500.09993"/>
      <use xlink:href="#DMSans24pt-Regular-53" x="526.599915"/>
      <use xlink:href="#DMSans24pt-Regular-69" x="584.399902"/>
      <use xlink:href="#DMSans24pt-Regular-6d" x="608.299896"/>
      <use xlink:href="#DMSans24pt-Regular-69" x="697.799881"/>
      <use xlink:href="#DMSans24pt-Regular-6c" x="721.699875"/>
      <use xlink:href="#DMSans24pt-Regular-61" x="743.899872"/>
      <use xlink:href="#DMSans24pt-Regular-72" x="798.099869"/>
      <use xlink:href="#DMSans24pt-Regular-69" x="834.399857"/>
      <use xlink:href="#DMSans24pt-Regular-74" x="858.29985"/>
      <use xlink:href="#DMSans24pt-Regular-79" x="896.999847"/>
     </g>
    </g>
   </g>
   <g id="matplotlib.axis_4">
    <g id="ytick_8">
     <g id="line2d_21">
      <g>
       <use xlink:href="#m32d5a4c29f" x="293.950284" y="173.52" style="stroke: #000000; stroke-width: 0.8"/>
      </g>
     </g>
     <g id="text_22">
      <!-- 0 -->
      <g transform="translate(280.020597 177.12) scale(0.1 -0.1)">
       <use xlink:href="#DMSans24pt-Regular-30"/>
      </g>
     </g>
    </g>
    <g id="ytick_9">
     <g id="line2d_22">
      <g>
       <use xlink:href="#m32d5a4c29f" x="293.950284" y="147.12" style="stroke: #000000; stroke-width: 0.8"/>
      </g>
     </g>
     <g id="text_23">
      <!-- 1 -->
      <g transform="translate(283.929972 150.72) scale(0.1 -0.1)">
       <use xlink:href="#DMSans24pt-Regular-31"/>
      </g>
     </g>
    </g>
    <g id="ytick_10">
     <g id="line2d_23">
      <g>
       <use xlink:href="#m32d5a4c29f" x="293.950284" y="120.72" style="stroke: #000000; stroke-width: 0.8"/>
      </g>
     </g>
     <g id="text_24">
      <!-- 2 -->
      <g transform="translate(281.229972 124.32) scale(0.1 -0.1)">
       <use xlink:href="#DMSans24pt-Regular-32"/>
      </g>
     </g>
    </g>
    <g id="ytick_11">
     <g id="line2d_24">
      <g>
       <use xlink:href="#m32d5a4c29f" x="293.950284" y="94.32" style="stroke: #000000; stroke-width: 0.8"/>
      </g>
     </g>
     <g id="text_25">
      <!-- 3 -->
      <g transform="translate(281.070597 97.92) scale(0.1 -0.1)">
       <use xlink:href="#DMSans24pt-Regular-33"/>
      </g>
     </g>
    </g>
    <g id="ytick_12">
     <g id="line2d_25">
      <g>
       <use xlink:href="#m32d5a4c29f" x="293.950284" y="67.92" style="stroke: #000000; stroke-width: 0.8"/>
      </g>
     </g>
     <g id="text_26">
      <!-- 4 -->
      <g transform="translate(280.900284 71.52) scale(0.1 -0.1)">
       <use xlink:href="#DMSans24pt-Regular-34"/>
      </g>
     </g>
    </g>
    <g id="ytick_13">
     <g id="line2d_26">
      <g>
       <use xlink:href="#m32d5a4c29f" x="293.950284" y="41.52" style="stroke: #000000; stroke-width: 0.8"/>
      </g>
     </g>
     <g id="text_27">
      <!-- 5 -->
      <g transform="translate(280.829972 45.12) scale(0.1 -0.1)">
       <use xlink:href="#DMSans24pt-Regular-35"/>
      </g>
     </g>
    </g>
    <g id="ytick_14">
     <g id="line2d_27">
      <g>
       <use xlink:href="#m32d5a4c29f" x="293.950284" y="15.12" style="stroke: #000000; stroke-width: 0.8"/>
      </g>
     </g>
     <g id="text_28">
      <!-- 6 -->
      <g transform="translate(280.650284 18.72) scale(0.1 -0.1)">
       <defs>
        <path id="DMSans24pt-Regular-36" d="M 2086 -77 
Q 1600 -77 1267 105 
Q 934 288 732 595 
Q 531 902 438 1283 
Q 346 1664 346 2061 
Q 346 2803 550 3363 
Q 755 3923 1145 4240 
Q 1536 4557 2080 4557 
Q 2502 4557 2806 4390 
Q 3110 4224 3286 3945 
Q 3462 3667 3501 3328 
L 3002 3328 
Q 2938 3693 2694 3891 
Q 2451 4090 2074 4090 
Q 1568 4090 1229 3622 
Q 890 3155 858 2170 
L 858 2125 
Q 1011 2426 1350 2646 
Q 1690 2867 2157 2867 
Q 2541 2867 2877 2688 
Q 3213 2509 3424 2185 
Q 3635 1862 3635 1427 
Q 3635 1050 3449 704 
Q 3264 358 2915 140 
Q 2566 -77 2086 -77 
z
M 2048 397 
Q 2349 397 2585 528 
Q 2822 659 2956 886 
Q 3091 1114 3091 1402 
Q 3091 1856 2796 2128 
Q 2502 2400 2048 2400 
Q 1754 2400 1514 2262 
Q 1274 2125 1136 1897 
Q 998 1670 998 1395 
Q 998 1107 1136 883 
Q 1274 659 1514 528 
Q 1754 397 2048 397 
z
" transform="scale(0.015625)"/>
       </defs>
       <use xlink:href="#DMSans24pt-Regular-36"/>
      </g>
     </g>
    </g>
    <g id="text_29">
     <!-- Counts -->
     <g transform="translate(273.820597 107.075625) rotate(-90) scale(0.1 -0.1)">
      <use xlink:href="#DMSans24pt-Regular-43"/>
      <use xlink:href="#DMSans24pt-Regular-6f" x="71.999985"/>
      <use xlink:href="#DMSans24pt-Regular-75" x="131.199982"/>
      <use xlink:href="#DMSans24pt-Regular-6e" x="188.399979"/>
      <use xlink:href="#DMSans24pt-Regular-74" x="245.599976"/>
      <use xlink:href="#DMSans24pt-Regular-73" x="284.299973"/>
     </g>
    </g>
   </g>
   <g id="line2d_28">
    <path d="M 361.697399 173.52 
L 361.697399 7.2 
" clip-path="url(#p139ed66653)" style="fill: none; stroke-dasharray: 5.55,2.4; stroke-dashoffset: 0; stroke: #d62728; stroke-width: 1.5"/>
   </g>
   <g id="line2d_29">
    <path d="M 430.773959 173.52 
L 430.773959 7.2 
" clip-path="url(#p139ed66653)" style="fill: none; stroke-dasharray: 5.55,2.4; stroke-dashoffset: 0; stroke: #ff7f0e; stroke-width: 1.5"/>
   </g>
   <g id="patch_57">
    <path d="M 293.950284 173.52 
L 293.950284 7.2 
" style="fill: none; stroke: #000000; stroke-width: 0.8; stroke-linejoin: miter; stroke-linecap: square"/>
   </g>
   <g id="patch_58">
    <path d="M 496.859375 173.52 
L 496.859375 7.2 
" style="fill: none; stroke: #000000; stroke-width: 0.8; stroke-linejoin: miter; stroke-linecap: square"/>
   </g>
   <g id="patch_59">
    <path d="M 293.950284 173.52 
L 496.859375 173.52 
" style="fill: none; stroke: #000000; stroke-width: 0.8; stroke-linejoin: miter; stroke-linecap: square"/>
   </g>
   <g id="patch_60">
    <path d="M 293.950284 7.2 
L 496.859375 7.2 
" style="fill: none; stroke: #000000; stroke-width: 0.8; stroke-linejoin: miter; stroke-linecap: square"/>
   </g>
   <g id="text_30">
    <!-- Self-Mixture  -->
    <g style="fill: #d62728" transform="translate(369.509488 17.48) scale(0.1 -0.1)">
     <use xlink:href="#DMSans24pt-Regular-53"/>
     <use xlink:href="#DMSans24pt-Regular-65" x="57.799988"/>
     <use xlink:href="#DMSans24pt-Regular-6c" x="114.699982"/>
     <use xlink:href="#DMSans24pt-Regular-66" x="136.899979"/>
     <use xlink:href="#DMSans24pt-Regular-2d" x="170.199966"/>
     <use xlink:href="#DMSans24pt-Regular-4d" x="224.399963"/>
     <use xlink:href="#DMSans24pt-Regular-69" x="309.099945"/>
     <use xlink:href="#DMSans24pt-Regular-78" x="332.999939"/>
     <use xlink:href="#DMSans24pt-Regular-74" x="382.799927"/>
     <use xlink:href="#DMSans24pt-Regular-75" x="421.499924"/>
     <use xlink:href="#DMSans24pt-Regular-72" x="478.699921"/>
     <use xlink:href="#DMSans24pt-Regular-65" x="514.999908"/>
     <use xlink:href="#DMSans24pt-Regular-20" x="571.899902"/>
    </g>
    <!-- Mean: 0.13 -->
    <g style="fill: #d62728" transform="translate(369.509488 28.32) scale(0.1 -0.1)">
     <use xlink:href="#DMSans24pt-Regular-4d"/>
     <use xlink:href="#DMSans24pt-Regular-65" x="84.699982"/>
     <use xlink:href="#DMSans24pt-Regular-61" x="141.599976"/>
     <use xlink:href="#DMSans24pt-Regular-6e" x="195.799973"/>
     <use xlink:href="#DMSans24pt-Regular-3a" x="252.999969"/>
     <use xlink:href="#DMSans24pt-Regular-20" x="272.899963"/>
     <use xlink:href="#DMSans24pt-Regular-30" x="299.399948"/>
     <use xlink:href="#DMSans24pt-Regular-2e" x="368.699936"/>
     <use xlink:href="#DMSans24pt-Regular-31" x="388.199921"/>
     <use xlink:href="#DMSans24pt-Regular-33" x="418.399918"/>
    </g>
   </g>
   <g id="text_31">
    <!-- $\pm\sigma$ -->
    <g transform="translate(354.297399 65.28) scale(0.1 -0.1)">
     <defs>
      <path id="DejaVuSans-b1" d="M 2944 4013 
L 2944 2803 
L 4684 2803 
L 4684 2272 
L 2944 2272 
L 2944 1063 
L 2419 1063 
L 2419 2272 
L 678 2272 
L 678 2803 
L 2419 2803 
L 2419 4013 
L 2944 4013 
z
M 678 531 
L 4684 531 
L 4684 0 
L 678 0 
L 678 531 
z
" transform="scale(0.015625)"/>
      <path id="DejaVuSans-Oblique-3c3" d="M 2219 3044 
Q 1744 3044 1422 2700 
Q 1081 2341 969 1747 
Q 844 1119 1044 756 
Q 1241 397 1706 397 
Q 2166 397 2503 759 
Q 2844 1122 2966 1747 
Q 3075 2319 2881 2700 
Q 2700 3044 2219 3044 
z
M 2309 3503 
L 4219 3500 
L 4106 2925 
L 3463 2925 
Q 3706 2438 3575 1747 
Q 3406 888 2884 400 
Q 2359 -91 1609 -91 
Q 856 -91 525 400 
Q 194 888 363 1747 
Q 528 2609 1050 3097 
Q 1484 3503 2309 3503 
z
" transform="scale(0.015625)"/>
     </defs>
     <use xlink:href="#DejaVuSans-b1" transform="translate(0 0.296875)"/>
     <use xlink:href="#DejaVuSans-Oblique-3c3" transform="translate(83.789062 0.296875)"/>
    </g>
   </g>
   <g id="text_32">
    <!-- Dataset  -->
    <g style="fill: #ff7f0e" transform="translate(440.267955 17.48) scale(0.1 -0.1)">
     <use xlink:href="#DMSans24pt-Regular-44"/>
     <use xlink:href="#DMSans24pt-Regular-61" x="69.599991"/>
     <use xlink:href="#DMSans24pt-Regular-74" x="123.799988"/>
     <use xlink:href="#DMSans24pt-Regular-61" x="162.499985"/>
     <use xlink:href="#DMSans24pt-Regular-73" x="216.699982"/>
     <use xlink:href="#DMSans24pt-Regular-65" x="266.699966"/>
     <use xlink:href="#DMSans24pt-Regular-74" x="323.59996"/>
     <use xlink:href="#DMSans24pt-Regular-20" x="362.299957"/>
    </g>
    <!-- Bias: 0.29 -->
    <g style="fill: #ff7f0e" transform="translate(440.267955 28.32) scale(0.1 -0.1)">
     <defs>
      <path id="DMSans24pt-Regular-42" d="M 474 0 
L 474 4480 
L 2048 4480 
Q 2522 4480 2832 4329 
Q 3142 4179 3296 3920 
Q 3450 3661 3450 3341 
Q 3450 2906 3216 2653 
Q 2982 2400 2656 2310 
Q 2906 2266 3110 2112 
Q 3315 1958 3433 1728 
Q 3552 1498 3552 1222 
Q 3552 883 3385 604 
Q 3219 326 2896 163 
Q 2573 0 2099 0 
L 474 0 
z
M 1011 2522 
L 2010 2522 
Q 2445 2522 2672 2726 
Q 2899 2931 2899 3283 
Q 2899 3622 2672 3827 
Q 2445 4032 1990 4032 
L 1011 4032 
L 1011 2522 
z
M 1011 448 
L 2042 448 
Q 2496 448 2749 662 
Q 3002 877 3002 1261 
Q 3002 1638 2742 1865 
Q 2483 2093 2029 2093 
L 1011 2093 
L 1011 448 
z
" transform="scale(0.015625)"/>
      <path id="DMSans24pt-Regular-39" d="M 1952 -77 
Q 1530 -77 1229 89 
Q 928 256 752 537 
Q 576 819 538 1152 
L 1037 1152 
Q 1101 787 1344 588 
Q 1587 390 1958 390 
Q 2464 390 2803 854 
Q 3142 1318 3174 2304 
L 3174 2355 
Q 3021 2061 2685 1837 
Q 2349 1613 1875 1613 
Q 1498 1613 1158 1792 
Q 819 1971 608 2294 
Q 397 2618 397 3053 
Q 397 3430 582 3776 
Q 768 4122 1117 4339 
Q 1466 4557 1946 4557 
Q 2432 4557 2765 4374 
Q 3098 4192 3299 3885 
Q 3501 3578 3593 3197 
Q 3686 2816 3686 2419 
Q 3686 1683 3481 1120 
Q 3277 557 2889 240 
Q 2502 -77 1952 -77 
z
M 1984 2080 
Q 2285 2080 2521 2217 
Q 2758 2355 2899 2585 
Q 3040 2816 3040 3085 
Q 3040 3373 2899 3600 
Q 2758 3827 2521 3955 
Q 2285 4083 1984 4083 
Q 1683 4083 1446 3952 
Q 1210 3821 1075 3597 
Q 941 3373 941 3078 
Q 941 2630 1238 2355 
Q 1536 2080 1984 2080 
z
" transform="scale(0.015625)"/>
     </defs>
     <use xlink:href="#DMSans24pt-Regular-42"/>
     <use xlink:href="#DMSans24pt-Regular-69" x="60.199997"/>
     <use xlink:href="#DMSans24pt-Regular-61" x="84.099991"/>
     <use xlink:href="#DMSans24pt-Regular-73" x="138.299988"/>
     <use xlink:href="#DMSans24pt-Regular-3a" x="188.299973"/>
     <use xlink:href="#DMSans24pt-Regular-20" x="208.199966"/>
     <use xlink:href="#DMSans24pt-Regular-30" x="234.699951"/>
     <use xlink:href="#DMSans24pt-Regular-2e" x="303.999939"/>
     <use xlink:href="#DMSans24pt-Regular-32" x="323.499924"/>
     <use xlink:href="#DMSans24pt-Regular-39" x="380.699921"/>
    </g>
   </g>
   <g id="text_33">
    <!-- $\pm\sigma$ -->
    <g transform="translate(423.373959 65.28) scale(0.1 -0.1)">
     <use xlink:href="#DejaVuSans-b1" transform="translate(0 0.296875)"/>
     <use xlink:href="#DejaVuSans-Oblique-3c3" transform="translate(83.789062 0.296875)"/>
    </g>
   </g>
  </g>
 </g>
 <defs>
  <clipPath id="pbbd4daf39d">
   <rect x="50.459375" y="7.2" width="202.909091" height="166.32"/>
  </clipPath>
  <clipPath id="p139ed66653">
   <rect x="293.950284" y="7.2" width="202.909091" height="166.32"/>
  </clipPath>
 </defs>
</svg>
