<?xml version="1.0" encoding="utf-8" standalone="no"?>
<!DOCTYPE svg PUBLIC "-//W3C//DTD SVG 1.1//EN"
  "http://www.w3.org/Graphics/SVG/1.1/DTD/svg11.dtd">
<svg xmlns:xlink="http://www.w3.org/1999/xlink" width="608.729687pt" height="268.16pt" viewBox="0 0 608.729687 268.16" xmlns="http://www.w3.org/2000/svg" version="1.1">
 <metadata>
  <rdf:RDF xmlns:dc="http://purl.org/dc/elements/1.1/" xmlns:cc="http://creativecommons.org/ns#" xmlns:rdf="http://www.w3.org/1999/02/22-rdf-syntax-ns#">
   <cc:Work>
    <dc:type rdf:resource="http://purl.org/dc/dcmitype/StillImage"/>
    <dc:date>2024-10-02T03:58:22.133004</dc:date>
    <dc:format>image/svg+xml</dc:format>
    <dc:creator>
     <cc:Agent>
      <dc:title>Matplotlib v3.9.2, https://matplotlib.org/</dc:title>
     </cc:Agent>
    </dc:creator>
   </cc:Work>
  </rdf:RDF>
 </metadata>
 <defs>
  <style type="text/css">*{stroke-linejoin: round; stroke-linecap: butt}</style>
 </defs>
 <g id="figure_1">
  <g id="patch_1">
   <path d="M 0 268.16 
L 608.729687 268.16 
L 608.729687 0 
L 0 0 
L 0 268.16 
z
" style="fill: none"/>
  </g>
  <g id="axes_1">
   <g id="patch_2">
    <path d="M 43.529688 228.96 
L 297.166051 228.96 
L 297.166051 7.2 
L 43.529688 7.2 
L 43.529688 228.96 
z
" style="fill: none"/>
   </g>
   <g id="matplotlib.axis_1">
    <g id="xtick_1">
     <g id="line2d_1">
      <defs>
       <path id="mb99cddf3f6" d="M 0 0 
L 0 3.5 
" style="stroke: #000000; stroke-width: 0.8"/>
      </defs>
      <g>
       <use xlink:href="#mb99cddf3f6" x="55.058613" y="228.96" style="stroke: #000000; stroke-width: 0.8"/>
      </g>
     </g>
     <g id="text_1">
      <!-- 0 -->
      <g transform="translate(51.593769 243.16) scale(0.1 -0.1)">
       <defs>
        <path id="DMSans24pt-Regular-30" d="M 2221 -77 
Q 1626 -77 1194 214 
Q 762 506 531 1027 
Q 301 1549 301 2240 
Q 301 2931 531 3452 
Q 762 3974 1194 4265 
Q 1626 4557 2221 4557 
Q 2822 4557 3248 4265 
Q 3674 3974 3904 3452 
Q 4134 2931 4134 2240 
Q 4134 1549 3904 1027 
Q 3674 506 3248 214 
Q 2822 -77 2221 -77 
z
M 2221 397 
Q 2618 397 2925 617 
Q 3232 838 3408 1251 
Q 3584 1664 3584 2240 
Q 3584 2816 3408 3229 
Q 3232 3642 2925 3859 
Q 2618 4077 2221 4077 
Q 1824 4077 1513 3859 
Q 1203 3642 1027 3229 
Q 851 2816 851 2240 
Q 851 1664 1027 1251 
Q 1203 838 1513 617 
Q 1824 397 2221 397 
z
" transform="scale(0.015625)"/>
       </defs>
       <use xlink:href="#DMSans24pt-Regular-30"/>
      </g>
     </g>
    </g>
    <g id="xtick_2">
     <g id="line2d_2">
      <g>
       <use xlink:href="#mb99cddf3f6" x="108.681523" y="228.96" style="stroke: #000000; stroke-width: 0.8"/>
      </g>
     </g>
     <g id="text_2">
      <!-- 10 -->
      <g transform="translate(103.706523 243.16) scale(0.1 -0.1)">
       <defs>
        <path id="DMSans24pt-Regular-31" d="M 915 0 
L 915 3878 
L 192 3718 
L 192 4090 
L 1094 4480 
L 1459 4480 
L 1459 0 
L 915 0 
z
" transform="scale(0.015625)"/>
       </defs>
       <use xlink:href="#DMSans24pt-Regular-31"/>
       <use xlink:href="#DMSans24pt-Regular-30" x="30.199997"/>
      </g>
     </g>
    </g>
    <g id="xtick_3">
     <g id="line2d_3">
      <g>
       <use xlink:href="#mb99cddf3f6" x="162.304433" y="228.96" style="stroke: #000000; stroke-width: 0.8"/>
      </g>
     </g>
     <g id="text_3">
      <!-- 20 -->
      <g transform="translate(155.979433 243.16) scale(0.1 -0.1)">
       <defs>
        <path id="DMSans24pt-Regular-32" d="M 403 0 
L 403 378 
Q 858 736 1264 1101 
Q 1670 1466 1987 1827 
Q 2304 2189 2486 2534 
Q 2669 2880 2669 3200 
Q 2669 3437 2589 3638 
Q 2509 3840 2329 3968 
Q 2150 4096 1843 4096 
Q 1549 4096 1350 3965 
Q 1152 3834 1053 3619 
Q 954 3405 954 3149 
L 435 3149 
Q 442 3590 624 3907 
Q 806 4224 1126 4390 
Q 1446 4557 1850 4557 
Q 2445 4557 2825 4221 
Q 3206 3885 3206 3219 
Q 3206 2829 3011 2438 
Q 2816 2048 2505 1686 
Q 2195 1325 1846 1011 
Q 1498 698 1197 448 
L 3360 448 
L 3360 0 
L 403 0 
z
" transform="scale(0.015625)"/>
       </defs>
       <use xlink:href="#DMSans24pt-Regular-32"/>
       <use xlink:href="#DMSans24pt-Regular-30" x="57.199997"/>
      </g>
     </g>
    </g>
    <g id="xtick_4">
     <g id="line2d_4">
      <g>
       <use xlink:href="#mb99cddf3f6" x="215.927343" y="228.96" style="stroke: #000000; stroke-width: 0.8"/>
      </g>
     </g>
     <g id="text_4">
      <!-- 30 -->
      <g transform="translate(209.522655 243.16) scale(0.1 -0.1)">
       <defs>
        <path id="DMSans24pt-Regular-33" d="M 1869 -77 
Q 1440 -77 1091 80 
Q 742 237 537 550 
Q 333 864 320 1331 
L 864 1331 
Q 870 1075 988 860 
Q 1107 646 1331 518 
Q 1555 390 1869 390 
Q 2342 390 2582 652 
Q 2822 915 2822 1286 
Q 2822 1600 2672 1798 
Q 2522 1997 2269 2093 
Q 2016 2189 1715 2189 
L 1382 2189 
L 1382 2643 
L 1715 2643 
Q 2150 2643 2396 2844 
Q 2643 3046 2643 3398 
Q 2643 3699 2448 3894 
Q 2253 4090 1869 4090 
Q 1498 4090 1277 3872 
Q 1056 3654 1024 3315 
L 480 3315 
Q 499 3680 675 3961 
Q 851 4243 1158 4400 
Q 1466 4557 1869 4557 
Q 2304 4557 2595 4403 
Q 2886 4250 3036 3994 
Q 3187 3738 3187 3430 
Q 3187 3098 3004 2816 
Q 2822 2534 2445 2438 
Q 2842 2355 3104 2060 
Q 3366 1766 3366 1286 
Q 3366 922 3196 611 
Q 3027 301 2694 112 
Q 2362 -77 1869 -77 
z
" transform="scale(0.015625)"/>
       </defs>
       <use xlink:href="#DMSans24pt-Regular-33"/>
       <use xlink:href="#DMSans24pt-Regular-30" x="58.799988"/>
      </g>
     </g>
    </g>
    <g id="xtick_5">
     <g id="line2d_5">
      <g>
       <use xlink:href="#mb99cddf3f6" x="269.550253" y="228.96" style="stroke: #000000; stroke-width: 0.8"/>
      </g>
     </g>
     <g id="text_5">
      <!-- 40 -->
      <g transform="translate(263.060409 243.16) scale(0.1 -0.1)">
       <defs>
        <path id="DMSans24pt-Regular-34" d="M 2502 0 
L 2502 960 
L 230 960 
L 230 1376 
L 2406 4480 
L 3034 4480 
L 3034 1434 
L 3699 1434 
L 3699 960 
L 3034 960 
L 3034 0 
L 2502 0 
z
M 826 1434 
L 2528 1434 
L 2528 3885 
L 826 1434 
z
" transform="scale(0.015625)"/>
       </defs>
       <use xlink:href="#DMSans24pt-Regular-34"/>
       <use xlink:href="#DMSans24pt-Regular-30" x="60.499985"/>
      </g>
     </g>
    </g>
    <g id="text_6">
     <!-- Geometric Mean of Components ($\sqrt{n_1 \cdot n_2}$) -->
     <g transform="translate(70.347869 258.76) scale(0.1 -0.1)">
      <defs>
       <path id="DMSans24pt-Regular-47" d="M 2400 -77 
Q 1773 -77 1299 214 
Q 826 506 563 1024 
Q 301 1542 301 2234 
Q 301 2918 566 3443 
Q 832 3968 1321 4262 
Q 1811 4557 2477 4557 
Q 3232 4557 3737 4195 
Q 4243 3834 4384 3187 
L 3763 3187 
Q 3674 3590 3341 3827 
Q 3008 4064 2477 4064 
Q 1984 4064 1616 3843 
Q 1248 3622 1049 3212 
Q 851 2803 851 2234 
Q 851 1664 1049 1251 
Q 1248 838 1603 620 
Q 1958 403 2419 403 
Q 3136 403 3501 825 
Q 3866 1248 3917 1971 
L 2624 1971 
L 2624 2394 
L 4467 2394 
L 4467 0 
L 3974 0 
L 3930 736 
Q 3693 346 3337 134 
Q 2982 -77 2400 -77 
z
" transform="scale(0.015625)"/>
       <path id="DMSans24pt-Regular-65" d="M 1869 -77 
Q 1414 -77 1062 131 
Q 710 339 508 713 
Q 307 1088 307 1587 
Q 307 2093 505 2464 
Q 704 2835 1059 3043 
Q 1414 3251 1882 3251 
Q 2349 3251 2681 3043 
Q 3014 2835 3193 2499 
Q 3373 2163 3373 1766 
Q 3373 1702 3373 1628 
Q 3373 1555 3366 1466 
L 832 1466 
Q 851 1101 1001 861 
Q 1152 621 1382 499 
Q 1613 378 1869 378 
Q 2202 378 2426 531 
Q 2650 685 2752 947 
L 3283 947 
Q 3162 506 2797 214 
Q 2432 -77 1869 -77 
z
M 1869 2797 
Q 1485 2797 1187 2566 
Q 890 2336 838 1882 
L 2842 1882 
Q 2822 2310 2550 2553 
Q 2278 2797 1869 2797 
z
" transform="scale(0.015625)"/>
       <path id="DMSans24pt-Regular-6f" d="M 1888 -77 
Q 1440 -77 1081 128 
Q 723 333 515 707 
Q 307 1082 307 1587 
Q 307 2093 518 2467 
Q 730 2842 1091 3046 
Q 1453 3251 1901 3251 
Q 2349 3251 2707 3046 
Q 3066 2842 3274 2467 
Q 3482 2093 3482 1587 
Q 3482 1082 3270 707 
Q 3059 333 2697 128 
Q 2336 -77 1888 -77 
z
M 1888 384 
Q 2163 384 2400 518 
Q 2637 653 2784 921 
Q 2931 1190 2931 1587 
Q 2931 1990 2787 2256 
Q 2643 2522 2406 2656 
Q 2170 2790 1901 2790 
Q 1632 2790 1392 2656 
Q 1152 2522 1005 2256 
Q 858 1990 858 1587 
Q 858 1190 1005 921 
Q 1152 653 1385 518 
Q 1619 384 1888 384 
z
" transform="scale(0.015625)"/>
       <path id="DMSans24pt-Regular-6d" d="M 442 0 
L 442 3174 
L 928 3174 
L 966 2714 
Q 1120 2970 1376 3110 
Q 1632 3251 1952 3251 
Q 2323 3251 2598 3097 
Q 2874 2944 3021 2630 
Q 3187 2925 3481 3088 
Q 3776 3251 4109 3251 
Q 4678 3251 5017 2908 
Q 5357 2566 5357 1856 
L 5357 0 
L 4826 0 
L 4826 1798 
Q 4826 2291 4627 2540 
Q 4429 2790 4058 2790 
Q 3674 2790 3421 2492 
Q 3168 2195 3168 1645 
L 3168 0 
L 2630 0 
L 2630 1798 
Q 2630 2291 2432 2540 
Q 2234 2790 1862 2790 
Q 1485 2790 1232 2492 
Q 979 2195 979 1645 
L 979 0 
L 442 0 
z
" transform="scale(0.015625)"/>
       <path id="DMSans24pt-Regular-74" d="M 1696 0 
Q 1261 0 1011 214 
Q 762 429 762 973 
L 762 2720 
L 211 2720 
L 211 3174 
L 762 3174 
L 832 3936 
L 1299 3936 
L 1299 3174 
L 2234 3174 
L 2234 2720 
L 1299 2720 
L 1299 973 
Q 1299 672 1420 566 
Q 1542 461 1850 461 
L 2182 461 
L 2182 0 
L 1696 0 
z
" transform="scale(0.015625)"/>
       <path id="DMSans24pt-Regular-72" d="M 442 0 
L 442 3174 
L 928 3174 
L 973 2560 
Q 1120 2880 1421 3065 
Q 1722 3251 2163 3251 
L 2163 2688 
L 2016 2688 
Q 1734 2688 1497 2592 
Q 1261 2496 1120 2259 
Q 979 2022 979 1600 
L 979 0 
L 442 0 
z
" transform="scale(0.015625)"/>
       <path id="DMSans24pt-Regular-69" d="M 768 3878 
Q 608 3878 502 3984 
Q 397 4090 397 4250 
Q 397 4410 502 4509 
Q 608 4608 768 4608 
Q 922 4608 1030 4509 
Q 1139 4410 1139 4250 
Q 1139 4090 1030 3984 
Q 922 3878 768 3878 
z
M 499 0 
L 499 3174 
L 1037 3174 
L 1037 0 
L 499 0 
z
" transform="scale(0.015625)"/>
       <path id="DMSans24pt-Regular-63" d="M 1901 -77 
Q 1446 -77 1084 131 
Q 723 339 515 713 
Q 307 1088 307 1587 
Q 307 2086 515 2460 
Q 723 2835 1084 3043 
Q 1446 3251 1901 3251 
Q 2470 3251 2854 2956 
Q 3238 2662 3341 2170 
L 2790 2170 
Q 2726 2464 2476 2627 
Q 2227 2790 1894 2790 
Q 1626 2790 1389 2656 
Q 1152 2522 1005 2253 
Q 858 1984 858 1587 
Q 858 1190 1005 921 
Q 1152 653 1389 515 
Q 1626 378 1894 378 
Q 2227 378 2476 544 
Q 2726 710 2790 1005 
L 3341 1005 
Q 3238 525 2854 224 
Q 2470 -77 1901 -77 
z
" transform="scale(0.015625)"/>
       <path id="DMSans24pt-Regular-20" transform="scale(0.015625)"/>
       <path id="DMSans24pt-Regular-4d" d="M 474 0 
L 474 4480 
L 1101 4480 
L 2707 1357 
L 4314 4480 
L 4947 4480 
L 4947 0 
L 4410 0 
L 4410 3520 
L 2912 640 
L 2509 640 
L 1011 3514 
L 1011 0 
L 474 0 
z
" transform="scale(0.015625)"/>
       <path id="DMSans24pt-Regular-61" d="M 1498 -77 
Q 1101 -77 838 57 
Q 576 192 448 416 
Q 320 640 320 902 
Q 320 1389 691 1651 
Q 1062 1914 1702 1914 
L 2560 1914 
Q 2560 2355 2349 2576 
Q 2138 2797 1760 2797 
Q 1446 2797 1216 2640 
Q 986 2483 934 2182 
L 384 2182 
Q 422 2528 620 2765 
Q 819 3002 1123 3126 
Q 1427 3251 1760 3251 
Q 2426 3251 2762 2896 
Q 3098 2541 3098 1952 
L 3098 0 
L 2618 0 
L 2586 570 
Q 2451 301 2192 112 
Q 1933 -77 1498 -77 
z
M 1581 378 
Q 1894 378 2112 538 
Q 2330 698 2445 954 
Q 2560 1210 2560 1491 
L 2560 1498 
L 1747 1498 
Q 1274 1498 1078 1334 
Q 883 1171 883 928 
Q 883 678 1065 528 
Q 1248 378 1581 378 
z
" transform="scale(0.015625)"/>
       <path id="DMSans24pt-Regular-6e" d="M 442 0 
L 442 3174 
L 928 3174 
L 960 2605 
Q 1114 2906 1402 3078 
Q 1690 3251 2054 3251 
Q 2618 3251 2954 2908 
Q 3290 2566 3290 1856 
L 3290 0 
L 2752 0 
L 2752 1798 
Q 2752 2291 2541 2540 
Q 2330 2790 1933 2790 
Q 1523 2790 1251 2492 
Q 979 2195 979 1645 
L 979 0 
L 442 0 
z
" transform="scale(0.015625)"/>
       <path id="DMSans24pt-Regular-66" d="M 614 0 
L 614 2720 
L 134 2720 
L 134 3174 
L 614 3174 
L 614 3725 
Q 614 4186 844 4397 
Q 1075 4608 1517 4608 
L 1837 4608 
L 1837 4147 
L 1600 4147 
Q 1363 4147 1257 4051 
Q 1152 3955 1152 3712 
L 1152 3174 
L 1933 3174 
L 1933 2720 
L 1152 2720 
L 1152 0 
L 614 0 
z
" transform="scale(0.015625)"/>
       <path id="DMSans24pt-Regular-43" d="M 2438 -77 
Q 1779 -77 1299 214 
Q 819 506 560 1027 
Q 301 1549 301 2240 
Q 301 2931 560 3452 
Q 819 3974 1299 4265 
Q 1779 4557 2438 4557 
Q 3213 4557 3693 4192 
Q 4173 3827 4307 3162 
L 3712 3162 
Q 3610 3578 3296 3830 
Q 2982 4083 2438 4083 
Q 1958 4083 1600 3862 
Q 1242 3642 1046 3229 
Q 851 2816 851 2240 
Q 851 1664 1046 1251 
Q 1242 838 1600 617 
Q 1958 397 2438 397 
Q 2982 397 3296 643 
Q 3610 890 3712 1299 
L 4307 1299 
Q 4173 653 3693 288 
Q 3213 -77 2438 -77 
z
" transform="scale(0.015625)"/>
       <path id="DMSans24pt-Regular-70" d="M 442 -1408 
L 442 3174 
L 928 3174 
L 979 2650 
Q 1133 2880 1417 3065 
Q 1702 3251 2144 3251 
Q 2618 3251 2970 3033 
Q 3322 2816 3517 2438 
Q 3712 2061 3712 1581 
Q 3712 1101 3517 726 
Q 3322 352 2966 137 
Q 2611 -77 2138 -77 
Q 1747 -77 1446 83 
Q 1146 243 979 531 
L 979 -1408 
L 442 -1408 
z
M 2080 390 
Q 2400 390 2646 540 
Q 2893 691 3030 960 
Q 3168 1229 3168 1587 
Q 3168 1946 3030 2214 
Q 2893 2483 2646 2633 
Q 2400 2784 2080 2784 
Q 1760 2784 1513 2633 
Q 1267 2483 1129 2214 
Q 992 1946 992 1587 
Q 992 1229 1129 960 
Q 1267 691 1513 540 
Q 1760 390 2080 390 
z
" transform="scale(0.015625)"/>
       <path id="DMSans24pt-Regular-73" d="M 1658 -77 
Q 1088 -77 710 211 
Q 333 499 269 992 
L 819 992 
Q 870 742 1084 560 
Q 1299 378 1664 378 
Q 2003 378 2163 522 
Q 2323 666 2323 864 
Q 2323 1146 2115 1245 
Q 1907 1344 1530 1421 
Q 1274 1472 1014 1568 
Q 755 1664 585 1840 
Q 416 2016 416 2304 
Q 416 2720 726 2985 
Q 1037 3251 1568 3251 
Q 2074 3251 2397 3001 
Q 2720 2752 2771 2278 
L 2240 2278 
Q 2214 2522 2038 2659 
Q 1862 2797 1562 2797 
Q 1267 2797 1113 2675 
Q 960 2554 960 2355 
Q 960 2170 1161 2054 
Q 1363 1939 1709 1869 
Q 2010 1805 2272 1712 
Q 2534 1619 2704 1436 
Q 2874 1254 2874 909 
Q 2880 480 2550 201 
Q 2221 -77 1658 -77 
z
" transform="scale(0.015625)"/>
       <path id="DMSans24pt-Regular-28" d="M 1587 -928 
Q 1242 -595 947 -137 
Q 653 320 477 889 
Q 301 1459 301 2131 
Q 301 2803 477 3372 
Q 653 3942 947 4403 
Q 1242 4864 1587 5190 
L 2138 5190 
L 2138 5139 
Q 1555 4563 1196 3792 
Q 838 3021 838 2131 
Q 838 1242 1196 470 
Q 1555 -301 2138 -877 
L 2138 -928 
L 1587 -928 
z
" transform="scale(0.015625)"/>
       <path id="STIXSizeOneSym-Regular-221a" d="M 6970 9933 
L 3373 -1888 
L 3104 -1888 
L 1626 2918 
Q 1555 3149 1465 3251 
Q 1376 3354 1229 3354 
Q 1011 3354 794 3181 
L 717 3309 
L 1766 4115 
L 1926 4115 
L 3379 -602 
L 3405 -602 
L 6605 9933 
L 6970 9933 
z
" transform="scale(0.015625)"/>
       <path id="DejaVuSans-Oblique-6e" d="M 3566 2113 
L 3156 0 
L 2578 0 
L 2988 2091 
Q 3016 2238 3031 2350 
Q 3047 2463 3047 2528 
Q 3047 2791 2881 2937 
Q 2716 3084 2419 3084 
Q 1956 3084 1622 2776 
Q 1288 2469 1184 1941 
L 800 0 
L 225 0 
L 903 3500 
L 1478 3500 
L 1363 2950 
Q 1603 3253 1940 3418 
Q 2278 3584 2650 3584 
Q 3113 3584 3367 3334 
Q 3622 3084 3622 2631 
Q 3622 2519 3608 2391 
Q 3594 2263 3566 2113 
z
" transform="scale(0.015625)"/>
       <path id="DejaVuSans-31" d="M 794 531 
L 1825 531 
L 1825 4091 
L 703 3866 
L 703 4441 
L 1819 4666 
L 2450 4666 
L 2450 531 
L 3481 531 
L 3481 0 
L 794 0 
L 794 531 
z
" transform="scale(0.015625)"/>
       <path id="DejaVuSans-22c5" d="M 684 2619 
L 1344 2619 
L 1344 1825 
L 684 1825 
L 684 2619 
z
" transform="scale(0.015625)"/>
       <path id="DejaVuSans-32" d="M 1228 531 
L 3431 531 
L 3431 0 
L 469 0 
L 469 531 
Q 828 903 1448 1529 
Q 2069 2156 2228 2338 
Q 2531 2678 2651 2914 
Q 2772 3150 2772 3378 
Q 2772 3750 2511 3984 
Q 2250 4219 1831 4219 
Q 1534 4219 1204 4116 
Q 875 4013 500 3803 
L 500 4441 
Q 881 4594 1212 4672 
Q 1544 4750 1819 4750 
Q 2544 4750 2975 4387 
Q 3406 4025 3406 3419 
Q 3406 3131 3298 2873 
Q 3191 2616 2906 2266 
Q 2828 2175 2409 1742 
Q 1991 1309 1228 531 
z
" transform="scale(0.015625)"/>
       <path id="DMSans24pt-Regular-29" d="M 794 -928 
L 243 -928 
L 243 -877 
Q 826 -301 1184 470 
Q 1542 1242 1542 2131 
Q 1542 3021 1187 3792 
Q 832 4563 243 5139 
L 243 5190 
L 794 5190 
Q 1146 4864 1437 4403 
Q 1728 3942 1904 3372 
Q 2080 2803 2080 2131 
Q 2080 1459 1904 889 
Q 1728 320 1437 -137 
Q 1146 -595 794 -928 
z
" transform="scale(0.015625)"/>
      </defs>
      <use xlink:href="#DMSans24pt-Regular-47" transform="translate(0 0.984375)"/>
      <use xlink:href="#DMSans24pt-Regular-65" transform="translate(75.699982 0.984375)"/>
      <use xlink:href="#DMSans24pt-Regular-6f" transform="translate(132.599976 0.984375)"/>
      <use xlink:href="#DMSans24pt-Regular-6d" transform="translate(191.799973 0.984375)"/>
      <use xlink:href="#DMSans24pt-Regular-65" transform="translate(281.299957 0.984375)"/>
      <use xlink:href="#DMSans24pt-Regular-74" transform="translate(338.199951 0.984375)"/>
      <use xlink:href="#DMSans24pt-Regular-72" transform="translate(376.899948 0.984375)"/>
      <use xlink:href="#DMSans24pt-Regular-69" transform="translate(413.199936 0.984375)"/>
      <use xlink:href="#DMSans24pt-Regular-63" transform="translate(437.09993 0.984375)"/>
      <use xlink:href="#DMSans24pt-Regular-20" transform="translate(494.099915 0.984375)"/>
      <use xlink:href="#DMSans24pt-Regular-4d" transform="translate(520.599899 0.984375)"/>
      <use xlink:href="#DMSans24pt-Regular-65" transform="translate(605.299881 0.984375)"/>
      <use xlink:href="#DMSans24pt-Regular-61" transform="translate(662.199875 0.984375)"/>
      <use xlink:href="#DMSans24pt-Regular-6e" transform="translate(716.399872 0.984375)"/>
      <use xlink:href="#DMSans24pt-Regular-20" transform="translate(773.599869 0.984375)"/>
      <use xlink:href="#DMSans24pt-Regular-6f" transform="translate(800.099854 0.984375)"/>
      <use xlink:href="#DMSans24pt-Regular-66" transform="translate(859.29985 0.984375)"/>
      <use xlink:href="#DMSans24pt-Regular-20" transform="translate(892.599838 0.984375)"/>
      <use xlink:href="#DMSans24pt-Regular-43" transform="translate(919.099823 0.984375)"/>
      <use xlink:href="#DMSans24pt-Regular-6f" transform="translate(991.099808 0.984375)"/>
      <use xlink:href="#DMSans24pt-Regular-6d" transform="translate(1050.299805 0.984375)"/>
      <use xlink:href="#DMSans24pt-Regular-70" transform="translate(1139.799789 0.984375)"/>
      <use xlink:href="#DMSans24pt-Regular-6f" transform="translate(1202.599777 0.984375)"/>
      <use xlink:href="#DMSans24pt-Regular-6e" transform="translate(1261.799774 0.984375)"/>
      <use xlink:href="#DMSans24pt-Regular-65" transform="translate(1318.999771 0.984375)"/>
      <use xlink:href="#DMSans24pt-Regular-6e" transform="translate(1375.899765 0.984375)"/>
      <use xlink:href="#DMSans24pt-Regular-74" transform="translate(1433.099762 0.984375)"/>
      <use xlink:href="#DMSans24pt-Regular-73" transform="translate(1471.799759 0.984375)"/>
      <use xlink:href="#DMSans24pt-Regular-20" transform="translate(1521.799744 0.984375)"/>
      <use xlink:href="#DMSans24pt-Regular-28" transform="translate(1548.299728 0.984375)"/>
      <use xlink:href="#STIXSizeOneSym-Regular-221a" transform="translate(1585.499725 1.09375) scale(0.561205)"/>
      <use xlink:href="#DejaVuSans-Oblique-6e" transform="translate(1657.323822 0.75)"/>
      <use xlink:href="#DejaVuSans-31" transform="translate(1720.702728 -15.65625) scale(0.7)"/>
      <use xlink:href="#DejaVuSans-22c5" transform="translate(1787.455658 0.75)"/>
      <use xlink:href="#DejaVuSans-Oblique-6e" transform="translate(1838.725189 0.75)"/>
      <use xlink:href="#DejaVuSans-32" transform="translate(1902.104095 -15.65625) scale(0.7)"/>
      <use xlink:href="#DMSans24pt-Regular-29" transform="translate(1961.874603 0.984375)"/>
      <path d="M 1644.823822 81.5 
L 1644.823822 87.75 
L 1961.874603 87.75 
L 1961.874603 81.5 
L 1644.823822 81.5 
z
"/>
     </g>
    </g>
   </g>
   <g id="matplotlib.axis_2">
    <g id="ytick_1">
     <g id="line2d_6">
      <defs>
       <path id="m6c4d34e74f" d="M 0 0 
L -3.5 0 
" style="stroke: #000000; stroke-width: 0.8"/>
      </defs>
      <g>
       <use xlink:href="#m6c4d34e74f" x="43.529688" y="218.88" style="stroke: #000000; stroke-width: 0.8"/>
      </g>
     </g>
     <g id="text_7">
      <!-- 0.0 -->
      <g transform="translate(20.720313 222.48) scale(0.1 -0.1)">
       <defs>
        <path id="DMSans24pt-Regular-2e" d="M 627 -32 
Q 467 -32 361 73 
Q 256 179 256 333 
Q 256 486 361 592 
Q 467 698 627 698 
Q 787 698 889 592 
Q 992 486 992 333 
Q 992 179 889 73 
Q 787 -32 627 -32 
z
" transform="scale(0.015625)"/>
       </defs>
       <use xlink:href="#DMSans24pt-Regular-30"/>
       <use xlink:href="#DMSans24pt-Regular-2e" x="69.299988"/>
       <use xlink:href="#DMSans24pt-Regular-30" x="88.799973"/>
      </g>
     </g>
    </g>
    <g id="ytick_2">
     <g id="line2d_7">
      <g>
       <use xlink:href="#m6c4d34e74f" x="43.529688" y="193.531558" style="stroke: #000000; stroke-width: 0.8"/>
      </g>
     </g>
     <g id="text_8">
      <!-- 0.2 -->
      <g transform="translate(21.929688 197.131558) scale(0.1 -0.1)">
       <use xlink:href="#DMSans24pt-Regular-30"/>
       <use xlink:href="#DMSans24pt-Regular-2e" x="69.299988"/>
       <use xlink:href="#DMSans24pt-Regular-32" x="88.799973"/>
      </g>
     </g>
    </g>
    <g id="ytick_3">
     <g id="line2d_8">
      <g>
       <use xlink:href="#m6c4d34e74f" x="43.529688" y="168.183116" style="stroke: #000000; stroke-width: 0.8"/>
      </g>
     </g>
     <g id="text_9">
      <!-- 0.4 -->
      <g transform="translate(21.6 171.783116) scale(0.1 -0.1)">
       <use xlink:href="#DMSans24pt-Regular-30"/>
       <use xlink:href="#DMSans24pt-Regular-2e" x="69.299988"/>
       <use xlink:href="#DMSans24pt-Regular-34" x="88.799973"/>
      </g>
     </g>
    </g>
    <g id="ytick_4">
     <g id="line2d_9">
      <g>
       <use xlink:href="#m6c4d34e74f" x="43.529688" y="142.834674" style="stroke: #000000; stroke-width: 0.8"/>
      </g>
     </g>
     <g id="text_10">
      <!-- 0.6 -->
      <g transform="translate(21.35 146.434674) scale(0.1 -0.1)">
       <defs>
        <path id="DMSans24pt-Regular-36" d="M 2086 -77 
Q 1600 -77 1267 105 
Q 934 288 732 595 
Q 531 902 438 1283 
Q 346 1664 346 2061 
Q 346 2803 550 3363 
Q 755 3923 1145 4240 
Q 1536 4557 2080 4557 
Q 2502 4557 2806 4390 
Q 3110 4224 3286 3945 
Q 3462 3667 3501 3328 
L 3002 3328 
Q 2938 3693 2694 3891 
Q 2451 4090 2074 4090 
Q 1568 4090 1229 3622 
Q 890 3155 858 2170 
L 858 2125 
Q 1011 2426 1350 2646 
Q 1690 2867 2157 2867 
Q 2541 2867 2877 2688 
Q 3213 2509 3424 2185 
Q 3635 1862 3635 1427 
Q 3635 1050 3449 704 
Q 3264 358 2915 140 
Q 2566 -77 2086 -77 
z
M 2048 397 
Q 2349 397 2585 528 
Q 2822 659 2956 886 
Q 3091 1114 3091 1402 
Q 3091 1856 2796 2128 
Q 2502 2400 2048 2400 
Q 1754 2400 1514 2262 
Q 1274 2125 1136 1897 
Q 998 1670 998 1395 
Q 998 1107 1136 883 
Q 1274 659 1514 528 
Q 1754 397 2048 397 
z
" transform="scale(0.015625)"/>
       </defs>
       <use xlink:href="#DMSans24pt-Regular-30"/>
       <use xlink:href="#DMSans24pt-Regular-2e" x="69.299988"/>
       <use xlink:href="#DMSans24pt-Regular-36" x="88.799973"/>
      </g>
     </g>
    </g>
    <g id="ytick_5">
     <g id="line2d_10">
      <g>
       <use xlink:href="#m6c4d34e74f" x="43.529688" y="117.486232" style="stroke: #000000; stroke-width: 0.8"/>
      </g>
     </g>
     <g id="text_11">
      <!-- 0.8 -->
      <g transform="translate(21.55 121.086232) scale(0.1 -0.1)">
       <defs>
        <path id="DMSans24pt-Regular-38" d="M 1952 -77 
Q 1510 -77 1161 86 
Q 813 250 608 541 
Q 403 832 403 1216 
Q 403 1626 643 1952 
Q 883 2278 1280 2387 
Q 915 2515 716 2784 
Q 518 3053 518 3366 
Q 518 3699 691 3968 
Q 864 4237 1184 4397 
Q 1504 4557 1952 4557 
Q 2400 4557 2720 4397 
Q 3040 4237 3213 3968 
Q 3386 3699 3386 3366 
Q 3386 3053 3187 2784 
Q 2989 2515 2624 2387 
Q 3021 2278 3261 1952 
Q 3501 1626 3501 1216 
Q 3501 832 3296 541 
Q 3091 250 2742 86 
Q 2394 -77 1952 -77 
z
M 1952 2579 
Q 2362 2579 2602 2790 
Q 2842 3002 2842 3334 
Q 2842 3712 2605 3904 
Q 2368 4096 1952 4096 
Q 1542 4096 1305 3904 
Q 1069 3712 1069 3334 
Q 1069 3002 1305 2790 
Q 1542 2579 1952 2579 
z
M 1952 397 
Q 2464 397 2713 630 
Q 2963 864 2963 1248 
Q 2963 1683 2688 1907 
Q 2413 2131 1952 2131 
Q 1491 2131 1216 1907 
Q 941 1683 941 1248 
Q 941 864 1193 630 
Q 1446 397 1952 397 
z
" transform="scale(0.015625)"/>
       </defs>
       <use xlink:href="#DMSans24pt-Regular-30"/>
       <use xlink:href="#DMSans24pt-Regular-2e" x="69.299988"/>
       <use xlink:href="#DMSans24pt-Regular-38" x="88.799973"/>
      </g>
     </g>
    </g>
    <g id="ytick_6">
     <g id="line2d_11">
      <g>
       <use xlink:href="#m6c4d34e74f" x="43.529688" y="92.13779" style="stroke: #000000; stroke-width: 0.8"/>
      </g>
     </g>
     <g id="text_12">
      <!-- 1.0 -->
      <g transform="translate(24.629688 95.73779) scale(0.1 -0.1)">
       <use xlink:href="#DMSans24pt-Regular-31"/>
       <use xlink:href="#DMSans24pt-Regular-2e" x="30.199997"/>
       <use xlink:href="#DMSans24pt-Regular-30" x="49.699982"/>
      </g>
     </g>
    </g>
    <g id="ytick_7">
     <g id="line2d_12">
      <g>
       <use xlink:href="#m6c4d34e74f" x="43.529688" y="66.789348" style="stroke: #000000; stroke-width: 0.8"/>
      </g>
     </g>
     <g id="text_13">
      <!-- 1.2 -->
      <g transform="translate(25.839063 70.389348) scale(0.1 -0.1)">
       <use xlink:href="#DMSans24pt-Regular-31"/>
       <use xlink:href="#DMSans24pt-Regular-2e" x="30.199997"/>
       <use xlink:href="#DMSans24pt-Regular-32" x="49.699982"/>
      </g>
     </g>
    </g>
    <g id="ytick_8">
     <g id="line2d_13">
      <g>
       <use xlink:href="#m6c4d34e74f" x="43.529688" y="41.440906" style="stroke: #000000; stroke-width: 0.8"/>
      </g>
     </g>
     <g id="text_14">
      <!-- 1.4 -->
      <g transform="translate(25.509375 45.040906) scale(0.1 -0.1)">
       <use xlink:href="#DMSans24pt-Regular-31"/>
       <use xlink:href="#DMSans24pt-Regular-2e" x="30.199997"/>
       <use xlink:href="#DMSans24pt-Regular-34" x="49.699982"/>
      </g>
     </g>
    </g>
    <g id="ytick_9">
     <g id="line2d_14">
      <g>
       <use xlink:href="#m6c4d34e74f" x="43.529688" y="16.092464" style="stroke: #000000; stroke-width: 0.8"/>
      </g>
     </g>
     <g id="text_15">
      <!-- 1.6 -->
      <g transform="translate(25.259375 19.692464) scale(0.1 -0.1)">
       <use xlink:href="#DMSans24pt-Regular-31"/>
       <use xlink:href="#DMSans24pt-Regular-2e" x="30.199997"/>
       <use xlink:href="#DMSans24pt-Regular-36" x="49.699982"/>
      </g>
     </g>
    </g>
    <g id="text_16">
     <!-- POMMix Embedding Cosine Distance -->
     <g transform="translate(14.4 203.749531) rotate(-90) scale(0.1 -0.1)">
      <defs>
       <path id="DMSans24pt-Regular-50" d="M 474 0 
L 474 4480 
L 1946 4480 
Q 2470 4480 2809 4307 
Q 3149 4134 3312 3840 
Q 3475 3546 3475 3174 
Q 3475 2810 3315 2515 
Q 3155 2221 2816 2045 
Q 2477 1869 1946 1869 
L 1011 1869 
L 1011 0 
L 474 0 
z
M 1011 2323 
L 1933 2323 
Q 2464 2323 2694 2553 
Q 2925 2784 2925 3174 
Q 2925 3584 2694 3808 
Q 2464 4032 1933 4032 
L 1011 4032 
L 1011 2323 
z
" transform="scale(0.015625)"/>
       <path id="DMSans24pt-Regular-4f" d="M 2509 -77 
Q 1850 -77 1354 214 
Q 858 506 579 1027 
Q 301 1549 301 2240 
Q 301 2925 579 3446 
Q 858 3968 1354 4262 
Q 1850 4557 2509 4557 
Q 3174 4557 3670 4262 
Q 4166 3968 4441 3446 
Q 4717 2925 4717 2240 
Q 4717 1549 4441 1027 
Q 4166 506 3670 214 
Q 3174 -77 2509 -77 
z
M 2509 397 
Q 3002 397 3376 617 
Q 3750 838 3958 1251 
Q 4166 1664 4166 2240 
Q 4166 2816 3958 3229 
Q 3750 3642 3376 3859 
Q 3002 4077 2509 4077 
Q 2016 4077 1641 3859 
Q 1267 3642 1059 3229 
Q 851 2816 851 2240 
Q 851 1664 1059 1251 
Q 1267 838 1641 617 
Q 2016 397 2509 397 
z
" transform="scale(0.015625)"/>
       <path id="DMSans24pt-Regular-78" d="M 122 0 
L 1222 1587 
L 122 3174 
L 704 3174 
L 1594 1862 
L 2490 3174 
L 3066 3174 
L 1965 1587 
L 3066 0 
L 2490 0 
L 1594 1312 
L 704 0 
L 122 0 
z
" transform="scale(0.015625)"/>
       <path id="DMSans24pt-Regular-45" d="M 474 0 
L 474 4480 
L 3245 4480 
L 3245 4038 
L 1011 4038 
L 1011 2477 
L 3053 2477 
L 3053 2042 
L 1011 2042 
L 1011 442 
L 3245 442 
L 3245 0 
L 474 0 
z
" transform="scale(0.015625)"/>
       <path id="DMSans24pt-Regular-62" d="M 2138 -77 
Q 1747 -77 1446 83 
Q 1146 243 979 531 
L 928 0 
L 442 0 
L 442 4608 
L 979 4608 
L 979 2650 
Q 1133 2880 1417 3065 
Q 1702 3251 2144 3251 
Q 2618 3251 2970 3033 
Q 3322 2816 3517 2438 
Q 3712 2061 3712 1581 
Q 3712 1101 3517 726 
Q 3322 352 2966 137 
Q 2611 -77 2138 -77 
z
M 2080 390 
Q 2400 390 2646 540 
Q 2893 691 3030 960 
Q 3168 1229 3168 1587 
Q 3168 1946 3030 2214 
Q 2893 2483 2646 2633 
Q 2400 2784 2080 2784 
Q 1760 2784 1513 2633 
Q 1267 2483 1129 2214 
Q 992 1946 992 1587 
Q 992 1229 1129 960 
Q 1267 691 1513 540 
Q 1760 390 2080 390 
z
" transform="scale(0.015625)"/>
       <path id="DMSans24pt-Regular-64" d="M 1882 -77 
Q 1408 -77 1053 140 
Q 698 358 502 736 
Q 307 1114 307 1594 
Q 307 2074 502 2448 
Q 698 2822 1056 3036 
Q 1414 3251 1888 3251 
Q 2278 3251 2582 3091 
Q 2886 2931 3046 2643 
L 3046 4608 
L 3584 4608 
L 3584 0 
L 3098 0 
L 3046 525 
Q 2893 294 2605 108 
Q 2317 -77 1882 -77 
z
M 1939 390 
Q 2259 390 2505 540 
Q 2752 691 2889 960 
Q 3027 1229 3027 1587 
Q 3027 1946 2889 2214 
Q 2752 2483 2505 2633 
Q 2259 2784 1939 2784 
Q 1626 2784 1379 2633 
Q 1133 2483 995 2214 
Q 858 1946 858 1587 
Q 858 1229 995 960 
Q 1133 691 1379 540 
Q 1626 390 1939 390 
z
" transform="scale(0.015625)"/>
       <path id="DMSans24pt-Regular-67" d="M 1696 998 
Q 1427 998 1210 1069 
L 883 768 
Q 954 717 1059 681 
Q 1165 646 1363 617 
Q 1562 589 1920 557 
Q 2566 512 2838 262 
Q 3110 13 3110 -390 
Q 3110 -666 2960 -915 
Q 2810 -1165 2499 -1325 
Q 2189 -1485 1702 -1485 
Q 1056 -1485 646 -1229 
Q 237 -973 237 -461 
Q 237 -282 333 -74 
Q 429 134 691 320 
Q 550 378 451 448 
Q 352 518 269 595 
L 269 742 
L 813 1286 
Q 435 1600 435 2125 
Q 435 2438 582 2691 
Q 730 2944 1011 3097 
Q 1293 3251 1696 3251 
Q 1965 3251 2195 3174 
L 3366 3174 
L 3366 2771 
L 2778 2746 
Q 2957 2477 2957 2125 
Q 2957 1811 2809 1555 
Q 2662 1299 2380 1148 
Q 2099 998 1696 998 
z
M 1696 1440 
Q 2035 1440 2236 1616 
Q 2438 1792 2438 2125 
Q 2438 2451 2236 2627 
Q 2035 2803 1696 2803 
Q 1357 2803 1152 2627 
Q 947 2451 947 2125 
Q 947 1792 1152 1616 
Q 1357 1440 1696 1440 
z
M 762 -410 
Q 762 -730 1027 -886 
Q 1293 -1043 1702 -1043 
Q 2099 -1043 2339 -870 
Q 2579 -698 2579 -410 
Q 2579 -205 2416 -54 
Q 2253 96 1798 122 
Q 1446 141 1190 186 
Q 928 45 845 -115 
Q 762 -275 762 -410 
z
" transform="scale(0.015625)"/>
       <path id="DMSans24pt-Regular-44" d="M 474 0 
L 474 4480 
L 1850 4480 
Q 3034 4480 3594 3878 
Q 4154 3277 4154 2227 
Q 4154 1536 3907 1037 
Q 3661 538 3149 269 
Q 2637 0 1850 0 
L 474 0 
z
M 1011 448 
L 1837 448 
Q 2490 448 2877 662 
Q 3264 877 3430 1277 
Q 3597 1677 3597 2227 
Q 3597 2790 3430 3193 
Q 3264 3597 2877 3814 
Q 2490 4032 1837 4032 
L 1011 4032 
L 1011 448 
z
" transform="scale(0.015625)"/>
      </defs>
      <use xlink:href="#DMSans24pt-Regular-50"/>
      <use xlink:href="#DMSans24pt-Regular-4f" x="57.899994"/>
      <use xlink:href="#DMSans24pt-Regular-4d" x="136.299988"/>
      <use xlink:href="#DMSans24pt-Regular-4d" x="220.999969"/>
      <use xlink:href="#DMSans24pt-Regular-69" x="305.699951"/>
      <use xlink:href="#DMSans24pt-Regular-78" x="329.599945"/>
      <use xlink:href="#DMSans24pt-Regular-20" x="379.399933"/>
      <use xlink:href="#DMSans24pt-Regular-45" x="405.899918"/>
      <use xlink:href="#DMSans24pt-Regular-6d" x="462.299911"/>
      <use xlink:href="#DMSans24pt-Regular-62" x="551.799896"/>
      <use xlink:href="#DMSans24pt-Regular-65" x="614.599884"/>
      <use xlink:href="#DMSans24pt-Regular-64" x="671.499878"/>
      <use xlink:href="#DMSans24pt-Regular-64" x="734.399872"/>
      <use xlink:href="#DMSans24pt-Regular-69" x="797.299866"/>
      <use xlink:href="#DMSans24pt-Regular-6e" x="821.19986"/>
      <use xlink:href="#DMSans24pt-Regular-67" x="878.399857"/>
      <use xlink:href="#DMSans24pt-Regular-20" x="933.599854"/>
      <use xlink:href="#DMSans24pt-Regular-43" x="960.099838"/>
      <use xlink:href="#DMSans24pt-Regular-6f" x="1032.099823"/>
      <use xlink:href="#DMSans24pt-Regular-73" x="1091.29982"/>
      <use xlink:href="#DMSans24pt-Regular-69" x="1141.299805"/>
      <use xlink:href="#DMSans24pt-Regular-6e" x="1165.199799"/>
      <use xlink:href="#DMSans24pt-Regular-65" x="1222.399796"/>
      <use xlink:href="#DMSans24pt-Regular-20" x="1279.299789"/>
      <use xlink:href="#DMSans24pt-Regular-44" x="1305.799774"/>
      <use xlink:href="#DMSans24pt-Regular-69" x="1375.399765"/>
      <use xlink:href="#DMSans24pt-Regular-73" x="1399.299759"/>
      <use xlink:href="#DMSans24pt-Regular-74" x="1449.299744"/>
      <use xlink:href="#DMSans24pt-Regular-61" x="1487.999741"/>
      <use xlink:href="#DMSans24pt-Regular-6e" x="1542.199738"/>
      <use xlink:href="#DMSans24pt-Regular-63" x="1599.399734"/>
      <use xlink:href="#DMSans24pt-Regular-65" x="1656.399719"/>
     </g>
    </g>
   </g>
   <g id="line2d_15">
    <defs>
     <path id="mded2834911" d="M 0 3 
C 0.795609 3 1.55874 2.683901 2.12132 2.12132 
C 2.683901 1.55874 3 0.795609 3 0 
C 3 -0.795609 2.683901 -1.55874 2.12132 -2.12132 
C 1.55874 -2.683901 0.795609 -3 0 -3 
C -0.795609 -3 -1.55874 -2.683901 -2.12132 -2.12132 
C -2.683901 -1.55874 -3 -0.795609 -3 0 
C -3 0.795609 -2.683901 1.55874 -2.12132 2.12132 
C -1.55874 2.683901 -0.795609 3 0 3 
z
" style="stroke: #ffffff; stroke-width: 0.75"/>
    </defs>
    <g clip-path="url(#p2a0a0e59b8)">
     <use xlink:href="#mded2834911" x="60.420904" y="124.061309" style="fill: #0173b2; stroke: #ffffff; stroke-width: 0.75"/>
     <use xlink:href="#mded2834911" x="65.783195" y="85.985916" style="fill: #0173b2; stroke: #ffffff; stroke-width: 0.75"/>
     <use xlink:href="#mded2834911" x="71.145486" y="80.33994" style="fill: #0173b2; stroke: #ffffff; stroke-width: 0.75"/>
     <use xlink:href="#mded2834911" x="73.826632" y="84.037289" style="fill: #0173b2; stroke: #ffffff; stroke-width: 0.75"/>
     <use xlink:href="#mded2834911" x="76.507777" y="170.493718" style="fill: #0173b2; stroke: #ffffff; stroke-width: 0.75"/>
     <use xlink:href="#mded2834911" x="79.188923" y="104.239273" style="fill: #0173b2; stroke: #ffffff; stroke-width: 0.75"/>
     <use xlink:href="#mded2834911" x="81.870068" y="129.887771" style="fill: #0173b2; stroke: #ffffff; stroke-width: 0.75"/>
     <use xlink:href="#mded2834911" x="84.551214" y="112.379188" style="fill: #0173b2; stroke: #ffffff; stroke-width: 0.75"/>
     <use xlink:href="#mded2834911" x="87.232359" y="122.198974" style="fill: #0173b2; stroke: #ffffff; stroke-width: 0.75"/>
     <use xlink:href="#mded2834911" x="89.913505" y="113.86487" style="fill: #0173b2; stroke: #ffffff; stroke-width: 0.75"/>
     <use xlink:href="#mded2834911" x="92.59465" y="133.352298" style="fill: #0173b2; stroke: #ffffff; stroke-width: 0.75"/>
     <use xlink:href="#mded2834911" x="95.275796" y="119.093914" style="fill: #0173b2; stroke: #ffffff; stroke-width: 0.75"/>
     <use xlink:href="#mded2834911" x="97.956941" y="141.578509" style="fill: #0173b2; stroke: #ffffff; stroke-width: 0.75"/>
     <use xlink:href="#mded2834911" x="100.638087" y="146.427071" style="fill: #0173b2; stroke: #ffffff; stroke-width: 0.75"/>
     <use xlink:href="#mded2834911" x="103.319232" y="131.995259" style="fill: #0173b2; stroke: #ffffff; stroke-width: 0.75"/>
     <use xlink:href="#mded2834911" x="106.000377" y="162.03187" style="fill: #0173b2; stroke: #ffffff; stroke-width: 0.75"/>
     <use xlink:href="#mded2834911" x="108.681523" y="141.632201" style="fill: #0173b2; stroke: #ffffff; stroke-width: 0.75"/>
     <use xlink:href="#mded2834911" x="111.362668" y="115.871042" style="fill: #0173b2; stroke: #ffffff; stroke-width: 0.75"/>
     <use xlink:href="#mded2834911" x="114.043814" y="102.440525" style="fill: #0173b2; stroke: #ffffff; stroke-width: 0.75"/>
     <use xlink:href="#mded2834911" x="119.406105" y="122.80131" style="fill: #0173b2; stroke: #ffffff; stroke-width: 0.75"/>
     <use xlink:href="#mded2834911" x="122.08725" y="95.916309" style="fill: #0173b2; stroke: #ffffff; stroke-width: 0.75"/>
     <use xlink:href="#mded2834911" x="124.768396" y="129.950713" style="fill: #0173b2; stroke: #ffffff; stroke-width: 0.75"/>
     <use xlink:href="#mded2834911" x="127.449541" y="100.594621" style="fill: #0173b2; stroke: #ffffff; stroke-width: 0.75"/>
     <use xlink:href="#mded2834911" x="130.130687" y="119.596725" style="fill: #0173b2; stroke: #ffffff; stroke-width: 0.75"/>
     <use xlink:href="#mded2834911" x="135.492978" y="167.533224" style="fill: #0173b2; stroke: #ffffff; stroke-width: 0.75"/>
     <use xlink:href="#mded2834911" x="138.174123" y="127.964394" style="fill: #0173b2; stroke: #ffffff; stroke-width: 0.75"/>
     <use xlink:href="#mded2834911" x="143.536414" y="158.072573" style="fill: #0173b2; stroke: #ffffff; stroke-width: 0.75"/>
     <use xlink:href="#mded2834911" x="146.21756" y="81.301322" style="fill: #0173b2; stroke: #ffffff; stroke-width: 0.75"/>
     <use xlink:href="#mded2834911" x="148.898705" y="124.948011" style="fill: #0173b2; stroke: #ffffff; stroke-width: 0.75"/>
     <use xlink:href="#mded2834911" x="151.579851" y="101.90634" style="fill: #0173b2; stroke: #ffffff; stroke-width: 0.75"/>
     <use xlink:href="#mded2834911" x="156.942142" y="143.656854" style="fill: #0173b2; stroke: #ffffff; stroke-width: 0.75"/>
     <use xlink:href="#mded2834911" x="159.623287" y="127.841892" style="fill: #0173b2; stroke: #ffffff; stroke-width: 0.75"/>
     <use xlink:href="#mded2834911" x="162.304433" y="143.233808" style="fill: #0173b2; stroke: #ffffff; stroke-width: 0.75"/>
     <use xlink:href="#mded2834911" x="164.985578" y="104.762819" style="fill: #0173b2; stroke: #ffffff; stroke-width: 0.75"/>
     <use xlink:href="#mded2834911" x="167.666724" y="116.793363" style="fill: #0173b2; stroke: #ffffff; stroke-width: 0.75"/>
     <use xlink:href="#mded2834911" x="173.029015" y="154.916489" style="fill: #0173b2; stroke: #ffffff; stroke-width: 0.75"/>
     <use xlink:href="#mded2834911" x="178.391306" y="130.847149" style="fill: #0173b2; stroke: #ffffff; stroke-width: 0.75"/>
     <use xlink:href="#mded2834911" x="181.072451" y="97.062967" style="fill: #0173b2; stroke: #ffffff; stroke-width: 0.75"/>
     <use xlink:href="#mded2834911" x="186.434742" y="153.520574" style="fill: #0173b2; stroke: #ffffff; stroke-width: 0.75"/>
     <use xlink:href="#mded2834911" x="191.797033" y="150.278727" style="fill: #0173b2; stroke: #ffffff; stroke-width: 0.75"/>
     <use xlink:href="#mded2834911" x="194.478179" y="196.523557" style="fill: #0173b2; stroke: #ffffff; stroke-width: 0.75"/>
     <use xlink:href="#mded2834911" x="197.159324" y="187.719956" style="fill: #0173b2; stroke: #ffffff; stroke-width: 0.75"/>
     <use xlink:href="#mded2834911" x="199.84047" y="164.885768" style="fill: #0173b2; stroke: #ffffff; stroke-width: 0.75"/>
     <use xlink:href="#mded2834911" x="202.521615" y="170.555404" style="fill: #0173b2; stroke: #ffffff; stroke-width: 0.75"/>
     <use xlink:href="#mded2834911" x="207.883906" y="136.464254" style="fill: #0173b2; stroke: #ffffff; stroke-width: 0.75"/>
     <use xlink:href="#mded2834911" x="210.565052" y="182.425347" style="fill: #0173b2; stroke: #ffffff; stroke-width: 0.75"/>
     <use xlink:href="#mded2834911" x="213.246197" y="151.149095" style="fill: #0173b2; stroke: #ffffff; stroke-width: 0.75"/>
     <use xlink:href="#mded2834911" x="215.927343" y="146.785212" style="fill: #0173b2; stroke: #ffffff; stroke-width: 0.75"/>
     <use xlink:href="#mded2834911" x="240.057652" y="144.404001" style="fill: #0173b2; stroke: #ffffff; stroke-width: 0.75"/>
     <use xlink:href="#mded2834911" x="248.101089" y="164.974524" style="fill: #0173b2; stroke: #ffffff; stroke-width: 0.75"/>
     <use xlink:href="#mded2834911" x="269.550253" y="196.092931" style="fill: #0173b2; stroke: #ffffff; stroke-width: 0.75"/>
     <use xlink:href="#mded2834911" x="285.637126" y="193.115648" style="fill: #0173b2; stroke: #ffffff; stroke-width: 0.75"/>
    </g>
   </g>
   <g id="LineCollection_1">
    <path d="M 60.420904 135.750241 
L 60.420904 112.645168 
" clip-path="url(#p2a0a0e59b8)" style="fill: none; stroke: #0173b2; stroke-width: 1.5; stroke-linecap: square"/>
    <path d="M 65.783195 103.198642 
L 65.783195 63.109195 
" clip-path="url(#p2a0a0e59b8)" style="fill: none; stroke: #0173b2; stroke-width: 1.5; stroke-linecap: square"/>
    <path d="M 71.145486 90.617167 
L 71.145486 69.887177 
" clip-path="url(#p2a0a0e59b8)" style="fill: none; stroke: #0173b2; stroke-width: 1.5; stroke-linecap: square"/>
    <path clip-path="url(#p2a0a0e59b8)" style="fill: none; stroke: #0173b2; stroke-width: 1.5; stroke-linecap: square"/>
    <path d="M 76.507777 196.237197 
L 76.507777 140.839629 
" clip-path="url(#p2a0a0e59b8)" style="fill: none; stroke: #0173b2; stroke-width: 1.5; stroke-linecap: square"/>
    <path d="M 79.188923 121.900269 
L 79.188923 87.023906 
" clip-path="url(#p2a0a0e59b8)" style="fill: none; stroke: #0173b2; stroke-width: 1.5; stroke-linecap: square"/>
    <path d="M 81.870068 152.488901 
L 81.870068 107.984903 
" clip-path="url(#p2a0a0e59b8)" style="fill: none; stroke: #0173b2; stroke-width: 1.5; stroke-linecap: square"/>
    <path d="M 84.551214 125.228344 
L 84.551214 101.565841 
" clip-path="url(#p2a0a0e59b8)" style="fill: none; stroke: #0173b2; stroke-width: 1.5; stroke-linecap: square"/>
    <path d="M 87.232359 137.321041 
L 87.232359 107.413463 
" clip-path="url(#p2a0a0e59b8)" style="fill: none; stroke: #0173b2; stroke-width: 1.5; stroke-linecap: square"/>
    <path d="M 89.913505 124.875368 
L 89.913505 102.958942 
" clip-path="url(#p2a0a0e59b8)" style="fill: none; stroke: #0173b2; stroke-width: 1.5; stroke-linecap: square"/>
    <path d="M 92.59465 146.35642 
L 92.59465 120.019078 
" clip-path="url(#p2a0a0e59b8)" style="fill: none; stroke: #0173b2; stroke-width: 1.5; stroke-linecap: square"/>
    <path d="M 95.275796 131.690277 
L 95.275796 108.213697 
" clip-path="url(#p2a0a0e59b8)" style="fill: none; stroke: #0173b2; stroke-width: 1.5; stroke-linecap: square"/>
    <path d="M 97.956941 159.097612 
L 97.956941 125.428726 
" clip-path="url(#p2a0a0e59b8)" style="fill: none; stroke: #0173b2; stroke-width: 1.5; stroke-linecap: square"/>
    <path d="M 100.638087 160.736537 
L 100.638087 131.544854 
" clip-path="url(#p2a0a0e59b8)" style="fill: none; stroke: #0173b2; stroke-width: 1.5; stroke-linecap: square"/>
    <path d="M 103.319232 151.297775 
L 103.319232 113.126836 
" clip-path="url(#p2a0a0e59b8)" style="fill: none; stroke: #0173b2; stroke-width: 1.5; stroke-linecap: square"/>
    <path d="M 106.000377 182.102812 
L 106.000377 141.508962 
" clip-path="url(#p2a0a0e59b8)" style="fill: none; stroke: #0173b2; stroke-width: 1.5; stroke-linecap: square"/>
    <path d="M 108.681523 152.869929 
L 108.681523 130.175382 
" clip-path="url(#p2a0a0e59b8)" style="fill: none; stroke: #0173b2; stroke-width: 1.5; stroke-linecap: square"/>
    <path clip-path="url(#p2a0a0e59b8)" style="fill: none; stroke: #0173b2; stroke-width: 1.5; stroke-linecap: square"/>
    <path d="M 114.043814 123.284399 
L 114.043814 82.662315 
" clip-path="url(#p2a0a0e59b8)" style="fill: none; stroke: #0173b2; stroke-width: 1.5; stroke-linecap: square"/>
    <path d="M 119.406105 172.518341 
L 119.406105 80.559624 
" clip-path="url(#p2a0a0e59b8)" style="fill: none; stroke: #0173b2; stroke-width: 1.5; stroke-linecap: square"/>
    <path d="M 122.08725 143.583072 
L 122.08725 66.077608 
" clip-path="url(#p2a0a0e59b8)" style="fill: none; stroke: #0173b2; stroke-width: 1.5; stroke-linecap: square"/>
    <path d="M 124.768396 141.36108 
L 124.768396 118.540347 
" clip-path="url(#p2a0a0e59b8)" style="fill: none; stroke: #0173b2; stroke-width: 1.5; stroke-linecap: square"/>
    <path clip-path="url(#p2a0a0e59b8)" style="fill: none; stroke: #0173b2; stroke-width: 1.5; stroke-linecap: square"/>
    <path d="M 130.130687 142.392485 
L 130.130687 99.194873 
" clip-path="url(#p2a0a0e59b8)" style="fill: none; stroke: #0173b2; stroke-width: 1.5; stroke-linecap: square"/>
    <path d="M 135.492978 218.88 
L 135.492978 64.839672 
" clip-path="url(#p2a0a0e59b8)" style="fill: none; stroke: #0173b2; stroke-width: 1.5; stroke-linecap: square"/>
    <path d="M 138.174123 161.603123 
L 138.174123 94.256088 
" clip-path="url(#p2a0a0e59b8)" style="fill: none; stroke: #0173b2; stroke-width: 1.5; stroke-linecap: square"/>
    <path clip-path="url(#p2a0a0e59b8)" style="fill: none; stroke: #0173b2; stroke-width: 1.5; stroke-linecap: square"/>
    <path d="M 146.21756 145.322645 
L 146.21756 17.28 
" clip-path="url(#p2a0a0e59b8)" style="fill: none; stroke: #0173b2; stroke-width: 1.5; stroke-linecap: square"/>
    <path d="M 148.898705 143.509041 
L 148.898705 108.875527 
" clip-path="url(#p2a0a0e59b8)" style="fill: none; stroke: #0173b2; stroke-width: 1.5; stroke-linecap: square"/>
    <path clip-path="url(#p2a0a0e59b8)" style="fill: none; stroke: #0173b2; stroke-width: 1.5; stroke-linecap: square"/>
    <path d="M 156.942142 201.923928 
L 156.942142 85.389781 
" clip-path="url(#p2a0a0e59b8)" style="fill: none; stroke: #0173b2; stroke-width: 1.5; stroke-linecap: square"/>
    <path d="M 159.623287 178.349448 
L 159.623287 62.548503 
" clip-path="url(#p2a0a0e59b8)" style="fill: none; stroke: #0173b2; stroke-width: 1.5; stroke-linecap: square"/>
    <path d="M 162.304433 153.052569 
L 162.304433 133.681474 
" clip-path="url(#p2a0a0e59b8)" style="fill: none; stroke: #0173b2; stroke-width: 1.5; stroke-linecap: square"/>
    <path d="M 164.985578 115.140113 
L 164.985578 94.385525 
" clip-path="url(#p2a0a0e59b8)" style="fill: none; stroke: #0173b2; stroke-width: 1.5; stroke-linecap: square"/>
    <path d="M 167.666724 159.78881 
L 167.666724 63.652929 
" clip-path="url(#p2a0a0e59b8)" style="fill: none; stroke: #0173b2; stroke-width: 1.5; stroke-linecap: square"/>
    <path d="M 173.029015 171.180195 
L 173.029015 134.36148 
" clip-path="url(#p2a0a0e59b8)" style="fill: none; stroke: #0173b2; stroke-width: 1.5; stroke-linecap: square"/>
    <path d="M 178.391306 163.823453 
L 178.391306 107.612697 
" clip-path="url(#p2a0a0e59b8)" style="fill: none; stroke: #0173b2; stroke-width: 1.5; stroke-linecap: square"/>
    <path clip-path="url(#p2a0a0e59b8)" style="fill: none; stroke: #0173b2; stroke-width: 1.5; stroke-linecap: square"/>
    <path d="M 186.434742 171.734542 
L 186.434742 133.811183 
" clip-path="url(#p2a0a0e59b8)" style="fill: none; stroke: #0173b2; stroke-width: 1.5; stroke-linecap: square"/>
    <path d="M 191.797033 178.68367 
L 191.797033 118.033796 
" clip-path="url(#p2a0a0e59b8)" style="fill: none; stroke: #0173b2; stroke-width: 1.5; stroke-linecap: square"/>
    <path clip-path="url(#p2a0a0e59b8)" style="fill: none; stroke: #0173b2; stroke-width: 1.5; stroke-linecap: square"/>
    <path clip-path="url(#p2a0a0e59b8)" style="fill: none; stroke: #0173b2; stroke-width: 1.5; stroke-linecap: square"/>
    <path d="M 199.84047 198.294042 
L 199.84047 131.477494 
" clip-path="url(#p2a0a0e59b8)" style="fill: none; stroke: #0173b2; stroke-width: 1.5; stroke-linecap: square"/>
    <path clip-path="url(#p2a0a0e59b8)" style="fill: none; stroke: #0173b2; stroke-width: 1.5; stroke-linecap: square"/>
    <path d="M 207.883906 158.452663 
L 207.883906 110.05154 
" clip-path="url(#p2a0a0e59b8)" style="fill: none; stroke: #0173b2; stroke-width: 1.5; stroke-linecap: square"/>
    <path d="M 210.565052 184.141659 
L 210.565052 180.709036 
" clip-path="url(#p2a0a0e59b8)" style="fill: none; stroke: #0173b2; stroke-width: 1.5; stroke-linecap: square"/>
    <path d="M 213.246197 187.029996 
L 213.246197 99.019191 
" clip-path="url(#p2a0a0e59b8)" style="fill: none; stroke: #0173b2; stroke-width: 1.5; stroke-linecap: square"/>
    <path d="M 215.927343 158.627978 
L 215.927343 134.221279 
" clip-path="url(#p2a0a0e59b8)" style="fill: none; stroke: #0173b2; stroke-width: 1.5; stroke-linecap: square"/>
    <path d="M 240.057652 162.91339 
L 240.057652 123.354623 
" clip-path="url(#p2a0a0e59b8)" style="fill: none; stroke: #0173b2; stroke-width: 1.5; stroke-linecap: square"/>
    <path d="M 248.101089 196.88172 
L 248.101089 133.067328 
" clip-path="url(#p2a0a0e59b8)" style="fill: none; stroke: #0173b2; stroke-width: 1.5; stroke-linecap: square"/>
    <path d="M 269.550253 218.879997 
L 269.550253 166.404205 
" clip-path="url(#p2a0a0e59b8)" style="fill: none; stroke: #0173b2; stroke-width: 1.5; stroke-linecap: square"/>
    <path d="M 285.637126 218.88 
L 285.637126 141.586966 
" clip-path="url(#p2a0a0e59b8)" style="fill: none; stroke: #0173b2; stroke-width: 1.5; stroke-linecap: square"/>
   </g>
   <g id="line2d_16">
    <path d="M 55.058613 119.303018 
L 59.764297 120.264012 
L 64.469981 121.225006 
L 69.175665 122.186001 
L 73.881349 123.146995 
L 78.587033 124.107989 
L 83.292717 125.068983 
L 87.998401 126.029977 
L 92.704085 126.990971 
L 97.409768 127.951965 
L 102.115452 128.912959 
L 106.821136 129.873953 
L 111.52682 130.834948 
L 116.232504 131.795942 
L 120.938188 132.756936 
L 125.643872 133.71793 
L 130.349556 134.678924 
L 135.05524 135.639918 
L 139.760924 136.600912 
L 144.466608 137.561906 
L 149.172292 138.522901 
L 153.877976 139.483895 
L 158.58366 140.444889 
L 163.289343 141.405883 
L 167.995027 142.366877 
L 172.700711 143.327871 
L 177.406395 144.288865 
L 182.112079 145.249859 
L 186.817763 146.210854 
L 191.523447 147.171848 
L 196.229131 148.132842 
L 200.934815 149.093836 
L 205.640499 150.05483 
L 210.346183 151.015824 
L 215.051867 151.976818 
L 219.757551 152.937812 
L 224.463234 153.898807 
L 229.168918 154.859801 
L 233.874602 155.820795 
L 238.580286 156.781789 
L 243.28597 157.742783 
L 247.991654 158.703777 
L 252.697338 159.664771 
L 257.403022 160.625765 
L 262.108706 161.58676 
L 266.81439 162.547754 
L 271.520074 163.508748 
L 276.225758 164.469742 
L 280.931442 165.430736 
L 285.637126 166.39173 
" clip-path="url(#p2a0a0e59b8)" style="fill: none; stroke: #de8f05; stroke-width: 1.5; stroke-linecap: square"/>
   </g>
   <g id="line2d_17"/>
   <g id="patch_3">
    <path d="M 43.529688 228.96 
L 43.529688 7.2 
" style="fill: none; stroke: #000000; stroke-width: 0.8; stroke-linejoin: miter; stroke-linecap: square"/>
   </g>
   <g id="patch_4">
    <path d="M 297.166051 228.96 
L 297.166051 7.2 
" style="fill: none; stroke: #000000; stroke-width: 0.8; stroke-linejoin: miter; stroke-linecap: square"/>
   </g>
   <g id="patch_5">
    <path d="M 43.529688 228.96 
L 297.166051 228.96 
" style="fill: none; stroke: #000000; stroke-width: 0.8; stroke-linejoin: miter; stroke-linecap: square"/>
   </g>
   <g id="patch_6">
    <path d="M 43.529688 7.2 
L 297.166051 7.2 
" style="fill: none; stroke: #000000; stroke-width: 0.8; stroke-linejoin: miter; stroke-linecap: square"/>
   </g>
   <g id="text_17">
    <g id="patch_7">
     <path d="M 204.393324 44.464 
L 250.393324 44.464 
L 250.393324 27.064 
L 204.393324 27.064 
z
" style="fill: #ffffff; opacity: 0.5; stroke: #000000; stroke-linejoin: miter"/>
    </g>
    <!-- $\rho$: -0.20 -->
    <g transform="translate(208.393324 38.264) scale(0.1 -0.1)">
     <defs>
      <path id="DejaVuSans-Oblique-3c1" d="M 1203 2875 
Q 1453 3194 1981 3475 
Q 2188 3584 2756 3584 
Q 3394 3584 3694 3078 
Q 3994 2572 3834 1747 
Q 3672 922 3175 415 
Q 2678 -91 2041 -91 
Q 1656 -91 1409 63 
Q 1163 213 1044 525 
L 681 -1331 
L 103 -1331 
L 697 1716 
Q 838 2438 1203 2875 
z
M 3238 1747 
Q 3359 2381 3169 2744 
Q 2978 3103 2522 3103 
Q 2066 3103 1734 2744 
Q 1403 2381 1281 1747 
Q 1156 1113 1347 750 
Q 1538 391 1994 391 
Q 2450 391 2781 750 
Q 3113 1113 3238 1747 
z
" transform="scale(0.015625)"/>
      <path id="DMSans24pt-Regular-3a" d="M 627 -32 
Q 467 -32 361 73 
Q 256 179 256 333 
Q 256 486 361 592 
Q 467 698 627 698 
Q 787 698 889 592 
Q 992 486 992 333 
Q 992 179 889 73 
Q 787 -32 627 -32 
z
M 627 2528 
Q 467 2528 361 2633 
Q 256 2739 256 2893 
Q 256 3046 361 3152 
Q 467 3258 627 3258 
Q 787 3258 889 3152 
Q 992 3046 992 2893 
Q 992 2739 889 2633 
Q 787 2528 627 2528 
z
" transform="scale(0.015625)"/>
      <path id="DMSans24pt-Regular-2d" d="M 469 1632 
L 469 2086 
L 3003 2086 
L 3003 1632 
L 469 1632 
z
" transform="scale(0.015625)"/>
     </defs>
     <use xlink:href="#DejaVuSans-Oblique-3c1" transform="translate(0 0.796875)"/>
     <use xlink:href="#DMSans24pt-Regular-3a" transform="translate(63.476562 0.796875)"/>
     <use xlink:href="#DMSans24pt-Regular-20" transform="translate(83.376556 0.796875)"/>
     <use xlink:href="#DMSans24pt-Regular-2d" transform="translate(109.876541 0.796875)"/>
     <use xlink:href="#DMSans24pt-Regular-30" transform="translate(164.076538 0.796875)"/>
     <use xlink:href="#DMSans24pt-Regular-2e" transform="translate(233.376526 0.796875)"/>
     <use xlink:href="#DMSans24pt-Regular-32" transform="translate(252.876511 0.796875)"/>
     <use xlink:href="#DMSans24pt-Regular-30" transform="translate(310.076508 0.796875)"/>
    </g>
   </g>
  </g>
  <g id="axes_2">
   <g id="patch_8">
    <path d="M 347.893324 228.96 
L 601.529687 228.96 
L 601.529687 7.2 
L 347.893324 7.2 
L 347.893324 228.96 
z
" style="fill: none"/>
   </g>
   <g id="patch_9">
    <path d="M 359.422249 228.96 
L 364.912214 228.96 
L 364.912214 123.36 
L 359.422249 123.36 
z
" clip-path="url(#pb0a2260f11)" style="fill: #0173b2; fill-opacity: 0.75; stroke: #000000; stroke-width: 0.548996; stroke-linejoin: miter"/>
   </g>
   <g id="patch_10">
    <path d="M 364.912214 228.96 
L 370.402179 228.96 
L 370.402179 228.96 
L 364.912214 228.96 
z
" clip-path="url(#pb0a2260f11)" style="fill: #0173b2; fill-opacity: 0.75; stroke: #000000; stroke-width: 0.548996; stroke-linejoin: miter"/>
   </g>
   <g id="patch_11">
    <path d="M 370.402179 228.96 
L 375.892143 228.96 
L 375.892143 193.76 
L 370.402179 193.76 
z
" clip-path="url(#pb0a2260f11)" style="fill: #0173b2; fill-opacity: 0.75; stroke: #000000; stroke-width: 0.548996; stroke-linejoin: miter"/>
   </g>
   <g id="patch_12">
    <path d="M 375.892143 228.96 
L 381.382108 228.96 
L 381.382108 193.76 
L 375.892143 193.76 
z
" clip-path="url(#pb0a2260f11)" style="fill: #0173b2; fill-opacity: 0.75; stroke: #000000; stroke-width: 0.548996; stroke-linejoin: miter"/>
   </g>
   <g id="patch_13">
    <path d="M 381.382108 228.96 
L 386.872072 228.96 
L 386.872072 52.96 
L 381.382108 52.96 
z
" clip-path="url(#pb0a2260f11)" style="fill: #0173b2; fill-opacity: 0.75; stroke: #000000; stroke-width: 0.548996; stroke-linejoin: miter"/>
   </g>
   <g id="patch_14">
    <path d="M 386.872072 228.96 
L 392.362037 228.96 
L 392.362037 158.56 
L 386.872072 158.56 
z
" clip-path="url(#pb0a2260f11)" style="fill: #0173b2; fill-opacity: 0.75; stroke: #000000; stroke-width: 0.548996; stroke-linejoin: miter"/>
   </g>
   <g id="patch_15">
    <path d="M 392.362037 228.96 
L 397.852002 228.96 
L 397.852002 193.76 
L 392.362037 193.76 
z
" clip-path="url(#pb0a2260f11)" style="fill: #0173b2; fill-opacity: 0.75; stroke: #000000; stroke-width: 0.548996; stroke-linejoin: miter"/>
   </g>
   <g id="patch_16">
    <path d="M 397.852002 228.96 
L 403.341966 228.96 
L 403.341966 193.76 
L 397.852002 193.76 
z
" clip-path="url(#pb0a2260f11)" style="fill: #0173b2; fill-opacity: 0.75; stroke: #000000; stroke-width: 0.548996; stroke-linejoin: miter"/>
   </g>
   <g id="patch_17">
    <path d="M 403.341966 228.96 
L 408.831931 228.96 
L 408.831931 17.76 
L 403.341966 17.76 
z
" clip-path="url(#pb0a2260f11)" style="fill: #0173b2; fill-opacity: 0.75; stroke: #000000; stroke-width: 0.548996; stroke-linejoin: miter"/>
   </g>
   <g id="patch_18">
    <path d="M 408.831931 228.96 
L 414.321895 228.96 
L 414.321895 123.36 
L 408.831931 123.36 
z
" clip-path="url(#pb0a2260f11)" style="fill: #0173b2; fill-opacity: 0.75; stroke: #000000; stroke-width: 0.548996; stroke-linejoin: miter"/>
   </g>
   <g id="patch_19">
    <path d="M 414.321895 228.96 
L 419.81186 228.96 
L 419.81186 88.16 
L 414.321895 88.16 
z
" clip-path="url(#pb0a2260f11)" style="fill: #0173b2; fill-opacity: 0.75; stroke: #000000; stroke-width: 0.548996; stroke-linejoin: miter"/>
   </g>
   <g id="patch_20">
    <path d="M 419.81186 228.96 
L 425.301824 228.96 
L 425.301824 52.96 
L 419.81186 52.96 
z
" clip-path="url(#pb0a2260f11)" style="fill: #0173b2; fill-opacity: 0.75; stroke: #000000; stroke-width: 0.548996; stroke-linejoin: miter"/>
   </g>
   <g id="patch_21">
    <path d="M 425.301824 228.96 
L 430.791789 228.96 
L 430.791789 17.76 
L 425.301824 17.76 
z
" clip-path="url(#pb0a2260f11)" style="fill: #0173b2; fill-opacity: 0.75; stroke: #000000; stroke-width: 0.548996; stroke-linejoin: miter"/>
   </g>
   <g id="patch_22">
    <path d="M 430.791789 228.96 
L 436.281754 228.96 
L 436.281754 88.16 
L 430.791789 88.16 
z
" clip-path="url(#pb0a2260f11)" style="fill: #0173b2; fill-opacity: 0.75; stroke: #000000; stroke-width: 0.548996; stroke-linejoin: miter"/>
   </g>
   <g id="patch_23">
    <path d="M 436.281754 228.96 
L 441.771718 228.96 
L 441.771718 158.56 
L 436.281754 158.56 
z
" clip-path="url(#pb0a2260f11)" style="fill: #0173b2; fill-opacity: 0.75; stroke: #000000; stroke-width: 0.548996; stroke-linejoin: miter"/>
   </g>
   <g id="patch_24">
    <path d="M 441.771718 228.96 
L 447.261683 228.96 
L 447.261683 228.96 
L 441.771718 228.96 
z
" clip-path="url(#pb0a2260f11)" style="fill: #0173b2; fill-opacity: 0.75; stroke: #000000; stroke-width: 0.548996; stroke-linejoin: miter"/>
   </g>
   <g id="patch_25">
    <path d="M 447.261683 228.96 
L 452.751647 228.96 
L 452.751647 228.96 
L 447.261683 228.96 
z
" clip-path="url(#pb0a2260f11)" style="fill: #0173b2; fill-opacity: 0.75; stroke: #000000; stroke-width: 0.548996; stroke-linejoin: miter"/>
   </g>
   <g id="patch_26">
    <path d="M 452.751647 228.96 
L 458.241612 228.96 
L 458.241612 123.36 
L 452.751647 123.36 
z
" clip-path="url(#pb0a2260f11)" style="fill: #0173b2; fill-opacity: 0.75; stroke: #000000; stroke-width: 0.548996; stroke-linejoin: miter"/>
   </g>
   <g id="patch_27">
    <path d="M 458.241612 228.96 
L 463.731577 228.96 
L 463.731577 123.36 
L 458.241612 123.36 
z
" clip-path="url(#pb0a2260f11)" style="fill: #0173b2; fill-opacity: 0.75; stroke: #000000; stroke-width: 0.548996; stroke-linejoin: miter"/>
   </g>
   <g id="patch_28">
    <path d="M 463.731577 228.96 
L 469.221541 228.96 
L 469.221541 228.96 
L 463.731577 228.96 
z
" clip-path="url(#pb0a2260f11)" style="fill: #0173b2; fill-opacity: 0.75; stroke: #000000; stroke-width: 0.548996; stroke-linejoin: miter"/>
   </g>
   <g id="patch_29">
    <path d="M 469.221541 228.96 
L 474.711506 228.96 
L 474.711506 193.76 
L 469.221541 193.76 
z
" clip-path="url(#pb0a2260f11)" style="fill: #0173b2; fill-opacity: 0.75; stroke: #000000; stroke-width: 0.548996; stroke-linejoin: miter"/>
   </g>
   <g id="patch_30">
    <path d="M 474.711506 228.96 
L 480.20147 228.96 
L 480.20147 228.96 
L 474.711506 228.96 
z
" clip-path="url(#pb0a2260f11)" style="fill: #0173b2; fill-opacity: 0.75; stroke: #000000; stroke-width: 0.548996; stroke-linejoin: miter"/>
   </g>
   <g id="patch_31">
    <path d="M 480.20147 228.96 
L 485.691435 228.96 
L 485.691435 228.96 
L 480.20147 228.96 
z
" clip-path="url(#pb0a2260f11)" style="fill: #0173b2; fill-opacity: 0.75; stroke: #000000; stroke-width: 0.548996; stroke-linejoin: miter"/>
   </g>
   <g id="patch_32">
    <path d="M 485.691435 228.96 
L 491.181399 228.96 
L 491.181399 193.76 
L 485.691435 193.76 
z
" clip-path="url(#pb0a2260f11)" style="fill: #0173b2; fill-opacity: 0.75; stroke: #000000; stroke-width: 0.548996; stroke-linejoin: miter"/>
   </g>
   <g id="patch_33">
    <path d="M 491.181399 228.96 
L 496.671364 228.96 
L 496.671364 193.76 
L 491.181399 193.76 
z
" clip-path="url(#pb0a2260f11)" style="fill: #0173b2; fill-opacity: 0.75; stroke: #000000; stroke-width: 0.548996; stroke-linejoin: miter"/>
   </g>
   <g id="patch_34">
    <path d="M 496.671364 228.96 
L 502.161329 228.96 
L 502.161329 158.56 
L 496.671364 158.56 
z
" clip-path="url(#pb0a2260f11)" style="fill: #0173b2; fill-opacity: 0.75; stroke: #000000; stroke-width: 0.548996; stroke-linejoin: miter"/>
   </g>
   <g id="patch_35">
    <path d="M 502.161329 228.96 
L 507.651293 228.96 
L 507.651293 228.96 
L 502.161329 228.96 
z
" clip-path="url(#pb0a2260f11)" style="fill: #0173b2; fill-opacity: 0.75; stroke: #000000; stroke-width: 0.548996; stroke-linejoin: miter"/>
   </g>
   <g id="patch_36">
    <path d="M 507.651293 228.96 
L 513.141258 228.96 
L 513.141258 228.96 
L 507.651293 228.96 
z
" clip-path="url(#pb0a2260f11)" style="fill: #0173b2; fill-opacity: 0.75; stroke: #000000; stroke-width: 0.548996; stroke-linejoin: miter"/>
   </g>
   <g id="patch_37">
    <path d="M 513.141258 228.96 
L 518.631222 228.96 
L 518.631222 193.76 
L 513.141258 193.76 
z
" clip-path="url(#pb0a2260f11)" style="fill: #0173b2; fill-opacity: 0.75; stroke: #000000; stroke-width: 0.548996; stroke-linejoin: miter"/>
   </g>
   <g id="patch_38">
    <path d="M 518.631222 228.96 
L 524.121187 228.96 
L 524.121187 158.56 
L 518.631222 158.56 
z
" clip-path="url(#pb0a2260f11)" style="fill: #0173b2; fill-opacity: 0.75; stroke: #000000; stroke-width: 0.548996; stroke-linejoin: miter"/>
   </g>
   <g id="patch_39">
    <path d="M 524.121187 228.96 
L 529.611151 228.96 
L 529.611151 193.76 
L 524.121187 193.76 
z
" clip-path="url(#pb0a2260f11)" style="fill: #0173b2; fill-opacity: 0.75; stroke: #000000; stroke-width: 0.548996; stroke-linejoin: miter"/>
   </g>
   <g id="patch_40">
    <path d="M 529.611151 228.96 
L 535.101116 228.96 
L 535.101116 193.76 
L 529.611151 193.76 
z
" clip-path="url(#pb0a2260f11)" style="fill: #0173b2; fill-opacity: 0.75; stroke: #000000; stroke-width: 0.548996; stroke-linejoin: miter"/>
   </g>
   <g id="patch_41">
    <path d="M 535.101116 228.96 
L 540.591081 228.96 
L 540.591081 228.96 
L 535.101116 228.96 
z
" clip-path="url(#pb0a2260f11)" style="fill: #0173b2; fill-opacity: 0.75; stroke: #000000; stroke-width: 0.548996; stroke-linejoin: miter"/>
   </g>
   <g id="patch_42">
    <path d="M 540.591081 228.96 
L 546.081045 228.96 
L 546.081045 228.96 
L 540.591081 228.96 
z
" clip-path="url(#pb0a2260f11)" style="fill: #0173b2; fill-opacity: 0.75; stroke: #000000; stroke-width: 0.548996; stroke-linejoin: miter"/>
   </g>
   <g id="patch_43">
    <path d="M 546.081045 228.96 
L 551.57101 228.96 
L 551.57101 228.96 
L 546.081045 228.96 
z
" clip-path="url(#pb0a2260f11)" style="fill: #0173b2; fill-opacity: 0.75; stroke: #000000; stroke-width: 0.548996; stroke-linejoin: miter"/>
   </g>
   <g id="patch_44">
    <path d="M 551.57101 228.96 
L 557.060974 228.96 
L 557.060974 228.96 
L 551.57101 228.96 
z
" clip-path="url(#pb0a2260f11)" style="fill: #0173b2; fill-opacity: 0.75; stroke: #000000; stroke-width: 0.548996; stroke-linejoin: miter"/>
   </g>
   <g id="patch_45">
    <path d="M 557.060974 228.96 
L 562.550939 228.96 
L 562.550939 228.96 
L 557.060974 228.96 
z
" clip-path="url(#pb0a2260f11)" style="fill: #0173b2; fill-opacity: 0.75; stroke: #000000; stroke-width: 0.548996; stroke-linejoin: miter"/>
   </g>
   <g id="patch_46">
    <path d="M 562.550939 228.96 
L 568.040904 228.96 
L 568.040904 228.96 
L 562.550939 228.96 
z
" clip-path="url(#pb0a2260f11)" style="fill: #0173b2; fill-opacity: 0.75; stroke: #000000; stroke-width: 0.548996; stroke-linejoin: miter"/>
   </g>
   <g id="patch_47">
    <path d="M 568.040904 228.96 
L 573.530868 228.96 
L 573.530868 228.96 
L 568.040904 228.96 
z
" clip-path="url(#pb0a2260f11)" style="fill: #0173b2; fill-opacity: 0.75; stroke: #000000; stroke-width: 0.548996; stroke-linejoin: miter"/>
   </g>
   <g id="patch_48">
    <path d="M 573.530868 228.96 
L 579.020833 228.96 
L 579.020833 228.96 
L 573.530868 228.96 
z
" clip-path="url(#pb0a2260f11)" style="fill: #0173b2; fill-opacity: 0.75; stroke: #000000; stroke-width: 0.548996; stroke-linejoin: miter"/>
   </g>
   <g id="patch_49">
    <path d="M 579.020833 228.96 
L 584.510797 228.96 
L 584.510797 228.96 
L 579.020833 228.96 
z
" clip-path="url(#pb0a2260f11)" style="fill: #0173b2; fill-opacity: 0.75; stroke: #000000; stroke-width: 0.548996; stroke-linejoin: miter"/>
   </g>
   <g id="patch_50">
    <path d="M 584.510797 228.96 
L 590.000762 228.96 
L 590.000762 193.76 
L 584.510797 193.76 
z
" clip-path="url(#pb0a2260f11)" style="fill: #0173b2; fill-opacity: 0.75; stroke: #000000; stroke-width: 0.548996; stroke-linejoin: miter"/>
   </g>
   <g id="patch_51">
    <path d="M 385.097409 228.96 
L 480.057027 228.96 
L 480.057027 7.2 
L 385.097409 7.2 
z
" clip-path="url(#pb0a2260f11)" style="fill: #d62728; opacity: 0.3; stroke: #d62728; stroke-linejoin: miter"/>
   </g>
   <g id="patch_52">
    <path d="M 385.097409 88.16 
L 387.861412 86.752 
L 387.861412 88.1424 
L 432.577218 88.1424 
L 432.577218 88.1776 
L 387.861412 88.1776 
L 387.861412 89.568 
z
" clip-path="url(#pb0a2260f11)" style="stroke: #000000; stroke-linejoin: miter"/>
   </g>
   <g id="patch_53">
    <path d="M 480.057027 88.16 
L 477.293024 89.568 
L 477.293024 88.1776 
L 432.577218 88.1776 
L 432.577218 88.1424 
L 477.293024 88.1424 
L 477.293024 86.752 
z
" clip-path="url(#pb0a2260f11)" style="stroke: #000000; stroke-linejoin: miter"/>
   </g>
   <g id="patch_54">
    <path d="M 510.032011 228.96 
L 527.813824 228.96 
L 527.813824 7.2 
L 510.032011 7.2 
z
" clip-path="url(#pb0a2260f11)" style="fill: #ff7f0e; opacity: 0.3; stroke: #ff7f0e; stroke-linejoin: miter"/>
   </g>
   <g id="patch_55">
    <path d="M 510.032011 88.16 
L 512.796014 86.752 
L 512.796014 88.1424 
L 518.92291 88.1424 
L 518.92291 88.1776 
L 512.796014 88.1776 
L 512.796014 89.568 
z
" clip-path="url(#pb0a2260f11)" style="stroke: #000000; stroke-linejoin: miter"/>
   </g>
   <g id="patch_56">
    <path d="M 527.813824 88.16 
L 525.049821 89.568 
L 525.049821 88.1776 
L 518.922925 88.1776 
L 518.922925 88.1424 
L 525.049821 88.1424 
L 525.049821 86.752 
z
" clip-path="url(#pb0a2260f11)" style="stroke: #000000; stroke-linejoin: miter"/>
   </g>
   <g id="matplotlib.axis_3">
    <g id="xtick_6">
     <g id="line2d_18">
      <g>
       <use xlink:href="#mb99cddf3f6" x="359.422249" y="228.96" style="stroke: #000000; stroke-width: 0.8"/>
      </g>
     </g>
     <g id="text_18">
      <!-- 0.0 -->
      <g transform="translate(351.517562 243.16) scale(0.1 -0.1)">
       <use xlink:href="#DMSans24pt-Regular-30"/>
       <use xlink:href="#DMSans24pt-Regular-2e" x="69.299988"/>
       <use xlink:href="#DMSans24pt-Regular-30" x="88.799973"/>
      </g>
     </g>
    </g>
    <g id="xtick_7">
     <g id="line2d_19">
      <g>
       <use xlink:href="#mb99cddf3f6" x="414.702302" y="228.96" style="stroke: #000000; stroke-width: 0.8"/>
      </g>
     </g>
     <g id="text_19">
      <!-- 0.1 -->
      <g transform="translate(408.752302 243.16) scale(0.1 -0.1)">
       <use xlink:href="#DMSans24pt-Regular-30"/>
       <use xlink:href="#DMSans24pt-Regular-2e" x="69.299988"/>
       <use xlink:href="#DMSans24pt-Regular-31" x="88.799973"/>
      </g>
     </g>
    </g>
    <g id="xtick_8">
     <g id="line2d_20">
      <g>
       <use xlink:href="#mb99cddf3f6" x="469.982355" y="228.96" style="stroke: #000000; stroke-width: 0.8"/>
      </g>
     </g>
     <g id="text_20">
      <!-- 0.2 -->
      <g transform="translate(462.682355 243.16) scale(0.1 -0.1)">
       <use xlink:href="#DMSans24pt-Regular-30"/>
       <use xlink:href="#DMSans24pt-Regular-2e" x="69.299988"/>
       <use xlink:href="#DMSans24pt-Regular-32" x="88.799973"/>
      </g>
     </g>
    </g>
    <g id="xtick_9">
     <g id="line2d_21">
      <g>
       <use xlink:href="#mb99cddf3f6" x="525.262407" y="228.96" style="stroke: #000000; stroke-width: 0.8"/>
      </g>
     </g>
     <g id="text_21">
      <!-- 0.3 -->
      <g transform="translate(517.88272 243.16) scale(0.1 -0.1)">
       <use xlink:href="#DMSans24pt-Regular-30"/>
       <use xlink:href="#DMSans24pt-Regular-2e" x="69.299988"/>
       <use xlink:href="#DMSans24pt-Regular-33" x="88.799973"/>
      </g>
     </g>
    </g>
    <g id="xtick_10">
     <g id="line2d_22">
      <g>
       <use xlink:href="#mb99cddf3f6" x="580.54246" y="228.96" style="stroke: #000000; stroke-width: 0.8"/>
      </g>
     </g>
     <g id="text_22">
      <!-- 0.4 -->
      <g transform="translate(573.077616 243.16) scale(0.1 -0.1)">
       <use xlink:href="#DMSans24pt-Regular-30"/>
       <use xlink:href="#DMSans24pt-Regular-2e" x="69.299988"/>
       <use xlink:href="#DMSans24pt-Regular-34" x="88.799973"/>
      </g>
     </g>
    </g>
    <g id="text_23">
     <!-- Perceptual Similarity -->
     <g transform="translate(427.079474 256.56) scale(0.1 -0.1)">
      <defs>
       <path id="DMSans24pt-Regular-75" d="M 1600 -77 
Q 1037 -77 704 265 
Q 371 608 371 1318 
L 371 3174 
L 909 3174 
L 909 1376 
Q 909 384 1722 384 
Q 2138 384 2410 681 
Q 2682 979 2682 1530 
L 2682 3174 
L 3219 3174 
L 3219 0 
L 2733 0 
L 2701 570 
Q 2547 269 2256 96 
Q 1965 -77 1600 -77 
z
" transform="scale(0.015625)"/>
       <path id="DMSans24pt-Regular-6c" d="M 442 0 
L 442 4608 
L 979 4608 
L 979 0 
L 442 0 
z
" transform="scale(0.015625)"/>
       <path id="DMSans24pt-Regular-53" d="M 1901 -77 
Q 1408 -77 1043 102 
Q 678 282 480 602 
Q 282 922 282 1344 
L 845 1344 
Q 845 1082 966 861 
Q 1088 640 1321 509 
Q 1555 378 1901 378 
Q 2355 378 2604 595 
Q 2854 813 2854 1139 
Q 2854 1408 2739 1571 
Q 2624 1734 2429 1836 
Q 2234 1939 1981 2016 
Q 1728 2093 1453 2189 
Q 934 2368 684 2633 
Q 435 2899 435 3328 
Q 435 3693 604 3968 
Q 774 4243 1091 4400 
Q 1408 4557 1843 4557 
Q 2272 4557 2589 4397 
Q 2906 4237 3085 3958 
Q 3264 3680 3264 3315 
L 2701 3315 
Q 2701 3501 2605 3680 
Q 2509 3859 2313 3977 
Q 2118 4096 1824 4096 
Q 1459 4102 1225 3910 
Q 992 3718 992 3379 
Q 992 3091 1158 2937 
Q 1325 2784 1616 2685 
Q 1907 2586 2291 2458 
Q 2618 2349 2870 2192 
Q 3123 2035 3267 1792 
Q 3411 1549 3411 1171 
Q 3411 851 3241 566 
Q 3072 282 2739 102 
Q 2406 -77 1901 -77 
z
" transform="scale(0.015625)"/>
       <path id="DMSans24pt-Regular-79" d="M 787 -1408 
L 1581 358 
L 1395 358 
L 128 3174 
L 710 3174 
L 1766 755 
L 2874 3174 
L 3430 3174 
L 1350 -1408 
L 787 -1408 
z
" transform="scale(0.015625)"/>
      </defs>
      <use xlink:href="#DMSans24pt-Regular-50"/>
      <use xlink:href="#DMSans24pt-Regular-65" x="57.899994"/>
      <use xlink:href="#DMSans24pt-Regular-72" x="114.799988"/>
      <use xlink:href="#DMSans24pt-Regular-63" x="151.099976"/>
      <use xlink:href="#DMSans24pt-Regular-65" x="208.09996"/>
      <use xlink:href="#DMSans24pt-Regular-70" x="264.999954"/>
      <use xlink:href="#DMSans24pt-Regular-74" x="327.799942"/>
      <use xlink:href="#DMSans24pt-Regular-75" x="366.499939"/>
      <use xlink:href="#DMSans24pt-Regular-61" x="423.699936"/>
      <use xlink:href="#DMSans24pt-Regular-6c" x="477.899933"/>
      <use xlink:href="#DMSans24pt-Regular-20" x="500.09993"/>
      <use xlink:href="#DMSans24pt-Regular-53" x="526.599915"/>
      <use xlink:href="#DMSans24pt-Regular-69" x="584.399902"/>
      <use xlink:href="#DMSans24pt-Regular-6d" x="608.299896"/>
      <use xlink:href="#DMSans24pt-Regular-69" x="697.799881"/>
      <use xlink:href="#DMSans24pt-Regular-6c" x="721.699875"/>
      <use xlink:href="#DMSans24pt-Regular-61" x="743.899872"/>
      <use xlink:href="#DMSans24pt-Regular-72" x="798.099869"/>
      <use xlink:href="#DMSans24pt-Regular-69" x="834.399857"/>
      <use xlink:href="#DMSans24pt-Regular-74" x="858.29985"/>
      <use xlink:href="#DMSans24pt-Regular-79" x="896.999847"/>
     </g>
    </g>
   </g>
   <g id="matplotlib.axis_4">
    <g id="ytick_10">
     <g id="line2d_23">
      <g>
       <use xlink:href="#m6c4d34e74f" x="347.893324" y="228.96" style="stroke: #000000; stroke-width: 0.8"/>
      </g>
     </g>
     <g id="text_24">
      <!-- 0 -->
      <g transform="translate(333.963636 232.56) scale(0.1 -0.1)">
       <use xlink:href="#DMSans24pt-Regular-30"/>
      </g>
     </g>
    </g>
    <g id="ytick_11">
     <g id="line2d_24">
      <g>
       <use xlink:href="#m6c4d34e74f" x="347.893324" y="193.76" style="stroke: #000000; stroke-width: 0.8"/>
      </g>
     </g>
     <g id="text_25">
      <!-- 1 -->
      <g transform="translate(337.873011 197.36) scale(0.1 -0.1)">
       <use xlink:href="#DMSans24pt-Regular-31"/>
      </g>
     </g>
    </g>
    <g id="ytick_12">
     <g id="line2d_25">
      <g>
       <use xlink:href="#m6c4d34e74f" x="347.893324" y="158.56" style="stroke: #000000; stroke-width: 0.8"/>
      </g>
     </g>
     <g id="text_26">
      <!-- 2 -->
      <g transform="translate(335.173011 162.16) scale(0.1 -0.1)">
       <use xlink:href="#DMSans24pt-Regular-32"/>
      </g>
     </g>
    </g>
    <g id="ytick_13">
     <g id="line2d_26">
      <g>
       <use xlink:href="#m6c4d34e74f" x="347.893324" y="123.36" style="stroke: #000000; stroke-width: 0.8"/>
      </g>
     </g>
     <g id="text_27">
      <!-- 3 -->
      <g transform="translate(335.013636 126.96) scale(0.1 -0.1)">
       <use xlink:href="#DMSans24pt-Regular-33"/>
      </g>
     </g>
    </g>
    <g id="ytick_14">
     <g id="line2d_27">
      <g>
       <use xlink:href="#m6c4d34e74f" x="347.893324" y="88.16" style="stroke: #000000; stroke-width: 0.8"/>
      </g>
     </g>
     <g id="text_28">
      <!-- 4 -->
      <g transform="translate(334.843324 91.76) scale(0.1 -0.1)">
       <use xlink:href="#DMSans24pt-Regular-34"/>
      </g>
     </g>
    </g>
    <g id="ytick_15">
     <g id="line2d_28">
      <g>
       <use xlink:href="#m6c4d34e74f" x="347.893324" y="52.96" style="stroke: #000000; stroke-width: 0.8"/>
      </g>
     </g>
     <g id="text_29">
      <!-- 5 -->
      <g transform="translate(334.773011 56.56) scale(0.1 -0.1)">
       <defs>
        <path id="DMSans24pt-Regular-35" d="M 1997 -77 
Q 1536 -77 1197 92 
Q 858 262 659 553 
Q 461 845 410 1210 
L 934 1210 
Q 1011 838 1292 611 
Q 1574 384 2003 384 
Q 2323 384 2553 534 
Q 2784 685 2909 941 
Q 3034 1197 3034 1510 
Q 3034 2010 2755 2317 
Q 2477 2624 2022 2624 
Q 1651 2624 1388 2457 
Q 1126 2291 1005 2022 
L 493 2022 
L 877 4480 
L 3226 4480 
L 3226 4013 
L 1293 4013 
L 1030 2650 
Q 1190 2835 1459 2956 
Q 1728 3078 2080 3078 
Q 2522 3078 2851 2873 
Q 3181 2669 3366 2317 
Q 3552 1965 3552 1517 
Q 3552 1088 3369 723 
Q 3187 358 2838 140 
Q 2490 -77 1997 -77 
z
" transform="scale(0.015625)"/>
       </defs>
       <use xlink:href="#DMSans24pt-Regular-35"/>
      </g>
     </g>
    </g>
    <g id="ytick_16">
     <g id="line2d_29">
      <g>
       <use xlink:href="#m6c4d34e74f" x="347.893324" y="17.76" style="stroke: #000000; stroke-width: 0.8"/>
      </g>
     </g>
     <g id="text_30">
      <!-- 6 -->
      <g transform="translate(334.593324 21.36) scale(0.1 -0.1)">
       <use xlink:href="#DMSans24pt-Regular-36"/>
      </g>
     </g>
    </g>
    <g id="text_31">
     <!-- Counts -->
     <g transform="translate(327.763636 134.795625) rotate(-90) scale(0.1 -0.1)">
      <use xlink:href="#DMSans24pt-Regular-43"/>
      <use xlink:href="#DMSans24pt-Regular-6f" x="71.999985"/>
      <use xlink:href="#DMSans24pt-Regular-75" x="131.199982"/>
      <use xlink:href="#DMSans24pt-Regular-6e" x="188.399979"/>
      <use xlink:href="#DMSans24pt-Regular-74" x="245.599976"/>
      <use xlink:href="#DMSans24pt-Regular-73" x="284.299973"/>
     </g>
    </g>
   </g>
   <g id="line2d_30">
    <path d="M 432.577218 228.96 
L 432.577218 7.2 
" clip-path="url(#pb0a2260f11)" style="fill: none; stroke-dasharray: 5.55,2.4; stroke-dashoffset: 0; stroke: #d62728; stroke-width: 1.5"/>
   </g>
   <g id="line2d_31">
    <path d="M 518.922917 228.96 
L 518.922917 7.2 
" clip-path="url(#pb0a2260f11)" style="fill: none; stroke-dasharray: 5.55,2.4; stroke-dashoffset: 0; stroke: #ff7f0e; stroke-width: 1.5"/>
   </g>
   <g id="patch_57">
    <path d="M 347.893324 228.96 
L 347.893324 7.2 
" style="fill: none; stroke: #000000; stroke-width: 0.8; stroke-linejoin: miter; stroke-linecap: square"/>
   </g>
   <g id="patch_58">
    <path d="M 601.529687 228.96 
L 601.529687 7.2 
" style="fill: none; stroke: #000000; stroke-width: 0.8; stroke-linejoin: miter; stroke-linecap: square"/>
   </g>
   <g id="patch_59">
    <path d="M 347.893324 228.96 
L 601.529687 228.96 
" style="fill: none; stroke: #000000; stroke-width: 0.8; stroke-linejoin: miter; stroke-linecap: square"/>
   </g>
   <g id="patch_60">
    <path d="M 347.893324 7.2 
L 601.529687 7.2 
" style="fill: none; stroke: #000000; stroke-width: 0.8; stroke-linejoin: miter; stroke-linecap: square"/>
   </g>
   <g id="text_32">
    <!-- Self-Mixture  -->
    <g style="fill: #d62728" transform="translate(442.342328 24.52) scale(0.1 -0.1)">
     <use xlink:href="#DMSans24pt-Regular-53"/>
     <use xlink:href="#DMSans24pt-Regular-65" x="57.799988"/>
     <use xlink:href="#DMSans24pt-Regular-6c" x="114.699982"/>
     <use xlink:href="#DMSans24pt-Regular-66" x="136.899979"/>
     <use xlink:href="#DMSans24pt-Regular-2d" x="170.199966"/>
     <use xlink:href="#DMSans24pt-Regular-4d" x="224.399963"/>
     <use xlink:href="#DMSans24pt-Regular-69" x="309.099945"/>
     <use xlink:href="#DMSans24pt-Regular-78" x="332.999939"/>
     <use xlink:href="#DMSans24pt-Regular-74" x="382.799927"/>
     <use xlink:href="#DMSans24pt-Regular-75" x="421.499924"/>
     <use xlink:href="#DMSans24pt-Regular-72" x="478.699921"/>
     <use xlink:href="#DMSans24pt-Regular-65" x="514.999908"/>
     <use xlink:href="#DMSans24pt-Regular-20" x="571.899902"/>
    </g>
    <!-- Mean: 0.13 -->
    <g style="fill: #d62728" transform="translate(442.342328 35.36) scale(0.1 -0.1)">
     <use xlink:href="#DMSans24pt-Regular-4d"/>
     <use xlink:href="#DMSans24pt-Regular-65" x="84.699982"/>
     <use xlink:href="#DMSans24pt-Regular-61" x="141.599976"/>
     <use xlink:href="#DMSans24pt-Regular-6e" x="195.799973"/>
     <use xlink:href="#DMSans24pt-Regular-3a" x="252.999969"/>
     <use xlink:href="#DMSans24pt-Regular-20" x="272.899963"/>
     <use xlink:href="#DMSans24pt-Regular-30" x="299.399948"/>
     <use xlink:href="#DMSans24pt-Regular-2e" x="368.699936"/>
     <use xlink:href="#DMSans24pt-Regular-31" x="388.199921"/>
     <use xlink:href="#DMSans24pt-Regular-33" x="418.399918"/>
    </g>
   </g>
   <g id="text_33">
    <!-- $\pm\sigma$ -->
    <g transform="translate(425.177218 84.64) scale(0.1 -0.1)">
     <defs>
      <path id="DejaVuSans-b1" d="M 2944 4013 
L 2944 2803 
L 4684 2803 
L 4684 2272 
L 2944 2272 
L 2944 1063 
L 2419 1063 
L 2419 2272 
L 678 2272 
L 678 2803 
L 2419 2803 
L 2419 4013 
L 2944 4013 
z
M 678 531 
L 4684 531 
L 4684 0 
L 678 0 
L 678 531 
z
" transform="scale(0.015625)"/>
      <path id="DejaVuSans-Oblique-3c3" d="M 2219 3044 
Q 1744 3044 1422 2700 
Q 1081 2341 969 1747 
Q 844 1119 1044 756 
Q 1241 397 1706 397 
Q 2166 397 2503 759 
Q 2844 1122 2966 1747 
Q 3075 2319 2881 2700 
Q 2700 3044 2219 3044 
z
M 2309 3503 
L 4219 3500 
L 4106 2925 
L 3463 2925 
Q 3706 2438 3575 1747 
Q 3406 888 2884 400 
Q 2359 -91 1609 -91 
Q 856 -91 525 400 
Q 194 888 363 1747 
Q 528 2609 1050 3097 
Q 1484 3503 2309 3503 
z
" transform="scale(0.015625)"/>
     </defs>
     <use xlink:href="#DejaVuSans-b1" transform="translate(0 0.296875)"/>
     <use xlink:href="#DejaVuSans-Oblique-3c3" transform="translate(83.789062 0.296875)"/>
    </g>
   </g>
   <g id="text_34">
    <!-- Dataset  -->
    <g style="fill: #ff7f0e" transform="translate(530.790412 24.52) scale(0.1 -0.1)">
     <use xlink:href="#DMSans24pt-Regular-44"/>
     <use xlink:href="#DMSans24pt-Regular-61" x="69.599991"/>
     <use xlink:href="#DMSans24pt-Regular-74" x="123.799988"/>
     <use xlink:href="#DMSans24pt-Regular-61" x="162.499985"/>
     <use xlink:href="#DMSans24pt-Regular-73" x="216.699982"/>
     <use xlink:href="#DMSans24pt-Regular-65" x="266.699966"/>
     <use xlink:href="#DMSans24pt-Regular-74" x="323.59996"/>
     <use xlink:href="#DMSans24pt-Regular-20" x="362.299957"/>
    </g>
    <!-- Bias: 0.29 -->
    <g style="fill: #ff7f0e" transform="translate(530.790412 35.36) scale(0.1 -0.1)">
     <defs>
      <path id="DMSans24pt-Regular-42" d="M 474 0 
L 474 4480 
L 2048 4480 
Q 2522 4480 2832 4329 
Q 3142 4179 3296 3920 
Q 3450 3661 3450 3341 
Q 3450 2906 3216 2653 
Q 2982 2400 2656 2310 
Q 2906 2266 3110 2112 
Q 3315 1958 3433 1728 
Q 3552 1498 3552 1222 
Q 3552 883 3385 604 
Q 3219 326 2896 163 
Q 2573 0 2099 0 
L 474 0 
z
M 1011 2522 
L 2010 2522 
Q 2445 2522 2672 2726 
Q 2899 2931 2899 3283 
Q 2899 3622 2672 3827 
Q 2445 4032 1990 4032 
L 1011 4032 
L 1011 2522 
z
M 1011 448 
L 2042 448 
Q 2496 448 2749 662 
Q 3002 877 3002 1261 
Q 3002 1638 2742 1865 
Q 2483 2093 2029 2093 
L 1011 2093 
L 1011 448 
z
" transform="scale(0.015625)"/>
      <path id="DMSans24pt-Regular-39" d="M 1952 -77 
Q 1530 -77 1229 89 
Q 928 256 752 537 
Q 576 819 538 1152 
L 1037 1152 
Q 1101 787 1344 588 
Q 1587 390 1958 390 
Q 2464 390 2803 854 
Q 3142 1318 3174 2304 
L 3174 2355 
Q 3021 2061 2685 1837 
Q 2349 1613 1875 1613 
Q 1498 1613 1158 1792 
Q 819 1971 608 2294 
Q 397 2618 397 3053 
Q 397 3430 582 3776 
Q 768 4122 1117 4339 
Q 1466 4557 1946 4557 
Q 2432 4557 2765 4374 
Q 3098 4192 3299 3885 
Q 3501 3578 3593 3197 
Q 3686 2816 3686 2419 
Q 3686 1683 3481 1120 
Q 3277 557 2889 240 
Q 2502 -77 1952 -77 
z
M 1984 2080 
Q 2285 2080 2521 2217 
Q 2758 2355 2899 2585 
Q 3040 2816 3040 3085 
Q 3040 3373 2899 3600 
Q 2758 3827 2521 3955 
Q 2285 4083 1984 4083 
Q 1683 4083 1446 3952 
Q 1210 3821 1075 3597 
Q 941 3373 941 3078 
Q 941 2630 1238 2355 
Q 1536 2080 1984 2080 
z
" transform="scale(0.015625)"/>
     </defs>
     <use xlink:href="#DMSans24pt-Regular-42"/>
     <use xlink:href="#DMSans24pt-Regular-69" x="60.199997"/>
     <use xlink:href="#DMSans24pt-Regular-61" x="84.099991"/>
     <use xlink:href="#DMSans24pt-Regular-73" x="138.299988"/>
     <use xlink:href="#DMSans24pt-Regular-3a" x="188.299973"/>
     <use xlink:href="#DMSans24pt-Regular-20" x="208.199966"/>
     <use xlink:href="#DMSans24pt-Regular-30" x="234.699951"/>
     <use xlink:href="#DMSans24pt-Regular-2e" x="303.999939"/>
     <use xlink:href="#DMSans24pt-Regular-32" x="323.499924"/>
     <use xlink:href="#DMSans24pt-Regular-39" x="380.699921"/>
    </g>
   </g>
   <g id="text_35">
    <!-- $\pm\sigma$ -->
    <g transform="translate(511.522917 84.64) scale(0.1 -0.1)">
     <use xlink:href="#DejaVuSans-b1" transform="translate(0 0.296875)"/>
     <use xlink:href="#DejaVuSans-Oblique-3c3" transform="translate(83.789062 0.296875)"/>
    </g>
   </g>
  </g>
 </g>
 <defs>
  <clipPath id="p2a0a0e59b8">
   <rect x="43.529688" y="7.2" width="253.636364" height="221.76"/>
  </clipPath>
  <clipPath id="pb0a2260f11">
   <rect x="347.893324" y="7.2" width="253.636364" height="221.76"/>
  </clipPath>
 </defs>
</svg>
