<?xml version="1.0" encoding="utf-8" standalone="no"?>
<!DOCTYPE svg PUBLIC "-//W3C//DTD SVG 1.1//EN"
  "http://www.w3.org/Graphics/SVG/1.1/DTD/svg11.dtd">
<svg xmlns:xlink="http://www.w3.org/1999/xlink" width="480.398068pt" height="225.16pt" viewBox="0 0 480.398068 225.16" xmlns="http://www.w3.org/2000/svg" version="1.1">
 <metadata>
  <rdf:RDF xmlns:dc="http://purl.org/dc/elements/1.1/" xmlns:cc="http://creativecommons.org/ns#" xmlns:rdf="http://www.w3.org/1999/02/22-rdf-syntax-ns#">
   <cc:Work>
    <dc:type rdf:resource="http://purl.org/dc/dcmitype/StillImage"/>
    <dc:date>2024-10-01T22:55:38.631990</dc:date>
    <dc:format>image/svg+xml</dc:format>
    <dc:creator>
     <cc:Agent>
      <dc:title>Matplotlib v3.9.2, https://matplotlib.org/</dc:title>
     </cc:Agent>
    </dc:creator>
   </cc:Work>
  </rdf:RDF>
 </metadata>
 <defs>
  <style type="text/css">*{stroke-linejoin: round; stroke-linecap: butt}</style>
 </defs>
 <g id="figure_1">
  <g id="patch_1">
   <path d="M 0 225.16 
L 480.398068 225.16 
L 480.398068 0 
L 0 0 
L 0 225.16 
z
" style="fill: none"/>
  </g>
  <g id="axes_1">
   <g id="patch_2">
    <path d="M 43.409375 188.16 
L 209.729375 188.16 
L 209.729375 21.84 
L 43.409375 21.84 
L 43.409375 188.16 
z
" style="fill: none"/>
   </g>
   <g id="PathCollection_1">
    <defs>
     <path id="m6c863ecb66" d="M 0 3 
C 0.795609 3 1.55874 2.683901 2.12132 2.12132 
C 2.683901 1.55874 3 0.795609 3 0 
C 3 -0.795609 2.683901 -1.55874 2.12132 -2.12132 
C 1.55874 -2.683901 0.795609 -3 0 -3 
C -0.795609 -3 -1.55874 -2.683901 -2.12132 -2.12132 
C -2.683901 -1.55874 -3 -0.795609 -3 0 
C -3 0.795609 -2.683901 1.55874 -2.12132 2.12132 
C -1.55874 2.683901 -0.795609 3 0 3 
z
" style="stroke: #ffffff; stroke-width: 0.48"/>
    </defs>
    <g clip-path="url(#p6392a4b993)">
     <use xlink:href="#m6c863ecb66" x="209.729375" y="46.261904" style="fill: #0173b2; stroke: #ffffff; stroke-width: 0.48"/>
     <use xlink:href="#m6c863ecb66" x="199.334375" y="72.565105" style="fill: #0173b2; stroke: #ffffff; stroke-width: 0.48"/>
     <use xlink:href="#m6c863ecb66" x="198.641375" y="91.849909" style="fill: #0173b2; stroke: #ffffff; stroke-width: 0.48"/>
     <use xlink:href="#m6c863ecb66" x="199.945846" y="102.030356" style="fill: #0173b2; stroke: #ffffff; stroke-width: 0.48"/>
     <use xlink:href="#m6c863ecb66" x="178.544375" y="121.000816" style="fill: #0173b2; stroke: #ffffff; stroke-width: 0.48"/>
     <use xlink:href="#m6c863ecb66" x="184.781375" y="78.614995" style="fill: #0173b2; stroke: #ffffff; stroke-width: 0.48"/>
     <use xlink:href="#m6c863ecb66" x="176.465375" y="107.017462" style="fill: #0173b2; stroke: #ffffff; stroke-width: 0.48"/>
     <use xlink:href="#m6c863ecb66" x="199.334375" y="41.591332" style="fill: #0173b2; stroke: #ffffff; stroke-width: 0.48"/>
     <use xlink:href="#m6c863ecb66" x="194.609375" y="110.238248" style="fill: #0173b2; stroke: #ffffff; stroke-width: 0.48"/>
     <use xlink:href="#m6c863ecb66" x="209.729375" y="108.451578" style="fill: #0173b2; stroke: #ffffff; stroke-width: 0.48"/>
     <use xlink:href="#m6c863ecb66" x="209.729375" y="47.331035" style="fill: #0173b2; stroke: #ffffff; stroke-width: 0.48"/>
     <use xlink:href="#m6c863ecb66" x="209.729375" y="66.857834" style="fill: #0173b2; stroke: #ffffff; stroke-width: 0.48"/>
     <use xlink:href="#m6c863ecb66" x="209.729375" y="57.459288" style="fill: #0173b2; stroke: #ffffff; stroke-width: 0.48"/>
     <use xlink:href="#m6c863ecb66" x="194.609375" y="100.364378" style="fill: #0173b2; stroke: #ffffff; stroke-width: 0.48"/>
     <use xlink:href="#m6c863ecb66" x="209.729375" y="88.824947" style="fill: #0173b2; stroke: #ffffff; stroke-width: 0.48"/>
     <use xlink:href="#m6c863ecb66" x="196.935529" y="77.864145" style="fill: #0173b2; stroke: #ffffff; stroke-width: 0.48"/>
     <use xlink:href="#m6c863ecb66" x="193.097375" y="88.063407" style="fill: #0173b2; stroke: #ffffff; stroke-width: 0.48"/>
     <use xlink:href="#m6c863ecb66" x="179.489375" y="127.231035" style="fill: #0173b2; stroke: #ffffff; stroke-width: 0.48"/>
     <use xlink:href="#m6c863ecb66" x="202.498071" y="56.353851" style="fill: #0173b2; stroke: #ffffff; stroke-width: 0.48"/>
     <use xlink:href="#m6c863ecb66" x="200.489375" y="48.43587" style="fill: #0173b2; stroke: #ffffff; stroke-width: 0.48"/>
     <use xlink:href="#m6c863ecb66" x="176.465375" y="120.446756" style="fill: #0173b2; stroke: #ffffff; stroke-width: 0.48"/>
     <use xlink:href="#m6c863ecb66" x="209.729375" y="75.452687" style="fill: #0173b2; stroke: #ffffff; stroke-width: 0.48"/>
     <use xlink:href="#m6c863ecb66" x="209.729375" y="72.047656" style="fill: #0173b2; stroke: #ffffff; stroke-width: 0.48"/>
     <use xlink:href="#m6c863ecb66" x="209.729375" y="79.997753" style="fill: #0173b2; stroke: #ffffff; stroke-width: 0.48"/>
     <use xlink:href="#m6c863ecb66" x="209.729375" y="105.677122" style="fill: #0173b2; stroke: #ffffff; stroke-width: 0.48"/>
     <use xlink:href="#m6c863ecb66" x="209.729375" y="47.891158" style="fill: #0173b2; stroke: #ffffff; stroke-width: 0.48"/>
     <use xlink:href="#m6c863ecb66" x="209.729375" y="84.368014" style="fill: #0173b2; stroke: #ffffff; stroke-width: 0.48"/>
     <use xlink:href="#m6c863ecb66" x="200.975691" y="102.330147" style="fill: #0173b2; stroke: #ffffff; stroke-width: 0.48"/>
     <use xlink:href="#m6c863ecb66" x="202.169375" y="73.647017" style="fill: #0173b2; stroke: #ffffff; stroke-width: 0.48"/>
     <use xlink:href="#m6c863ecb66" x="190.162316" y="88.731635" style="fill: #0173b2; stroke: #ffffff; stroke-width: 0.48"/>
     <use xlink:href="#m6c863ecb66" x="209.729375" y="111.304133" style="fill: #0173b2; stroke: #ffffff; stroke-width: 0.48"/>
     <use xlink:href="#m6c863ecb66" x="199.334375" y="103.452047" style="fill: #0173b2; stroke: #ffffff; stroke-width: 0.48"/>
     <use xlink:href="#m6c863ecb66" x="188.939375" y="74.787807" style="fill: #0173b2; stroke: #ffffff; stroke-width: 0.48"/>
     <use xlink:href="#m6c863ecb66" x="209.729375" y="52.295388" style="fill: #0173b2; stroke: #ffffff; stroke-width: 0.48"/>
     <use xlink:href="#m6c863ecb66" x="190.162316" y="83.613429" style="fill: #0173b2; stroke: #ffffff; stroke-width: 0.48"/>
     <use xlink:href="#m6c863ecb66" x="209.729375" y="104.871663" style="fill: #0173b2; stroke: #ffffff; stroke-width: 0.48"/>
     <use xlink:href="#m6c863ecb66" x="172.769375" y="107.548405" style="fill: #0173b2; stroke: #ffffff; stroke-width: 0.48"/>
     <use xlink:href="#m6c863ecb66" x="164.369375" y="93.525785" style="fill: #0173b2; stroke: #ffffff; stroke-width: 0.48"/>
     <use xlink:href="#m6c863ecb66" x="188.939375" y="38.221805" style="fill: #0173b2; stroke: #ffffff; stroke-width: 0.48"/>
     <use xlink:href="#m6c863ecb66" x="187.049375" y="165.87507" style="fill: #0173b2; stroke: #ffffff; stroke-width: 0.48"/>
     <use xlink:href="#m6c863ecb66" x="209.729375" y="49.607922" style="fill: #0173b2; stroke: #ffffff; stroke-width: 0.48"/>
     <use xlink:href="#m6c863ecb66" x="197.849375" y="93.057701" style="fill: #0173b2; stroke: #ffffff; stroke-width: 0.48"/>
     <use xlink:href="#m6c863ecb66" x="209.729375" y="70.261363" style="fill: #0173b2; stroke: #ffffff; stroke-width: 0.48"/>
     <use xlink:href="#m6c863ecb66" x="165.377375" y="146.132002" style="fill: #0173b2; stroke: #ffffff; stroke-width: 0.48"/>
     <use xlink:href="#m6c863ecb66" x="209.729375" y="117.704031" style="fill: #0173b2; stroke: #ffffff; stroke-width: 0.48"/>
     <use xlink:href="#m6c863ecb66" x="209.729375" y="57.9827" style="fill: #0173b2; stroke: #ffffff; stroke-width: 0.48"/>
     <use xlink:href="#m6c863ecb66" x="194.609375" y="114.934604" style="fill: #0173b2; stroke: #ffffff; stroke-width: 0.48"/>
     <use xlink:href="#m6c863ecb66" x="209.729375" y="70.283458" style="fill: #0173b2; stroke: #ffffff; stroke-width: 0.48"/>
     <use xlink:href="#m6c863ecb66" x="209.729375" y="37.39028" style="fill: #0173b2; stroke: #ffffff; stroke-width: 0.48"/>
     <use xlink:href="#m6c863ecb66" x="209.729375" y="118.005532" style="fill: #0173b2; stroke: #ffffff; stroke-width: 0.48"/>
     <use xlink:href="#m6c863ecb66" x="191.249375" y="98.859537" style="fill: #0173b2; stroke: #ffffff; stroke-width: 0.48"/>
     <use xlink:href="#m6c863ecb66" x="191.249375" y="88.950196" style="fill: #0173b2; stroke: #ffffff; stroke-width: 0.48"/>
     <use xlink:href="#m6c863ecb66" x="176.465375" y="104.398885" style="fill: #0173b2; stroke: #ffffff; stroke-width: 0.48"/>
     <use xlink:href="#m6c863ecb66" x="200.975691" y="82.230159" style="fill: #0173b2; stroke: #ffffff; stroke-width: 0.48"/>
     <use xlink:href="#m6c863ecb66" x="191.249375" y="46.50913" style="fill: #0173b2; stroke: #ffffff; stroke-width: 0.48"/>
     <use xlink:href="#m6c863ecb66" x="182.009375" y="105.584451" style="fill: #0173b2; stroke: #ffffff; stroke-width: 0.48"/>
     <use xlink:href="#m6c863ecb66" x="209.729375" y="67.883647" style="fill: #0173b2; stroke: #ffffff; stroke-width: 0.48"/>
     <use xlink:href="#m6c863ecb66" x="209.729375" y="53.760975" style="fill: #0173b2; stroke: #ffffff; stroke-width: 0.48"/>
     <use xlink:href="#m6c863ecb66" x="209.729375" y="65.139052" style="fill: #0173b2; stroke: #ffffff; stroke-width: 0.48"/>
     <use xlink:href="#m6c863ecb66" x="190.162316" y="95.765894" style="fill: #0173b2; stroke: #ffffff; stroke-width: 0.48"/>
    </g>
   </g>
   <g id="matplotlib.axis_1">
    <g id="xtick_1">
     <g id="line2d_1">
      <defs>
       <path id="mbcaff193d6" d="M 0 0 
L 0 3.5 
" style="stroke: #000000; stroke-width: 0.8"/>
      </defs>
      <g>
       <use xlink:href="#mbcaff193d6" x="43.409375" y="188.16" style="stroke: #000000; stroke-width: 0.8"/>
      </g>
     </g>
     <g id="text_1">
      <!-- 0.0 -->
      <g transform="translate(35.504688 202.36) scale(0.1 -0.1)">
       <defs>
        <path id="DMSans24pt-Regular-30" d="M 2221 -77 
Q 1626 -77 1194 214 
Q 762 506 531 1027 
Q 301 1549 301 2240 
Q 301 2931 531 3452 
Q 762 3974 1194 4265 
Q 1626 4557 2221 4557 
Q 2822 4557 3248 4265 
Q 3674 3974 3904 3452 
Q 4134 2931 4134 2240 
Q 4134 1549 3904 1027 
Q 3674 506 3248 214 
Q 2822 -77 2221 -77 
z
M 2221 397 
Q 2618 397 2925 617 
Q 3232 838 3408 1251 
Q 3584 1664 3584 2240 
Q 3584 2816 3408 3229 
Q 3232 3642 2925 3859 
Q 2618 4077 2221 4077 
Q 1824 4077 1513 3859 
Q 1203 3642 1027 3229 
Q 851 2816 851 2240 
Q 851 1664 1027 1251 
Q 1203 838 1513 617 
Q 1824 397 2221 397 
z
" transform="scale(0.015625)"/>
        <path id="DMSans24pt-Regular-2e" d="M 627 -32 
Q 467 -32 361 73 
Q 256 179 256 333 
Q 256 486 361 592 
Q 467 698 627 698 
Q 787 698 889 592 
Q 992 486 992 333 
Q 992 179 889 73 
Q 787 -32 627 -32 
z
" transform="scale(0.015625)"/>
       </defs>
       <use xlink:href="#DMSans24pt-Regular-30"/>
       <use xlink:href="#DMSans24pt-Regular-2e" x="69.299988"/>
       <use xlink:href="#DMSans24pt-Regular-30" x="88.799973"/>
      </g>
     </g>
    </g>
    <g id="xtick_2">
     <g id="line2d_2">
      <g>
       <use xlink:href="#mbcaff193d6" x="76.673375" y="188.16" style="stroke: #000000; stroke-width: 0.8"/>
      </g>
     </g>
     <g id="text_2">
      <!-- 0.2 -->
      <g transform="translate(69.373375 202.36) scale(0.1 -0.1)">
       <defs>
        <path id="DMSans24pt-Regular-32" d="M 403 0 
L 403 378 
Q 858 736 1264 1101 
Q 1670 1466 1987 1827 
Q 2304 2189 2486 2534 
Q 2669 2880 2669 3200 
Q 2669 3437 2589 3638 
Q 2509 3840 2329 3968 
Q 2150 4096 1843 4096 
Q 1549 4096 1350 3965 
Q 1152 3834 1053 3619 
Q 954 3405 954 3149 
L 435 3149 
Q 442 3590 624 3907 
Q 806 4224 1126 4390 
Q 1446 4557 1850 4557 
Q 2445 4557 2825 4221 
Q 3206 3885 3206 3219 
Q 3206 2829 3011 2438 
Q 2816 2048 2505 1686 
Q 2195 1325 1846 1011 
Q 1498 698 1197 448 
L 3360 448 
L 3360 0 
L 403 0 
z
" transform="scale(0.015625)"/>
       </defs>
       <use xlink:href="#DMSans24pt-Regular-30"/>
       <use xlink:href="#DMSans24pt-Regular-2e" x="69.299988"/>
       <use xlink:href="#DMSans24pt-Regular-32" x="88.799973"/>
      </g>
     </g>
    </g>
    <g id="xtick_3">
     <g id="line2d_3">
      <g>
       <use xlink:href="#mbcaff193d6" x="109.937375" y="188.16" style="stroke: #000000; stroke-width: 0.8"/>
      </g>
     </g>
     <g id="text_3">
      <!-- 0.4 -->
      <g transform="translate(102.472531 202.36) scale(0.1 -0.1)">
       <defs>
        <path id="DMSans24pt-Regular-34" d="M 2502 0 
L 2502 960 
L 230 960 
L 230 1376 
L 2406 4480 
L 3034 4480 
L 3034 1434 
L 3699 1434 
L 3699 960 
L 3034 960 
L 3034 0 
L 2502 0 
z
M 826 1434 
L 2528 1434 
L 2528 3885 
L 826 1434 
z
" transform="scale(0.015625)"/>
       </defs>
       <use xlink:href="#DMSans24pt-Regular-30"/>
       <use xlink:href="#DMSans24pt-Regular-2e" x="69.299988"/>
       <use xlink:href="#DMSans24pt-Regular-34" x="88.799973"/>
      </g>
     </g>
    </g>
    <g id="xtick_4">
     <g id="line2d_4">
      <g>
       <use xlink:href="#mbcaff193d6" x="143.201375" y="188.16" style="stroke: #000000; stroke-width: 0.8"/>
      </g>
     </g>
     <g id="text_4">
      <!-- 0.6 -->
      <g transform="translate(135.611531 202.36) scale(0.1 -0.1)">
       <defs>
        <path id="DMSans24pt-Regular-36" d="M 2086 -77 
Q 1600 -77 1267 105 
Q 934 288 732 595 
Q 531 902 438 1283 
Q 346 1664 346 2061 
Q 346 2803 550 3363 
Q 755 3923 1145 4240 
Q 1536 4557 2080 4557 
Q 2502 4557 2806 4390 
Q 3110 4224 3286 3945 
Q 3462 3667 3501 3328 
L 3002 3328 
Q 2938 3693 2694 3891 
Q 2451 4090 2074 4090 
Q 1568 4090 1229 3622 
Q 890 3155 858 2170 
L 858 2125 
Q 1011 2426 1350 2646 
Q 1690 2867 2157 2867 
Q 2541 2867 2877 2688 
Q 3213 2509 3424 2185 
Q 3635 1862 3635 1427 
Q 3635 1050 3449 704 
Q 3264 358 2915 140 
Q 2566 -77 2086 -77 
z
M 2048 397 
Q 2349 397 2585 528 
Q 2822 659 2956 886 
Q 3091 1114 3091 1402 
Q 3091 1856 2796 2128 
Q 2502 2400 2048 2400 
Q 1754 2400 1514 2262 
Q 1274 2125 1136 1897 
Q 998 1670 998 1395 
Q 998 1107 1136 883 
Q 1274 659 1514 528 
Q 1754 397 2048 397 
z
" transform="scale(0.015625)"/>
       </defs>
       <use xlink:href="#DMSans24pt-Regular-30"/>
       <use xlink:href="#DMSans24pt-Regular-2e" x="69.299988"/>
       <use xlink:href="#DMSans24pt-Regular-36" x="88.799973"/>
      </g>
     </g>
    </g>
    <g id="xtick_5">
     <g id="line2d_5">
      <g>
       <use xlink:href="#mbcaff193d6" x="176.465375" y="188.16" style="stroke: #000000; stroke-width: 0.8"/>
      </g>
     </g>
     <g id="text_5">
      <!-- 0.8 -->
      <g transform="translate(168.975531 202.36) scale(0.1 -0.1)">
       <defs>
        <path id="DMSans24pt-Regular-38" d="M 1952 -77 
Q 1510 -77 1161 86 
Q 813 250 608 541 
Q 403 832 403 1216 
Q 403 1626 643 1952 
Q 883 2278 1280 2387 
Q 915 2515 716 2784 
Q 518 3053 518 3366 
Q 518 3699 691 3968 
Q 864 4237 1184 4397 
Q 1504 4557 1952 4557 
Q 2400 4557 2720 4397 
Q 3040 4237 3213 3968 
Q 3386 3699 3386 3366 
Q 3386 3053 3187 2784 
Q 2989 2515 2624 2387 
Q 3021 2278 3261 1952 
Q 3501 1626 3501 1216 
Q 3501 832 3296 541 
Q 3091 250 2742 86 
Q 2394 -77 1952 -77 
z
M 1952 2579 
Q 2362 2579 2602 2790 
Q 2842 3002 2842 3334 
Q 2842 3712 2605 3904 
Q 2368 4096 1952 4096 
Q 1542 4096 1305 3904 
Q 1069 3712 1069 3334 
Q 1069 3002 1305 2790 
Q 1542 2579 1952 2579 
z
M 1952 397 
Q 2464 397 2713 630 
Q 2963 864 2963 1248 
Q 2963 1683 2688 1907 
Q 2413 2131 1952 2131 
Q 1491 2131 1216 1907 
Q 941 1683 941 1248 
Q 941 864 1193 630 
Q 1446 397 1952 397 
z
" transform="scale(0.015625)"/>
       </defs>
       <use xlink:href="#DMSans24pt-Regular-30"/>
       <use xlink:href="#DMSans24pt-Regular-2e" x="69.299988"/>
       <use xlink:href="#DMSans24pt-Regular-38" x="88.799973"/>
      </g>
     </g>
    </g>
    <g id="xtick_6">
     <g id="line2d_6">
      <g>
       <use xlink:href="#mbcaff193d6" x="209.729375" y="188.16" style="stroke: #000000; stroke-width: 0.8"/>
      </g>
     </g>
     <g id="text_6">
      <!-- 1.0 -->
      <g transform="translate(203.779375 202.36) scale(0.1 -0.1)">
       <defs>
        <path id="DMSans24pt-Regular-31" d="M 915 0 
L 915 3878 
L 192 3718 
L 192 4090 
L 1094 4480 
L 1459 4480 
L 1459 0 
L 915 0 
z
" transform="scale(0.015625)"/>
       </defs>
       <use xlink:href="#DMSans24pt-Regular-31"/>
       <use xlink:href="#DMSans24pt-Regular-2e" x="30.199997"/>
       <use xlink:href="#DMSans24pt-Regular-30" x="49.699982"/>
      </g>
     </g>
    </g>
    <g id="text_7">
     <!-- GSLF Jaccard Distance -->
     <g transform="translate(72.9975 215.76) scale(0.1 -0.1)">
      <defs>
       <path id="DMSans24pt-Regular-47" d="M 2400 -77 
Q 1773 -77 1299 214 
Q 826 506 563 1024 
Q 301 1542 301 2234 
Q 301 2918 566 3443 
Q 832 3968 1321 4262 
Q 1811 4557 2477 4557 
Q 3232 4557 3737 4195 
Q 4243 3834 4384 3187 
L 3763 3187 
Q 3674 3590 3341 3827 
Q 3008 4064 2477 4064 
Q 1984 4064 1616 3843 
Q 1248 3622 1049 3212 
Q 851 2803 851 2234 
Q 851 1664 1049 1251 
Q 1248 838 1603 620 
Q 1958 403 2419 403 
Q 3136 403 3501 825 
Q 3866 1248 3917 1971 
L 2624 1971 
L 2624 2394 
L 4467 2394 
L 4467 0 
L 3974 0 
L 3930 736 
Q 3693 346 3337 134 
Q 2982 -77 2400 -77 
z
" transform="scale(0.015625)"/>
       <path id="DMSans24pt-Regular-53" d="M 1901 -77 
Q 1408 -77 1043 102 
Q 678 282 480 602 
Q 282 922 282 1344 
L 845 1344 
Q 845 1082 966 861 
Q 1088 640 1321 509 
Q 1555 378 1901 378 
Q 2355 378 2604 595 
Q 2854 813 2854 1139 
Q 2854 1408 2739 1571 
Q 2624 1734 2429 1836 
Q 2234 1939 1981 2016 
Q 1728 2093 1453 2189 
Q 934 2368 684 2633 
Q 435 2899 435 3328 
Q 435 3693 604 3968 
Q 774 4243 1091 4400 
Q 1408 4557 1843 4557 
Q 2272 4557 2589 4397 
Q 2906 4237 3085 3958 
Q 3264 3680 3264 3315 
L 2701 3315 
Q 2701 3501 2605 3680 
Q 2509 3859 2313 3977 
Q 2118 4096 1824 4096 
Q 1459 4102 1225 3910 
Q 992 3718 992 3379 
Q 992 3091 1158 2937 
Q 1325 2784 1616 2685 
Q 1907 2586 2291 2458 
Q 2618 2349 2870 2192 
Q 3123 2035 3267 1792 
Q 3411 1549 3411 1171 
Q 3411 851 3241 566 
Q 3072 282 2739 102 
Q 2406 -77 1901 -77 
z
" transform="scale(0.015625)"/>
       <path id="DMSans24pt-Regular-4c" d="M 474 0 
L 474 4480 
L 1011 4480 
L 1011 429 
L 3098 429 
L 3098 0 
L 474 0 
z
" transform="scale(0.015625)"/>
       <path id="DMSans24pt-Regular-46" d="M 474 0 
L 474 4480 
L 3200 4480 
L 3200 4038 
L 1011 4038 
L 1011 2464 
L 2874 2464 
L 2874 2029 
L 1011 2029 
L 1011 0 
L 474 0 
z
" transform="scale(0.015625)"/>
       <path id="DMSans24pt-Regular-20" transform="scale(0.015625)"/>
       <path id="DMSans24pt-Regular-4a" d="M 1472 -77 
Q 870 -77 521 262 
Q 173 602 173 1203 
L 717 1203 
Q 717 864 886 633 
Q 1056 403 1466 403 
Q 1869 403 2025 627 
Q 2182 851 2182 1184 
L 2182 4480 
L 2720 4480 
L 2720 1184 
Q 2720 582 2390 252 
Q 2061 -77 1472 -77 
z
" transform="scale(0.015625)"/>
       <path id="DMSans24pt-Regular-61" d="M 1498 -77 
Q 1101 -77 838 57 
Q 576 192 448 416 
Q 320 640 320 902 
Q 320 1389 691 1651 
Q 1062 1914 1702 1914 
L 2560 1914 
Q 2560 2355 2349 2576 
Q 2138 2797 1760 2797 
Q 1446 2797 1216 2640 
Q 986 2483 934 2182 
L 384 2182 
Q 422 2528 620 2765 
Q 819 3002 1123 3126 
Q 1427 3251 1760 3251 
Q 2426 3251 2762 2896 
Q 3098 2541 3098 1952 
L 3098 0 
L 2618 0 
L 2586 570 
Q 2451 301 2192 112 
Q 1933 -77 1498 -77 
z
M 1581 378 
Q 1894 378 2112 538 
Q 2330 698 2445 954 
Q 2560 1210 2560 1491 
L 2560 1498 
L 1747 1498 
Q 1274 1498 1078 1334 
Q 883 1171 883 928 
Q 883 678 1065 528 
Q 1248 378 1581 378 
z
" transform="scale(0.015625)"/>
       <path id="DMSans24pt-Regular-63" d="M 1901 -77 
Q 1446 -77 1084 131 
Q 723 339 515 713 
Q 307 1088 307 1587 
Q 307 2086 515 2460 
Q 723 2835 1084 3043 
Q 1446 3251 1901 3251 
Q 2470 3251 2854 2956 
Q 3238 2662 3341 2170 
L 2790 2170 
Q 2726 2464 2476 2627 
Q 2227 2790 1894 2790 
Q 1626 2790 1389 2656 
Q 1152 2522 1005 2253 
Q 858 1984 858 1587 
Q 858 1190 1005 921 
Q 1152 653 1389 515 
Q 1626 378 1894 378 
Q 2227 378 2476 544 
Q 2726 710 2790 1005 
L 3341 1005 
Q 3238 525 2854 224 
Q 2470 -77 1901 -77 
z
" transform="scale(0.015625)"/>
       <path id="DMSans24pt-Regular-72" d="M 442 0 
L 442 3174 
L 928 3174 
L 973 2560 
Q 1120 2880 1421 3065 
Q 1722 3251 2163 3251 
L 2163 2688 
L 2016 2688 
Q 1734 2688 1497 2592 
Q 1261 2496 1120 2259 
Q 979 2022 979 1600 
L 979 0 
L 442 0 
z
" transform="scale(0.015625)"/>
       <path id="DMSans24pt-Regular-64" d="M 1882 -77 
Q 1408 -77 1053 140 
Q 698 358 502 736 
Q 307 1114 307 1594 
Q 307 2074 502 2448 
Q 698 2822 1056 3036 
Q 1414 3251 1888 3251 
Q 2278 3251 2582 3091 
Q 2886 2931 3046 2643 
L 3046 4608 
L 3584 4608 
L 3584 0 
L 3098 0 
L 3046 525 
Q 2893 294 2605 108 
Q 2317 -77 1882 -77 
z
M 1939 390 
Q 2259 390 2505 540 
Q 2752 691 2889 960 
Q 3027 1229 3027 1587 
Q 3027 1946 2889 2214 
Q 2752 2483 2505 2633 
Q 2259 2784 1939 2784 
Q 1626 2784 1379 2633 
Q 1133 2483 995 2214 
Q 858 1946 858 1587 
Q 858 1229 995 960 
Q 1133 691 1379 540 
Q 1626 390 1939 390 
z
" transform="scale(0.015625)"/>
       <path id="DMSans24pt-Regular-44" d="M 474 0 
L 474 4480 
L 1850 4480 
Q 3034 4480 3594 3878 
Q 4154 3277 4154 2227 
Q 4154 1536 3907 1037 
Q 3661 538 3149 269 
Q 2637 0 1850 0 
L 474 0 
z
M 1011 448 
L 1837 448 
Q 2490 448 2877 662 
Q 3264 877 3430 1277 
Q 3597 1677 3597 2227 
Q 3597 2790 3430 3193 
Q 3264 3597 2877 3814 
Q 2490 4032 1837 4032 
L 1011 4032 
L 1011 448 
z
" transform="scale(0.015625)"/>
       <path id="DMSans24pt-Regular-69" d="M 768 3878 
Q 608 3878 502 3984 
Q 397 4090 397 4250 
Q 397 4410 502 4509 
Q 608 4608 768 4608 
Q 922 4608 1030 4509 
Q 1139 4410 1139 4250 
Q 1139 4090 1030 3984 
Q 922 3878 768 3878 
z
M 499 0 
L 499 3174 
L 1037 3174 
L 1037 0 
L 499 0 
z
" transform="scale(0.015625)"/>
       <path id="DMSans24pt-Regular-73" d="M 1658 -77 
Q 1088 -77 710 211 
Q 333 499 269 992 
L 819 992 
Q 870 742 1084 560 
Q 1299 378 1664 378 
Q 2003 378 2163 522 
Q 2323 666 2323 864 
Q 2323 1146 2115 1245 
Q 1907 1344 1530 1421 
Q 1274 1472 1014 1568 
Q 755 1664 585 1840 
Q 416 2016 416 2304 
Q 416 2720 726 2985 
Q 1037 3251 1568 3251 
Q 2074 3251 2397 3001 
Q 2720 2752 2771 2278 
L 2240 2278 
Q 2214 2522 2038 2659 
Q 1862 2797 1562 2797 
Q 1267 2797 1113 2675 
Q 960 2554 960 2355 
Q 960 2170 1161 2054 
Q 1363 1939 1709 1869 
Q 2010 1805 2272 1712 
Q 2534 1619 2704 1436 
Q 2874 1254 2874 909 
Q 2880 480 2550 201 
Q 2221 -77 1658 -77 
z
" transform="scale(0.015625)"/>
       <path id="DMSans24pt-Regular-74" d="M 1696 0 
Q 1261 0 1011 214 
Q 762 429 762 973 
L 762 2720 
L 211 2720 
L 211 3174 
L 762 3174 
L 832 3936 
L 1299 3936 
L 1299 3174 
L 2234 3174 
L 2234 2720 
L 1299 2720 
L 1299 973 
Q 1299 672 1420 566 
Q 1542 461 1850 461 
L 2182 461 
L 2182 0 
L 1696 0 
z
" transform="scale(0.015625)"/>
       <path id="DMSans24pt-Regular-6e" d="M 442 0 
L 442 3174 
L 928 3174 
L 960 2605 
Q 1114 2906 1402 3078 
Q 1690 3251 2054 3251 
Q 2618 3251 2954 2908 
Q 3290 2566 3290 1856 
L 3290 0 
L 2752 0 
L 2752 1798 
Q 2752 2291 2541 2540 
Q 2330 2790 1933 2790 
Q 1523 2790 1251 2492 
Q 979 2195 979 1645 
L 979 0 
L 442 0 
z
" transform="scale(0.015625)"/>
       <path id="DMSans24pt-Regular-65" d="M 1869 -77 
Q 1414 -77 1062 131 
Q 710 339 508 713 
Q 307 1088 307 1587 
Q 307 2093 505 2464 
Q 704 2835 1059 3043 
Q 1414 3251 1882 3251 
Q 2349 3251 2681 3043 
Q 3014 2835 3193 2499 
Q 3373 2163 3373 1766 
Q 3373 1702 3373 1628 
Q 3373 1555 3366 1466 
L 832 1466 
Q 851 1101 1001 861 
Q 1152 621 1382 499 
Q 1613 378 1869 378 
Q 2202 378 2426 531 
Q 2650 685 2752 947 
L 3283 947 
Q 3162 506 2797 214 
Q 2432 -77 1869 -77 
z
M 1869 2797 
Q 1485 2797 1187 2566 
Q 890 2336 838 1882 
L 2842 1882 
Q 2822 2310 2550 2553 
Q 2278 2797 1869 2797 
z
" transform="scale(0.015625)"/>
      </defs>
      <use xlink:href="#DMSans24pt-Regular-47"/>
      <use xlink:href="#DMSans24pt-Regular-53" x="75.699982"/>
      <use xlink:href="#DMSans24pt-Regular-4c" x="133.499969"/>
      <use xlink:href="#DMSans24pt-Regular-46" x="185.999954"/>
      <use xlink:href="#DMSans24pt-Regular-20" x="239.399948"/>
      <use xlink:href="#DMSans24pt-Regular-4a" x="265.899933"/>
      <use xlink:href="#DMSans24pt-Regular-61" x="315.799927"/>
      <use xlink:href="#DMSans24pt-Regular-63" x="369.999924"/>
      <use xlink:href="#DMSans24pt-Regular-63" x="426.999908"/>
      <use xlink:href="#DMSans24pt-Regular-61" x="483.999893"/>
      <use xlink:href="#DMSans24pt-Regular-72" x="538.19989"/>
      <use xlink:href="#DMSans24pt-Regular-64" x="574.499878"/>
      <use xlink:href="#DMSans24pt-Regular-20" x="637.399872"/>
      <use xlink:href="#DMSans24pt-Regular-44" x="663.899857"/>
      <use xlink:href="#DMSans24pt-Regular-69" x="733.499847"/>
      <use xlink:href="#DMSans24pt-Regular-73" x="757.399841"/>
      <use xlink:href="#DMSans24pt-Regular-74" x="807.399826"/>
      <use xlink:href="#DMSans24pt-Regular-61" x="846.099823"/>
      <use xlink:href="#DMSans24pt-Regular-6e" x="900.29982"/>
      <use xlink:href="#DMSans24pt-Regular-63" x="957.499817"/>
      <use xlink:href="#DMSans24pt-Regular-65" x="1014.499802"/>
     </g>
    </g>
   </g>
   <g id="matplotlib.axis_2">
    <g id="ytick_1">
     <g id="line2d_7">
      <defs>
       <path id="ma7c05ecfab" d="M 0 0 
L -3.5 0 
" style="stroke: #000000; stroke-width: 0.8"/>
      </defs>
      <g>
       <use xlink:href="#ma7c05ecfab" x="43.409375" y="188.16" style="stroke: #000000; stroke-width: 0.8"/>
      </g>
     </g>
     <g id="text_8">
      <!-- 0.0 -->
      <g transform="translate(20.6 191.76) scale(0.1 -0.1)">
       <use xlink:href="#DMSans24pt-Regular-30"/>
       <use xlink:href="#DMSans24pt-Regular-2e" x="69.299988"/>
       <use xlink:href="#DMSans24pt-Regular-30" x="88.799973"/>
      </g>
     </g>
    </g>
    <g id="ytick_2">
     <g id="line2d_8">
      <g>
       <use xlink:href="#ma7c05ecfab" x="43.409375" y="154.896" style="stroke: #000000; stroke-width: 0.8"/>
      </g>
     </g>
     <g id="text_9">
      <!-- 0.2 -->
      <g transform="translate(21.809375 158.496) scale(0.1 -0.1)">
       <use xlink:href="#DMSans24pt-Regular-30"/>
       <use xlink:href="#DMSans24pt-Regular-2e" x="69.299988"/>
       <use xlink:href="#DMSans24pt-Regular-32" x="88.799973"/>
      </g>
     </g>
    </g>
    <g id="ytick_3">
     <g id="line2d_9">
      <g>
       <use xlink:href="#ma7c05ecfab" x="43.409375" y="121.632" style="stroke: #000000; stroke-width: 0.8"/>
      </g>
     </g>
     <g id="text_10">
      <!-- 0.4 -->
      <g transform="translate(21.479688 125.232) scale(0.1 -0.1)">
       <use xlink:href="#DMSans24pt-Regular-30"/>
       <use xlink:href="#DMSans24pt-Regular-2e" x="69.299988"/>
       <use xlink:href="#DMSans24pt-Regular-34" x="88.799973"/>
      </g>
     </g>
    </g>
    <g id="ytick_4">
     <g id="line2d_10">
      <g>
       <use xlink:href="#ma7c05ecfab" x="43.409375" y="88.368" style="stroke: #000000; stroke-width: 0.8"/>
      </g>
     </g>
     <g id="text_11">
      <!-- 0.6 -->
      <g transform="translate(21.229688 91.968) scale(0.1 -0.1)">
       <use xlink:href="#DMSans24pt-Regular-30"/>
       <use xlink:href="#DMSans24pt-Regular-2e" x="69.299988"/>
       <use xlink:href="#DMSans24pt-Regular-36" x="88.799973"/>
      </g>
     </g>
    </g>
    <g id="ytick_5">
     <g id="line2d_11">
      <g>
       <use xlink:href="#ma7c05ecfab" x="43.409375" y="55.104" style="stroke: #000000; stroke-width: 0.8"/>
      </g>
     </g>
     <g id="text_12">
      <!-- 0.8 -->
      <g transform="translate(21.429688 58.704) scale(0.1 -0.1)">
       <use xlink:href="#DMSans24pt-Regular-30"/>
       <use xlink:href="#DMSans24pt-Regular-2e" x="69.299988"/>
       <use xlink:href="#DMSans24pt-Regular-38" x="88.799973"/>
      </g>
     </g>
    </g>
    <g id="ytick_6">
     <g id="line2d_12">
      <g>
       <use xlink:href="#ma7c05ecfab" x="43.409375" y="21.84" style="stroke: #000000; stroke-width: 0.8"/>
      </g>
     </g>
     <g id="text_13">
      <!-- 1.0 -->
      <g transform="translate(24.509375 25.44) scale(0.1 -0.1)">
       <use xlink:href="#DMSans24pt-Regular-31"/>
       <use xlink:href="#DMSans24pt-Regular-2e" x="30.199997"/>
       <use xlink:href="#DMSans24pt-Regular-30" x="49.699982"/>
      </g>
     </g>
    </g>
    <g id="text_14">
     <!-- Perceptual Similarity -->
     <g transform="translate(14.4 152.632031) rotate(-90) scale(0.1 -0.1)">
      <defs>
       <path id="DMSans24pt-Regular-50" d="M 474 0 
L 474 4480 
L 1946 4480 
Q 2470 4480 2809 4307 
Q 3149 4134 3312 3840 
Q 3475 3546 3475 3174 
Q 3475 2810 3315 2515 
Q 3155 2221 2816 2045 
Q 2477 1869 1946 1869 
L 1011 1869 
L 1011 0 
L 474 0 
z
M 1011 2323 
L 1933 2323 
Q 2464 2323 2694 2553 
Q 2925 2784 2925 3174 
Q 2925 3584 2694 3808 
Q 2464 4032 1933 4032 
L 1011 4032 
L 1011 2323 
z
" transform="scale(0.015625)"/>
       <path id="DMSans24pt-Regular-70" d="M 442 -1408 
L 442 3174 
L 928 3174 
L 979 2650 
Q 1133 2880 1417 3065 
Q 1702 3251 2144 3251 
Q 2618 3251 2970 3033 
Q 3322 2816 3517 2438 
Q 3712 2061 3712 1581 
Q 3712 1101 3517 726 
Q 3322 352 2966 137 
Q 2611 -77 2138 -77 
Q 1747 -77 1446 83 
Q 1146 243 979 531 
L 979 -1408 
L 442 -1408 
z
M 2080 390 
Q 2400 390 2646 540 
Q 2893 691 3030 960 
Q 3168 1229 3168 1587 
Q 3168 1946 3030 2214 
Q 2893 2483 2646 2633 
Q 2400 2784 2080 2784 
Q 1760 2784 1513 2633 
Q 1267 2483 1129 2214 
Q 992 1946 992 1587 
Q 992 1229 1129 960 
Q 1267 691 1513 540 
Q 1760 390 2080 390 
z
" transform="scale(0.015625)"/>
       <path id="DMSans24pt-Regular-75" d="M 1600 -77 
Q 1037 -77 704 265 
Q 371 608 371 1318 
L 371 3174 
L 909 3174 
L 909 1376 
Q 909 384 1722 384 
Q 2138 384 2410 681 
Q 2682 979 2682 1530 
L 2682 3174 
L 3219 3174 
L 3219 0 
L 2733 0 
L 2701 570 
Q 2547 269 2256 96 
Q 1965 -77 1600 -77 
z
" transform="scale(0.015625)"/>
       <path id="DMSans24pt-Regular-6c" d="M 442 0 
L 442 4608 
L 979 4608 
L 979 0 
L 442 0 
z
" transform="scale(0.015625)"/>
       <path id="DMSans24pt-Regular-6d" d="M 442 0 
L 442 3174 
L 928 3174 
L 966 2714 
Q 1120 2970 1376 3110 
Q 1632 3251 1952 3251 
Q 2323 3251 2598 3097 
Q 2874 2944 3021 2630 
Q 3187 2925 3481 3088 
Q 3776 3251 4109 3251 
Q 4678 3251 5017 2908 
Q 5357 2566 5357 1856 
L 5357 0 
L 4826 0 
L 4826 1798 
Q 4826 2291 4627 2540 
Q 4429 2790 4058 2790 
Q 3674 2790 3421 2492 
Q 3168 2195 3168 1645 
L 3168 0 
L 2630 0 
L 2630 1798 
Q 2630 2291 2432 2540 
Q 2234 2790 1862 2790 
Q 1485 2790 1232 2492 
Q 979 2195 979 1645 
L 979 0 
L 442 0 
z
" transform="scale(0.015625)"/>
       <path id="DMSans24pt-Regular-79" d="M 787 -1408 
L 1581 358 
L 1395 358 
L 128 3174 
L 710 3174 
L 1766 755 
L 2874 3174 
L 3430 3174 
L 1350 -1408 
L 787 -1408 
z
" transform="scale(0.015625)"/>
      </defs>
      <use xlink:href="#DMSans24pt-Regular-50"/>
      <use xlink:href="#DMSans24pt-Regular-65" x="57.899994"/>
      <use xlink:href="#DMSans24pt-Regular-72" x="114.799988"/>
      <use xlink:href="#DMSans24pt-Regular-63" x="151.099976"/>
      <use xlink:href="#DMSans24pt-Regular-65" x="208.09996"/>
      <use xlink:href="#DMSans24pt-Regular-70" x="264.999954"/>
      <use xlink:href="#DMSans24pt-Regular-74" x="327.799942"/>
      <use xlink:href="#DMSans24pt-Regular-75" x="366.499939"/>
      <use xlink:href="#DMSans24pt-Regular-61" x="423.699936"/>
      <use xlink:href="#DMSans24pt-Regular-6c" x="477.899933"/>
      <use xlink:href="#DMSans24pt-Regular-20" x="500.09993"/>
      <use xlink:href="#DMSans24pt-Regular-53" x="526.599915"/>
      <use xlink:href="#DMSans24pt-Regular-69" x="584.399902"/>
      <use xlink:href="#DMSans24pt-Regular-6d" x="608.299896"/>
      <use xlink:href="#DMSans24pt-Regular-69" x="697.799881"/>
      <use xlink:href="#DMSans24pt-Regular-6c" x="721.699875"/>
      <use xlink:href="#DMSans24pt-Regular-61" x="743.899872"/>
      <use xlink:href="#DMSans24pt-Regular-72" x="798.099869"/>
      <use xlink:href="#DMSans24pt-Regular-69" x="834.399857"/>
      <use xlink:href="#DMSans24pt-Regular-74" x="858.29985"/>
      <use xlink:href="#DMSans24pt-Regular-79" x="896.999847"/>
     </g>
    </g>
   </g>
   <g id="patch_3">
    <path d="M 43.409375 188.16 
L 43.409375 21.84 
" style="fill: none; stroke: #000000; stroke-width: 0.8; stroke-linejoin: miter; stroke-linecap: square"/>
   </g>
   <g id="patch_4">
    <path d="M 209.729375 188.16 
L 209.729375 21.84 
" style="fill: none; stroke: #000000; stroke-width: 0.8; stroke-linejoin: miter; stroke-linecap: square"/>
   </g>
   <g id="patch_5">
    <path d="M 43.409375 188.16 
L 209.729375 188.16 
" style="fill: none; stroke: #000000; stroke-width: 0.8; stroke-linejoin: miter; stroke-linecap: square"/>
   </g>
   <g id="patch_6">
    <path d="M 43.409375 21.84 
L 209.729375 21.84 
" style="fill: none; stroke: #000000; stroke-width: 0.8; stroke-linejoin: miter; stroke-linecap: square"/>
   </g>
   <g id="text_15">
    <g id="patch_7">
     <path d="M 105.937375 109 
L 146.237375 109 
L 146.237375 91.6 
L 105.937375 91.6 
z
" style="fill: #ffffff; opacity: 0.5; stroke: #000000; stroke-linejoin: miter"/>
    </g>
    <!-- $\rho$: 0.49 -->
    <g transform="translate(109.937375 102.8) scale(0.1 -0.1)">
     <defs>
      <path id="DejaVuSans-Oblique-3c1" d="M 1203 2875 
Q 1453 3194 1981 3475 
Q 2188 3584 2756 3584 
Q 3394 3584 3694 3078 
Q 3994 2572 3834 1747 
Q 3672 922 3175 415 
Q 2678 -91 2041 -91 
Q 1656 -91 1409 63 
Q 1163 213 1044 525 
L 681 -1331 
L 103 -1331 
L 697 1716 
Q 838 2438 1203 2875 
z
M 3238 1747 
Q 3359 2381 3169 2744 
Q 2978 3103 2522 3103 
Q 2066 3103 1734 2744 
Q 1403 2381 1281 1747 
Q 1156 1113 1347 750 
Q 1538 391 1994 391 
Q 2450 391 2781 750 
Q 3113 1113 3238 1747 
z
" transform="scale(0.015625)"/>
      <path id="DMSans24pt-Regular-3a" d="M 627 -32 
Q 467 -32 361 73 
Q 256 179 256 333 
Q 256 486 361 592 
Q 467 698 627 698 
Q 787 698 889 592 
Q 992 486 992 333 
Q 992 179 889 73 
Q 787 -32 627 -32 
z
M 627 2528 
Q 467 2528 361 2633 
Q 256 2739 256 2893 
Q 256 3046 361 3152 
Q 467 3258 627 3258 
Q 787 3258 889 3152 
Q 992 3046 992 2893 
Q 992 2739 889 2633 
Q 787 2528 627 2528 
z
" transform="scale(0.015625)"/>
      <path id="DMSans24pt-Regular-39" d="M 1952 -77 
Q 1530 -77 1229 89 
Q 928 256 752 537 
Q 576 819 538 1152 
L 1037 1152 
Q 1101 787 1344 588 
Q 1587 390 1958 390 
Q 2464 390 2803 854 
Q 3142 1318 3174 2304 
L 3174 2355 
Q 3021 2061 2685 1837 
Q 2349 1613 1875 1613 
Q 1498 1613 1158 1792 
Q 819 1971 608 2294 
Q 397 2618 397 3053 
Q 397 3430 582 3776 
Q 768 4122 1117 4339 
Q 1466 4557 1946 4557 
Q 2432 4557 2765 4374 
Q 3098 4192 3299 3885 
Q 3501 3578 3593 3197 
Q 3686 2816 3686 2419 
Q 3686 1683 3481 1120 
Q 3277 557 2889 240 
Q 2502 -77 1952 -77 
z
M 1984 2080 
Q 2285 2080 2521 2217 
Q 2758 2355 2899 2585 
Q 3040 2816 3040 3085 
Q 3040 3373 2899 3600 
Q 2758 3827 2521 3955 
Q 2285 4083 1984 4083 
Q 1683 4083 1446 3952 
Q 1210 3821 1075 3597 
Q 941 3373 941 3078 
Q 941 2630 1238 2355 
Q 1536 2080 1984 2080 
z
" transform="scale(0.015625)"/>
     </defs>
     <use xlink:href="#DejaVuSans-Oblique-3c1" transform="translate(0 0.796875)"/>
     <use xlink:href="#DMSans24pt-Regular-3a" transform="translate(63.476562 0.796875)"/>
     <use xlink:href="#DMSans24pt-Regular-20" transform="translate(83.376556 0.796875)"/>
     <use xlink:href="#DMSans24pt-Regular-30" transform="translate(109.876541 0.796875)"/>
     <use xlink:href="#DMSans24pt-Regular-2e" transform="translate(179.176529 0.796875)"/>
     <use xlink:href="#DMSans24pt-Regular-34" transform="translate(198.676514 0.796875)"/>
     <use xlink:href="#DMSans24pt-Regular-39" transform="translate(259.176498 0.796875)"/>
    </g>
   </g>
   <g id="text_16">
    <!-- Single Molecule Perceptual Similarity -->
    <g transform="translate(24.858125 15.84) scale(0.12 -0.12)">
     <defs>
      <path id="DMSans24pt-Regular-67" d="M 1696 998 
Q 1427 998 1210 1069 
L 883 768 
Q 954 717 1059 681 
Q 1165 646 1363 617 
Q 1562 589 1920 557 
Q 2566 512 2838 262 
Q 3110 13 3110 -390 
Q 3110 -666 2960 -915 
Q 2810 -1165 2499 -1325 
Q 2189 -1485 1702 -1485 
Q 1056 -1485 646 -1229 
Q 237 -973 237 -461 
Q 237 -282 333 -74 
Q 429 134 691 320 
Q 550 378 451 448 
Q 352 518 269 595 
L 269 742 
L 813 1286 
Q 435 1600 435 2125 
Q 435 2438 582 2691 
Q 730 2944 1011 3097 
Q 1293 3251 1696 3251 
Q 1965 3251 2195 3174 
L 3366 3174 
L 3366 2771 
L 2778 2746 
Q 2957 2477 2957 2125 
Q 2957 1811 2809 1555 
Q 2662 1299 2380 1148 
Q 2099 998 1696 998 
z
M 1696 1440 
Q 2035 1440 2236 1616 
Q 2438 1792 2438 2125 
Q 2438 2451 2236 2627 
Q 2035 2803 1696 2803 
Q 1357 2803 1152 2627 
Q 947 2451 947 2125 
Q 947 1792 1152 1616 
Q 1357 1440 1696 1440 
z
M 762 -410 
Q 762 -730 1027 -886 
Q 1293 -1043 1702 -1043 
Q 2099 -1043 2339 -870 
Q 2579 -698 2579 -410 
Q 2579 -205 2416 -54 
Q 2253 96 1798 122 
Q 1446 141 1190 186 
Q 928 45 845 -115 
Q 762 -275 762 -410 
z
" transform="scale(0.015625)"/>
      <path id="DMSans24pt-Regular-4d" d="M 474 0 
L 474 4480 
L 1101 4480 
L 2707 1357 
L 4314 4480 
L 4947 4480 
L 4947 0 
L 4410 0 
L 4410 3520 
L 2912 640 
L 2509 640 
L 1011 3514 
L 1011 0 
L 474 0 
z
" transform="scale(0.015625)"/>
      <path id="DMSans24pt-Regular-6f" d="M 1888 -77 
Q 1440 -77 1081 128 
Q 723 333 515 707 
Q 307 1082 307 1587 
Q 307 2093 518 2467 
Q 730 2842 1091 3046 
Q 1453 3251 1901 3251 
Q 2349 3251 2707 3046 
Q 3066 2842 3274 2467 
Q 3482 2093 3482 1587 
Q 3482 1082 3270 707 
Q 3059 333 2697 128 
Q 2336 -77 1888 -77 
z
M 1888 384 
Q 2163 384 2400 518 
Q 2637 653 2784 921 
Q 2931 1190 2931 1587 
Q 2931 1990 2787 2256 
Q 2643 2522 2406 2656 
Q 2170 2790 1901 2790 
Q 1632 2790 1392 2656 
Q 1152 2522 1005 2256 
Q 858 1990 858 1587 
Q 858 1190 1005 921 
Q 1152 653 1385 518 
Q 1619 384 1888 384 
z
" transform="scale(0.015625)"/>
     </defs>
     <use xlink:href="#DMSans24pt-Regular-53"/>
     <use xlink:href="#DMSans24pt-Regular-69" x="57.799988"/>
     <use xlink:href="#DMSans24pt-Regular-6e" x="81.699982"/>
     <use xlink:href="#DMSans24pt-Regular-67" x="138.899979"/>
     <use xlink:href="#DMSans24pt-Regular-6c" x="194.099976"/>
     <use xlink:href="#DMSans24pt-Regular-65" x="216.299973"/>
     <use xlink:href="#DMSans24pt-Regular-20" x="273.199966"/>
     <use xlink:href="#DMSans24pt-Regular-4d" x="299.699951"/>
     <use xlink:href="#DMSans24pt-Regular-6f" x="384.399933"/>
     <use xlink:href="#DMSans24pt-Regular-6c" x="443.59993"/>
     <use xlink:href="#DMSans24pt-Regular-65" x="465.799927"/>
     <use xlink:href="#DMSans24pt-Regular-63" x="522.699921"/>
     <use xlink:href="#DMSans24pt-Regular-75" x="579.699905"/>
     <use xlink:href="#DMSans24pt-Regular-6c" x="636.899902"/>
     <use xlink:href="#DMSans24pt-Regular-65" x="659.099899"/>
     <use xlink:href="#DMSans24pt-Regular-20" x="715.999893"/>
     <use xlink:href="#DMSans24pt-Regular-50" x="742.499878"/>
     <use xlink:href="#DMSans24pt-Regular-65" x="800.399872"/>
     <use xlink:href="#DMSans24pt-Regular-72" x="857.299866"/>
     <use xlink:href="#DMSans24pt-Regular-63" x="893.599854"/>
     <use xlink:href="#DMSans24pt-Regular-65" x="950.599838"/>
     <use xlink:href="#DMSans24pt-Regular-70" x="1007.499832"/>
     <use xlink:href="#DMSans24pt-Regular-74" x="1070.29982"/>
     <use xlink:href="#DMSans24pt-Regular-75" x="1108.999817"/>
     <use xlink:href="#DMSans24pt-Regular-61" x="1166.199814"/>
     <use xlink:href="#DMSans24pt-Regular-6c" x="1220.399811"/>
     <use xlink:href="#DMSans24pt-Regular-20" x="1242.599808"/>
     <use xlink:href="#DMSans24pt-Regular-53" x="1269.099792"/>
     <use xlink:href="#DMSans24pt-Regular-69" x="1326.89978"/>
     <use xlink:href="#DMSans24pt-Regular-6d" x="1350.799774"/>
     <use xlink:href="#DMSans24pt-Regular-69" x="1440.299759"/>
     <use xlink:href="#DMSans24pt-Regular-6c" x="1464.199753"/>
     <use xlink:href="#DMSans24pt-Regular-61" x="1486.39975"/>
     <use xlink:href="#DMSans24pt-Regular-72" x="1540.599747"/>
     <use xlink:href="#DMSans24pt-Regular-69" x="1576.899734"/>
     <use xlink:href="#DMSans24pt-Regular-74" x="1600.799728"/>
     <use xlink:href="#DMSans24pt-Regular-79" x="1639.499725"/>
    </g>
   </g>
  </g>
  <g id="axes_2">
   <g id="patch_8">
    <path d="M 268.605739 188.16 
L 471.51483 188.16 
L 471.51483 21.84 
L 268.605739 21.84 
L 268.605739 188.16 
z
" style="fill: none"/>
   </g>
   <g id="PatchCollection_1">
    <path d="M 293.810852 180.6 
L 294.127898 180.6 
L 294.127898 180.6 
L 293.810852 180.6 
z
" clip-path="url(#p9a13e9b1c0)" style="fill: #c5d7e2; stroke: #303030; stroke-width: 0.75"/>
    <path d="M 293.65233 180.6 
L 294.28642 180.6 
L 294.28642 180.6 
L 293.65233 180.6 
z
" clip-path="url(#p9a13e9b1c0)" style="fill: #b9d0dd; stroke: #303030; stroke-width: 0.75"/>
    <path d="M 293.335284 180.6 
L 294.603466 180.6 
L 294.603466 180.6 
L 293.335284 180.6 
z
" clip-path="url(#p9a13e9b1c0)" style="fill: #abc7d7; stroke: #303030; stroke-width: 0.75"/>
    <path d="M 292.701193 180.6 
L 295.237557 180.6 
L 295.237557 175.209659 
L 292.701193 175.209659 
z
" clip-path="url(#p9a13e9b1c0)" style="fill: #9abcd0; stroke: #303030; stroke-width: 0.75"/>
    <path d="M 291.433011 175.209659 
L 296.505739 175.209659 
L 296.505739 165.021978 
L 291.433011 165.021978 
z
" clip-path="url(#p9a13e9b1c0)" style="fill: #83aec7; stroke: #303030; stroke-width: 0.75"/>
    <path d="M 288.896648 165.021978 
L 299.042102 165.021978 
L 299.042102 157.919468 
L 288.896648 157.919468 
z
" clip-path="url(#p9a13e9b1c0)" style="fill: #679dbc; stroke: #303030; stroke-width: 0.75"/>
    <path d="M 283.82392 157.919468 
L 304.11483 157.919468 
L 304.11483 149.737718 
L 283.82392 149.737718 
z
" clip-path="url(#p9a13e9b1c0)" style="fill: #4388ae; stroke: #303030; stroke-width: 0.75"/>
    <path d="M 273.678466 149.737718 
L 314.260284 149.737718 
L 314.260284 108.716764 
L 273.678466 108.716764 
z
" clip-path="url(#p9a13e9b1c0)" style="fill: #176d9c; stroke: #303030; stroke-width: 0.75"/>
    <path d="M 283.82392 108.716764 
L 304.11483 108.716764 
L 304.11483 96.888693 
L 283.82392 96.888693 
z
" clip-path="url(#p9a13e9b1c0)" style="fill: #4388ae; stroke: #303030; stroke-width: 0.75"/>
    <path d="M 288.896648 96.888693 
L 299.042102 96.888693 
L 299.042102 90.235485 
L 288.896648 90.235485 
z
" clip-path="url(#p9a13e9b1c0)" style="fill: #679dbc; stroke: #303030; stroke-width: 0.75"/>
    <path d="M 291.433011 90.235485 
L 296.505739 90.235485 
L 296.505739 85.289112 
L 291.433011 85.289112 
z
" clip-path="url(#p9a13e9b1c0)" style="fill: #83aec7; stroke: #303030; stroke-width: 0.75"/>
    <path d="M 292.701193 85.289112 
L 295.237557 85.289112 
L 295.237557 81.262489 
L 292.701193 81.262489 
z
" clip-path="url(#p9a13e9b1c0)" style="fill: #9abcd0; stroke: #303030; stroke-width: 0.75"/>
    <path d="M 293.335284 81.262489 
L 294.603466 81.262489 
L 294.603466 77.810156 
L 293.335284 77.810156 
z
" clip-path="url(#p9a13e9b1c0)" style="fill: #abc7d7; stroke: #303030; stroke-width: 0.75"/>
    <path d="M 293.65233 77.810156 
L 294.28642 77.810156 
L 294.28642 75.377261 
L 293.65233 75.377261 
z
" clip-path="url(#p9a13e9b1c0)" style="fill: #b9d0dd; stroke: #303030; stroke-width: 0.75"/>
    <path d="M 293.810852 75.377261 
L 294.127898 75.377261 
L 294.127898 74.234734 
L 293.810852 74.234734 
z
" clip-path="url(#p9a13e9b1c0)" style="fill: #c5d7e2; stroke: #303030; stroke-width: 0.75"/>
   </g>
   <g id="PathCollection_2">
    <defs>
     <path id="C0_0_f1848ec103" d="M 0 2.5 
C 0.663008 2.5 1.29895 2.236584 1.767767 1.767767 
C 2.236584 1.29895 2.5 0.663008 2.5 -0 
C 2.5 -0.663008 2.236584 -1.29895 1.767767 -1.767767 
C 1.29895 -2.236584 0.663008 -2.5 0 -2.5 
C -0.663008 -2.5 -1.29895 -2.236584 -1.767767 -1.767767 
C -2.236584 -1.29895 -2.5 -0.663008 -2.5 0 
C -2.5 0.663008 -2.236584 1.29895 -1.767767 1.767767 
C -1.29895 2.236584 -0.663008 2.5 0 2.5 
z
"/>
    </defs>
    <g clip-path="url(#p9a13e9b1c0)">
     <use xlink:href="#C0_0_f1848ec103" x="293.969375" y="65.476486" style="fill: none; stroke: #737373"/>
    </g>
    <g clip-path="url(#p9a13e9b1c0)">
     <use xlink:href="#C0_0_f1848ec103" x="293.969375" y="65.476486" style="fill: none; stroke: #737373"/>
    </g>
    <g clip-path="url(#p9a13e9b1c0)">
     <use xlink:href="#C0_0_f1848ec103" x="293.969375" y="73.999205" style="fill: none; stroke: #737373"/>
    </g>
    <g clip-path="url(#p9a13e9b1c0)">
     <use xlink:href="#C0_0_f1848ec103" x="293.969375" y="73.53541" style="fill: none; stroke: #737373"/>
    </g>
    <g clip-path="url(#p9a13e9b1c0)">
     <use xlink:href="#C0_0_f1848ec103" x="293.969375" y="73.999205" style="fill: none; stroke: #737373"/>
    </g>
    <g clip-path="url(#p9a13e9b1c0)">
     <use xlink:href="#C0_0_f1848ec103" x="293.969375" y="73.53541" style="fill: none; stroke: #737373"/>
    </g>
   </g>
   <g id="PatchCollection_2">
    <path d="M 344.538125 180.6 
L 344.85517 180.6 
L 344.85517 180.6 
L 344.538125 180.6 
z
" clip-path="url(#p9a13e9b1c0)" style="fill: #e9dcc6; stroke: #303030; stroke-width: 0.75"/>
    <path d="M 344.379602 180.6 
L 345.013693 180.6 
L 345.013693 180.6 
L 344.379602 180.6 
z
" clip-path="url(#p9a13e9b1c0)" style="fill: #e7d6ba; stroke: #303030; stroke-width: 0.75"/>
    <path d="M 344.062557 180.6 
L 345.330739 180.6 
L 345.330739 180.6 
L 344.062557 180.6 
z
" clip-path="url(#p9a13e9b1c0)" style="fill: #e4cfae; stroke: #303030; stroke-width: 0.75"/>
    <path d="M 343.428466 180.6 
L 345.96483 180.6 
L 345.96483 135.764078 
L 343.428466 135.764078 
z
" clip-path="url(#p9a13e9b1c0)" style="fill: #e0c79d; stroke: #303030; stroke-width: 0.75"/>
    <path d="M 342.160284 135.764078 
L 347.233011 135.764078 
L 347.233011 124.02902 
L 342.160284 124.02902 
z
" clip-path="url(#p9a13e9b1c0)" style="fill: #dbbc87; stroke: #303030; stroke-width: 0.75"/>
    <path d="M 339.62392 124.02902 
L 349.769375 124.02902 
L 349.769375 114.145729 
L 339.62392 114.145729 
z
" clip-path="url(#p9a13e9b1c0)" style="fill: #d5ae6c; stroke: #303030; stroke-width: 0.75"/>
    <path d="M 334.551193 114.145729 
L 354.842102 114.145729 
L 354.842102 104.540087 
L 334.551193 104.540087 
z
" clip-path="url(#p9a13e9b1c0)" style="fill: #cd9d4a; stroke: #303030; stroke-width: 0.75"/>
    <path d="M 324.405739 104.540087 
L 364.987557 104.540087 
L 364.987557 84.759083 
L 324.405739 84.759083 
z
" clip-path="url(#p9a13e9b1c0)" style="fill: #c38820; stroke: #303030; stroke-width: 0.75"/>
    <path d="M 334.551193 84.759083 
L 354.842102 84.759083 
L 354.842102 80.523987 
L 334.551193 80.523987 
z
" clip-path="url(#p9a13e9b1c0)" style="fill: #cd9d4a; stroke: #303030; stroke-width: 0.75"/>
    <path d="M 339.62392 80.523987 
L 349.769375 80.523987 
L 349.769375 78.269346 
L 339.62392 78.269346 
z
" clip-path="url(#p9a13e9b1c0)" style="fill: #d5ae6c; stroke: #303030; stroke-width: 0.75"/>
    <path d="M 342.160284 78.269346 
L 347.233011 78.269346 
L 347.233011 76.361528 
L 342.160284 76.361528 
z
" clip-path="url(#p9a13e9b1c0)" style="fill: #dbbc87; stroke: #303030; stroke-width: 0.75"/>
    <path d="M 343.428466 76.361528 
L 345.96483 76.361528 
L 345.96483 74.921696 
L 343.428466 74.921696 
z
" clip-path="url(#p9a13e9b1c0)" style="fill: #e0c79d; stroke: #303030; stroke-width: 0.75"/>
    <path d="M 344.062557 74.921696 
L 345.330739 74.921696 
L 345.330739 73.615922 
L 344.062557 73.615922 
z
" clip-path="url(#p9a13e9b1c0)" style="fill: #e4cfae; stroke: #303030; stroke-width: 0.75"/>
    <path d="M 344.379602 73.615922 
L 345.013693 73.615922 
L 345.013693 72.602648 
L 344.379602 72.602648 
z
" clip-path="url(#p9a13e9b1c0)" style="fill: #e7d6ba; stroke: #303030; stroke-width: 0.75"/>
    <path d="M 344.538125 72.602648 
L 344.85517 72.602648 
L 344.85517 71.840218 
L 344.538125 71.840218 
z
" clip-path="url(#p9a13e9b1c0)" style="fill: #e9dcc6; stroke: #303030; stroke-width: 0.75"/>
   </g>
   <g id="PathCollection_3">
    <defs>
     <path id="C1_0_fda44a14d9" d="M 0 2.5 
C 0.663008 2.5 1.29895 2.236584 1.767767 1.767767 
C 2.236584 1.29895 2.5 0.663008 2.5 -0 
C 2.5 -0.663008 2.236584 -1.29895 1.767767 -1.767767 
C 1.29895 -2.236584 0.663008 -2.5 0 -2.5 
C -0.663008 -2.5 -1.29895 -2.236584 -1.767767 -1.767767 
C -2.236584 -1.29895 -2.5 -0.663008 -2.5 0 
C -2.5 0.663008 -2.236584 1.29895 -1.767767 1.767767 
C -1.29895 2.236584 -0.663008 2.5 0 2.5 
z
"/>
    </defs>
    <g clip-path="url(#p9a13e9b1c0)">
     <use xlink:href="#C1_0_fda44a14d9" x="344.696648" y="70.215163" style="fill: none; stroke: #737373"/>
    </g>
    <g clip-path="url(#p9a13e9b1c0)">
     <use xlink:href="#C1_0_fda44a14d9" x="344.696648" y="71.422692" style="fill: none; stroke: #737373"/>
    </g>
    <g clip-path="url(#p9a13e9b1c0)">
     <use xlink:href="#C1_0_fda44a14d9" x="344.696648" y="71.422692" style="fill: none; stroke: #737373"/>
    </g>
    <g clip-path="url(#p9a13e9b1c0)">
     <use xlink:href="#C1_0_fda44a14d9" x="344.696648" y="70.215163" style="fill: none; stroke: #737373"/>
    </g>
    <g clip-path="url(#p9a13e9b1c0)">
     <use xlink:href="#C1_0_fda44a14d9" x="344.696648" y="70.215163" style="fill: none; stroke: #737373"/>
    </g>
    <g clip-path="url(#p9a13e9b1c0)">
     <use xlink:href="#C1_0_fda44a14d9" x="344.696648" y="70.215163" style="fill: none; stroke: #737373"/>
    </g>
   </g>
   <g id="PatchCollection_3">
    <path d="M 395.265398 180.6 
L 395.582443 180.6 
L 395.582443 180.6 
L 395.265398 180.6 
z
" clip-path="url(#p9a13e9b1c0)" style="fill: #c0ded5; stroke: #303030; stroke-width: 0.75"/>
    <path d="M 395.106875 180.6 
L 395.740966 180.6 
L 395.740966 180.6 
L 395.106875 180.6 
z
" clip-path="url(#p9a13e9b1c0)" style="fill: #b4d9cd; stroke: #303030; stroke-width: 0.75"/>
    <path d="M 394.78983 180.6 
L 396.058011 180.6 
L 396.058011 180.6 
L 394.78983 180.6 
z
" clip-path="url(#p9a13e9b1c0)" style="fill: #a7d2c5; stroke: #303030; stroke-width: 0.75"/>
    <path d="M 394.155739 180.6 
L 396.692102 180.6 
L 396.692102 169.515865 
L 394.155739 169.515865 
z
" clip-path="url(#p9a13e9b1c0)" style="fill: #96c9ba; stroke: #303030; stroke-width: 0.75"/>
    <path d="M 392.887557 169.515865 
L 397.960284 169.515865 
L 397.960284 153.172212 
L 392.887557 153.172212 
z
" clip-path="url(#p9a13e9b1c0)" style="fill: #7fbeac; stroke: #303030; stroke-width: 0.75"/>
    <path d="M 390.351193 153.172212 
L 400.496648 153.172212 
L 400.496648 142.237993 
L 390.351193 142.237993 
z
" clip-path="url(#p9a13e9b1c0)" style="fill: #64b19b; stroke: #303030; stroke-width: 0.75"/>
    <path d="M 385.278466 142.237993 
L 405.569375 142.237993 
L 405.569375 129.147738 
L 385.278466 129.147738 
z
" clip-path="url(#p9a13e9b1c0)" style="fill: #41a085; stroke: #303030; stroke-width: 0.75"/>
    <path d="M 375.133011 129.147738 
L 415.71483 129.147738 
L 415.71483 78.390173 
L 375.133011 78.390173 
z
" clip-path="url(#p9a13e9b1c0)" style="fill: #158b6a; stroke: #303030; stroke-width: 0.75"/>
    <path d="M 385.278466 78.390173 
L 405.569375 78.390173 
L 405.569375 68.45509 
L 385.278466 68.45509 
z
" clip-path="url(#p9a13e9b1c0)" style="fill: #41a085; stroke: #303030; stroke-width: 0.75"/>
    <path d="M 390.351193 68.45509 
L 400.496648 68.45509 
L 400.496648 60.198043 
L 390.351193 60.198043 
z
" clip-path="url(#p9a13e9b1c0)" style="fill: #64b19b; stroke: #303030; stroke-width: 0.75"/>
    <path d="M 392.887557 60.198043 
L 397.960284 60.198043 
L 397.960284 53.576348 
L 392.887557 53.576348 
z
" clip-path="url(#p9a13e9b1c0)" style="fill: #7fbeac; stroke: #303030; stroke-width: 0.75"/>
    <path d="M 394.155739 53.576348 
L 396.692102 53.576348 
L 396.692102 45.58378 
L 394.155739 45.58378 
z
" clip-path="url(#p9a13e9b1c0)" style="fill: #96c9ba; stroke: #303030; stroke-width: 0.75"/>
    <path d="M 394.78983 45.58378 
L 396.058011 45.58378 
L 396.058011 43.40853 
L 394.78983 43.40853 
z
" clip-path="url(#p9a13e9b1c0)" style="fill: #a7d2c5; stroke: #303030; stroke-width: 0.75"/>
    <path d="M 395.106875 43.40853 
L 395.740966 43.40853 
L 395.740966 41.849115 
L 395.106875 41.849115 
z
" clip-path="url(#p9a13e9b1c0)" style="fill: #b4d9cd; stroke: #303030; stroke-width: 0.75"/>
    <path d="M 395.265398 41.849115 
L 395.582443 41.849115 
L 395.582443 36.933622 
L 395.265398 36.933622 
z
" clip-path="url(#p9a13e9b1c0)" style="fill: #c0ded5; stroke: #303030; stroke-width: 0.75"/>
   </g>
   <g id="PathCollection_4">
    <defs>
     <path id="C2_0_6ed6144e0c" d="M 0 2.5 
C 0.663008 2.5 1.29895 2.236584 1.767767 1.767767 
C 2.236584 1.29895 2.5 0.663008 2.5 -0 
C 2.5 -0.663008 2.236584 -1.29895 1.767767 -1.767767 
C 1.29895 -2.236584 0.663008 -2.5 0 -2.5 
C -0.663008 -2.5 -1.29895 -2.236584 -1.767767 -1.767767 
C -2.236584 -1.29895 -2.5 -0.663008 -2.5 0 
C -2.5 0.663008 -2.236584 1.29895 -1.767767 1.767767 
C -1.29895 2.236584 -0.663008 2.5 0 2.5 
z
"/>
    </defs>
    <g clip-path="url(#p9a13e9b1c0)">
     <use xlink:href="#C2_0_6ed6144e0c" x="395.42392" y="32.465183" style="fill: none; stroke: #737373"/>
    </g>
    <g clip-path="url(#p9a13e9b1c0)">
     <use xlink:href="#C2_0_6ed6144e0c" x="395.42392" y="32.465183" style="fill: none; stroke: #737373"/>
    </g>
    <g clip-path="url(#p9a13e9b1c0)">
     <use xlink:href="#C2_0_6ed6144e0c" x="395.42392" y="34.935119" style="fill: none; stroke: #737373"/>
    </g>
    <g clip-path="url(#p9a13e9b1c0)">
     <use xlink:href="#C2_0_6ed6144e0c" x="395.42392" y="33.621503" style="fill: none; stroke: #737373"/>
    </g>
    <g clip-path="url(#p9a13e9b1c0)">
     <use xlink:href="#C2_0_6ed6144e0c" x="395.42392" y="34.935119" style="fill: none; stroke: #737373"/>
    </g>
    <g clip-path="url(#p9a13e9b1c0)">
     <use xlink:href="#C2_0_6ed6144e0c" x="395.42392" y="33.621503" style="fill: none; stroke: #737373"/>
    </g>
   </g>
   <g id="PatchCollection_4">
    <path d="M 445.99267 180.6 
L 446.309716 180.6 
L 446.309716 180.6 
L 445.99267 180.6 
z
" clip-path="url(#p9a13e9b1c0)" style="fill: #e8d4c6; stroke: #303030; stroke-width: 0.75"/>
    <path d="M 445.834148 180.6 
L 446.468239 180.6 
L 446.468239 180.6 
L 445.834148 180.6 
z
" clip-path="url(#p9a13e9b1c0)" style="fill: #e5ccba; stroke: #303030; stroke-width: 0.75"/>
    <path d="M 445.517102 180.6 
L 446.785284 180.6 
L 446.785284 180.6 
L 445.517102 180.6 
z
" clip-path="url(#p9a13e9b1c0)" style="fill: #e1c3ad; stroke: #303030; stroke-width: 0.75"/>
    <path d="M 444.883011 180.6 
L 447.419375 180.6 
L 447.419375 170.037427 
L 444.883011 170.037427 
z
" clip-path="url(#p9a13e9b1c0)" style="fill: #dcb79b; stroke: #303030; stroke-width: 0.75"/>
    <path d="M 443.61483 170.037427 
L 448.687557 170.037427 
L 448.687557 152.880505 
L 443.61483 152.880505 
z
" clip-path="url(#p9a13e9b1c0)" style="fill: #d6a885; stroke: #303030; stroke-width: 0.75"/>
    <path d="M 441.078466 152.880505 
L 451.22392 152.880505 
L 451.22392 141.163025 
L 441.078466 141.163025 
z
" clip-path="url(#p9a13e9b1c0)" style="fill: #cf9669; stroke: #303030; stroke-width: 0.75"/>
    <path d="M 436.005739 141.163025 
L 456.296648 141.163025 
L 456.296648 126.483926 
L 436.005739 126.483926 
z
" clip-path="url(#p9a13e9b1c0)" style="fill: #c67e46; stroke: #303030; stroke-width: 0.75"/>
    <path d="M 425.860284 126.483926 
L 466.442102 126.483926 
L 466.442102 78.468039 
L 425.860284 78.468039 
z
" clip-path="url(#p9a13e9b1c0)" style="fill: #ba611b; stroke: #303030; stroke-width: 0.75"/>
    <path d="M 436.005739 78.468039 
L 456.296648 78.468039 
L 456.296648 66.933465 
L 436.005739 66.933465 
z
" clip-path="url(#p9a13e9b1c0)" style="fill: #c67e46; stroke: #303030; stroke-width: 0.75"/>
    <path d="M 441.078466 66.933465 
L 451.22392 66.933465 
L 451.22392 59.831764 
L 441.078466 59.831764 
z
" clip-path="url(#p9a13e9b1c0)" style="fill: #cf9669; stroke: #303030; stroke-width: 0.75"/>
    <path d="M 443.61483 59.831764 
L 448.687557 59.831764 
L 448.687557 50.746266 
L 443.61483 50.746266 
z
" clip-path="url(#p9a13e9b1c0)" style="fill: #d6a885; stroke: #303030; stroke-width: 0.75"/>
    <path d="M 444.883011 50.746266 
L 447.419375 50.746266 
L 447.419375 46.109144 
L 444.883011 46.109144 
z
" clip-path="url(#p9a13e9b1c0)" style="fill: #dcb79b; stroke: #303030; stroke-width: 0.75"/>
    <path d="M 445.517102 46.109144 
L 446.785284 46.109144 
L 446.785284 42.066536 
L 445.517102 42.066536 
z
" clip-path="url(#p9a13e9b1c0)" style="fill: #e1c3ad; stroke: #303030; stroke-width: 0.75"/>
    <path d="M 445.834148 42.066536 
L 446.468239 42.066536 
L 446.468239 38.753593 
L 445.834148 38.753593 
z
" clip-path="url(#p9a13e9b1c0)" style="fill: #e5ccba; stroke: #303030; stroke-width: 0.75"/>
    <path d="M 445.99267 38.753593 
L 446.309716 38.753593 
L 446.309716 32.215887 
L 445.99267 32.215887 
z
" clip-path="url(#p9a13e9b1c0)" style="fill: #e8d4c6; stroke: #303030; stroke-width: 0.75"/>
   </g>
   <g id="PathCollection_5">
    <defs>
     <path id="C3_0_f9f559995f" d="M 0 2.5 
C 0.663008 2.5 1.29895 2.236584 1.767767 1.767767 
C 2.236584 1.29895 2.5 0.663008 2.5 -0 
C 2.5 -0.663008 2.236584 -1.29895 1.767767 -1.767767 
C 1.29895 -2.236584 0.663008 -2.5 0 -2.5 
C -0.663008 -2.5 -1.29895 -2.236584 -1.767767 -1.767767 
C -2.236584 -1.29895 -2.5 -0.663008 -2.5 0 
C -2.5 0.663008 -2.236584 1.29895 -1.767767 1.767767 
C -1.29895 2.236584 -0.663008 2.5 0 2.5 
z
"/>
    </defs>
    <g clip-path="url(#p9a13e9b1c0)">
     <use xlink:href="#C3_0_f9f559995f" x="446.151193" y="30.952352" style="fill: none; stroke: #737373"/>
    </g>
    <g clip-path="url(#p9a13e9b1c0)">
     <use xlink:href="#C3_0_f9f559995f" x="446.151193" y="29.4" style="fill: none; stroke: #737373"/>
    </g>
    <g clip-path="url(#p9a13e9b1c0)">
     <use xlink:href="#C3_0_f9f559995f" x="446.151193" y="31.315275" style="fill: none; stroke: #737373"/>
    </g>
    <g clip-path="url(#p9a13e9b1c0)">
     <use xlink:href="#C3_0_f9f559995f" x="446.151193" y="30.952352" style="fill: none; stroke: #737373"/>
    </g>
    <g clip-path="url(#p9a13e9b1c0)">
     <use xlink:href="#C3_0_f9f559995f" x="446.151193" y="29.4" style="fill: none; stroke: #737373"/>
    </g>
    <g clip-path="url(#p9a13e9b1c0)">
     <use xlink:href="#C3_0_f9f559995f" x="446.151193" y="31.315275" style="fill: none; stroke: #737373"/>
    </g>
   </g>
   <g id="matplotlib.axis_3">
    <g id="xtick_7">
     <g id="line2d_13">
      <g>
       <use xlink:href="#mbcaff193d6" x="293.969375" y="188.16" style="stroke: #000000; stroke-width: 0.8"/>
      </g>
     </g>
     <g id="text_17">
      <!-- CheMix -->
      <g transform="translate(276.743594 202.36) scale(0.1 -0.1)">
       <defs>
        <path id="DMSans24pt-Regular-43" d="M 2438 -77 
Q 1779 -77 1299 214 
Q 819 506 560 1027 
Q 301 1549 301 2240 
Q 301 2931 560 3452 
Q 819 3974 1299 4265 
Q 1779 4557 2438 4557 
Q 3213 4557 3693 4192 
Q 4173 3827 4307 3162 
L 3712 3162 
Q 3610 3578 3296 3830 
Q 2982 4083 2438 4083 
Q 1958 4083 1600 3862 
Q 1242 3642 1046 3229 
Q 851 2816 851 2240 
Q 851 1664 1046 1251 
Q 1242 838 1600 617 
Q 1958 397 2438 397 
Q 2982 397 3296 643 
Q 3610 890 3712 1299 
L 4307 1299 
Q 4173 653 3693 288 
Q 3213 -77 2438 -77 
z
" transform="scale(0.015625)"/>
        <path id="DMSans24pt-Regular-68" d="M 442 0 
L 442 4608 
L 979 4608 
L 979 2630 
Q 1139 2925 1430 3088 
Q 1722 3251 2074 3251 
Q 2624 3251 2957 2908 
Q 3290 2566 3290 1856 
L 3290 0 
L 2758 0 
L 2758 1798 
Q 2758 2790 1958 2790 
Q 1542 2790 1260 2492 
Q 979 2195 979 1645 
L 979 0 
L 442 0 
z
" transform="scale(0.015625)"/>
        <path id="DMSans24pt-Regular-78" d="M 122 0 
L 1222 1587 
L 122 3174 
L 704 3174 
L 1594 1862 
L 2490 3174 
L 3066 3174 
L 1965 1587 
L 3066 0 
L 2490 0 
L 1594 1312 
L 704 0 
L 122 0 
z
" transform="scale(0.015625)"/>
       </defs>
       <use xlink:href="#DMSans24pt-Regular-43"/>
       <use xlink:href="#DMSans24pt-Regular-68" x="71.999985"/>
       <use xlink:href="#DMSans24pt-Regular-65" x="129.199982"/>
       <use xlink:href="#DMSans24pt-Regular-4d" x="186.099976"/>
       <use xlink:href="#DMSans24pt-Regular-69" x="270.799957"/>
       <use xlink:href="#DMSans24pt-Regular-78" x="294.699951"/>
      </g>
     </g>
    </g>
    <g id="xtick_8">
     <g id="line2d_14">
      <g>
       <use xlink:href="#mbcaff193d6" x="344.696648" y="188.16" style="stroke: #000000; stroke-width: 0.8"/>
      </g>
     </g>
     <g id="text_18">
      <!-- CheMix -->
      <g transform="translate(327.470866 202.36) scale(0.1 -0.1)">
       <use xlink:href="#DMSans24pt-Regular-43"/>
       <use xlink:href="#DMSans24pt-Regular-68" x="71.999985"/>
       <use xlink:href="#DMSans24pt-Regular-65" x="129.199982"/>
       <use xlink:href="#DMSans24pt-Regular-4d" x="186.099976"/>
       <use xlink:href="#DMSans24pt-Regular-69" x="270.799957"/>
       <use xlink:href="#DMSans24pt-Regular-78" x="294.699951"/>
      </g>
      <!-- Augmented -->
      <g transform="translate(317.649773 213.2) scale(0.1 -0.1)">
       <defs>
        <path id="DMSans24pt-Regular-41" d="M 192 0 
L 1843 4480 
L 2413 4480 
L 4058 0 
L 3488 0 
L 3078 1152 
L 1171 1152 
L 755 0 
L 192 0 
z
M 2125 3808 
L 1325 1587 
L 2918 1587 
L 2125 3808 
z
" transform="scale(0.015625)"/>
       </defs>
       <use xlink:href="#DMSans24pt-Regular-41"/>
       <use xlink:href="#DMSans24pt-Regular-75" x="66.399994"/>
       <use xlink:href="#DMSans24pt-Regular-67" x="123.599991"/>
       <use xlink:href="#DMSans24pt-Regular-6d" x="178.799988"/>
       <use xlink:href="#DMSans24pt-Regular-65" x="268.299973"/>
       <use xlink:href="#DMSans24pt-Regular-6e" x="325.199966"/>
       <use xlink:href="#DMSans24pt-Regular-74" x="382.399963"/>
       <use xlink:href="#DMSans24pt-Regular-65" x="421.09996"/>
       <use xlink:href="#DMSans24pt-Regular-64" x="477.999954"/>
      </g>
     </g>
    </g>
    <g id="xtick_9">
     <g id="line2d_15">
      <g>
       <use xlink:href="#mbcaff193d6" x="395.42392" y="188.16" style="stroke: #000000; stroke-width: 0.8"/>
      </g>
     </g>
     <g id="text_19">
      <!-- POMMix -->
      <g transform="translate(376.452827 202.36) scale(0.1 -0.1)">
       <defs>
        <path id="DMSans24pt-Regular-4f" d="M 2509 -77 
Q 1850 -77 1354 214 
Q 858 506 579 1027 
Q 301 1549 301 2240 
Q 301 2925 579 3446 
Q 858 3968 1354 4262 
Q 1850 4557 2509 4557 
Q 3174 4557 3670 4262 
Q 4166 3968 4441 3446 
Q 4717 2925 4717 2240 
Q 4717 1549 4441 1027 
Q 4166 506 3670 214 
Q 3174 -77 2509 -77 
z
M 2509 397 
Q 3002 397 3376 617 
Q 3750 838 3958 1251 
Q 4166 1664 4166 2240 
Q 4166 2816 3958 3229 
Q 3750 3642 3376 3859 
Q 3002 4077 2509 4077 
Q 2016 4077 1641 3859 
Q 1267 3642 1059 3229 
Q 851 2816 851 2240 
Q 851 1664 1059 1251 
Q 1267 838 1641 617 
Q 2016 397 2509 397 
z
" transform="scale(0.015625)"/>
       </defs>
       <use xlink:href="#DMSans24pt-Regular-50"/>
       <use xlink:href="#DMSans24pt-Regular-4f" x="57.899994"/>
       <use xlink:href="#DMSans24pt-Regular-4d" x="136.299988"/>
       <use xlink:href="#DMSans24pt-Regular-4d" x="220.999969"/>
       <use xlink:href="#DMSans24pt-Regular-69" x="305.699951"/>
       <use xlink:href="#DMSans24pt-Regular-78" x="329.599945"/>
      </g>
     </g>
    </g>
    <g id="xtick_10">
     <g id="line2d_16">
      <g>
       <use xlink:href="#mbcaff193d6" x="446.151193" y="188.16" style="stroke: #000000; stroke-width: 0.8"/>
      </g>
     </g>
     <g id="text_20">
      <!-- POMMix -->
      <g transform="translate(427.180099 202.36) scale(0.1 -0.1)">
       <use xlink:href="#DMSans24pt-Regular-50"/>
       <use xlink:href="#DMSans24pt-Regular-4f" x="57.899994"/>
       <use xlink:href="#DMSans24pt-Regular-4d" x="136.299988"/>
       <use xlink:href="#DMSans24pt-Regular-4d" x="220.999969"/>
       <use xlink:href="#DMSans24pt-Regular-69" x="305.699951"/>
       <use xlink:href="#DMSans24pt-Regular-78" x="329.599945"/>
      </g>
      <!-- Augmented -->
      <g transform="translate(419.104318 213.2) scale(0.1 -0.1)">
       <use xlink:href="#DMSans24pt-Regular-41"/>
       <use xlink:href="#DMSans24pt-Regular-75" x="66.399994"/>
       <use xlink:href="#DMSans24pt-Regular-67" x="123.599991"/>
       <use xlink:href="#DMSans24pt-Regular-6d" x="178.799988"/>
       <use xlink:href="#DMSans24pt-Regular-65" x="268.299973"/>
       <use xlink:href="#DMSans24pt-Regular-6e" x="325.199966"/>
       <use xlink:href="#DMSans24pt-Regular-74" x="382.399963"/>
       <use xlink:href="#DMSans24pt-Regular-65" x="421.09996"/>
       <use xlink:href="#DMSans24pt-Regular-64" x="477.999954"/>
      </g>
     </g>
    </g>
   </g>
   <g id="matplotlib.axis_4">
    <g id="ytick_7">
     <g id="line2d_17">
      <g>
       <use xlink:href="#ma7c05ecfab" x="268.605739" y="180.6" style="stroke: #000000; stroke-width: 0.8"/>
      </g>
     </g>
     <g id="text_21">
      <!-- 0.00 -->
      <g transform="translate(238.866676 184.2) scale(0.1 -0.1)">
       <use xlink:href="#DMSans24pt-Regular-30"/>
       <use xlink:href="#DMSans24pt-Regular-2e" x="69.299988"/>
       <use xlink:href="#DMSans24pt-Regular-30" x="88.799973"/>
       <use xlink:href="#DMSans24pt-Regular-30" x="158.09996"/>
      </g>
     </g>
    </g>
    <g id="ytick_8">
     <g id="line2d_18">
      <g>
       <use xlink:href="#ma7c05ecfab" x="268.605739" y="157.034147" style="stroke: #000000; stroke-width: 0.8"/>
      </g>
     </g>
     <g id="text_22">
      <!-- 0.25 -->
      <g transform="translate(240.885426 160.634147) scale(0.1 -0.1)">
       <defs>
        <path id="DMSans24pt-Regular-35" d="M 1997 -77 
Q 1536 -77 1197 92 
Q 858 262 659 553 
Q 461 845 410 1210 
L 934 1210 
Q 1011 838 1292 611 
Q 1574 384 2003 384 
Q 2323 384 2553 534 
Q 2784 685 2909 941 
Q 3034 1197 3034 1510 
Q 3034 2010 2755 2317 
Q 2477 2624 2022 2624 
Q 1651 2624 1388 2457 
Q 1126 2291 1005 2022 
L 493 2022 
L 877 4480 
L 3226 4480 
L 3226 4013 
L 1293 4013 
L 1030 2650 
Q 1190 2835 1459 2956 
Q 1728 3078 2080 3078 
Q 2522 3078 2851 2873 
Q 3181 2669 3366 2317 
Q 3552 1965 3552 1517 
Q 3552 1088 3369 723 
Q 3187 358 2838 140 
Q 2490 -77 1997 -77 
z
" transform="scale(0.015625)"/>
       </defs>
       <use xlink:href="#DMSans24pt-Regular-30"/>
       <use xlink:href="#DMSans24pt-Regular-2e" x="69.299988"/>
       <use xlink:href="#DMSans24pt-Regular-32" x="88.799973"/>
       <use xlink:href="#DMSans24pt-Regular-35" x="145.999969"/>
      </g>
     </g>
    </g>
    <g id="ytick_9">
     <g id="line2d_19">
      <g>
       <use xlink:href="#ma7c05ecfab" x="268.605739" y="133.468293" style="stroke: #000000; stroke-width: 0.8"/>
      </g>
     </g>
     <g id="text_23">
      <!-- 0.50 -->
      <g transform="translate(239.676051 137.068293) scale(0.1 -0.1)">
       <use xlink:href="#DMSans24pt-Regular-30"/>
       <use xlink:href="#DMSans24pt-Regular-2e" x="69.299988"/>
       <use xlink:href="#DMSans24pt-Regular-35" x="88.799973"/>
       <use xlink:href="#DMSans24pt-Regular-30" x="149.999969"/>
      </g>
     </g>
    </g>
    <g id="ytick_10">
     <g id="line2d_20">
      <g>
       <use xlink:href="#ma7c05ecfab" x="268.605739" y="109.90244" style="stroke: #000000; stroke-width: 0.8"/>
      </g>
     </g>
     <g id="text_24">
      <!-- 0.75 -->
      <g transform="translate(241.276051 113.50244) scale(0.1 -0.1)">
       <defs>
        <path id="DMSans24pt-Regular-37" d="M 845 0 
L 2624 4019 
L 166 4019 
L 166 4480 
L 3174 4480 
L 3174 4077 
L 1414 0 
L 845 0 
z
" transform="scale(0.015625)"/>
       </defs>
       <use xlink:href="#DMSans24pt-Regular-30"/>
       <use xlink:href="#DMSans24pt-Regular-2e" x="69.299988"/>
       <use xlink:href="#DMSans24pt-Regular-37" x="88.799973"/>
       <use xlink:href="#DMSans24pt-Regular-35" x="142.09996"/>
      </g>
     </g>
    </g>
    <g id="ytick_11">
     <g id="line2d_21">
      <g>
       <use xlink:href="#ma7c05ecfab" x="268.605739" y="86.336587" style="stroke: #000000; stroke-width: 0.8"/>
      </g>
     </g>
     <g id="text_25">
      <!-- 1.00 -->
      <g transform="translate(242.776051 89.936587) scale(0.1 -0.1)">
       <use xlink:href="#DMSans24pt-Regular-31"/>
       <use xlink:href="#DMSans24pt-Regular-2e" x="30.199997"/>
       <use xlink:href="#DMSans24pt-Regular-30" x="49.699982"/>
       <use xlink:href="#DMSans24pt-Regular-30" x="118.999969"/>
      </g>
     </g>
    </g>
    <g id="ytick_12">
     <g id="line2d_22">
      <g>
       <use xlink:href="#ma7c05ecfab" x="268.605739" y="62.770734" style="stroke: #000000; stroke-width: 0.8"/>
      </g>
     </g>
     <g id="text_26">
      <!-- 1.25 -->
      <g transform="translate(244.794801 66.370734) scale(0.1 -0.1)">
       <use xlink:href="#DMSans24pt-Regular-31"/>
       <use xlink:href="#DMSans24pt-Regular-2e" x="30.199997"/>
       <use xlink:href="#DMSans24pt-Regular-32" x="49.699982"/>
       <use xlink:href="#DMSans24pt-Regular-35" x="106.899979"/>
      </g>
     </g>
    </g>
    <g id="ytick_13">
     <g id="line2d_23">
      <g>
       <use xlink:href="#ma7c05ecfab" x="268.605739" y="39.20488" style="stroke: #000000; stroke-width: 0.8"/>
      </g>
     </g>
     <g id="text_27">
      <!-- 1.50 -->
      <g transform="translate(243.585426 42.80488) scale(0.1 -0.1)">
       <use xlink:href="#DMSans24pt-Regular-31"/>
       <use xlink:href="#DMSans24pt-Regular-2e" x="30.199997"/>
       <use xlink:href="#DMSans24pt-Regular-35" x="49.699982"/>
       <use xlink:href="#DMSans24pt-Regular-30" x="110.899979"/>
      </g>
     </g>
    </g>
    <g id="text_28">
     <!-- Pairwise Cosine Distance -->
     <g transform="translate(232.666676 162.913281) rotate(-90) scale(0.1 -0.1)">
      <defs>
       <path id="DMSans24pt-Regular-77" d="M 1082 0 
L 154 3174 
L 691 3174 
L 1363 685 
L 2106 3174 
L 2714 3174 
L 3462 691 
L 4128 3174 
L 4672 3174 
L 3744 0 
L 3194 0 
L 2413 2618 
L 1632 0 
L 1082 0 
z
" transform="scale(0.015625)"/>
      </defs>
      <use xlink:href="#DMSans24pt-Regular-50"/>
      <use xlink:href="#DMSans24pt-Regular-61" x="57.899994"/>
      <use xlink:href="#DMSans24pt-Regular-69" x="112.099991"/>
      <use xlink:href="#DMSans24pt-Regular-72" x="135.999985"/>
      <use xlink:href="#DMSans24pt-Regular-77" x="172.299973"/>
      <use xlink:href="#DMSans24pt-Regular-69" x="247.699966"/>
      <use xlink:href="#DMSans24pt-Regular-73" x="271.59996"/>
      <use xlink:href="#DMSans24pt-Regular-65" x="321.599945"/>
      <use xlink:href="#DMSans24pt-Regular-20" x="378.499939"/>
      <use xlink:href="#DMSans24pt-Regular-43" x="404.999924"/>
      <use xlink:href="#DMSans24pt-Regular-6f" x="476.999908"/>
      <use xlink:href="#DMSans24pt-Regular-73" x="536.199905"/>
      <use xlink:href="#DMSans24pt-Regular-69" x="586.19989"/>
      <use xlink:href="#DMSans24pt-Regular-6e" x="610.099884"/>
      <use xlink:href="#DMSans24pt-Regular-65" x="667.299881"/>
      <use xlink:href="#DMSans24pt-Regular-20" x="724.199875"/>
      <use xlink:href="#DMSans24pt-Regular-44" x="750.69986"/>
      <use xlink:href="#DMSans24pt-Regular-69" x="820.29985"/>
      <use xlink:href="#DMSans24pt-Regular-73" x="844.199844"/>
      <use xlink:href="#DMSans24pt-Regular-74" x="894.199829"/>
      <use xlink:href="#DMSans24pt-Regular-61" x="932.899826"/>
      <use xlink:href="#DMSans24pt-Regular-6e" x="987.099823"/>
      <use xlink:href="#DMSans24pt-Regular-63" x="1044.29982"/>
      <use xlink:href="#DMSans24pt-Regular-65" x="1101.299805"/>
     </g>
    </g>
   </g>
   <g id="line2d_24">
    <path d="M 273.678466 130.682641 
L 314.260284 130.682641 
" clip-path="url(#p9a13e9b1c0)" style="fill: none; stroke: #303030; stroke-width: 0.9375"/>
   </g>
   <g id="line2d_25">
    <path d="M 324.405739 96.201696 
L 364.987557 96.201696 
" clip-path="url(#p9a13e9b1c0)" style="fill: none; stroke: #303030; stroke-width: 0.9375"/>
   </g>
   <g id="line2d_26">
    <path d="M 375.133011 102.872177 
L 415.71483 102.872177 
" clip-path="url(#p9a13e9b1c0)" style="fill: none; stroke: #303030; stroke-width: 0.9375"/>
   </g>
   <g id="line2d_27">
    <path d="M 425.860284 105.044336 
L 466.442102 105.044336 
" clip-path="url(#p9a13e9b1c0)" style="fill: none; stroke: #303030; stroke-width: 0.9375"/>
   </g>
   <g id="patch_9">
    <path d="M 268.605739 188.16 
L 268.605739 21.84 
" style="fill: none; stroke: #000000; stroke-width: 0.8; stroke-linejoin: miter; stroke-linecap: square"/>
   </g>
   <g id="patch_10">
    <path d="M 471.51483 188.16 
L 471.51483 21.84 
" style="fill: none; stroke: #000000; stroke-width: 0.8; stroke-linejoin: miter; stroke-linecap: square"/>
   </g>
   <g id="patch_11">
    <path d="M 268.605739 188.16 
L 471.51483 188.16 
" style="fill: none; stroke: #000000; stroke-width: 0.8; stroke-linejoin: miter; stroke-linecap: square"/>
   </g>
   <g id="patch_12">
    <path d="M 268.605739 21.84 
L 471.51483 21.84 
" style="fill: none; stroke: #000000; stroke-width: 0.8; stroke-linejoin: miter; stroke-linecap: square"/>
   </g>
  </g>
 </g>
 <defs>
  <clipPath id="p6392a4b993">
   <rect x="43.409375" y="21.84" width="166.32" height="166.32"/>
  </clipPath>
  <clipPath id="p9a13e9b1c0">
   <rect x="268.605739" y="21.84" width="202.909091" height="166.32"/>
  </clipPath>
 </defs>
</svg>
