<?xml version="1.0" encoding="utf-8" standalone="no"?>
<!DOCTYPE svg PUBLIC "-//W3C//DTD SVG 1.1//EN"
  "http://www.w3.org/Graphics/SVG/1.1/DTD/svg11.dtd">
<svg xmlns:xlink="http://www.w3.org/1999/xlink" width="640.853125pt" height="205.46pt" viewBox="0 0 640.853125 205.46" xmlns="http://www.w3.org/2000/svg" version="1.1">
 <metadata>
  <rdf:RDF xmlns:dc="http://purl.org/dc/elements/1.1/" xmlns:cc="http://creativecommons.org/ns#" xmlns:rdf="http://www.w3.org/1999/02/22-rdf-syntax-ns#">
   <cc:Work>
    <dc:type rdf:resource="http://purl.org/dc/dcmitype/StillImage"/>
    <dc:date>2024-10-01T22:27:31.412085</dc:date>
    <dc:format>image/svg+xml</dc:format>
    <dc:creator>
     <cc:Agent>
      <dc:title>Matplotlib v3.8.4, https://matplotlib.org/</dc:title>
     </cc:Agent>
    </dc:creator>
   </cc:Work>
  </rdf:RDF>
 </metadata>
 <defs>
  <style type="text/css">*{stroke-linejoin: round; stroke-linecap: butt}</style>
 </defs>
 <g id="figure_1">
  <g id="patch_1">
   <path d="M 0 205.46 
L 640.853125 205.46 
L 640.853125 0 
L 0 0 
L 0 205.46 
z
" style="fill: none"/>
  </g>
  <g id="axes_1">
   <g id="patch_2">
    <path d="M 71.853125 167.56 
L 246.669792 167.56 
L 246.669792 7.2 
L 71.853125 7.2 
L 71.853125 167.56 
z
" style="fill: none"/>
   </g>
   <g id="patch_3">
    <path d="M 71.853125 14.489091 
L 154.113782 14.489091 
L 154.113782 38.786061 
L 71.853125 38.786061 
z
" clip-path="url(#p0bd5cf572d)" style="fill: #dae6f1"/>
   </g>
   <g id="patch_4">
    <path d="M 71.853125 44.860303 
L 171.830969 44.860303 
L 171.830969 69.157273 
L 71.853125 69.157273 
z
" clip-path="url(#p0bd5cf572d)" style="fill: #b3cede"/>
   </g>
   <g id="patch_5">
    <path d="M 71.853125 75.231515 
L 174.365097 75.231515 
L 174.365097 99.528485 
L 71.853125 99.528485 
z
" clip-path="url(#p0bd5cf572d)" style="fill: #78aac8"/>
   </g>
   <g id="patch_6">
    <path d="M 71.853125 105.602727 
L 225.831596 105.602727 
L 225.831596 129.899697 
L 71.853125 129.899697 
z
" clip-path="url(#p0bd5cf572d)" style="fill: #4884af"/>
   </g>
   <g id="patch_7">
    <path d="M 71.853125 135.973939 
L 232.544318 135.973939 
L 232.544318 160.270909 
L 71.853125 160.270909 
z
" clip-path="url(#p0bd5cf572d)" style="fill: #225b91"/>
   </g>
   <g id="matplotlib.axis_1">
    <g id="xtick_1">
     <g id="line2d_1">
      <defs>
       <path id="m4a1d4e9fb4" d="M 0 0 
L 0 3.5 
" style="stroke: #000000; stroke-width: 0.8"/>
      </defs>
      <g>
       <use xlink:href="#m4a1d4e9fb4" x="71.853125" y="167.56" style="stroke: #000000; stroke-width: 0.8"/>
      </g>
     </g>
     <g id="text_1">
      <!-- 0.0 -->
      <g transform="translate(63.948438 181.76) scale(0.1 -0.1)">
       <defs>
        <path id="DMSans24pt-Regular-30" d="M 2221 -77 
Q 1626 -77 1194 214 
Q 762 506 531 1027 
Q 301 1549 301 2240 
Q 301 2931 531 3452 
Q 762 3974 1194 4265 
Q 1626 4557 2221 4557 
Q 2822 4557 3248 4265 
Q 3674 3974 3904 3452 
Q 4134 2931 4134 2240 
Q 4134 1549 3904 1027 
Q 3674 506 3248 214 
Q 2822 -77 2221 -77 
z
M 2221 397 
Q 2618 397 2925 617 
Q 3232 838 3408 1251 
Q 3584 1664 3584 2240 
Q 3584 2816 3408 3229 
Q 3232 3642 2925 3859 
Q 2618 4077 2221 4077 
Q 1824 4077 1513 3859 
Q 1203 3642 1027 3229 
Q 851 2816 851 2240 
Q 851 1664 1027 1251 
Q 1203 838 1513 617 
Q 1824 397 2221 397 
z
" transform="scale(0.015625)"/>
        <path id="DMSans24pt-Regular-2e" d="M 627 -32 
Q 467 -32 361 73 
Q 256 179 256 333 
Q 256 486 361 592 
Q 467 698 627 698 
Q 787 698 889 592 
Q 992 486 992 333 
Q 992 179 889 73 
Q 787 -32 627 -32 
z
" transform="scale(0.015625)"/>
       </defs>
       <use xlink:href="#DMSans24pt-Regular-30"/>
       <use xlink:href="#DMSans24pt-Regular-2e" x="69.299988"/>
       <use xlink:href="#DMSans24pt-Regular-30" x="88.799973"/>
      </g>
     </g>
    </g>
    <g id="xtick_2">
     <g id="line2d_2">
      <g>
       <use xlink:href="#m4a1d4e9fb4" x="113.108549" y="167.56" style="stroke: #000000; stroke-width: 0.8"/>
      </g>
     </g>
     <g id="text_2">
      <!-- 0.2 -->
      <g transform="translate(105.808549 181.76) scale(0.1 -0.1)">
       <defs>
        <path id="DMSans24pt-Regular-32" d="M 403 0 
L 403 378 
Q 858 736 1264 1101 
Q 1670 1466 1987 1827 
Q 2304 2189 2486 2534 
Q 2669 2880 2669 3200 
Q 2669 3437 2589 3638 
Q 2509 3840 2329 3968 
Q 2150 4096 1843 4096 
Q 1549 4096 1350 3965 
Q 1152 3834 1053 3619 
Q 954 3405 954 3149 
L 435 3149 
Q 442 3590 624 3907 
Q 806 4224 1126 4390 
Q 1446 4557 1850 4557 
Q 2445 4557 2825 4221 
Q 3206 3885 3206 3219 
Q 3206 2829 3011 2438 
Q 2816 2048 2505 1686 
Q 2195 1325 1846 1011 
Q 1498 698 1197 448 
L 3360 448 
L 3360 0 
L 403 0 
z
" transform="scale(0.015625)"/>
       </defs>
       <use xlink:href="#DMSans24pt-Regular-30"/>
       <use xlink:href="#DMSans24pt-Regular-2e" x="69.299988"/>
       <use xlink:href="#DMSans24pt-Regular-32" x="88.799973"/>
      </g>
     </g>
    </g>
    <g id="xtick_3">
     <g id="line2d_3">
      <g>
       <use xlink:href="#m4a1d4e9fb4" x="154.363973" y="167.56" style="stroke: #000000; stroke-width: 0.8"/>
      </g>
     </g>
     <g id="text_3">
      <!-- 0.4 -->
      <g transform="translate(146.899129 181.76) scale(0.1 -0.1)">
       <defs>
        <path id="DMSans24pt-Regular-34" d="M 2502 0 
L 2502 960 
L 230 960 
L 230 1376 
L 2406 4480 
L 3034 4480 
L 3034 1434 
L 3699 1434 
L 3699 960 
L 3034 960 
L 3034 0 
L 2502 0 
z
M 826 1434 
L 2528 1434 
L 2528 3885 
L 826 1434 
z
" transform="scale(0.015625)"/>
       </defs>
       <use xlink:href="#DMSans24pt-Regular-30"/>
       <use xlink:href="#DMSans24pt-Regular-2e" x="69.299988"/>
       <use xlink:href="#DMSans24pt-Regular-34" x="88.799973"/>
      </g>
     </g>
    </g>
    <g id="xtick_4">
     <g id="line2d_4">
      <g>
       <use xlink:href="#m4a1d4e9fb4" x="195.619397" y="167.56" style="stroke: #000000; stroke-width: 0.8"/>
      </g>
     </g>
     <g id="text_4">
      <!-- 0.6 -->
      <g transform="translate(188.029553 181.76) scale(0.1 -0.1)">
       <defs>
        <path id="DMSans24pt-Regular-36" d="M 2086 -77 
Q 1600 -77 1267 105 
Q 934 288 732 595 
Q 531 902 438 1283 
Q 346 1664 346 2061 
Q 346 2803 550 3363 
Q 755 3923 1145 4240 
Q 1536 4557 2080 4557 
Q 2502 4557 2806 4390 
Q 3110 4224 3286 3945 
Q 3462 3667 3501 3328 
L 3002 3328 
Q 2938 3693 2694 3891 
Q 2451 4090 2074 4090 
Q 1568 4090 1229 3622 
Q 890 3155 858 2170 
L 858 2125 
Q 1011 2426 1350 2646 
Q 1690 2867 2157 2867 
Q 2541 2867 2877 2688 
Q 3213 2509 3424 2185 
Q 3635 1862 3635 1427 
Q 3635 1050 3449 704 
Q 3264 358 2915 140 
Q 2566 -77 2086 -77 
z
M 2048 397 
Q 2349 397 2585 528 
Q 2822 659 2956 886 
Q 3091 1114 3091 1402 
Q 3091 1856 2796 2128 
Q 2502 2400 2048 2400 
Q 1754 2400 1514 2262 
Q 1274 2125 1136 1897 
Q 998 1670 998 1395 
Q 998 1107 1136 883 
Q 1274 659 1514 528 
Q 1754 397 2048 397 
z
" transform="scale(0.015625)"/>
       </defs>
       <use xlink:href="#DMSans24pt-Regular-30"/>
       <use xlink:href="#DMSans24pt-Regular-2e" x="69.299988"/>
       <use xlink:href="#DMSans24pt-Regular-36" x="88.799973"/>
      </g>
     </g>
    </g>
    <g id="xtick_5">
     <g id="line2d_5">
      <g>
       <use xlink:href="#m4a1d4e9fb4" x="236.874821" y="167.56" style="stroke: #000000; stroke-width: 0.8"/>
      </g>
     </g>
     <g id="text_5">
      <!-- 0.8 -->
      <g transform="translate(229.384977 181.76) scale(0.1 -0.1)">
       <defs>
        <path id="DMSans24pt-Regular-38" d="M 1952 -77 
Q 1510 -77 1161 86 
Q 813 250 608 541 
Q 403 832 403 1216 
Q 403 1626 643 1952 
Q 883 2278 1280 2387 
Q 915 2515 716 2784 
Q 518 3053 518 3366 
Q 518 3699 691 3968 
Q 864 4237 1184 4397 
Q 1504 4557 1952 4557 
Q 2400 4557 2720 4397 
Q 3040 4237 3213 3968 
Q 3386 3699 3386 3366 
Q 3386 3053 3187 2784 
Q 2989 2515 2624 2387 
Q 3021 2278 3261 1952 
Q 3501 1626 3501 1216 
Q 3501 832 3296 541 
Q 3091 250 2742 86 
Q 2394 -77 1952 -77 
z
M 1952 2579 
Q 2362 2579 2602 2790 
Q 2842 3002 2842 3334 
Q 2842 3712 2605 3904 
Q 2368 4096 1952 4096 
Q 1542 4096 1305 3904 
Q 1069 3712 1069 3334 
Q 1069 3002 1305 2790 
Q 1542 2579 1952 2579 
z
M 1952 397 
Q 2464 397 2713 630 
Q 2963 864 2963 1248 
Q 2963 1683 2688 1907 
Q 2413 2131 1952 2131 
Q 1491 2131 1216 1907 
Q 941 1683 941 1248 
Q 941 864 1193 630 
Q 1446 397 1952 397 
z
" transform="scale(0.015625)"/>
       </defs>
       <use xlink:href="#DMSans24pt-Regular-30"/>
       <use xlink:href="#DMSans24pt-Regular-2e" x="69.299988"/>
       <use xlink:href="#DMSans24pt-Regular-38" x="88.799973"/>
      </g>
     </g>
    </g>
    <g id="text_6">
     <!-- Pearson $\rho$ (↑) -->
     <g transform="translate(126.811458 196.06) scale(0.1 -0.1)">
      <defs>
       <path id="DMSans24pt-Regular-50" d="M 474 0 
L 474 4480 
L 1946 4480 
Q 2470 4480 2809 4307 
Q 3149 4134 3312 3840 
Q 3475 3546 3475 3174 
Q 3475 2810 3315 2515 
Q 3155 2221 2816 2045 
Q 2477 1869 1946 1869 
L 1011 1869 
L 1011 0 
L 474 0 
z
M 1011 2323 
L 1933 2323 
Q 2464 2323 2694 2553 
Q 2925 2784 2925 3174 
Q 2925 3584 2694 3808 
Q 2464 4032 1933 4032 
L 1011 4032 
L 1011 2323 
z
" transform="scale(0.015625)"/>
       <path id="DMSans24pt-Regular-65" d="M 1869 -77 
Q 1414 -77 1062 131 
Q 710 339 508 713 
Q 307 1088 307 1587 
Q 307 2093 505 2464 
Q 704 2835 1059 3043 
Q 1414 3251 1882 3251 
Q 2349 3251 2681 3043 
Q 3014 2835 3193 2499 
Q 3373 2163 3373 1766 
Q 3373 1702 3373 1628 
Q 3373 1555 3366 1466 
L 832 1466 
Q 851 1101 1001 861 
Q 1152 621 1382 499 
Q 1613 378 1869 378 
Q 2202 378 2426 531 
Q 2650 685 2752 947 
L 3283 947 
Q 3162 506 2797 214 
Q 2432 -77 1869 -77 
z
M 1869 2797 
Q 1485 2797 1187 2566 
Q 890 2336 838 1882 
L 2842 1882 
Q 2822 2310 2550 2553 
Q 2278 2797 1869 2797 
z
" transform="scale(0.015625)"/>
       <path id="DMSans24pt-Regular-61" d="M 1498 -77 
Q 1101 -77 838 57 
Q 576 192 448 416 
Q 320 640 320 902 
Q 320 1389 691 1651 
Q 1062 1914 1702 1914 
L 2560 1914 
Q 2560 2355 2349 2576 
Q 2138 2797 1760 2797 
Q 1446 2797 1216 2640 
Q 986 2483 934 2182 
L 384 2182 
Q 422 2528 620 2765 
Q 819 3002 1123 3126 
Q 1427 3251 1760 3251 
Q 2426 3251 2762 2896 
Q 3098 2541 3098 1952 
L 3098 0 
L 2618 0 
L 2586 570 
Q 2451 301 2192 112 
Q 1933 -77 1498 -77 
z
M 1581 378 
Q 1894 378 2112 538 
Q 2330 698 2445 954 
Q 2560 1210 2560 1491 
L 2560 1498 
L 1747 1498 
Q 1274 1498 1078 1334 
Q 883 1171 883 928 
Q 883 678 1065 528 
Q 1248 378 1581 378 
z
" transform="scale(0.015625)"/>
       <path id="DMSans24pt-Regular-72" d="M 442 0 
L 442 3174 
L 928 3174 
L 973 2560 
Q 1120 2880 1421 3065 
Q 1722 3251 2163 3251 
L 2163 2688 
L 2016 2688 
Q 1734 2688 1497 2592 
Q 1261 2496 1120 2259 
Q 979 2022 979 1600 
L 979 0 
L 442 0 
z
" transform="scale(0.015625)"/>
       <path id="DMSans24pt-Regular-73" d="M 1658 -77 
Q 1088 -77 710 211 
Q 333 499 269 992 
L 819 992 
Q 870 742 1084 560 
Q 1299 378 1664 378 
Q 2003 378 2163 522 
Q 2323 666 2323 864 
Q 2323 1146 2115 1245 
Q 1907 1344 1530 1421 
Q 1274 1472 1014 1568 
Q 755 1664 585 1840 
Q 416 2016 416 2304 
Q 416 2720 726 2985 
Q 1037 3251 1568 3251 
Q 2074 3251 2397 3001 
Q 2720 2752 2771 2278 
L 2240 2278 
Q 2214 2522 2038 2659 
Q 1862 2797 1562 2797 
Q 1267 2797 1113 2675 
Q 960 2554 960 2355 
Q 960 2170 1161 2054 
Q 1363 1939 1709 1869 
Q 2010 1805 2272 1712 
Q 2534 1619 2704 1436 
Q 2874 1254 2874 909 
Q 2880 480 2550 201 
Q 2221 -77 1658 -77 
z
" transform="scale(0.015625)"/>
       <path id="DMSans24pt-Regular-6f" d="M 1888 -77 
Q 1440 -77 1081 128 
Q 723 333 515 707 
Q 307 1082 307 1587 
Q 307 2093 518 2467 
Q 730 2842 1091 3046 
Q 1453 3251 1901 3251 
Q 2349 3251 2707 3046 
Q 3066 2842 3274 2467 
Q 3482 2093 3482 1587 
Q 3482 1082 3270 707 
Q 3059 333 2697 128 
Q 2336 -77 1888 -77 
z
M 1888 384 
Q 2163 384 2400 518 
Q 2637 653 2784 921 
Q 2931 1190 2931 1587 
Q 2931 1990 2787 2256 
Q 2643 2522 2406 2656 
Q 2170 2790 1901 2790 
Q 1632 2790 1392 2656 
Q 1152 2522 1005 2256 
Q 858 1990 858 1587 
Q 858 1190 1005 921 
Q 1152 653 1385 518 
Q 1619 384 1888 384 
z
" transform="scale(0.015625)"/>
       <path id="DMSans24pt-Regular-6e" d="M 442 0 
L 442 3174 
L 928 3174 
L 960 2605 
Q 1114 2906 1402 3078 
Q 1690 3251 2054 3251 
Q 2618 3251 2954 2908 
Q 3290 2566 3290 1856 
L 3290 0 
L 2752 0 
L 2752 1798 
Q 2752 2291 2541 2540 
Q 2330 2790 1933 2790 
Q 1523 2790 1251 2492 
Q 979 2195 979 1645 
L 979 0 
L 442 0 
z
" transform="scale(0.015625)"/>
       <path id="DMSans24pt-Regular-20" transform="scale(0.015625)"/>
       <path id="DejaVuSans-Oblique-3c1" d="M 1203 2875 
Q 1453 3194 1981 3475 
Q 2188 3584 2756 3584 
Q 3394 3584 3694 3078 
Q 3994 2572 3834 1747 
Q 3672 922 3175 415 
Q 2678 -91 2041 -91 
Q 1656 -91 1409 63 
Q 1163 213 1044 525 
L 681 -1331 
L 103 -1331 
L 697 1716 
Q 838 2438 1203 2875 
z
M 3238 1747 
Q 3359 2381 3169 2744 
Q 2978 3103 2522 3103 
Q 2066 3103 1734 2744 
Q 1403 2381 1281 1747 
Q 1156 1113 1347 750 
Q 1538 391 1994 391 
Q 2450 391 2781 750 
Q 3113 1113 3238 1747 
z
" transform="scale(0.015625)"/>
       <path id="DMSans24pt-Regular-28" d="M 1587 -928 
Q 1242 -595 947 -137 
Q 653 320 477 889 
Q 301 1459 301 2131 
Q 301 2803 477 3372 
Q 653 3942 947 4403 
Q 1242 4864 1587 5190 
L 2138 5190 
L 2138 5139 
Q 1555 4563 1196 3792 
Q 838 3021 838 2131 
Q 838 1242 1196 470 
Q 1555 -301 2138 -877 
L 2138 -928 
L 1587 -928 
z
" transform="scale(0.015625)"/>
       <path id="DMSans24pt-Regular-2191" d="M 256 2176 
L 2598 4480 
L 2886 4480 
L 5229 2176 
L 4883 1830 
L 3008 3693 
L 3008 0 
L 2483 0 
L 2483 3706 
L 602 1837 
L 256 2176 
z
" transform="scale(0.015625)"/>
       <path id="DMSans24pt-Regular-29" d="M 794 -928 
L 243 -928 
L 243 -877 
Q 826 -301 1184 470 
Q 1542 1242 1542 2131 
Q 1542 3021 1187 3792 
Q 832 4563 243 5139 
L 243 5190 
L 794 5190 
Q 1146 4864 1437 4403 
Q 1728 3942 1904 3372 
Q 2080 2803 2080 2131 
Q 2080 1459 1904 889 
Q 1728 320 1437 -137 
Q 1146 -595 794 -928 
z
" transform="scale(0.015625)"/>
      </defs>
      <use xlink:href="#DMSans24pt-Regular-50" transform="translate(0 0.90625)"/>
      <use xlink:href="#DMSans24pt-Regular-65" transform="translate(57.899994 0.90625)"/>
      <use xlink:href="#DMSans24pt-Regular-61" transform="translate(114.799988 0.90625)"/>
      <use xlink:href="#DMSans24pt-Regular-72" transform="translate(168.999985 0.90625)"/>
      <use xlink:href="#DMSans24pt-Regular-73" transform="translate(205.299973 0.90625)"/>
      <use xlink:href="#DMSans24pt-Regular-6f" transform="translate(255.299957 0.90625)"/>
      <use xlink:href="#DMSans24pt-Regular-6e" transform="translate(314.499954 0.90625)"/>
      <use xlink:href="#DMSans24pt-Regular-20" transform="translate(371.699951 0.90625)"/>
      <use xlink:href="#DejaVuSans-Oblique-3c1" transform="translate(398.199936 0.90625)"/>
      <use xlink:href="#DMSans24pt-Regular-20" transform="translate(461.676498 0.90625)"/>
      <use xlink:href="#DMSans24pt-Regular-28" transform="translate(488.176483 0.90625)"/>
      <use xlink:href="#DMSans24pt-Regular-2191" transform="translate(525.37648 0.90625)"/>
      <use xlink:href="#DMSans24pt-Regular-29" transform="translate(611.076462 0.90625)"/>
     </g>
    </g>
   </g>
   <g id="matplotlib.axis_2">
    <g id="ytick_1">
     <g id="line2d_6">
      <defs>
       <path id="mb742f202f7" d="M 0 0 
L -3.5 0 
" style="stroke: #000000; stroke-width: 0.8"/>
      </defs>
      <g>
       <use xlink:href="#mb742f202f7" x="71.853125" y="26.637576" style="stroke: #000000; stroke-width: 0.8"/>
      </g>
     </g>
     <g id="text_7">
      <!-- Snitz -->
      <g transform="translate(42.571875 25.537576) scale(0.1 -0.1)">
       <defs>
        <path id="DMSans24pt-Regular-53" d="M 1901 -77 
Q 1408 -77 1043 102 
Q 678 282 480 602 
Q 282 922 282 1344 
L 845 1344 
Q 845 1082 966 861 
Q 1088 640 1321 509 
Q 1555 378 1901 378 
Q 2355 378 2604 595 
Q 2854 813 2854 1139 
Q 2854 1408 2739 1571 
Q 2624 1734 2429 1836 
Q 2234 1939 1981 2016 
Q 1728 2093 1453 2189 
Q 934 2368 684 2633 
Q 435 2899 435 3328 
Q 435 3693 604 3968 
Q 774 4243 1091 4400 
Q 1408 4557 1843 4557 
Q 2272 4557 2589 4397 
Q 2906 4237 3085 3958 
Q 3264 3680 3264 3315 
L 2701 3315 
Q 2701 3501 2605 3680 
Q 2509 3859 2313 3977 
Q 2118 4096 1824 4096 
Q 1459 4102 1225 3910 
Q 992 3718 992 3379 
Q 992 3091 1158 2937 
Q 1325 2784 1616 2685 
Q 1907 2586 2291 2458 
Q 2618 2349 2870 2192 
Q 3123 2035 3267 1792 
Q 3411 1549 3411 1171 
Q 3411 851 3241 566 
Q 3072 282 2739 102 
Q 2406 -77 1901 -77 
z
" transform="scale(0.015625)"/>
        <path id="DMSans24pt-Regular-69" d="M 768 3878 
Q 608 3878 502 3984 
Q 397 4090 397 4250 
Q 397 4410 502 4509 
Q 608 4608 768 4608 
Q 922 4608 1030 4509 
Q 1139 4410 1139 4250 
Q 1139 4090 1030 3984 
Q 922 3878 768 3878 
z
M 499 0 
L 499 3174 
L 1037 3174 
L 1037 0 
L 499 0 
z
" transform="scale(0.015625)"/>
        <path id="DMSans24pt-Regular-74" d="M 1696 0 
Q 1261 0 1011 214 
Q 762 429 762 973 
L 762 2720 
L 211 2720 
L 211 3174 
L 762 3174 
L 832 3936 
L 1299 3936 
L 1299 3174 
L 2234 3174 
L 2234 2720 
L 1299 2720 
L 1299 973 
Q 1299 672 1420 566 
Q 1542 461 1850 461 
L 2182 461 
L 2182 0 
L 1696 0 
z
" transform="scale(0.015625)"/>
        <path id="DMSans24pt-Regular-7a" d="M 224 0 
L 224 442 
L 1990 2726 
L 256 2726 
L 256 3174 
L 2592 3174 
L 2592 2733 
L 826 448 
L 2624 448 
L 2624 0 
L 224 0 
z
" transform="scale(0.015625)"/>
       </defs>
       <use xlink:href="#DMSans24pt-Regular-53"/>
       <use xlink:href="#DMSans24pt-Regular-6e" x="57.799988"/>
       <use xlink:href="#DMSans24pt-Regular-69" x="114.999985"/>
       <use xlink:href="#DMSans24pt-Regular-74" x="138.899979"/>
       <use xlink:href="#DMSans24pt-Regular-7a" x="177.599976"/>
      </g>
      <!-- baseline -->
      <g transform="translate(26.440625 36.377576) scale(0.1 -0.1)">
       <defs>
        <path id="DMSans24pt-Regular-62" d="M 2138 -77 
Q 1747 -77 1446 83 
Q 1146 243 979 531 
L 928 0 
L 442 0 
L 442 4608 
L 979 4608 
L 979 2650 
Q 1133 2880 1417 3065 
Q 1702 3251 2144 3251 
Q 2618 3251 2970 3033 
Q 3322 2816 3517 2438 
Q 3712 2061 3712 1581 
Q 3712 1101 3517 726 
Q 3322 352 2966 137 
Q 2611 -77 2138 -77 
z
M 2080 390 
Q 2400 390 2646 540 
Q 2893 691 3030 960 
Q 3168 1229 3168 1587 
Q 3168 1946 3030 2214 
Q 2893 2483 2646 2633 
Q 2400 2784 2080 2784 
Q 1760 2784 1513 2633 
Q 1267 2483 1129 2214 
Q 992 1946 992 1587 
Q 992 1229 1129 960 
Q 1267 691 1513 540 
Q 1760 390 2080 390 
z
" transform="scale(0.015625)"/>
        <path id="DMSans24pt-Regular-6c" d="M 442 0 
L 442 4608 
L 979 4608 
L 979 0 
L 442 0 
z
" transform="scale(0.015625)"/>
       </defs>
       <use xlink:href="#DMSans24pt-Regular-62"/>
       <use xlink:href="#DMSans24pt-Regular-61" x="62.799988"/>
       <use xlink:href="#DMSans24pt-Regular-73" x="116.999985"/>
       <use xlink:href="#DMSans24pt-Regular-65" x="166.999969"/>
       <use xlink:href="#DMSans24pt-Regular-6c" x="223.899963"/>
       <use xlink:href="#DMSans24pt-Regular-69" x="246.09996"/>
       <use xlink:href="#DMSans24pt-Regular-6e" x="269.999954"/>
       <use xlink:href="#DMSans24pt-Regular-65" x="327.199951"/>
      </g>
     </g>
    </g>
    <g id="ytick_2">
     <g id="line2d_7">
      <g>
       <use xlink:href="#mb742f202f7" x="71.853125" y="57.008788" style="stroke: #000000; stroke-width: 0.8"/>
      </g>
     </g>
     <g id="text_8">
      <!-- XGBoost -->
      <g transform="translate(24.53125 55.908788) scale(0.1 -0.1)">
       <defs>
        <path id="DMSans24pt-Regular-58" d="M 243 0 
L 1613 2259 
L 243 4480 
L 851 4480 
L 1952 2694 
L 3002 4480 
L 3603 4480 
L 2234 2240 
L 3610 0 
L 3002 0 
L 1894 1805 
L 851 0 
L 243 0 
z
" transform="scale(0.015625)"/>
        <path id="DMSans24pt-Regular-47" d="M 2400 -77 
Q 1773 -77 1299 214 
Q 826 506 563 1024 
Q 301 1542 301 2234 
Q 301 2918 566 3443 
Q 832 3968 1321 4262 
Q 1811 4557 2477 4557 
Q 3232 4557 3737 4195 
Q 4243 3834 4384 3187 
L 3763 3187 
Q 3674 3590 3341 3827 
Q 3008 4064 2477 4064 
Q 1984 4064 1616 3843 
Q 1248 3622 1049 3212 
Q 851 2803 851 2234 
Q 851 1664 1049 1251 
Q 1248 838 1603 620 
Q 1958 403 2419 403 
Q 3136 403 3501 825 
Q 3866 1248 3917 1971 
L 2624 1971 
L 2624 2394 
L 4467 2394 
L 4467 0 
L 3974 0 
L 3930 736 
Q 3693 346 3337 134 
Q 2982 -77 2400 -77 
z
" transform="scale(0.015625)"/>
        <path id="DMSans24pt-Regular-42" d="M 474 0 
L 474 4480 
L 2048 4480 
Q 2522 4480 2832 4329 
Q 3142 4179 3296 3920 
Q 3450 3661 3450 3341 
Q 3450 2906 3216 2653 
Q 2982 2400 2656 2310 
Q 2906 2266 3110 2112 
Q 3315 1958 3433 1728 
Q 3552 1498 3552 1222 
Q 3552 883 3385 604 
Q 3219 326 2896 163 
Q 2573 0 2099 0 
L 474 0 
z
M 1011 2522 
L 2010 2522 
Q 2445 2522 2672 2726 
Q 2899 2931 2899 3283 
Q 2899 3622 2672 3827 
Q 2445 4032 1990 4032 
L 1011 4032 
L 1011 2522 
z
M 1011 448 
L 2042 448 
Q 2496 448 2749 662 
Q 3002 877 3002 1261 
Q 3002 1638 2742 1865 
Q 2483 2093 2029 2093 
L 1011 2093 
L 1011 448 
z
" transform="scale(0.015625)"/>
       </defs>
       <use xlink:href="#DMSans24pt-Regular-58"/>
       <use xlink:href="#DMSans24pt-Regular-47" x="60.199997"/>
       <use xlink:href="#DMSans24pt-Regular-42" x="135.899979"/>
       <use xlink:href="#DMSans24pt-Regular-6f" x="196.099976"/>
       <use xlink:href="#DMSans24pt-Regular-6f" x="255.299973"/>
       <use xlink:href="#DMSans24pt-Regular-73" x="314.499969"/>
       <use xlink:href="#DMSans24pt-Regular-74" x="364.499954"/>
      </g>
      <!-- rdkit -->
      <g transform="translate(43.63125 66.748788) scale(0.1 -0.1)">
       <defs>
        <path id="DMSans24pt-Regular-64" d="M 1882 -77 
Q 1408 -77 1053 140 
Q 698 358 502 736 
Q 307 1114 307 1594 
Q 307 2074 502 2448 
Q 698 2822 1056 3036 
Q 1414 3251 1888 3251 
Q 2278 3251 2582 3091 
Q 2886 2931 3046 2643 
L 3046 4608 
L 3584 4608 
L 3584 0 
L 3098 0 
L 3046 525 
Q 2893 294 2605 108 
Q 2317 -77 1882 -77 
z
M 1939 390 
Q 2259 390 2505 540 
Q 2752 691 2889 960 
Q 3027 1229 3027 1587 
Q 3027 1946 2889 2214 
Q 2752 2483 2505 2633 
Q 2259 2784 1939 2784 
Q 1626 2784 1379 2633 
Q 1133 2483 995 2214 
Q 858 1946 858 1587 
Q 858 1229 995 960 
Q 1133 691 1379 540 
Q 1626 390 1939 390 
z
" transform="scale(0.015625)"/>
        <path id="DMSans24pt-Regular-6b" d="M 442 0 
L 442 4608 
L 979 4608 
L 979 1837 
L 2278 3174 
L 2938 3174 
L 1530 1741 
L 3117 0 
L 2432 0 
L 979 1645 
L 979 0 
L 442 0 
z
" transform="scale(0.015625)"/>
       </defs>
       <use xlink:href="#DMSans24pt-Regular-72"/>
       <use xlink:href="#DMSans24pt-Regular-64" x="36.299988"/>
       <use xlink:href="#DMSans24pt-Regular-6b" x="99.199982"/>
       <use xlink:href="#DMSans24pt-Regular-69" x="149.599976"/>
       <use xlink:href="#DMSans24pt-Regular-74" x="173.499969"/>
      </g>
     </g>
    </g>
    <g id="ytick_3">
     <g id="line2d_8">
      <g>
       <use xlink:href="#mb742f202f7" x="71.853125" y="87.38" style="stroke: #000000; stroke-width: 0.8"/>
      </g>
     </g>
     <g id="text_9">
      <!-- XGBoost -->
      <g transform="translate(24.53125 86.28) scale(0.1 -0.1)">
       <use xlink:href="#DMSans24pt-Regular-58"/>
       <use xlink:href="#DMSans24pt-Regular-47" x="60.199997"/>
       <use xlink:href="#DMSans24pt-Regular-42" x="135.899979"/>
       <use xlink:href="#DMSans24pt-Regular-6f" x="196.099976"/>
       <use xlink:href="#DMSans24pt-Regular-6f" x="255.299973"/>
       <use xlink:href="#DMSans24pt-Regular-73" x="314.499969"/>
       <use xlink:href="#DMSans24pt-Regular-74" x="364.499954"/>
      </g>
      <!-- POM embed -->
      <g transform="translate(7.2 97.12) scale(0.1 -0.1)">
       <defs>
        <path id="DMSans24pt-Regular-4f" d="M 2509 -77 
Q 1850 -77 1354 214 
Q 858 506 579 1027 
Q 301 1549 301 2240 
Q 301 2925 579 3446 
Q 858 3968 1354 4262 
Q 1850 4557 2509 4557 
Q 3174 4557 3670 4262 
Q 4166 3968 4441 3446 
Q 4717 2925 4717 2240 
Q 4717 1549 4441 1027 
Q 4166 506 3670 214 
Q 3174 -77 2509 -77 
z
M 2509 397 
Q 3002 397 3376 617 
Q 3750 838 3958 1251 
Q 4166 1664 4166 2240 
Q 4166 2816 3958 3229 
Q 3750 3642 3376 3859 
Q 3002 4077 2509 4077 
Q 2016 4077 1641 3859 
Q 1267 3642 1059 3229 
Q 851 2816 851 2240 
Q 851 1664 1059 1251 
Q 1267 838 1641 617 
Q 2016 397 2509 397 
z
" transform="scale(0.015625)"/>
        <path id="DMSans24pt-Regular-4d" d="M 474 0 
L 474 4480 
L 1101 4480 
L 2707 1357 
L 4314 4480 
L 4947 4480 
L 4947 0 
L 4410 0 
L 4410 3520 
L 2912 640 
L 2509 640 
L 1011 3514 
L 1011 0 
L 474 0 
z
" transform="scale(0.015625)"/>
        <path id="DMSans24pt-Regular-6d" d="M 442 0 
L 442 3174 
L 928 3174 
L 966 2714 
Q 1120 2970 1376 3110 
Q 1632 3251 1952 3251 
Q 2323 3251 2598 3097 
Q 2874 2944 3021 2630 
Q 3187 2925 3481 3088 
Q 3776 3251 4109 3251 
Q 4678 3251 5017 2908 
Q 5357 2566 5357 1856 
L 5357 0 
L 4826 0 
L 4826 1798 
Q 4826 2291 4627 2540 
Q 4429 2790 4058 2790 
Q 3674 2790 3421 2492 
Q 3168 2195 3168 1645 
L 3168 0 
L 2630 0 
L 2630 1798 
Q 2630 2291 2432 2540 
Q 2234 2790 1862 2790 
Q 1485 2790 1232 2492 
Q 979 2195 979 1645 
L 979 0 
L 442 0 
z
" transform="scale(0.015625)"/>
       </defs>
       <use xlink:href="#DMSans24pt-Regular-50"/>
       <use xlink:href="#DMSans24pt-Regular-4f" x="57.899994"/>
       <use xlink:href="#DMSans24pt-Regular-4d" x="136.299988"/>
       <use xlink:href="#DMSans24pt-Regular-20" x="220.999969"/>
       <use xlink:href="#DMSans24pt-Regular-65" x="247.499954"/>
       <use xlink:href="#DMSans24pt-Regular-6d" x="304.399948"/>
       <use xlink:href="#DMSans24pt-Regular-62" x="393.899933"/>
       <use xlink:href="#DMSans24pt-Regular-65" x="456.699921"/>
       <use xlink:href="#DMSans24pt-Regular-64" x="513.599915"/>
      </g>
     </g>
    </g>
    <g id="ytick_4">
     <g id="line2d_9">
      <g>
       <use xlink:href="#mb742f202f7" x="71.853125" y="117.751212" style="stroke: #000000; stroke-width: 0.8"/>
      </g>
     </g>
     <g id="text_10">
      <!-- CheMix -->
      <g transform="translate(30.401563 116.651212) scale(0.1 -0.1)">
       <defs>
        <path id="DMSans24pt-Regular-43" d="M 2438 -77 
Q 1779 -77 1299 214 
Q 819 506 560 1027 
Q 301 1549 301 2240 
Q 301 2931 560 3452 
Q 819 3974 1299 4265 
Q 1779 4557 2438 4557 
Q 3213 4557 3693 4192 
Q 4173 3827 4307 3162 
L 3712 3162 
Q 3610 3578 3296 3830 
Q 2982 4083 2438 4083 
Q 1958 4083 1600 3862 
Q 1242 3642 1046 3229 
Q 851 2816 851 2240 
Q 851 1664 1046 1251 
Q 1242 838 1600 617 
Q 1958 397 2438 397 
Q 2982 397 3296 643 
Q 3610 890 3712 1299 
L 4307 1299 
Q 4173 653 3693 288 
Q 3213 -77 2438 -77 
z
" transform="scale(0.015625)"/>
        <path id="DMSans24pt-Regular-68" d="M 442 0 
L 442 4608 
L 979 4608 
L 979 2630 
Q 1139 2925 1430 3088 
Q 1722 3251 2074 3251 
Q 2624 3251 2957 2908 
Q 3290 2566 3290 1856 
L 3290 0 
L 2758 0 
L 2758 1798 
Q 2758 2790 1958 2790 
Q 1542 2790 1260 2492 
Q 979 2195 979 1645 
L 979 0 
L 442 0 
z
" transform="scale(0.015625)"/>
        <path id="DMSans24pt-Regular-78" d="M 122 0 
L 1222 1587 
L 122 3174 
L 704 3174 
L 1594 1862 
L 2490 3174 
L 3066 3174 
L 1965 1587 
L 3066 0 
L 2490 0 
L 1594 1312 
L 704 0 
L 122 0 
z
" transform="scale(0.015625)"/>
       </defs>
       <use xlink:href="#DMSans24pt-Regular-43"/>
       <use xlink:href="#DMSans24pt-Regular-68" x="71.999985"/>
       <use xlink:href="#DMSans24pt-Regular-65" x="129.199982"/>
       <use xlink:href="#DMSans24pt-Regular-4d" x="186.099976"/>
       <use xlink:href="#DMSans24pt-Regular-69" x="270.799957"/>
       <use xlink:href="#DMSans24pt-Regular-78" x="294.699951"/>
      </g>
      <!-- POM embed -->
      <g transform="translate(7.2 127.491212) scale(0.1 -0.1)">
       <use xlink:href="#DMSans24pt-Regular-50"/>
       <use xlink:href="#DMSans24pt-Regular-4f" x="57.899994"/>
       <use xlink:href="#DMSans24pt-Regular-4d" x="136.299988"/>
       <use xlink:href="#DMSans24pt-Regular-20" x="220.999969"/>
       <use xlink:href="#DMSans24pt-Regular-65" x="247.499954"/>
       <use xlink:href="#DMSans24pt-Regular-6d" x="304.399948"/>
       <use xlink:href="#DMSans24pt-Regular-62" x="393.899933"/>
       <use xlink:href="#DMSans24pt-Regular-65" x="456.699921"/>
       <use xlink:href="#DMSans24pt-Regular-64" x="513.599915"/>
      </g>
     </g>
    </g>
    <g id="ytick_5">
     <g id="line2d_10">
      <g>
       <use xlink:href="#mb742f202f7" x="71.853125" y="148.122424" style="stroke: #000000; stroke-width: 0.8"/>
      </g>
     </g>
     <g id="text_11">
      <!-- POMMix -->
      <g transform="translate(26.910938 151.722424) scale(0.1 -0.1)">
       <use xlink:href="#DMSans24pt-Regular-50"/>
       <use xlink:href="#DMSans24pt-Regular-4f" x="57.899994"/>
       <use xlink:href="#DMSans24pt-Regular-4d" x="136.299988"/>
       <use xlink:href="#DMSans24pt-Regular-4d" x="220.999969"/>
       <use xlink:href="#DMSans24pt-Regular-69" x="305.699951"/>
       <use xlink:href="#DMSans24pt-Regular-78" x="329.599945"/>
      </g>
     </g>
    </g>
   </g>
   <g id="line2d_11">
    <path clip-path="url(#p0bd5cf572d)" style="fill: none; stroke: #424242; stroke-width: 2.25; stroke-linecap: square"/>
   </g>
   <g id="line2d_12">
    <path clip-path="url(#p0bd5cf572d)" style="fill: none; stroke: #424242; stroke-width: 2.25; stroke-linecap: square"/>
   </g>
   <g id="line2d_13">
    <path clip-path="url(#p0bd5cf572d)" style="fill: none; stroke: #424242; stroke-width: 2.25; stroke-linecap: square"/>
   </g>
   <g id="line2d_14">
    <path clip-path="url(#p0bd5cf572d)" style="fill: none; stroke: #424242; stroke-width: 2.25; stroke-linecap: square"/>
   </g>
   <g id="line2d_15">
    <path clip-path="url(#p0bd5cf572d)" style="fill: none; stroke: #424242; stroke-width: 2.25; stroke-linecap: square"/>
   </g>
   <g id="LineCollection_1">
    <path d="M 143.635334 26.637576 
L 164.592229 26.637576 
" clip-path="url(#p0bd5cf572d)" style="fill: none; stroke: #000000; stroke-width: 1.5"/>
    <path d="M 161.920821 57.008788 
L 181.741117 57.008788 
" clip-path="url(#p0bd5cf572d)" style="fill: none; stroke: #000000; stroke-width: 1.5"/>
    <path d="M 165.930542 87.38 
L 182.799652 87.38 
" clip-path="url(#p0bd5cf572d)" style="fill: none; stroke: #000000; stroke-width: 1.5"/>
    <path d="M 219.562448 117.751212 
L 232.100745 117.751212 
" clip-path="url(#p0bd5cf572d)" style="fill: none; stroke: #000000; stroke-width: 1.5"/>
    <path d="M 226.743448 148.122424 
L 238.345188 148.122424 
" clip-path="url(#p0bd5cf572d)" style="fill: none; stroke: #000000; stroke-width: 1.5"/>
   </g>
   <g id="patch_8">
    <path d="M 71.853125 167.56 
L 71.853125 7.2 
" style="fill: none; stroke: #000000; stroke-width: 0.8; stroke-linejoin: miter; stroke-linecap: square"/>
   </g>
   <g id="patch_9">
    <path d="M 246.669792 167.56 
L 246.669792 7.2 
" style="fill: none; stroke: #000000; stroke-width: 0.8; stroke-linejoin: miter; stroke-linecap: square"/>
   </g>
   <g id="patch_10">
    <path d="M 71.853125 167.56 
L 246.669792 167.56 
" style="fill: none; stroke: #000000; stroke-width: 0.8; stroke-linejoin: miter; stroke-linecap: square"/>
   </g>
   <g id="patch_11">
    <path d="M 71.853125 7.2 
L 246.669792 7.2 
" style="fill: none; stroke: #000000; stroke-width: 0.8; stroke-linejoin: miter; stroke-linecap: square"/>
   </g>
  </g>
  <g id="axes_2">
   <g id="patch_12">
    <path d="M 265.344792 167.56 
L 440.161458 167.56 
L 440.161458 7.2 
L 265.344792 7.2 
L 265.344792 167.56 
z
" style="fill: none"/>
   </g>
   <g id="patch_13">
    <path d="M 265.344792 14.489091 
L 427.057459 14.489091 
L 427.057459 38.786061 
L 265.344792 38.786061 
z
" clip-path="url(#p9f029d2407)" style="fill: #ededd5"/>
   </g>
   <g id="patch_14">
    <path d="M 265.344792 44.860303 
L 345.502148 44.860303 
L 345.502148 69.157273 
L 265.344792 69.157273 
z
" clip-path="url(#p9f029d2407)" style="fill: #dad2b1"/>
   </g>
   <g id="patch_15">
    <path d="M 265.344792 75.231515 
L 344.907138 75.231515 
L 344.907138 99.528485 
L 265.344792 99.528485 
z
" clip-path="url(#p9f029d2407)" style="fill: #c8ac9b"/>
   </g>
   <g id="patch_16">
    <path d="M 265.344792 105.602727 
L 328.009577 105.602727 
L 328.009577 129.899697 
L 265.344792 129.899697 
z
" clip-path="url(#p9f029d2407)" style="fill: #b18080"/>
   </g>
   <g id="patch_17">
    <path d="M 265.344792 135.973939 
L 322.615502 135.973939 
L 322.615502 160.270909 
L 265.344792 160.270909 
z
" clip-path="url(#p9f029d2407)" style="fill: #7e5a5a"/>
   </g>
   <g id="matplotlib.axis_3">
    <g id="xtick_6">
     <g id="line2d_16">
      <g>
       <use xlink:href="#m4a1d4e9fb4" x="265.344792" y="167.56" style="stroke: #000000; stroke-width: 0.8"/>
      </g>
     </g>
     <g id="text_12">
      <!-- 0.0 -->
      <g transform="translate(257.440104 181.76) scale(0.1 -0.1)">
       <use xlink:href="#DMSans24pt-Regular-30"/>
       <use xlink:href="#DMSans24pt-Regular-2e" x="69.299988"/>
       <use xlink:href="#DMSans24pt-Regular-30" x="88.799973"/>
      </g>
     </g>
    </g>
    <g id="xtick_7">
     <g id="line2d_17">
      <g>
       <use xlink:href="#m4a1d4e9fb4" x="313.710397" y="167.56" style="stroke: #000000; stroke-width: 0.8"/>
      </g>
     </g>
     <g id="text_13">
      <!-- 0.1 -->
      <g transform="translate(307.760397 181.76) scale(0.1 -0.1)">
       <defs>
        <path id="DMSans24pt-Regular-31" d="M 915 0 
L 915 3878 
L 192 3718 
L 192 4090 
L 1094 4480 
L 1459 4480 
L 1459 0 
L 915 0 
z
" transform="scale(0.015625)"/>
       </defs>
       <use xlink:href="#DMSans24pt-Regular-30"/>
       <use xlink:href="#DMSans24pt-Regular-2e" x="69.299988"/>
       <use xlink:href="#DMSans24pt-Regular-31" x="88.799973"/>
      </g>
     </g>
    </g>
    <g id="xtick_8">
     <g id="line2d_18">
      <g>
       <use xlink:href="#m4a1d4e9fb4" x="362.076003" y="167.56" style="stroke: #000000; stroke-width: 0.8"/>
      </g>
     </g>
     <g id="text_14">
      <!-- 0.2 -->
      <g transform="translate(354.776003 181.76) scale(0.1 -0.1)">
       <use xlink:href="#DMSans24pt-Regular-30"/>
       <use xlink:href="#DMSans24pt-Regular-2e" x="69.299988"/>
       <use xlink:href="#DMSans24pt-Regular-32" x="88.799973"/>
      </g>
     </g>
    </g>
    <g id="xtick_9">
     <g id="line2d_19">
      <g>
       <use xlink:href="#m4a1d4e9fb4" x="410.441609" y="167.56" style="stroke: #000000; stroke-width: 0.8"/>
      </g>
     </g>
     <g id="text_15">
      <!-- 0.3 -->
      <g transform="translate(403.061922 181.76) scale(0.1 -0.1)">
       <defs>
        <path id="DMSans24pt-Regular-33" d="M 1869 -77 
Q 1440 -77 1091 80 
Q 742 237 537 550 
Q 333 864 320 1331 
L 864 1331 
Q 870 1075 988 860 
Q 1107 646 1331 518 
Q 1555 390 1869 390 
Q 2342 390 2582 652 
Q 2822 915 2822 1286 
Q 2822 1600 2672 1798 
Q 2522 1997 2269 2093 
Q 2016 2189 1715 2189 
L 1382 2189 
L 1382 2643 
L 1715 2643 
Q 2150 2643 2396 2844 
Q 2643 3046 2643 3398 
Q 2643 3699 2448 3894 
Q 2253 4090 1869 4090 
Q 1498 4090 1277 3872 
Q 1056 3654 1024 3315 
L 480 3315 
Q 499 3680 675 3961 
Q 851 4243 1158 4400 
Q 1466 4557 1869 4557 
Q 2304 4557 2595 4403 
Q 2886 4250 3036 3994 
Q 3187 3738 3187 3430 
Q 3187 3098 3004 2816 
Q 2822 2534 2445 2438 
Q 2842 2355 3104 2060 
Q 3366 1766 3366 1286 
Q 3366 922 3196 611 
Q 3027 301 2694 112 
Q 2362 -77 1869 -77 
z
" transform="scale(0.015625)"/>
       </defs>
       <use xlink:href="#DMSans24pt-Regular-30"/>
       <use xlink:href="#DMSans24pt-Regular-2e" x="69.299988"/>
       <use xlink:href="#DMSans24pt-Regular-33" x="88.799973"/>
      </g>
     </g>
    </g>
    <g id="text_16">
     <!-- RMSE (↓) -->
     <g transform="translate(330.5125 195.319375) scale(0.1 -0.1)">
      <defs>
       <path id="DMSans24pt-Regular-52" d="M 474 0 
L 474 4480 
L 1920 4480 
Q 2445 4480 2777 4304 
Q 3110 4128 3270 3833 
Q 3430 3539 3430 3168 
Q 3430 2746 3203 2406 
Q 2976 2067 2496 1926 
L 3475 0 
L 2842 0 
L 1933 1850 
L 1894 1850 
L 1011 1850 
L 1011 0 
L 474 0 
z
M 1011 2272 
L 1882 2272 
Q 2394 2272 2634 2521 
Q 2874 2771 2874 3162 
Q 2874 3558 2640 3792 
Q 2406 4026 1875 4026 
L 1011 4026 
L 1011 2272 
z
" transform="scale(0.015625)"/>
       <path id="DMSans24pt-Regular-45" d="M 474 0 
L 474 4480 
L 3245 4480 
L 3245 4038 
L 1011 4038 
L 1011 2477 
L 3053 2477 
L 3053 2042 
L 1011 2042 
L 1011 442 
L 3245 442 
L 3245 0 
L 474 0 
z
" transform="scale(0.015625)"/>
       <path id="DMSans24pt-Regular-2193" d="M 256 2304 
L 602 2643 
L 2483 774 
L 2483 4480 
L 3008 4480 
L 3008 787 
L 4883 2650 
L 5229 2304 
L 2886 0 
L 2598 0 
L 256 2304 
z
" transform="scale(0.015625)"/>
      </defs>
      <use xlink:href="#DMSans24pt-Regular-52"/>
      <use xlink:href="#DMSans24pt-Regular-4d" x="59.299988"/>
      <use xlink:href="#DMSans24pt-Regular-53" x="143.999969"/>
      <use xlink:href="#DMSans24pt-Regular-45" x="201.799957"/>
      <use xlink:href="#DMSans24pt-Regular-20" x="258.199951"/>
      <use xlink:href="#DMSans24pt-Regular-28" x="284.699936"/>
      <use xlink:href="#DMSans24pt-Regular-2193" x="321.899933"/>
      <use xlink:href="#DMSans24pt-Regular-29" x="407.599915"/>
     </g>
    </g>
   </g>
   <g id="matplotlib.axis_4">
    <g id="ytick_6">
     <g id="line2d_20">
      <g>
       <use xlink:href="#mb742f202f7" x="265.344792" y="26.637576" style="stroke: #000000; stroke-width: 0.8"/>
      </g>
     </g>
    </g>
    <g id="ytick_7">
     <g id="line2d_21">
      <g>
       <use xlink:href="#mb742f202f7" x="265.344792" y="57.008788" style="stroke: #000000; stroke-width: 0.8"/>
      </g>
     </g>
    </g>
    <g id="ytick_8">
     <g id="line2d_22">
      <g>
       <use xlink:href="#mb742f202f7" x="265.344792" y="87.38" style="stroke: #000000; stroke-width: 0.8"/>
      </g>
     </g>
    </g>
    <g id="ytick_9">
     <g id="line2d_23">
      <g>
       <use xlink:href="#mb742f202f7" x="265.344792" y="117.751212" style="stroke: #000000; stroke-width: 0.8"/>
      </g>
     </g>
    </g>
    <g id="ytick_10">
     <g id="line2d_24">
      <g>
       <use xlink:href="#mb742f202f7" x="265.344792" y="148.122424" style="stroke: #000000; stroke-width: 0.8"/>
      </g>
     </g>
    </g>
   </g>
   <g id="line2d_25">
    <path clip-path="url(#p9f029d2407)" style="fill: none; stroke: #424242; stroke-width: 2.25; stroke-linecap: square"/>
   </g>
   <g id="line2d_26">
    <path clip-path="url(#p9f029d2407)" style="fill: none; stroke: #424242; stroke-width: 2.25; stroke-linecap: square"/>
   </g>
   <g id="line2d_27">
    <path clip-path="url(#p9f029d2407)" style="fill: none; stroke: #424242; stroke-width: 2.25; stroke-linecap: square"/>
   </g>
   <g id="line2d_28">
    <path clip-path="url(#p9f029d2407)" style="fill: none; stroke: #424242; stroke-width: 2.25; stroke-linecap: square"/>
   </g>
   <g id="line2d_29">
    <path clip-path="url(#p9f029d2407)" style="fill: none; stroke: #424242; stroke-width: 2.25; stroke-linecap: square"/>
   </g>
   <g id="LineCollection_2">
    <path d="M 422.278062 26.637576 
L 431.836855 26.637576 
" clip-path="url(#p9f029d2407)" style="fill: none; stroke: #000000; stroke-width: 1.5"/>
    <path d="M 339.906555 57.008788 
L 351.09774 57.008788 
" clip-path="url(#p9f029d2407)" style="fill: none; stroke: #000000; stroke-width: 1.5"/>
    <path d="M 339.279418 87.38 
L 350.534857 87.38 
" clip-path="url(#p9f029d2407)" style="fill: none; stroke: #000000; stroke-width: 1.5"/>
    <path d="M 324.757444 117.751212 
L 331.261711 117.751212 
" clip-path="url(#p9f029d2407)" style="fill: none; stroke: #000000; stroke-width: 1.5"/>
    <path d="M 320.694838 148.122424 
L 324.536165 148.122424 
" clip-path="url(#p9f029d2407)" style="fill: none; stroke: #000000; stroke-width: 1.5"/>
   </g>
   <g id="patch_18">
    <path d="M 265.344792 167.56 
L 265.344792 7.2 
" style="fill: none; stroke: #000000; stroke-width: 0.8; stroke-linejoin: miter; stroke-linecap: square"/>
   </g>
   <g id="patch_19">
    <path d="M 440.161458 167.56 
L 440.161458 7.2 
" style="fill: none; stroke: #000000; stroke-width: 0.8; stroke-linejoin: miter; stroke-linecap: square"/>
   </g>
   <g id="patch_20">
    <path d="M 265.344792 167.56 
L 440.161458 167.56 
" style="fill: none; stroke: #000000; stroke-width: 0.8; stroke-linejoin: miter; stroke-linecap: square"/>
   </g>
   <g id="patch_21">
    <path d="M 265.344792 7.2 
L 440.161458 7.2 
" style="fill: none; stroke: #000000; stroke-width: 0.8; stroke-linejoin: miter; stroke-linecap: square"/>
   </g>
  </g>
  <g id="axes_3">
   <g id="patch_22">
    <path d="M 458.836458 167.56 
L 633.653125 167.56 
L 633.653125 7.2 
L 458.836458 7.2 
L 458.836458 167.56 
z
" style="fill: none"/>
   </g>
   <g id="patch_23">
    <path d="M 458.836458 14.489091 
L 537.49017 14.489091 
L 537.49017 38.786061 
L 458.836458 38.786061 
z
" clip-path="url(#p88eea426a4)" style="fill: #f6dfc8"/>
   </g>
   <g id="patch_24">
    <path d="M 458.836458 44.860303 
L 559.19274 44.860303 
L 559.19274 69.157273 
L 458.836458 69.157273 
z
" clip-path="url(#p88eea426a4)" style="fill: #edba8d"/>
   </g>
   <g id="patch_25">
    <path d="M 458.836458 75.231515 
L 563.323119 75.231515 
L 563.323119 99.528485 
L 458.836458 99.528485 
z
" clip-path="url(#p88eea426a4)" style="fill: #e59054"/>
   </g>
   <g id="patch_26">
    <path d="M 458.836458 105.602727 
L 605.501578 105.602727 
L 605.501578 129.899697 
L 458.836458 129.899697 
z
" clip-path="url(#p88eea426a4)" style="fill: #ce6528"/>
   </g>
   <g id="patch_27">
    <path d="M 458.836458 135.973939 
L 619.300001 135.973939 
L 619.300001 160.270909 
L 458.836458 160.270909 
z
" clip-path="url(#p88eea426a4)" style="fill: #a04419"/>
   </g>
   <g id="matplotlib.axis_5">
    <g id="xtick_10">
     <g id="line2d_30">
      <g>
       <use xlink:href="#m4a1d4e9fb4" x="458.836458" y="167.56" style="stroke: #000000; stroke-width: 0.8"/>
      </g>
     </g>
     <g id="text_17">
      <!-- 0.0 -->
      <g transform="translate(450.931771 181.76) scale(0.1 -0.1)">
       <use xlink:href="#DMSans24pt-Regular-30"/>
       <use xlink:href="#DMSans24pt-Regular-2e" x="69.299988"/>
       <use xlink:href="#DMSans24pt-Regular-30" x="88.799973"/>
      </g>
     </g>
    </g>
    <g id="xtick_11">
     <g id="line2d_31">
      <g>
       <use xlink:href="#m4a1d4e9fb4" x="512.658162" y="167.56" style="stroke: #000000; stroke-width: 0.8"/>
      </g>
     </g>
     <g id="text_18">
      <!-- 0.2 -->
      <g transform="translate(505.358162 181.76) scale(0.1 -0.1)">
       <use xlink:href="#DMSans24pt-Regular-30"/>
       <use xlink:href="#DMSans24pt-Regular-2e" x="69.299988"/>
       <use xlink:href="#DMSans24pt-Regular-32" x="88.799973"/>
      </g>
     </g>
    </g>
    <g id="xtick_12">
     <g id="line2d_32">
      <g>
       <use xlink:href="#m4a1d4e9fb4" x="566.479865" y="167.56" style="stroke: #000000; stroke-width: 0.8"/>
      </g>
     </g>
     <g id="text_19">
      <!-- 0.4 -->
      <g transform="translate(559.015021 181.76) scale(0.1 -0.1)">
       <use xlink:href="#DMSans24pt-Regular-30"/>
       <use xlink:href="#DMSans24pt-Regular-2e" x="69.299988"/>
       <use xlink:href="#DMSans24pt-Regular-34" x="88.799973"/>
      </g>
     </g>
    </g>
    <g id="xtick_13">
     <g id="line2d_33">
      <g>
       <use xlink:href="#m4a1d4e9fb4" x="620.301569" y="167.56" style="stroke: #000000; stroke-width: 0.8"/>
      </g>
     </g>
     <g id="text_20">
      <!-- 0.6 -->
      <g transform="translate(612.711725 181.76) scale(0.1 -0.1)">
       <use xlink:href="#DMSans24pt-Regular-30"/>
       <use xlink:href="#DMSans24pt-Regular-2e" x="69.299988"/>
       <use xlink:href="#DMSans24pt-Regular-36" x="88.799973"/>
      </g>
     </g>
    </g>
    <g id="text_21">
     <!-- Kendall $\tau$ (↑) -->
     <g transform="translate(515.844792 195.46) scale(0.1 -0.1)">
      <defs>
       <path id="DMSans24pt-Regular-4b" d="M 474 0 
L 474 4480 
L 1011 4480 
L 1011 2451 
L 2880 4480 
L 3558 4480 
L 1894 2694 
L 3584 0 
L 2931 0 
L 1510 2278 
L 1011 1747 
L 1011 0 
L 474 0 
z
" transform="scale(0.015625)"/>
       <path id="DejaVuSans-Oblique-3c4" d="M 2103 638 
Q 2188 488 2525 488 
L 2800 488 
L 2706 0 
L 2363 0 
Q 1800 0 1600 300 
Q 1403 606 1534 1269 
L 1856 2925 
L 541 2925 
L 653 3500 
L 3881 3500 
L 3769 2925 
L 2444 2925 
L 2113 1234 
Q 2025 781 2103 638 
z
" transform="scale(0.015625)"/>
      </defs>
      <use xlink:href="#DMSans24pt-Regular-4b" transform="translate(0 0.90625)"/>
      <use xlink:href="#DMSans24pt-Regular-65" transform="translate(58.199997 0.90625)"/>
      <use xlink:href="#DMSans24pt-Regular-6e" transform="translate(115.099991 0.90625)"/>
      <use xlink:href="#DMSans24pt-Regular-64" transform="translate(172.299988 0.90625)"/>
      <use xlink:href="#DMSans24pt-Regular-61" transform="translate(235.199982 0.90625)"/>
      <use xlink:href="#DMSans24pt-Regular-6c" transform="translate(289.399979 0.90625)"/>
      <use xlink:href="#DMSans24pt-Regular-6c" transform="translate(311.599976 0.90625)"/>
      <use xlink:href="#DMSans24pt-Regular-20" transform="translate(333.799973 0.90625)"/>
      <use xlink:href="#DejaVuSans-Oblique-3c4" transform="translate(360.299957 0.90625)"/>
      <use xlink:href="#DMSans24pt-Regular-20" transform="translate(420.505035 0.90625)"/>
      <use xlink:href="#DMSans24pt-Regular-28" transform="translate(447.00502 0.90625)"/>
      <use xlink:href="#DMSans24pt-Regular-2191" transform="translate(484.205017 0.90625)"/>
      <use xlink:href="#DMSans24pt-Regular-29" transform="translate(569.904999 0.90625)"/>
     </g>
    </g>
   </g>
   <g id="matplotlib.axis_6">
    <g id="ytick_11">
     <g id="line2d_34">
      <g>
       <use xlink:href="#mb742f202f7" x="458.836458" y="26.637576" style="stroke: #000000; stroke-width: 0.8"/>
      </g>
     </g>
    </g>
    <g id="ytick_12">
     <g id="line2d_35">
      <g>
       <use xlink:href="#mb742f202f7" x="458.836458" y="57.008788" style="stroke: #000000; stroke-width: 0.8"/>
      </g>
     </g>
    </g>
    <g id="ytick_13">
     <g id="line2d_36">
      <g>
       <use xlink:href="#mb742f202f7" x="458.836458" y="87.38" style="stroke: #000000; stroke-width: 0.8"/>
      </g>
     </g>
    </g>
    <g id="ytick_14">
     <g id="line2d_37">
      <g>
       <use xlink:href="#mb742f202f7" x="458.836458" y="117.751212" style="stroke: #000000; stroke-width: 0.8"/>
      </g>
     </g>
    </g>
    <g id="ytick_15">
     <g id="line2d_38">
      <g>
       <use xlink:href="#mb742f202f7" x="458.836458" y="148.122424" style="stroke: #000000; stroke-width: 0.8"/>
      </g>
     </g>
    </g>
   </g>
   <g id="line2d_39">
    <path clip-path="url(#p88eea426a4)" style="fill: none; stroke: #424242; stroke-width: 2.25; stroke-linecap: square"/>
   </g>
   <g id="line2d_40">
    <path clip-path="url(#p88eea426a4)" style="fill: none; stroke: #424242; stroke-width: 2.25; stroke-linecap: square"/>
   </g>
   <g id="line2d_41">
    <path clip-path="url(#p88eea426a4)" style="fill: none; stroke: #424242; stroke-width: 2.25; stroke-linecap: square"/>
   </g>
   <g id="line2d_42">
    <path clip-path="url(#p88eea426a4)" style="fill: none; stroke: #424242; stroke-width: 2.25; stroke-linecap: square"/>
   </g>
   <g id="line2d_43">
    <path clip-path="url(#p88eea426a4)" style="fill: none; stroke: #424242; stroke-width: 2.25; stroke-linecap: square"/>
   </g>
   <g id="LineCollection_3">
    <path d="M 526.143834 26.637576 
L 548.836507 26.637576 
" clip-path="url(#p88eea426a4)" style="fill: none; stroke: #000000; stroke-width: 1.5"/>
    <path d="M 548.500539 57.008788 
L 569.884942 57.008788 
" clip-path="url(#p88eea426a4)" style="fill: none; stroke: #000000; stroke-width: 1.5"/>
    <path d="M 554.353091 87.38 
L 572.293146 87.38 
" clip-path="url(#p88eea426a4)" style="fill: none; stroke: #000000; stroke-width: 1.5"/>
    <path d="M 596.830956 117.751212 
L 614.172201 117.751212 
" clip-path="url(#p88eea426a4)" style="fill: none; stroke: #000000; stroke-width: 1.5"/>
    <path d="M 613.271481 148.122424 
L 625.328522 148.122424 
" clip-path="url(#p88eea426a4)" style="fill: none; stroke: #000000; stroke-width: 1.5"/>
   </g>
   <g id="patch_28">
    <path d="M 458.836458 167.56 
L 458.836458 7.2 
" style="fill: none; stroke: #000000; stroke-width: 0.8; stroke-linejoin: miter; stroke-linecap: square"/>
   </g>
   <g id="patch_29">
    <path d="M 633.653125 167.56 
L 633.653125 7.2 
" style="fill: none; stroke: #000000; stroke-width: 0.8; stroke-linejoin: miter; stroke-linecap: square"/>
   </g>
   <g id="patch_30">
    <path d="M 458.836458 167.56 
L 633.653125 167.56 
" style="fill: none; stroke: #000000; stroke-width: 0.8; stroke-linejoin: miter; stroke-linecap: square"/>
   </g>
   <g id="patch_31">
    <path d="M 458.836458 7.2 
L 633.653125 7.2 
" style="fill: none; stroke: #000000; stroke-width: 0.8; stroke-linejoin: miter; stroke-linecap: square"/>
   </g>
  </g>
 </g>
 <defs>
  <clipPath id="p0bd5cf572d">
   <rect x="71.853125" y="7.2" width="174.816667" height="160.36"/>
  </clipPath>
  <clipPath id="p9f029d2407">
   <rect x="265.344792" y="7.2" width="174.816667" height="160.36"/>
  </clipPath>
  <clipPath id="p88eea426a4">
   <rect x="458.836458" y="7.2" width="174.816667" height="160.36"/>
  </clipPath>
 </defs>
</svg>
